<?xml version="1.0" encoding="utf-8"?>
<!-- Generator: Adobe Illustrator 23.0.1, SVG Export Plug-In . SVG Version: 6.00 Build 0)  -->
<svg version="1.1" id="Слой_1" xmlns="http://www.w3.org/2000/svg" xmlns:xlink="http://www.w3.org/1999/xlink" x="0px" y="0px"
	 viewBox="0 0 128.22 128.22" style="enable-background:new 0 0 128.22 128.22;" xml:space="preserve">
<style type="text/css">
	
		.st0{fill-rule:evenodd;clip-rule:evenodd;fill:none;stroke:#000003;stroke-width:1.4998;stroke-linecap:round;stroke-linejoin:round;stroke-miterlimit:22.9256;}
	.st1{fill-rule:evenodd;clip-rule:evenodd;fill:none;stroke:#000003;stroke-width:1.4998;stroke-miterlimit:22.9256;}
	.st2{fill-rule:evenodd;clip-rule:evenodd;fill:none;stroke:#616262;stroke-width:0.4997;stroke-miterlimit:22.9256;}
	.st3{fill-rule:evenodd;clip-rule:evenodd;fill:#FFFFFF;}
</style>
<polygon class="st0" points="52.75,60.15 114.31,77.01 77.05,98.6 13.91,71.97 13.98,71.77 "/>
<polygon class="st0" points="13.91,71.97 77.05,98.6 77.07,110.5 76.36,110.56 56.11,101.51 55.38,94.29 52.83,93.23 44.8,96.45 
	36.34,92.66 35.28,85.89 34.4,85.51 26.91,88.44 19.77,85.25 19.42,85.09 19.06,83.64 17.45,84.22 15.2,83.21 "/>
<polygon class="st0" points="114.31,77.01 77.05,98.6 77.07,110.5 77.83,110.4 93.09,100.69 94.08,94.11 102.03,89.32 102.38,94.78 
	112.02,88.64 "/>
<polygon class="st0" points="22.56,86.5 26.91,88.44 34.4,85.51 35.28,85.89 36.34,92.66 44.8,96.45 52.83,93.23 55.38,94.29 
	56.11,101.51 74.81,109.87 74.81,117.68 73.1,117.46 62.47,112.35 61.51,103.92 57.44,102.1 49.58,106.15 42.68,102.83 41.23,94.85 
	40.12,94.35 32.18,97.56 24.04,93.6 "/>
<polygon class="st0" points="104.01,93.74 102.38,94.78 102.03,89.32 94.08,94.11 93.09,100.69 77.83,110.4 77.07,110.5 
	76.36,110.56 74.81,109.87 74.8,117.68 76.51,117.46 85.44,111.54 86.42,106.16 90.45,103.43 94.93,105.24 102.13,100.46 "/>
<polyline class="st1" points="35.28,85.89 26.69,82.29 26.91,88.44 "/>
<polyline class="st1" points="53.46,93.49 44.63,89.8 44.8,96.45 "/>
<line class="st1" x1="102.38" y1="94.78" x2="96.24" y2="92.81"/>
<line class="st1" x1="94.93" y1="105.24" x2="95.8" y2="93.07"/>
<line class="st1" x1="49.58" y1="106.15" x2="49.36" y2="94.62"/>
<line class="st1" x1="32.18" y1="97.56" x2="31.5" y2="86.65"/>
<line class="st1" x1="86.42" y1="106.16" x2="86.68" y2="104.77"/>
<path class="st2" d="M50.76,82.53c0.57,0.22,0.49,0.63-0.19,0.92c-0.69,0.29-1.72,0.34-2.3,0.11l0,0c-2.97-1.18-5.86-2.32-8.66-3.43
	l0,0c-0.53-0.21-0.4-0.59,0.29-0.85c0.69-0.26,1.67-0.3,2.2-0.1C44.89,80.26,47.79,81.38,50.76,82.53L50.76,82.53z M85,70.49
	c0.58,0.16,0.65,0.47,0.15,0.68c-0.49,0.21-1.37,0.25-1.95,0.08c-0.58-0.17-0.63-0.47-0.13-0.68C83.57,70.36,84.43,70.32,85,70.49
	L85,70.49z M88.04,71.35c0.59,0.17,0.68,0.48,0.19,0.69c-0.49,0.22-1.38,0.25-1.97,0.08c-0.59-0.17-0.67-0.48-0.18-0.69
	C86.58,71.22,87.45,71.18,88.04,71.35L88.04,71.35z M82.04,69.65c0.56,0.16,0.62,0.45,0.12,0.66c-0.5,0.21-1.36,0.24-1.92,0.08l0,0
	c-2.91-0.84-5.74-1.66-8.5-2.45l0,0c-0.52-0.15-0.54-0.43-0.03-0.62c0.5-0.19,1.33-0.22,1.85-0.07
	C76.31,68.03,79.13,68.83,82.04,69.65L82.04,69.65z M77.97,93.05c0.74,0.29,0.8,0.81,0.13,1.17c-0.68,0.37-1.84,0.43-2.58,0.13
	c-0.74-0.29-0.77-0.82-0.1-1.18C76.1,92.82,77.23,92.76,77.97,93.05L77.97,93.05z M74.18,91.58c0.71,0.28,0.77,0.79,0.09,1.14
	c-0.68,0.35-1.83,0.41-2.55,0.12c-0.71-0.28-0.73-0.79-0.05-1.14C72.35,91.36,73.47,91.31,74.18,91.58L74.18,91.58z M70.52,90.17
	c0.69,0.27,0.71,0.76,0.03,1.1c-0.68,0.34-1.8,0.4-2.5,0.12c-0.7-0.28-0.69-0.77,0-1.11C68.74,89.96,69.83,89.9,70.52,90.17
	L70.52,90.17z M66.98,88.8c0.67,0.26,0.66,0.74-0.02,1.07c-0.68,0.33-1.79,0.39-2.46,0.12c-0.67-0.26-0.66-0.75,0.03-1.07
	C65.22,88.59,66.31,88.54,66.98,88.8L66.98,88.8z M63.53,87.47c0.65,0.25,0.63,0.72-0.05,1.04c-0.69,0.32-1.78,0.38-2.43,0.12
	c-0.65-0.26-0.61-0.72,0.08-1.04C61.81,87.27,62.88,87.21,63.53,87.47L63.53,87.47z M60.19,86.18c0.63,0.24,0.6,0.69-0.08,1.01
	c-0.69,0.31-1.77,0.37-2.4,0.11c-0.63-0.25-0.58-0.7,0.11-1.01C58.51,85.98,59.55,85.93,60.19,86.18L60.19,86.18z M56.96,84.92
	c0.61,0.24,0.56,0.67-0.12,0.98c-0.69,0.31-1.75,0.36-2.36,0.11c-0.61-0.24-0.55-0.68,0.14-0.98
	C55.29,84.74,56.35,84.69,56.96,84.92L56.96,84.92z M53.81,83.71c0.59,0.23,0.53,0.66-0.16,0.95c-0.69,0.3-1.74,0.34-2.33,0.11
	c-0.59-0.24-0.51-0.66,0.18-0.95C52.19,83.53,53.22,83.48,53.81,83.71L53.81,83.71z M39.36,78.12c0.52,0.2,0.39,0.57-0.3,0.83
	c-0.69,0.26-1.67,0.3-2.19,0.1c-0.51-0.2-0.37-0.57,0.32-0.83C37.88,77.97,38.85,77.92,39.36,78.12L39.36,78.12z M36.71,77.1
	c0.5,0.19,0.37,0.56-0.32,0.81c-0.69,0.25-1.66,0.29-2.16,0.09c-0.5-0.2-0.34-0.56,0.34-0.8C35.25,76.94,36.2,76.9,36.71,77.1
	L36.71,77.1z M34.12,76.1c0.49,0.19,0.34,0.54-0.35,0.78c-0.69,0.24-1.65,0.28-2.14,0.09c-0.49-0.19-0.33-0.55,0.36-0.79
	C32.69,75.95,33.63,75.91,34.12,76.1L34.12,76.1z M31.6,75.12c0.48,0.18,0.32,0.53-0.36,0.76c-0.68,0.24-1.63,0.28-2.11,0.09
	c-0.48-0.19-0.29-0.53,0.39-0.76C30.2,74.98,31.12,74.94,31.6,75.12L31.6,75.12z M29.15,74.17c0.46,0.18,0.29,0.51-0.39,0.74
	c-0.68,0.23-1.61,0.27-2.08,0.09c-0.46-0.18-0.28-0.52,0.4-0.74C27.76,74.03,28.68,73.99,29.15,74.17L29.15,74.17z M26.76,73.25
	c0.45,0.17,0.28,0.5-0.41,0.73c-0.68,0.23-1.61,0.26-2.07,0.08c-0.45-0.18-0.26-0.5,0.43-0.72C25.39,73.11,26.3,73.07,26.76,73.25
	L26.76,73.25z M24.43,72.35c0.44,0.17,0.26,0.49-0.42,0.71c-0.68,0.22-1.59,0.26-2.04,0.08c-0.44-0.18-0.24-0.49,0.44-0.71
	C23.09,72.21,23.99,72.18,24.43,72.35L24.43,72.35z M22.15,71.47c0.43,0.17,0.24,0.47-0.45,0.69c-0.68,0.22-1.58,0.25-2.01,0.08
	c-0.43-0.17-0.22-0.48,0.46-0.69C20.84,71.34,21.72,71.3,22.15,71.47L22.15,71.47z M81.51,91.15c0.74,0.27,0.82,0.78,0.17,1.13
	c-0.65,0.35-1.79,0.41-2.53,0.13c-0.74-0.28-0.79-0.79-0.14-1.13C79.67,90.93,80.77,90.88,81.51,91.15L81.51,91.15z M77.74,89.75
	c0.71,0.27,0.78,0.76,0.13,1.1s-1.78,0.4-2.49,0.12c-0.71-0.27-0.74-0.76-0.09-1.1C75.94,89.54,77.03,89.48,77.74,89.75L77.74,89.75
	z M84.92,89.33c0.73,0.26,0.83,0.75,0.21,1.09c-0.62,0.34-1.74,0.4-2.47,0.13c-0.73-0.27-0.8-0.76-0.17-1.09
	C83.1,89.13,84.19,89.07,84.92,89.33L84.92,89.33z M81.16,87.98c0.71,0.25,0.79,0.73,0.16,1.06c-0.63,0.33-1.73,0.38-2.44,0.12
	c-0.71-0.26-0.75-0.74-0.13-1.06C79.39,87.78,80.46,87.73,81.16,87.98L81.16,87.98z M74.09,88.39c0.69,0.26,0.73,0.73,0.08,1.06
	c-0.66,0.33-1.76,0.39-2.45,0.12c-0.69-0.26-0.71-0.74-0.05-1.07C72.34,88.18,73.4,88.13,74.09,88.39L74.09,88.39z M70.56,87.07
	c0.66,0.25,0.69,0.71,0.03,1.03c-0.66,0.32-1.75,0.38-2.41,0.12c-0.67-0.25-0.67-0.72-0.01-1.04C68.83,86.87,69.9,86.82,70.56,87.07
	L70.56,87.07z M77.54,86.68c0.69,0.25,0.74,0.71,0.11,1.02c-0.63,0.32-1.71,0.37-2.4,0.12c-0.69-0.25-0.72-0.71-0.09-1.03
	C75.8,86.48,76.85,86.43,77.54,86.68L77.54,86.68z M74.02,85.41c0.66,0.24,0.69,0.68,0.06,0.99c-0.63,0.31-1.7,0.36-2.36,0.12
	c-0.67-0.25-0.68-0.7-0.05-1C72.3,85.22,73.35,85.17,74.02,85.41L74.02,85.41z M67.12,85.79c0.65,0.24,0.66,0.69-0.01,1
	c-0.66,0.31-1.74,0.36-2.39,0.12c-0.65-0.25-0.62-0.7,0.04-1C65.44,85.6,66.47,85.55,67.12,85.79L67.12,85.79z M63.79,84.55
	c0.63,0.24,0.62,0.67-0.04,0.97c-0.66,0.3-1.73,0.35-2.36,0.11c-0.63-0.24-0.59-0.68,0.08-0.97C62.14,84.36,63.16,84.31,63.79,84.55
	L63.79,84.55z M70.59,84.17c0.65,0.23,0.67,0.66,0.03,0.96c-0.63,0.3-1.69,0.35-2.34,0.11c-0.65-0.24-0.64-0.67,0-0.97
	C68.92,83.99,69.94,83.94,70.59,84.17L70.59,84.17z M67.27,82.98c0.63,0.23,0.64,0.65,0,0.94c-0.64,0.29-1.68,0.34-2.31,0.11
	c-0.63-0.23-0.6-0.65,0.03-0.94C65.63,82.8,66.64,82.75,67.27,82.98L67.27,82.98z M60.56,83.34c0.61,0.23,0.58,0.65-0.08,0.94
	c-0.66,0.29-1.7,0.34-2.31,0.11c-0.61-0.23-0.56-0.66,0.1-0.95C58.93,83.16,59.95,83.11,60.56,83.34L60.56,83.34z M57.42,82.17
	c0.59,0.22,0.55,0.63-0.11,0.92c-0.66,0.29-1.7,0.33-2.29,0.11c-0.59-0.23-0.52-0.64,0.15-0.92C55.83,82,56.83,81.95,57.42,82.17
	L57.42,82.17z M64.05,81.81c0.61,0.22,0.59,0.63-0.05,0.91c-0.64,0.28-1.66,0.33-2.27,0.11c-0.61-0.22-0.58-0.64,0.06-0.91
	C62.43,81.64,63.44,81.6,64.05,81.81L64.05,81.81z M60.91,80.68c0.59,0.21,0.56,0.61-0.08,0.88c-0.64,0.27-1.65,0.32-2.25,0.1
	c-0.59-0.22-0.54-0.62,0.1-0.89C59.33,80.52,60.32,80.47,60.91,80.68L60.91,80.68z M54.37,81.03c0.58,0.21,0.52,0.61-0.15,0.89
	c-0.67,0.28-1.68,0.33-2.26,0.11c-0.58-0.22-0.49-0.62,0.17-0.89C52.8,80.86,53.79,80.82,54.37,81.03L54.37,81.03z M51.4,79.92
	c0.56,0.21,0.5,0.6-0.17,0.87c-0.67,0.27-1.68,0.32-2.24,0.1c-0.56-0.21-0.46-0.6,0.21-0.87C49.87,79.76,50.84,79.71,51.4,79.92
	L51.4,79.92z M57.87,79.59c0.57,0.21,0.53,0.59-0.11,0.86c-0.64,0.27-1.64,0.32-2.21,0.1c-0.57-0.21-0.51-0.6,0.13-0.86
	C56.31,79.42,57.29,79.38,57.87,79.59L57.87,79.59z M54.9,78.52c0.56,0.2,0.51,0.58-0.13,0.84c-0.64,0.26-1.64,0.3-2.2,0.1
	c-0.56-0.21-0.48-0.58,0.16-0.84C53.38,78.36,54.34,78.31,54.9,78.52L54.9,78.52z M48.52,78.85c0.55,0.2,0.46,0.58-0.2,0.84
	c-0.66,0.26-1.66,0.31-2.21,0.1c-0.55-0.21-0.44-0.59,0.23-0.85C47.01,78.68,47.97,78.64,48.52,78.85L48.52,78.85z M45.71,77.8
	c0.53,0.2,0.44,0.56-0.23,0.82c-0.67,0.26-1.65,0.3-2.18,0.1c-0.53-0.2-0.41-0.57,0.25-0.82C44.23,77.64,45.19,77.6,45.71,77.8
	L45.71,77.8z M52.02,77.48c0.55,0.2,0.48,0.56-0.17,0.81c-0.64,0.25-1.61,0.3-2.16,0.1c-0.55-0.2-0.46-0.57,0.19-0.82
	C50.52,77.32,51.47,77.28,52.02,77.48L52.02,77.48z M49.22,76.47c0.53,0.19,0.45,0.54-0.2,0.79c-0.64,0.25-1.61,0.29-2.14,0.1
	c-0.53-0.19-0.42-0.55,0.22-0.8C47.74,76.32,48.69,76.28,49.22,76.47L49.22,76.47z M42.98,76.78c0.52,0.19,0.41,0.55-0.26,0.8
	s-1.64,0.29-2.15,0.09c-0.52-0.2-0.38-0.56,0.28-0.8C41.52,76.63,42.47,76.59,42.98,76.78L42.98,76.78z M40.32,75.79
	c0.51,0.19,0.39,0.54-0.27,0.78c-0.66,0.24-1.63,0.28-2.13,0.09c-0.5-0.19-0.36-0.54,0.31-0.78C38.88,75.64,39.81,75.6,40.32,75.79
	L40.32,75.79z M46.48,75.48c0.51,0.19,0.42,0.53-0.22,0.77c-0.64,0.24-1.59,0.28-2.11,0.09c-0.51-0.19-0.4-0.54,0.24-0.77
	C45.04,75.34,45.97,75.3,46.48,75.48L46.48,75.48z M43.82,74.52c0.5,0.18,0.4,0.52-0.25,0.75c-0.64,0.23-1.58,0.28-2.09,0.09
	c-0.51-0.19-0.38-0.53,0.26-0.76C42.4,74.38,43.32,74.34,43.82,74.52L43.82,74.52z M37.74,74.82c0.49,0.18,0.36,0.52-0.3,0.76
	c-0.67,0.24-1.61,0.28-2.1,0.09c-0.49-0.19-0.35-0.53,0.32-0.76C36.32,74.68,37.25,74.64,37.74,74.82L37.74,74.82z M35.21,73.88
	c0.48,0.18,0.34,0.51-0.32,0.74c-0.66,0.23-1.6,0.27-2.08,0.09c-0.48-0.18-0.31-0.51,0.36-0.74C33.82,73.74,34.73,73.7,35.21,73.88
	L35.21,73.88z M41.23,73.59c0.49,0.18,0.37,0.5-0.27,0.73c-0.64,0.23-1.57,0.27-2.06,0.09c-0.49-0.18-0.36-0.51,0.28-0.74
	C39.83,73.45,40.74,73.41,41.23,73.59L41.23,73.59z M38.7,72.68c0.48,0.17,0.36,0.49-0.28,0.71c-0.64,0.22-1.56,0.26-2.04,0.09
	c-0.48-0.18-0.34-0.5,0.31-0.72C37.32,72.54,38.22,72.5,38.7,72.68L38.7,72.68z M32.75,72.96c0.46,0.17,0.32,0.5-0.35,0.72
	c-0.66,0.22-1.58,0.26-2.05,0.09c-0.46-0.18-0.29-0.5,0.37-0.72C31.38,72.83,32.28,72.79,32.75,72.96L32.75,72.96z M30.35,72.07
	c0.45,0.17,0.3,0.49-0.36,0.7c-0.66,0.22-1.58,0.25-2.04,0.08c-0.45-0.17-0.28-0.49,0.39-0.7C29,71.93,29.89,71.9,30.35,72.07
	L30.35,72.07z M36.24,71.79c0.47,0.17,0.33,0.48-0.31,0.69c-0.64,0.22-1.55,0.26-2.01,0.09c-0.46-0.17-0.32-0.49,0.33-0.7
	C34.88,71.66,35.77,71.62,36.24,71.79L36.24,71.79z M33.83,70.92c0.46,0.16,0.32,0.47-0.32,0.68c-0.64,0.21-1.54,0.25-2,0.08
	c-0.45-0.17-0.29-0.47,0.35-0.68C32.5,70.79,33.37,70.76,33.83,70.92L33.83,70.92z M28.01,71.19c0.45,0.17,0.28,0.47-0.38,0.68
	c-0.66,0.21-1.56,0.25-2,0.08c-0.44-0.17-0.26-0.48,0.4-0.69C26.68,71.06,27.56,71.03,28.01,71.19L28.01,71.19z M25.73,70.34
	c0.43,0.16,0.26,0.46-0.4,0.67c-0.66,0.21-1.55,0.24-1.98,0.08c-0.43-0.16-0.24-0.46,0.42-0.67C24.43,70.22,25.3,70.18,25.73,70.34
	L25.73,70.34z M31.49,70.08c0.45,0.16,0.29,0.46-0.34,0.66c-0.64,0.21-1.52,0.24-1.97,0.08c-0.45-0.16-0.27-0.46,0.36-0.67
	C30.17,69.95,31.04,69.92,31.49,70.08L31.49,70.08z M29.2,69.25c0.43,0.16,0.27,0.44-0.37,0.65c-0.64,0.2-1.52,0.24-1.95,0.08
	c-0.43-0.16-0.25-0.45,0.39-0.65C27.91,69.13,28.77,69.1,29.2,69.25L29.2,69.25z M88.19,87.59c0.73,0.25,0.84,0.72,0.24,1.04
	c-0.6,0.32-1.69,0.38-2.42,0.12c-0.73-0.26-0.82-0.73-0.22-1.05C86.39,87.39,87.46,87.33,88.19,87.59L88.19,87.59z M84.45,86.29
	c0.7,0.25,0.8,0.7,0.2,1.02c-0.6,0.31-1.69,0.37-2.39,0.11c-0.71-0.25-0.77-0.71-0.16-1.02C82.71,86.09,83.75,86.04,84.45,86.29
	L84.45,86.29z M91.33,85.9c0.72,0.24,0.86,0.69,0.28,1.01c-0.58,0.31-1.65,0.36-2.37,0.11c-0.72-0.25-0.83-0.7-0.25-1.01
	C89.57,85.71,90.61,85.66,91.33,85.9L91.33,85.9z M87.63,84.65c0.7,0.24,0.81,0.68,0.23,0.98c-0.58,0.3-1.64,0.35-2.34,0.11
	c-0.7-0.24-0.78-0.68-0.2-0.97C85.9,84.47,86.93,84.42,87.63,84.65L87.63,84.65z M80.85,85.03c0.69,0.24,0.75,0.68,0.15,0.98
	c-0.6,0.31-1.66,0.36-2.35,0.11c-0.69-0.25-0.74-0.69-0.13-0.99C79.12,84.84,80.16,84.79,80.85,85.03L80.85,85.03z M77.34,83.81
	c0.66,0.23,0.71,0.66,0.1,0.95c-0.61,0.3-1.66,0.35-2.32,0.11c-0.66-0.24-0.7-0.67-0.08-0.96C75.65,83.62,76.68,83.58,77.34,83.81
	L77.34,83.81z M84.03,83.44c0.68,0.23,0.77,0.65,0.18,0.95c-0.59,0.29-1.62,0.34-2.3,0.11c-0.68-0.24-0.76-0.66-0.17-0.95
	C82.34,83.26,83.35,83.21,84.03,83.44L84.03,83.44z M80.55,82.26c0.66,0.22,0.72,0.63,0.13,0.92c-0.59,0.29-1.61,0.33-2.27,0.11
	c-0.66-0.23-0.72-0.64-0.12-0.92C78.88,82.09,79.89,82.04,80.55,82.26L80.55,82.26z M73.93,82.62c0.65,0.22,0.68,0.64,0.07,0.93
	c-0.61,0.29-1.65,0.34-2.29,0.11c-0.64-0.23-0.65-0.65-0.04-0.93C72.28,82.44,73.28,82.39,73.93,82.62L73.93,82.62z M70.62,81.46
	c0.63,0.22,0.65,0.62,0.03,0.9c-0.62,0.28-1.64,0.33-2.27,0.1c-0.63-0.22-0.62-0.63,0-0.9C69,81.29,69.99,81.24,70.62,81.46
	L70.62,81.46z M77.15,81.12c0.64,0.22,0.69,0.62,0.1,0.9c-0.59,0.28-1.6,0.32-2.24,0.1c-0.64-0.22-0.67-0.62-0.08-0.89
	C75.52,80.95,76.51,80.9,77.15,81.12L77.15,81.12z M73.86,80c0.63,0.21,0.66,0.6,0.06,0.87c-0.6,0.27-1.59,0.32-2.22,0.1
	c-0.63-0.22-0.64-0.61-0.04-0.87C72.26,79.84,73.23,79.79,73.86,80L73.86,80z M67.41,80.34c0.61,0.21,0.61,0.61-0.01,0.88
	s-1.62,0.32-2.23,0.1c-0.61-0.22-0.6-0.61,0.02-0.88C65.81,80.18,66.8,80.13,67.41,80.34L67.41,80.34z M64.28,79.25
	c0.59,0.21,0.58,0.59-0.04,0.85c-0.62,0.27-1.62,0.31-2.21,0.1c-0.59-0.21-0.55-0.59,0.07-0.85S63.69,79.05,64.28,79.25L64.28,79.25
	z M70.65,78.93c0.6,0.2,0.63,0.58,0.03,0.85c-0.6,0.26-1.58,0.31-2.18,0.1c-0.61-0.21-0.62-0.59-0.02-0.85
	C69.08,78.76,70.05,78.72,70.65,78.93L70.65,78.93z M67.54,77.87c0.59,0.2,0.59,0.57-0.01,0.82c-0.6,0.26-1.57,0.3-2.16,0.09
	c-0.59-0.2-0.58-0.57,0.02-0.82S66.95,77.67,67.54,77.87L67.54,77.87z M61.24,78.19c0.57,0.2,0.54,0.57-0.08,0.83
	c-0.62,0.26-1.59,0.31-2.17,0.1c-0.58-0.2-0.53-0.58,0.09-0.83C59.7,78.04,60.67,77.99,61.24,78.19L61.24,78.19z M58.28,77.16
	c0.56,0.19,0.53,0.56-0.09,0.81c-0.62,0.25-1.6,0.29-2.16,0.09c-0.56-0.2-0.49-0.56,0.13-0.81C56.78,77.01,57.72,76.97,58.28,77.16
	L58.28,77.16z M64.5,76.85c0.57,0.19,0.56,0.55-0.04,0.8c-0.6,0.25-1.56,0.29-2.13,0.1c-0.57-0.2-0.55-0.56,0.06-0.8
	C62.99,76.69,63.93,76.65,64.5,76.85L64.5,76.85z M61.55,75.85c0.56,0.19,0.54,0.54-0.06,0.78c-0.6,0.24-1.56,0.28-2.12,0.09
	c-0.56-0.19-0.52-0.54,0.09-0.78C60.06,75.7,60.99,75.66,61.55,75.85L61.55,75.85z M55.4,76.16c0.55,0.19,0.49,0.54-0.13,0.79
	c-0.62,0.24-1.58,0.29-2.12,0.09c-0.55-0.19-0.47-0.55,0.15-0.79C53.91,76.01,54.85,75.97,55.4,76.16L55.4,76.16z M52.6,75.18
	c0.53,0.18,0.46,0.53-0.16,0.76c-0.62,0.24-1.57,0.28-2.1,0.09c-0.53-0.19-0.45-0.53,0.17-0.77C51.14,75.04,52.07,75,52.6,75.18
	L52.6,75.18z M58.68,74.88c0.54,0.18,0.51,0.52-0.1,0.76c-0.6,0.24-1.54,0.28-2.08,0.09c-0.55-0.19-0.49-0.53,0.11-0.76
	C57.21,74.74,58.14,74.7,58.68,74.88L58.68,74.88z M55.87,73.94c0.53,0.18,0.48,0.51-0.12,0.74c-0.6,0.23-1.53,0.27-2.06,0.09
	c-0.53-0.18-0.47-0.52,0.14-0.74C54.44,73.79,55.35,73.76,55.87,73.94L55.87,73.94z M49.87,74.23c0.52,0.18,0.44,0.52-0.18,0.75
	c-0.62,0.23-1.56,0.27-2.08,0.09c-0.51-0.18-0.42-0.52,0.2-0.75C48.44,74.09,49.35,74.05,49.87,74.23L49.87,74.23z M47.21,73.3
	c0.5,0.18,0.42,0.5-0.21,0.73c-0.62,0.23-1.55,0.27-2.05,0.09c-0.51-0.18-0.39-0.51,0.23-0.73C45.8,73.16,46.7,73.12,47.21,73.3
	L47.21,73.3z M53.14,73.01c0.52,0.17,0.46,0.5-0.15,0.72c-0.61,0.23-1.52,0.26-2.03,0.08c-0.52-0.18-0.44-0.5,0.17-0.72
	C51.74,72.88,52.63,72.84,53.14,73.01L53.14,73.01z M50.48,72.12c0.5,0.17,0.44,0.49-0.17,0.71s-1.51,0.26-2.01,0.08
	c-0.51-0.17-0.42-0.49,0.19-0.71C49.09,71.98,49.98,71.94,50.48,72.12L50.48,72.12z M44.61,72.4c0.49,0.17,0.39,0.49-0.23,0.71
	c-0.62,0.22-1.54,0.26-2.03,0.09c-0.49-0.18-0.38-0.5,0.25-0.71C43.23,72.26,44.12,72.23,44.61,72.4L44.61,72.4z M42.08,71.51
	c0.48,0.17,0.37,0.48-0.25,0.69c-0.62,0.22-1.53,0.25-2.01,0.08s-0.35-0.48,0.27-0.69C40.72,71.38,41.6,71.35,42.08,71.51
	L42.08,71.51z M47.9,71.24c0.49,0.17,0.4,0.47-0.2,0.69s-1.5,0.25-1.99,0.08c-0.49-0.17-0.4-0.48,0.21-0.69
	C46.52,71.11,47.4,71.08,47.9,71.24L47.9,71.24z M45.36,70.39c0.48,0.16,0.39,0.46-0.22,0.67c-0.6,0.21-1.49,0.25-1.97,0.08
	c-0.48-0.17-0.37-0.46,0.24-0.67C44.01,70.26,44.88,70.22,45.36,70.39L45.36,70.39z M39.61,70.65c0.46,0.16,0.35,0.46-0.27,0.67
	c-0.62,0.21-1.51,0.25-1.98,0.08c-0.47-0.17-0.33-0.47,0.29-0.68C38.28,70.53,39.15,70.49,39.61,70.65L39.61,70.65z M37.21,69.81
	c0.46,0.16,0.33,0.46-0.29,0.66c-0.62,0.21-1.51,0.24-1.97,0.08c-0.46-0.16-0.3-0.46,0.32-0.66C35.89,69.69,36.75,69.65,37.21,69.81
	L37.21,69.81z M42.89,69.55c0.47,0.16,0.36,0.45-0.24,0.65c-0.6,0.2-1.47,0.24-1.94,0.08c-0.47-0.16-0.35-0.46,0.25-0.66
	C41.56,69.43,42.43,69.39,42.89,69.55L42.89,69.55z M40.48,68.74c0.46,0.15,0.35,0.44-0.26,0.64c-0.6,0.2-1.47,0.23-1.93,0.07
	c-0.46-0.16-0.33-0.44,0.27-0.64C39.18,68.62,40.03,68.58,40.48,68.74L40.48,68.74z M34.86,69c0.45,0.16,0.31,0.44-0.31,0.64
	c-0.62,0.2-1.49,0.24-1.94,0.08c-0.44-0.16-0.29-0.45,0.33-0.65C33.56,68.87,34.42,68.84,34.86,69L34.86,69z M32.57,68.2
	c0.43,0.15,0.29,0.43-0.33,0.63c-0.62,0.2-1.48,0.23-1.91,0.08c-0.43-0.15-0.27-0.44,0.35-0.63C31.29,68.08,32.13,68.04,32.57,68.2
	L32.57,68.2z M38.13,67.95c0.45,0.15,0.32,0.43-0.28,0.62c-0.6,0.2-1.45,0.23-1.9,0.08c-0.45-0.15-0.31-0.43,0.29-0.63
	C36.84,67.83,37.69,67.79,38.13,67.95L38.13,67.95z M35.84,67.17c0.43,0.15,0.3,0.42-0.3,0.61c-0.6,0.19-1.45,0.23-1.88,0.08
	c-0.43-0.15-0.29-0.42,0.31-0.61C34.57,67.05,35.4,67.02,35.84,67.17L35.84,67.17z M94.37,84.28c0.72,0.24,0.87,0.66,0.31,0.96
	c-0.56,0.3-1.6,0.35-2.33,0.11c-0.72-0.24-0.84-0.68-0.28-0.97C92.63,84.09,93.65,84.05,94.37,84.28L94.37,84.28z M90.68,83.08
	c0.7,0.23,0.83,0.65,0.27,0.94c-0.56,0.29-1.6,0.34-2.3,0.11c-0.7-0.23-0.8-0.66-0.23-0.94C88.99,82.9,89.99,82.85,90.68,83.08
	L90.68,83.08z M97.29,82.72c0.72,0.23,0.87,0.64,0.34,0.93c-0.54,0.29-1.56,0.34-2.28,0.11c-0.72-0.23-0.85-0.65-0.31-0.93
	C95.58,82.54,96.58,82.5,97.29,82.72L97.29,82.72z M93.63,81.56c0.69,0.22,0.83,0.63,0.29,0.91c-0.54,0.28-1.56,0.33-2.25,0.1
	c-0.69-0.22-0.8-0.63-0.26-0.91C91.96,81.39,92.94,81.34,93.63,81.56L93.63,81.56z M87.12,81.91c0.68,0.22,0.78,0.63,0.21,0.91
	c-0.57,0.28-1.58,0.33-2.26,0.11c-0.68-0.23-0.76-0.64-0.19-0.92C85.44,81.73,86.44,81.69,87.12,81.91L87.12,81.91z M83.65,80.78
	c0.65,0.21,0.73,0.61,0.16,0.88c-0.57,0.28-1.57,0.32-2.23,0.1c-0.66-0.22-0.72-0.62-0.15-0.89C82.01,80.6,82.99,80.56,83.65,80.78
	L83.65,80.78z M90.09,80.44c0.68,0.21,0.79,0.61,0.24,0.88c-0.55,0.27-1.54,0.32-2.22,0.1c-0.67-0.22-0.78-0.61-0.23-0.88
	C88.44,80.26,89.41,80.22,90.09,80.44L90.09,80.44z M86.64,79.34c0.65,0.21,0.74,0.59,0.19,0.85c-0.55,0.27-1.54,0.31-2.19,0.1
	c-0.65-0.21-0.73-0.6-0.18-0.86C85.01,79.17,85.99,79.13,86.64,79.34L86.64,79.34z M80.27,79.67c0.64,0.21,0.7,0.59,0.13,0.86
	c-0.57,0.27-1.56,0.31-2.21,0.1c-0.64-0.21-0.68-0.6-0.11-0.86C78.66,79.5,79.63,79.46,80.27,79.67L80.27,79.67z M76.98,78.6
	c0.62,0.2,0.68,0.58,0.1,0.84c-0.58,0.26-1.56,0.31-2.18,0.1c-0.62-0.21-0.65-0.58-0.07-0.84C75.4,78.44,76.36,78.39,76.98,78.6
	L76.98,78.6z M83.28,78.27c0.64,0.2,0.71,0.57,0.16,0.83c-0.55,0.26-1.53,0.3-2.17,0.1c-0.64-0.21-0.69-0.58-0.13-0.83
	C81.69,78.11,82.64,78.07,83.28,78.27L83.28,78.27z M80,77.24c0.62,0.2,0.69,0.56,0.13,0.81c-0.56,0.25-1.52,0.3-2.14,0.09
	c-0.62-0.2-0.66-0.57-0.1-0.81C78.45,77.08,79.39,77.04,80,77.24L80,77.24z M73.79,77.56c0.6,0.2,0.64,0.56,0.06,0.81
	c-0.58,0.25-1.54,0.3-2.15,0.1c-0.6-0.2-0.63-0.57-0.05-0.82C72.24,77.4,73.19,77.36,73.79,77.56L73.79,77.56z M70.68,76.54
	c0.59,0.19,0.61,0.55,0.03,0.8c-0.58,0.25-1.54,0.29-2.13,0.09c-0.59-0.2-0.58-0.55,0-0.8C69.17,76.39,70.1,76.35,70.68,76.54
	L70.68,76.54z M76.83,76.23c0.6,0.19,0.65,0.54,0.09,0.79c-0.56,0.25-1.51,0.29-2.11,0.09c-0.6-0.19-0.63-0.55-0.07-0.79
	C75.29,76.08,76.23,76.04,76.83,76.23L76.83,76.23z M73.74,75.25c0.58,0.19,0.61,0.53,0.05,0.77c-0.56,0.24-1.5,0.28-2.08,0.09
	c-0.59-0.19-0.59-0.53-0.03-0.77C72.23,75.1,73.15,75.06,73.74,75.25L73.74,75.25z M67.66,75.55c0.57,0.19,0.57,0.53-0.01,0.77
	c-0.58,0.24-1.52,0.28-2.09,0.09c-0.57-0.19-0.56-0.54,0.03-0.78C66.17,75.4,67.09,75.36,67.66,75.55L67.66,75.55z M64.72,74.58
	c0.55,0.18,0.55,0.52-0.03,0.75c-0.58,0.24-1.52,0.27-2.07,0.09c-0.56-0.19-0.53-0.53,0.06-0.76C63.25,74.44,64.16,74.4,64.72,74.58
	L64.72,74.58z M70.72,74.29c0.57,0.18,0.58,0.51,0.02,0.75c-0.56,0.23-1.49,0.28-2.06,0.09c-0.57-0.18-0.57-0.52-0.01-0.75
	C69.24,74.15,70.15,74.11,70.72,74.29L70.72,74.29z M67.78,73.36c0.56,0.18,0.57,0.51,0,0.73c-0.56,0.23-1.49,0.26-2.04,0.08
	c-0.56-0.18-0.54-0.51,0.03-0.73C66.33,73.22,67.22,73.18,67.78,73.36L67.78,73.36z M61.85,73.65c0.55,0.18,0.52,0.51-0.06,0.73
	c-0.58,0.23-1.5,0.27-2.05,0.09c-0.55-0.18-0.5-0.51,0.08-0.74C60.4,73.5,61.3,73.47,61.85,73.65L61.85,73.65z M59.05,72.73
	c0.53,0.17,0.5,0.49-0.09,0.72c-0.59,0.22-1.5,0.26-2.02,0.09c-0.53-0.18-0.48-0.5,0.11-0.72C57.63,72.59,58.52,72.56,59.05,72.73
	L59.05,72.73z M64.92,72.45c0.54,0.17,0.54,0.49-0.03,0.71c-0.57,0.22-1.47,0.26-2.02,0.09c-0.55-0.18-0.51-0.5,0.05-0.72
	C63.49,72.31,64.38,72.28,64.92,72.45L64.92,72.45z M62.13,71.56c0.53,0.17,0.51,0.48-0.06,0.69c-0.57,0.22-1.47,0.25-1.99,0.08
	c-0.53-0.17-0.49-0.48,0.08-0.7C60.72,71.43,61.61,71.4,62.13,71.56L62.13,71.56z M56.32,71.84c0.51,0.17,0.48,0.48-0.11,0.7
	c-0.58,0.22-1.49,0.25-2.01,0.08c-0.52-0.17-0.45-0.49,0.14-0.7C54.93,71.71,55.81,71.67,56.32,71.84L56.32,71.84z M53.67,70.97
	c0.51,0.17,0.45,0.47-0.14,0.68c-0.59,0.21-1.48,0.25-1.98,0.08c-0.5-0.17-0.43-0.47,0.16-0.68C52.29,70.84,53.16,70.8,53.67,70.97
	L53.67,70.97z M59.41,70.7c0.51,0.16,0.49,0.47-0.08,0.68c-0.57,0.21-1.46,0.25-1.97,0.08c-0.51-0.17-0.46-0.47,0.11-0.68
	C58.03,70.57,58.89,70.54,59.41,70.7L59.41,70.7z M56.75,69.86c0.5,0.16,0.46,0.46-0.11,0.66c-0.57,0.21-1.45,0.24-1.95,0.08
	c-0.5-0.16-0.44-0.46,0.13-0.66C55.39,69.73,56.25,69.7,56.75,69.86L56.75,69.86z M51.08,70.12c0.49,0.16,0.43,0.46-0.16,0.66
	c-0.59,0.21-1.47,0.24-1.96,0.08c-0.49-0.16-0.41-0.46,0.18-0.67C49.72,69.99,50.59,69.96,51.08,70.12L51.08,70.12z M48.54,69.29
	c0.48,0.16,0.41,0.45-0.18,0.65c-0.59,0.2-1.46,0.24-1.94,0.08c-0.48-0.16-0.38-0.45,0.2-0.65C47.21,69.17,48.06,69.14,48.54,69.29
	L48.54,69.29z M54.17,69.04c0.49,0.16,0.43,0.44-0.14,0.65c-0.57,0.2-1.43,0.24-1.92,0.08c-0.49-0.16-0.43-0.45,0.14-0.65
	C52.82,68.91,53.68,68.88,54.17,69.04L54.17,69.04z M51.63,68.23c0.48,0.15,0.42,0.43-0.15,0.63c-0.57,0.2-1.42,0.23-1.91,0.08
	c-0.48-0.16-0.39-0.44,0.17-0.63C50.32,68.11,51.15,68.08,51.63,68.23L51.63,68.23z M46.07,68.49c0.47,0.15,0.39,0.43-0.2,0.63
	c-0.59,0.2-1.45,0.23-1.91,0.08c-0.47-0.16-0.36-0.44,0.22-0.64C44.77,68.36,45.61,68.33,46.07,68.49L46.07,68.49z M43.66,67.7
	c0.46,0.15,0.37,0.43-0.22,0.62c-0.59,0.19-1.44,0.22-1.9,0.07c-0.46-0.15-0.35-0.43,0.24-0.62C42.37,67.58,43.2,67.55,43.66,67.7
	L43.66,67.7z M49.16,67.45c0.47,0.15,0.39,0.42-0.18,0.61c-0.57,0.19-1.41,0.23-1.88,0.08c-0.46-0.15-0.37-0.43,0.19-0.62
	C47.87,67.33,48.7,67.3,49.16,67.45L49.16,67.45z M46.75,66.68c0.46,0.15,0.38,0.41-0.19,0.6c-0.57,0.19-1.41,0.22-1.87,0.07
	c-0.46-0.15-0.35-0.42,0.21-0.6C45.47,66.57,46.3,66.54,46.75,66.68L46.75,66.68z M41.31,66.93c0.45,0.15,0.34,0.42-0.24,0.61
	c-0.58,0.19-1.43,0.22-1.88,0.07c-0.45-0.15-0.33-0.42,0.26-0.61C40.04,66.81,40.86,66.78,41.31,66.93L41.31,66.93z M39.01,66.17
	c0.44,0.14,0.32,0.41-0.26,0.59c-0.58,0.19-1.42,0.22-1.85,0.07c-0.43-0.15-0.3-0.41,0.28-0.59C37.76,66.06,38.57,66.03,39.01,66.17
	L39.01,66.17z M44.4,65.94c0.45,0.14,0.36,0.4-0.21,0.59c-0.57,0.18-1.4,0.22-1.84,0.07c-0.45-0.15-0.35-0.41,0.22-0.59
	C43.13,65.82,43.95,65.79,44.4,65.94L44.4,65.94z M42.09,65.21c0.44,0.14,0.33,0.39-0.24,0.57c-0.57,0.18-1.39,0.21-1.82,0.07
	c-0.44-0.14-0.32-0.4,0.25-0.58C40.85,65.1,41.66,65.07,42.09,65.21L42.09,65.21z M100.11,81.22c0.71,0.22,0.88,0.62,0.36,0.9
	c-0.52,0.28-1.52,0.33-2.23,0.1c-0.71-0.22-0.85-0.63-0.33-0.9C98.43,81.04,99.4,81,100.11,81.22L100.11,81.22z M96.48,80.1
	c0.69,0.21,0.84,0.6,0.32,0.88c-0.52,0.27-1.53,0.31-2.22,0.1c-0.69-0.22-0.8-0.61-0.28-0.87C94.82,79.93,95.8,79.89,96.48,80.1
	L96.48,80.1z M102.83,79.76c0.7,0.21,0.88,0.6,0.38,0.87c-0.5,0.27-1.49,0.32-2.2,0.1c-0.71-0.22-0.86-0.61-0.35-0.87
	C101.17,79.6,102.13,79.55,102.83,79.76L102.83,79.76z M99.23,78.68c0.68,0.2,0.84,0.58,0.34,0.84c-0.5,0.26-1.48,0.31-2.17,0.1
	c-0.68-0.21-0.81-0.59-0.3-0.84C97.6,78.52,98.54,78.48,99.23,78.68L99.23,78.68z M92.96,79.01c0.67,0.21,0.79,0.59,0.27,0.85
	c-0.52,0.26-1.51,0.31-2.18,0.1c-0.67-0.21-0.78-0.59-0.25-0.85C91.32,78.85,92.29,78.81,92.96,79.01L92.96,79.01z M89.53,77.95
	c0.65,0.2,0.75,0.57,0.22,0.83c-0.53,0.26-1.5,0.3-2.14,0.1c-0.65-0.2-0.74-0.58-0.21-0.83C87.92,77.79,88.88,77.75,89.53,77.95
	L89.53,77.95z M95.73,77.64c0.67,0.2,0.79,0.57,0.29,0.82c-0.51,0.26-1.47,0.3-2.14,0.1c-0.67-0.2-0.79-0.57-0.27-0.82
	C94.12,77.48,95.06,77.44,95.73,77.64L95.73,77.64z M92.32,76.62c0.64,0.19,0.76,0.55,0.24,0.8c-0.51,0.25-1.46,0.29-2.11,0.09
	c-0.64-0.2-0.74-0.56-0.23-0.8C90.74,76.46,91.68,76.42,92.32,76.62L92.32,76.62z M86.18,76.92c0.63,0.19,0.72,0.56,0.19,0.81
	c-0.53,0.25-1.49,0.29-2.12,0.09c-0.64-0.2-0.7-0.56-0.16-0.8C84.62,76.77,85.55,76.73,86.18,76.92L86.18,76.92z M82.93,75.92
	c0.62,0.19,0.69,0.54,0.15,0.78c-0.53,0.24-1.48,0.29-2.1,0.09c-0.62-0.19-0.67-0.55-0.13-0.79C81.39,75.77,82.31,75.73,82.93,75.92
	L82.93,75.92z M89,75.62c0.63,0.19,0.73,0.54,0.21,0.78c-0.52,0.24-1.46,0.28-2.09,0.09c-0.63-0.19-0.71-0.54-0.19-0.78
	C87.45,75.47,88.37,75.43,89,75.62L89,75.62z M85.76,74.65c0.61,0.18,0.7,0.52,0.18,0.76c-0.52,0.24-1.45,0.28-2.06,0.09
	c-0.62-0.19-0.68-0.53-0.16-0.76C84.24,74.51,85.14,74.47,85.76,74.65L85.76,74.65z M79.77,74.95c0.6,0.18,0.66,0.53,0.12,0.76
	c-0.54,0.24-1.47,0.28-2.07,0.09c-0.6-0.19-0.64-0.53-0.1-0.77C78.25,74.8,79.17,74.76,79.77,74.95L79.77,74.95z M76.68,74
	c0.58,0.18,0.62,0.51,0.08,0.74c-0.54,0.23-1.47,0.27-2.05,0.09c-0.58-0.18-0.6-0.52-0.06-0.74C75.2,73.86,76.11,73.82,76.68,74
	L76.68,74z M82.61,73.71c0.6,0.18,0.66,0.51,0.14,0.74c-0.52,0.23-1.43,0.27-2.03,0.09c-0.6-0.18-0.66-0.52-0.13-0.74
	C81.11,73.57,82.01,73.53,82.61,73.71L82.61,73.71z M79.55,72.79c0.58,0.17,0.64,0.5,0.11,0.72c-0.53,0.22-1.43,0.26-2.01,0.08
	c-0.58-0.18-0.62-0.5-0.09-0.72C78.08,72.66,78.97,72.62,79.55,72.79L79.55,72.79z M73.68,73.07c0.57,0.18,0.59,0.5,0.05,0.72
	c-0.54,0.23-1.46,0.27-2.02,0.09c-0.57-0.18-0.58-0.51-0.03-0.73C72.22,72.93,73.12,72.9,73.68,73.07L73.68,73.07z M70.75,72.17
	c0.55,0.17,0.58,0.49,0.03,0.71c-0.55,0.22-1.46,0.25-2.01,0.08c-0.55-0.17-0.55-0.49,0-0.71C69.32,72.04,70.2,72,70.75,72.17
	L70.75,72.17z M76.55,71.9c0.57,0.17,0.6,0.48,0.07,0.7c-0.53,0.22-1.42,0.26-1.99,0.08c-0.57-0.17-0.59-0.49-0.06-0.7
	C75.1,71.76,75.99,71.73,76.55,71.9L76.55,71.9z M73.63,71.02c0.55,0.17,0.59,0.47,0.06,0.69c-0.53,0.21-1.42,0.25-1.98,0.08
	c-0.55-0.17-0.56-0.48-0.03-0.69C72.21,70.89,73.08,70.86,73.63,71.02L73.63,71.02z M67.9,71.29c0.54,0.17,0.54,0.48-0.01,0.69
	c-0.55,0.21-1.43,0.25-1.98,0.08c-0.54-0.17-0.53-0.48,0.02-0.69C66.48,71.16,67.36,71.13,67.9,71.29L67.9,71.29z M65.12,70.43
	c0.53,0.16,0.52,0.46-0.03,0.67c-0.55,0.21-1.43,0.25-1.96,0.08c-0.53-0.17-0.5-0.47,0.05-0.67C63.72,70.31,64.59,70.27,65.12,70.43
	L65.12,70.43z M70.79,70.17c0.54,0.16,0.56,0.46,0.02,0.67c-0.53,0.21-1.41,0.25-1.95,0.08c-0.54-0.17-0.54-0.47-0.01-0.67
	C69.39,70.04,70.25,70.01,70.79,70.17L70.79,70.17z M68.01,69.34c0.52,0.16,0.53,0.45-0.01,0.65c-0.53,0.2-1.4,0.24-1.93,0.08
	c-0.52-0.16-0.51-0.45,0.02-0.65C66.63,69.22,67.49,69.18,68.01,69.34L68.01,69.34z M62.4,69.6c0.51,0.16,0.49,0.45-0.06,0.66
	c-0.55,0.2-1.42,0.24-1.94,0.08c-0.52-0.16-0.47-0.46,0.08-0.66C61.03,69.47,61.89,69.44,62.4,69.6L62.4,69.6z M59.74,68.78
	c0.5,0.15,0.48,0.44-0.07,0.64c-0.55,0.2-1.42,0.23-1.92,0.08c-0.5-0.16-0.45-0.45,0.1-0.64C58.4,68.66,59.24,68.62,59.74,68.78
	L59.74,68.78z M65.3,68.53c0.51,0.15,0.51,0.44-0.03,0.64c-0.54,0.2-1.39,0.23-1.91,0.08c-0.51-0.16-0.49-0.44,0.04-0.64
	C63.94,68.41,64.79,68.37,65.3,68.53L65.3,68.53z M62.65,67.74c0.5,0.15,0.48,0.43-0.05,0.62c-0.53,0.19-1.38,0.23-1.89,0.07
	c-0.5-0.15-0.46-0.43,0.08-0.62C61.32,67.62,62.15,67.58,62.65,67.74L62.65,67.74z M57.16,67.98c0.49,0.15,0.44,0.43-0.11,0.63
	c-0.55,0.2-1.4,0.23-1.89,0.08c-0.49-0.15-0.44-0.44,0.12-0.63C55.83,67.86,56.68,67.83,57.16,67.98L57.16,67.98z M54.63,67.2
	c0.48,0.15,0.42,0.42-0.13,0.61c-0.55,0.19-1.4,0.22-1.88,0.07c-0.48-0.15-0.4-0.43,0.15-0.61C53.33,67.09,54.15,67.06,54.63,67.2
	L54.63,67.2z M60.07,66.96c0.49,0.15,0.46,0.42-0.07,0.61s-1.38,0.22-1.87,0.07c-0.49-0.15-0.44-0.42,0.09-0.61
	C58.75,66.85,59.58,66.82,60.07,66.96L60.07,66.96z M57.54,66.21c0.48,0.14,0.44,0.41-0.09,0.59c-0.54,0.19-1.37,0.22-1.85,0.07
	c-0.48-0.15-0.42-0.41,0.12-0.59C56.25,66.09,57.07,66.06,57.54,66.21L57.54,66.21z M52.16,66.44c0.47,0.14,0.4,0.41-0.15,0.6
	c-0.55,0.19-1.38,0.22-1.85,0.07c-0.47-0.15-0.39-0.42,0.16-0.6C50.88,66.33,51.7,66.3,52.16,66.44L52.16,66.44z M49.75,65.7
	c0.46,0.14,0.39,0.4-0.16,0.59c-0.55,0.18-1.39,0.21-1.84,0.07c-0.46-0.14-0.37-0.41,0.18-0.58C48.48,65.59,49.3,65.56,49.75,65.7
	L49.75,65.7z M55.08,65.47c0.47,0.14,0.42,0.4-0.12,0.58c-0.54,0.18-1.36,0.21-1.82,0.07s-0.4-0.4,0.14-0.58
	C53.81,65.36,54.61,65.33,55.08,65.47L55.08,65.47z M52.66,64.74c0.46,0.14,0.41,0.39-0.13,0.57c-0.54,0.18-1.35,0.21-1.81,0.07
	c-0.46-0.14-0.39-0.39,0.15-0.57C51.41,64.64,52.2,64.61,52.66,64.74L52.66,64.74z M47.39,64.97c0.45,0.14,0.37,0.39-0.18,0.57
	c-0.55,0.18-1.36,0.21-1.81,0.07c-0.45-0.14-0.35-0.4,0.19-0.57C46.14,64.87,46.95,64.84,47.39,64.97L47.39,64.97z M45.09,64.26
	c0.43,0.13,0.35,0.38-0.2,0.56c-0.55,0.17-1.36,0.21-1.8,0.07c-0.44-0.14-0.33-0.39,0.22-0.56C43.86,64.16,44.65,64.13,45.09,64.26
	L45.09,64.26z M50.31,64.04c0.45,0.13,0.38,0.38-0.15,0.56c-0.54,0.17-1.34,0.2-1.79,0.07c-0.45-0.14-0.37-0.39,0.17-0.56
	C49.07,63.93,49.86,63.91,50.31,64.04L50.31,64.04z M48,63.35c0.44,0.13,0.36,0.37-0.17,0.54c-0.54,0.17-1.33,0.2-1.77,0.07
	c-0.44-0.13-0.35-0.38,0.19-0.55C46.79,63.25,47.57,63.22,48,63.35L48,63.35z M105.46,78.36c0.7,0.2,0.88,0.58,0.4,0.84
	c-0.48,0.26-1.45,0.3-2.15,0.1c-0.7-0.21-0.86-0.58-0.38-0.84C103.82,78.2,104.76,78.16,105.46,78.36L105.46,78.36z M101.88,77.32
	c0.68,0.2,0.85,0.56,0.36,0.82c-0.49,0.25-1.45,0.29-2.13,0.09c-0.68-0.2-0.82-0.56-0.33-0.81
	C100.28,77.16,101.2,77.12,101.88,77.32L101.88,77.32z M108,77c0.69,0.2,0.89,0.56,0.42,0.81c-0.47,0.25-1.42,0.29-2.12,0.09
	c-0.7-0.2-0.86-0.56-0.39-0.81C106.38,76.85,107.31,76.81,108,77L108,77z M104.45,76c0.67,0.19,0.85,0.55,0.38,0.79
	c-0.47,0.25-1.42,0.29-2.09,0.09c-0.67-0.19-0.82-0.55-0.34-0.79C102.87,75.85,103.78,75.81,104.45,76L104.45,76z M98.4,76.31
	c0.66,0.19,0.81,0.55,0.31,0.79c-0.49,0.25-1.43,0.29-2.09,0.09c-0.66-0.2-0.8-0.55-0.3-0.79C96.82,76.15,97.74,76.11,98.4,76.31
	L98.4,76.31z M95.02,75.32c0.64,0.19,0.76,0.53,0.26,0.77c-0.5,0.24-1.42,0.28-2.06,0.09c-0.64-0.19-0.76-0.54-0.26-0.77
	C93.46,75.17,94.38,75.14,95.02,75.32L95.02,75.32z M101,75.02c0.66,0.19,0.81,0.53,0.33,0.77c-0.48,0.24-1.4,0.28-2.06,0.09
	c-0.66-0.19-0.8-0.54-0.32-0.77C99.43,74.87,100.35,74.83,101,75.02L101,75.02z M97.64,74.07c0.63,0.18,0.77,0.51,0.29,0.75
	c-0.48,0.23-1.4,0.27-2.03,0.09c-0.63-0.18-0.76-0.52-0.27-0.75C96.1,73.93,97.01,73.89,97.64,74.07L97.64,74.07z M91.72,74.36
	c0.63,0.18,0.73,0.52,0.24,0.75c-0.5,0.23-1.42,0.27-2.05,0.09c-0.63-0.19-0.72-0.52-0.21-0.75C90.19,74.22,91.09,74.18,91.72,74.36
	L91.72,74.36z M88.5,73.42c0.61,0.18,0.7,0.51,0.2,0.73c-0.5,0.23-1.41,0.27-2.03,0.08c-0.61-0.18-0.69-0.51-0.18-0.73
	C87,73.29,87.89,73.24,88.5,73.42L88.5,73.42z M94.35,73.14c0.62,0.18,0.75,0.5,0.26,0.73c-0.48,0.23-1.39,0.27-2.01,0.08
	c-0.62-0.18-0.72-0.51-0.23-0.73C92.85,73,93.73,72.96,94.35,73.14L94.35,73.14z M85.37,72.51c0.59,0.17,0.67,0.49,0.17,0.71
	s-1.4,0.26-2,0.08c-0.59-0.18-0.67-0.5-0.16-0.72C83.89,72.37,84.78,72.34,85.37,72.51L85.37,72.51z M82.31,71.62
	c0.58,0.17,0.64,0.48,0.13,0.7c-0.51,0.22-1.4,0.25-1.98,0.08c-0.58-0.17-0.63-0.48-0.12-0.69C80.86,71.49,81.74,71.46,82.31,71.62
	L82.31,71.62z M79.33,70.75c0.56,0.16,0.61,0.47,0.1,0.68c-0.51,0.21-1.39,0.25-1.95,0.08c-0.56-0.17-0.6-0.47-0.09-0.68
	C77.9,70.63,78.77,70.59,79.33,70.75L79.33,70.75z M76.42,69.91c0.55,0.16,0.59,0.46,0.08,0.67c-0.51,0.21-1.39,0.24-1.94,0.08
	c-0.55-0.16-0.57-0.46-0.06-0.66C75.02,69.78,75.87,69.75,76.42,69.91L76.42,69.91z M73.59,69.08c0.54,0.16,0.57,0.45,0.05,0.65
	c-0.52,0.2-1.37,0.24-1.91,0.08c-0.54-0.16-0.56-0.45-0.04-0.65C72.2,68.96,73.05,68.93,73.59,69.08L73.59,69.08z M70.82,68.28
	c0.52,0.15,0.54,0.43,0.02,0.63c-0.52,0.2-1.37,0.23-1.89,0.07c-0.52-0.15-0.53-0.44-0.01-0.63C69.46,68.16,70.29,68.13,70.82,68.28
	L70.82,68.28z M91.16,72.23c0.61,0.17,0.71,0.49,0.22,0.71c-0.49,0.22-1.38,0.26-1.99,0.08c-0.61-0.18-0.69-0.49-0.2-0.71
	C89.68,72.1,90.55,72.06,91.16,72.23L91.16,72.23z M68.11,67.49c0.51,0.15,0.52,0.43,0,0.62c-0.52,0.19-1.36,0.22-1.87,0.07
	c-0.51-0.15-0.5-0.43,0.02-0.62C66.77,67.37,67.6,67.34,68.11,67.49L68.11,67.49z M65.47,66.72c0.5,0.15,0.5,0.42-0.02,0.61
	c-0.52,0.19-1.35,0.22-1.85,0.07c-0.5-0.15-0.48-0.42,0.04-0.6C64.16,66.61,64.97,66.57,65.47,66.72L65.47,66.72z M70.85,66.48
	c0.51,0.14,0.53,0.41,0.02,0.6c-0.5,0.19-1.34,0.22-1.85,0.07c-0.51-0.15-0.51-0.42,0-0.6C69.53,66.37,70.34,66.34,70.85,66.48
	L70.85,66.48z M68.22,65.73c0.5,0.14,0.5,0.41,0,0.59c-0.5,0.18-1.33,0.21-1.83,0.07c-0.5-0.14-0.48-0.41,0.02-0.59
	C66.92,65.62,67.72,65.59,68.22,65.73L68.22,65.73z M62.9,65.97c0.49,0.14,0.47,0.41-0.05,0.59c-0.52,0.18-1.34,0.21-1.83,0.07
	c-0.49-0.14-0.46-0.41,0.06-0.59C61.59,65.86,62.41,65.83,62.9,65.97L62.9,65.97z M60.37,65.24c0.48,0.14,0.45,0.4-0.07,0.58
	c-0.52,0.18-1.34,0.21-1.81,0.07c-0.48-0.14-0.44-0.4,0.08-0.58C59.1,65.13,59.89,65.1,60.37,65.24L60.37,65.24z M65.65,65.01
	c0.49,0.14,0.48,0.4-0.03,0.57c-0.51,0.18-1.32,0.21-1.81,0.07c-0.49-0.14-0.47-0.4,0.04-0.58C64.36,64.9,65.16,64.87,65.65,65.01
	L65.65,65.01z M63.13,64.29c0.48,0.14,0.46,0.39-0.05,0.56c-0.51,0.17-1.31,0.21-1.79,0.07c-0.48-0.14-0.44-0.39,0.06-0.56
	C61.86,64.19,62.65,64.16,63.13,64.29L63.13,64.29z M57.91,64.52c0.46,0.14,0.43,0.39-0.1,0.56c-0.52,0.18-1.32,0.21-1.79,0.07
	c-0.47-0.14-0.42-0.39,0.1-0.56C56.65,64.41,57.44,64.38,57.91,64.52L57.91,64.52z M55.5,63.82c0.46,0.13,0.42,0.38-0.11,0.55
	c-0.52,0.17-1.33,0.2-1.79,0.06c-0.46-0.14-0.39-0.38,0.13-0.55C54.26,63.71,55.04,63.68,55.5,63.82L55.5,63.82z M60.66,63.59
	c0.47,0.13,0.44,0.38-0.07,0.55c-0.51,0.17-1.3,0.2-1.77,0.07c-0.46-0.13-0.43-0.38,0.08-0.55C59.42,63.49,60.2,63.46,60.66,63.59
	L60.66,63.59z M58.26,62.91c0.46,0.13,0.43,0.37-0.08,0.54c-0.51,0.17-1.3,0.2-1.76,0.06c-0.46-0.13-0.4-0.37,0.1-0.54
	C57.03,62.81,57.8,62.78,58.26,62.91L58.26,62.91z M53.14,63.13c0.45,0.13,0.4,0.37-0.13,0.54c-0.52,0.17-1.31,0.2-1.76,0.06
	c-0.45-0.13-0.38-0.38,0.14-0.54C51.91,63.03,52.69,63,53.14,63.13L53.14,63.13z M50.84,62.46c0.44,0.13,0.37,0.36-0.15,0.53
	c-0.52,0.17-1.3,0.19-1.74,0.06c-0.44-0.13-0.36-0.37,0.16-0.53C49.63,62.36,50.4,62.33,50.84,62.46L50.84,62.46z M55.91,62.25
	c0.45,0.13,0.4,0.36-0.11,0.53c-0.51,0.16-1.29,0.19-1.73,0.07c-0.45-0.13-0.39-0.37,0.12-0.53C54.69,62.15,55.46,62.12,55.91,62.25
	L55.91,62.25z M53.6,61.59c0.44,0.12,0.38,0.35-0.12,0.51c-0.51,0.16-1.28,0.19-1.71,0.06c-0.44-0.13-0.37-0.36,0.14-0.52
	C52.4,61.5,53.16,61.47,53.6,61.59z"/>
<g>
	<path class="st3" d="M56.18,14.93c0-0.42-0.17-0.8-0.37-1.18c-2.29,0.03-4.62,0.05-7.31,0.05c-9.95,0-18.02-0.27-18.02-0.59
		c-0.04,4.11-0.82,8.19-0.91,12.29c-0.37,17.77,0.2,32.75,1.15,43.97c0,4.61,18.53,6.49,25.22,3.92
		c-1.02-13.87-0.97-30.82-0.66-46.17C55.36,23.11,56.14,19.04,56.18,14.93z"/>
	<path class="st3" d="M56.18,14.93c-0.04,4.11-0.82,8.19-0.91,12.29c-0.32,15.35-0.37,32.31,0.66,46.17
		c0.16,2.18,0.35,4.29,0.57,6.3c0.09,3.92,8.94,7.09,19.84,7.09c10.7,0,19.41-3.05,19.83-6.87c0-0.04,0.01-0.08,0.01-0.12
		c1.32-15.56,2.46-33.86,2.65-52.72c-0.08-4.11-0.63-6.8-0.67-10.91c0-0.25,0.14-0.64,0.33-1.07c0.35-0.78,0.87-1.68,1.04-2.12
		c-0.31,0.39-10.07,0.71-22.05,0.71c-11.99,0-21.74-0.32-22.05-0.71c0.1,0.26,0.25,0.51,0.38,0.77
		C56.01,14.13,56.19,14.51,56.18,14.93z"/>
	<path class="st0" d="M96.19,79.63c0,3.95-8.88,7.15-19.84,7.15c-10.96,0-19.84-3.2-19.84-7.15"/>
	<path class="st0" d="M55.42,12.96c0-0.4,9.88-0.73,22.06-0.73c12.18,0,22.06,0.33,22.06,0.73"/>
	<path class="st0" d="M55.42,12.96c0.25,0.66,0.77,1.26,0.76,1.97c-0.04,4.11-0.82,8.19-0.91,12.29
		c-0.37,17.77-0.37,37.68,1.23,52.47"/>
	<path class="st0" d="M99.55,12.96c-0.25,0.66-1.39,2.5-1.38,3.21c0.04,4.11,0.58,6.8,0.67,10.91c-0.19,18.91-1.33,37.25-2.66,52.84
		"/>
	<path class="st0" d="M98.81,14.98c0,0.39-9.56,0.7-21.35,0.7c-11.13,0-20.27-0.28-21.26-0.64"/>
	<path class="st0" d="M29.72,11.24c0.25,0.66,0.77,1.26,0.76,1.97c-0.04,4.11-0.82,8.19-0.91,12.29
		c-0.37,17.77,0.2,32.75,1.15,43.97"/>
	<path class="st0" d="M55.94,73.4c-6.69,2.56-25.22,0.68-25.22-3.92"/>
	<path class="st0" d="M55.81,13.75c-2.29,0.03-4.62,0.05-7.31,0.05c-9.95,0-18.02-0.27-18.02-0.59"/>
	<path class="st0" d="M29.53,11.12c0-0.33,8.09-0.6,18.08-0.6s18.08,0.27,18.08,0.6"/>
</g>
</svg>
