<?xml version="1.0" encoding="utf-8"?>
<!-- Generator: Adobe Illustrator 23.0.1, SVG Export Plug-In . SVG Version: 6.00 Build 0)  -->
<svg version="1.1" id="Слой_1" xmlns="http://www.w3.org/2000/svg" xmlns:xlink="http://www.w3.org/1999/xlink" x="0px" y="0px"
	 viewBox="0 0 128.22 128.22" style="enable-background:new 0 0 128.22 128.22;" xml:space="preserve">
<style type="text/css">
	
		.st0{fill-rule:evenodd;clip-rule:evenodd;fill:none;stroke:#000003;stroke-width:1.4998;stroke-linecap:round;stroke-linejoin:round;stroke-miterlimit:22.9256;}
	
		.st1{fill-rule:evenodd;clip-rule:evenodd;fill:none;stroke:#000003;stroke-width:0.9998;stroke-linecap:round;stroke-linejoin:round;stroke-miterlimit:22.9256;}
	
		.st2{fill-rule:evenodd;clip-rule:evenodd;fill:none;stroke:#616262;stroke-width:0.7498;stroke-linecap:round;stroke-linejoin:round;stroke-miterlimit:22.9256;}
</style>
<path class="st0" d="M39.17,37.87l6.65,9.87 M49.51,29.47l2.54,8 M41.3,29.94l8.21-0.47 M45.82,47.74h9.27 M48.11,40.14l6.98,0.23
	l0,7.37 M41.3,29.94l1.89,1.32 M50.16,36.14l1.89,1.32 M50.16,36.14L44.92,46.4 M43.19,31.27l-4.02,6.6"/>
<path class="st0" d="M63.11,13.59l-11.87,0.82 M65.22,26.74l-8.19-1.8 M68.91,19.39l-3.7,7.35 M51.24,14.41l-4.64,8.03 M56.67,20.19
	l-3.69,5.93l-6.38-3.68 M68.91,19.39l-2.09,0.98 M59.11,23.96l-2.09,0.98 M59.11,23.96l-6.26-9.66 M66.82,20.37l-3.71-6.78"/>
<line class="st0" x1="72.32" y1="46.7" x2="77.54" y2="36.01"/>
<line class="st0" x1="64.59" y1="46.53" x2="72.32" y2="46.7"/>
<line class="st0" x1="65.33" y1="38.05" x2="76.84" y2="37.46"/>
<path class="st0" d="M64.39,48.83l0.2-2.3 M65.33,38.05l0.2-2.3"/>
<polyline class="st0" points="69.82,37.82 66.53,31.67 72.91,27.98 "/>
<line class="st0" x1="77.55" y1="36.01" x2="72.91" y2="27.98"/>
<line class="st0" x1="64.39" y1="48.83" x2="59.88" y2="41.95"/>
<line class="st0" x1="59.88" y1="41.95" x2="65.53" y2="35.75"/>
<g>
	<path class="st0" d="M20.93,63.09c3.95,0,7.59,8.66,8.12,19.34c0.53,10.68-2.24,19.34-6.19,19.34c-3.95,0-7.59-8.66-8.12-19.34
		C14.21,71.74,16.98,63.09,20.93,63.09z"/>
	<path class="st0" d="M90.2,59.28c4.6,0,8.83,6.93,9.44,15.47c0.59,8.21-2.37,14.92-6.68,15.44"/>
	<line class="st0" x1="20.93" y1="63.09" x2="90.2" y2="59.28"/>
	<line class="st0" x1="22.87" y1="101.77" x2="92.97" y2="90.19"/>
	<path class="st1" d="M20.67,79.65c0.59,0,1.13,1.28,1.2,2.87c0.08,1.58-0.33,2.87-0.92,2.87c-0.59,0-1.13-1.28-1.2-2.87
		C19.68,80.94,20.09,79.65,20.67,79.65z"/>
	<polyline class="st0" points="21.26,101.3 40.67,114.63 107.13,102.66 113.53,100.13 92.97,90.19 	"/>
	<path class="st2" d="M22.38,97.11c-2.9,0-5.56-6.57-5.96-14.68c-0.39-8.11,1.64-14.68,4.54-14.68c2.36,0,4.56,4.34,5.51,10.33"/>
	<path class="st2" d="M22.67,72.95c1.08,2.04,1.88,5.56,2.05,9.57c0.27,6.31-1.13,11.42-3.13,11.42c-2,0-3.83-5.11-4.1-11.42"/>
	<line class="st2" x1="29.7" y1="66.46" x2="29.7" y2="66.82"/>
	<line class="st2" x1="43.44" y1="79.28" x2="43.44" y2="79.64"/>
	<line class="st2" x1="34.42" y1="85.1" x2="34.42" y2="85.47"/>
	<line class="st2" x1="37.49" y1="76.01" x2="37.49" y2="76.38"/>
	<line class="st2" x1="45.86" y1="87.33" x2="45.86" y2="87.7"/>
	<line class="st2" x1="38.19" y1="91.93" x2="38.19" y2="92.3"/>
	<line class="st2" x1="31.71" y1="95.72" x2="31.71" y2="96.08"/>
	<line class="st2" x1="44.33" y1="68.95" x2="44.33" y2="69.31"/>
	<line class="st2" x1="34.63" y1="104.99" x2="34.92" y2="105.21"/>
	<line class="st2" x1="42.21" y1="104.48" x2="42.5" y2="104.7"/>
	<line class="st2" x1="40.64" y1="110.54" x2="40.93" y2="110.76"/>
	<line class="st2" x1="54.01" y1="108.36" x2="54.3" y2="108.57"/>
	<line class="st2" x1="47.77" y1="109.18" x2="48.06" y2="109.4"/>
	<line class="st2" x1="46" y1="100.39" x2="46.29" y2="100.61"/>
	<line class="st2" x1="35.72" y1="100.82" x2="36.01" y2="101.04"/>
	<line class="st2" x1="47.77" y1="104.36" x2="48.06" y2="104.58"/>
	<line class="st2" x1="37.25" y1="65.42" x2="37.25" y2="65.79"/>
	<line class="st2" x1="31.71" y1="75.62" x2="31.71" y2="75.98"/>
	<line class="st2" x1="49.1" y1="81.28" x2="49.1" y2="81.64"/>
	<line class="st2" x1="50.91" y1="91.49" x2="50.91" y2="91.86"/>
	<line class="st2" x1="52.48" y1="72.92" x2="52.48" y2="73.28"/>
	<line class="st2" x1="50.42" y1="65.32" x2="50.42" y2="65.68"/>
	<line class="st2" x1="57.3" y1="77.54" x2="57.3" y2="77.9"/>
	<line class="st2" x1="56.42" y1="86.35" x2="56.42" y2="86.72"/>
	<line class="st2" x1="60.05" y1="92.67" x2="60.05" y2="93.04"/>
	<line class="st2" x1="64.08" y1="82.65" x2="64.08" y2="83.01"/>
	<line class="st2" x1="62.61" y1="72.3" x2="62.61" y2="72.66"/>
	<line class="st2" x1="59.07" y1="65.45" x2="59.07" y2="65.81"/>
	<line class="st2" x1="67.82" y1="63.19" x2="67.82" y2="63.55"/>
	<line class="st2" x1="70.17" y1="74.66" x2="70.17" y2="75.02"/>
	<line class="st2" x1="70.67" y1="85.4" x2="70.67" y2="85.76"/>
	<line class="st2" x1="75.38" y1="90.12" x2="75.38" y2="90.48"/>
	<line class="st2" x1="76.86" y1="80.19" x2="76.86" y2="80.55"/>
	<line class="st2" x1="74.11" y1="68.27" x2="74.11" y2="68.63"/>
	<line class="st2" x1="78.63" y1="62.58" x2="78.63" y2="62.95"/>
	<line class="st2" x1="79.9" y1="73.3" x2="79.9" y2="73.66"/>
	<line class="st2" x1="81.67" y1="85.76" x2="81.67" y2="86.13"/>
	<line class="st2" x1="84.52" y1="78.7" x2="84.52" y2="79.06"/>
	<line class="st2" x1="87.47" y1="87.33" x2="87.47" y2="87.7"/>
	<line class="st2" x1="91.21" y1="81.63" x2="91.21" y2="82"/>
	<line class="st2" x1="84.52" y1="68.96" x2="84.52" y2="69.32"/>
	<line class="st2" x1="88.16" y1="63.66" x2="88.16" y2="64.03"/>
	<line class="st2" x1="89.93" y1="73.38" x2="89.93" y2="73.74"/>
	<line class="st2" x1="94.16" y1="69.35" x2="94.16" y2="69.71"/>
	<line class="st2" x1="95.04" y1="84.99" x2="95.04" y2="85.35"/>
	<line class="st2" x1="96.51" y1="75.75" x2="96.51" y2="76.12"/>
	<line class="st2" x1="61.43" y1="107.08" x2="61.72" y2="107.3"/>
	<line class="st2" x1="56.08" y1="104.08" x2="56.37" y2="104.3"/>
	<line class="st2" x1="59.81" y1="98.78" x2="60.1" y2="99"/>
	<line class="st2" x1="53.42" y1="100.89" x2="53.71" y2="101.1"/>
	<line class="st2" x1="70.67" y1="104.56" x2="70.96" y2="104.78"/>
	<line class="st2" x1="70.18" y1="97.88" x2="70.47" y2="98.1"/>
	<line class="st2" x1="63.89" y1="102.15" x2="64.18" y2="102.37"/>
	<line class="st2" x1="77.84" y1="99.86" x2="78.13" y2="100.08"/>
	<line class="st2" x1="86.49" y1="102.27" x2="86.78" y2="102.49"/>
	<line class="st2" x1="87.82" y1="93.85" x2="88.11" y2="94.07"/>
	<line class="st2" x1="85.76" y1="97.69" x2="86.05" y2="97.91"/>
	<line class="st2" x1="78.73" y1="94.63" x2="79.02" y2="94.85"/>
	<line class="st2" x1="78.97" y1="104.92" x2="79.26" y2="105.13"/>
	<line class="st2" x1="95.39" y1="101.12" x2="95.68" y2="101.34"/>
	<line class="st2" x1="94.06" y1="96.76" x2="94.35" y2="96.98"/>
	<line class="st2" x1="103.39" y1="99.28" x2="103.69" y2="99.49"/>
</g>
</svg>
