<?xml version="1.0" encoding="utf-8"?>
<!-- Generator: Adobe Illustrator 23.0.1, SVG Export Plug-In . SVG Version: 6.00 Build 0)  -->
<svg version="1.1" id="Слой_1" xmlns="http://www.w3.org/2000/svg" xmlns:xlink="http://www.w3.org/1999/xlink" x="0px" y="0px"
	 viewBox="0 0 128.22 128.22" style="enable-background:new 0 0 128.22 128.22;" xml:space="preserve">
<style type="text/css">
	.st0{fill-rule:evenodd;clip-rule:evenodd;fill:#4BB489;stroke:#000003;stroke-width:0.216;stroke-miterlimit:22.9256;}
	
		.st1{fill-rule:evenodd;clip-rule:evenodd;fill:none;stroke:#000003;stroke-width:1.4998;stroke-linecap:round;stroke-linejoin:round;stroke-miterlimit:22.9256;}
	
		.st2{fill-rule:evenodd;clip-rule:evenodd;fill:none;stroke:#000003;stroke-width:0.9998;stroke-linecap:round;stroke-linejoin:round;stroke-miterlimit:22.9256;}
	
		.st3{fill-rule:evenodd;clip-rule:evenodd;fill:none;stroke:#000003;stroke-width:0.7498;stroke-linecap:round;stroke-linejoin:round;stroke-miterlimit:22.9256;}
</style>
<polygon class="st0" points="48.12,40.15 50.16,36.15 52.05,37.47 49.51,29.47 41.3,29.95 43.19,31.27 39.18,37.87 44.92,46.4 "/>
<polygon class="st0" points="55.1,40.37 48.12,40.15 44.92,46.4 45.83,47.74 55.1,47.74 "/>
<polyline class="st1" points="44.92,46.4 50.16,36.15 52.05,37.47 49.51,29.47 41.3,29.95 43.19,31.27 39.18,37.87 45.83,47.74 
	55.1,47.74 55.1,40.37 48.12,40.15 "/>
<g>
	<path class="st1" d="M20.94,63.09c3.95,0,7.59,8.66,8.12,19.34c0.53,10.68-2.24,19.34-6.19,19.34c-3.95,0-7.59-8.66-8.12-19.34
		C14.22,71.75,16.99,63.09,20.94,63.09z"/>
	<path class="st1" d="M90.21,59.28c4.6,0,8.83,6.93,9.44,15.47c0.59,8.21-2.37,14.92-6.68,15.44"/>
	<line class="st1" x1="20.94" y1="63.09" x2="90.21" y2="59.28"/>
	<line class="st1" x1="22.87" y1="101.77" x2="92.97" y2="90.19"/>
	<path class="st2" d="M20.68,79.65c0.59,0,1.13,1.28,1.2,2.87c0.08,1.58-0.33,2.87-0.92,2.87c-0.59,0-1.13-1.28-1.2-2.87
		C19.68,80.94,20.09,79.65,20.68,79.65z"/>
	<polyline class="st1" points="21.27,101.3 40.68,114.63 107.13,102.66 113.53,100.13 92.97,90.19 	"/>
	<path class="st3" d="M22.39,97.11c-2.9,0-5.56-6.57-5.96-14.68c-0.39-8.11,1.64-14.68,4.54-14.68c2.36,0,4.56,4.34,5.51,10.33"/>
	<path class="st3" d="M22.68,72.95c1.08,2.04,1.88,5.56,2.05,9.57C25,88.83,23.6,93.94,21.6,93.94c-2,0-3.83-5.11-4.1-11.42"/>
	<line class="st3" x1="29.71" y1="66.46" x2="29.71" y2="66.82"/>
	<line class="st3" x1="43.45" y1="79.28" x2="43.45" y2="79.64"/>
	<line class="st3" x1="34.43" y1="85.1" x2="34.43" y2="85.47"/>
	<line class="st3" x1="37.49" y1="76.01" x2="37.49" y2="76.38"/>
	<line class="st3" x1="45.87" y1="87.33" x2="45.87" y2="87.7"/>
	<line class="st3" x1="38.2" y1="91.93" x2="38.2" y2="92.3"/>
	<line class="st3" x1="31.71" y1="95.72" x2="31.71" y2="96.08"/>
	<line class="st3" x1="44.33" y1="68.95" x2="44.33" y2="69.31"/>
	<line class="st3" x1="34.63" y1="104.99" x2="34.93" y2="105.21"/>
	<line class="st3" x1="42.21" y1="104.48" x2="42.5" y2="104.7"/>
	<line class="st3" x1="40.65" y1="110.54" x2="40.94" y2="110.76"/>
	<line class="st3" x1="54.02" y1="108.36" x2="54.31" y2="108.57"/>
	<line class="st3" x1="47.78" y1="109.18" x2="48.07" y2="109.4"/>
	<line class="st3" x1="46.01" y1="100.4" x2="46.3" y2="100.61"/>
	<line class="st3" x1="35.73" y1="100.82" x2="36.02" y2="101.04"/>
	<line class="st3" x1="47.78" y1="104.37" x2="48.07" y2="104.58"/>
	<line class="st3" x1="37.26" y1="65.42" x2="37.26" y2="65.79"/>
	<line class="st3" x1="31.71" y1="75.62" x2="31.71" y2="75.98"/>
	<line class="st3" x1="49.11" y1="81.28" x2="49.11" y2="81.64"/>
	<line class="st3" x1="50.92" y1="91.49" x2="50.92" y2="91.86"/>
	<line class="st3" x1="52.49" y1="72.92" x2="52.49" y2="73.28"/>
	<line class="st3" x1="50.43" y1="65.32" x2="50.43" y2="65.68"/>
	<line class="st3" x1="57.31" y1="77.54" x2="57.31" y2="77.9"/>
	<line class="st3" x1="56.42" y1="86.35" x2="56.42" y2="86.72"/>
	<line class="st3" x1="60.06" y1="92.67" x2="60.06" y2="93.04"/>
	<line class="st3" x1="64.09" y1="82.65" x2="64.09" y2="83.01"/>
	<line class="st3" x1="62.61" y1="72.3" x2="62.61" y2="72.66"/>
	<line class="st3" x1="59.08" y1="65.45" x2="59.08" y2="65.81"/>
	<line class="st3" x1="67.82" y1="63.19" x2="67.82" y2="63.55"/>
	<line class="st3" x1="70.18" y1="74.66" x2="70.18" y2="75.02"/>
	<line class="st3" x1="70.67" y1="85.4" x2="70.67" y2="85.76"/>
	<line class="st3" x1="75.39" y1="90.12" x2="75.39" y2="90.48"/>
	<line class="st3" x1="76.86" y1="80.19" x2="76.86" y2="80.55"/>
	<line class="st3" x1="74.11" y1="68.27" x2="74.11" y2="68.63"/>
	<line class="st3" x1="78.63" y1="62.58" x2="78.63" y2="62.95"/>
	<line class="st3" x1="79.91" y1="73.3" x2="79.91" y2="73.66"/>
	<line class="st3" x1="81.68" y1="85.76" x2="81.68" y2="86.13"/>
	<line class="st3" x1="84.53" y1="78.7" x2="84.53" y2="79.07"/>
	<line class="st3" x1="87.48" y1="87.34" x2="87.48" y2="87.7"/>
	<line class="st3" x1="91.21" y1="81.64" x2="91.21" y2="82"/>
	<line class="st3" x1="84.53" y1="68.96" x2="84.53" y2="69.32"/>
	<line class="st3" x1="88.17" y1="63.67" x2="88.17" y2="64.03"/>
	<line class="st3" x1="89.94" y1="73.38" x2="89.94" y2="73.74"/>
	<line class="st3" x1="94.16" y1="69.35" x2="94.16" y2="69.71"/>
	<line class="st3" x1="95.05" y1="84.99" x2="95.05" y2="85.36"/>
	<line class="st3" x1="96.52" y1="75.75" x2="96.52" y2="76.12"/>
	<line class="st3" x1="61.44" y1="107.08" x2="61.73" y2="107.3"/>
	<line class="st3" x1="56.08" y1="104.08" x2="56.37" y2="104.3"/>
	<line class="st3" x1="59.81" y1="98.78" x2="60.1" y2="99"/>
	<line class="st3" x1="53.43" y1="100.89" x2="53.72" y2="101.11"/>
	<line class="st3" x1="70.68" y1="104.56" x2="70.97" y2="104.78"/>
	<line class="st3" x1="70.19" y1="97.88" x2="70.48" y2="98.1"/>
	<line class="st3" x1="63.9" y1="102.15" x2="64.19" y2="102.37"/>
	<line class="st3" x1="77.85" y1="99.87" x2="78.14" y2="100.08"/>
	<line class="st3" x1="86.5" y1="102.27" x2="86.79" y2="102.49"/>
	<line class="st3" x1="87.83" y1="93.85" x2="88.12" y2="94.07"/>
	<line class="st3" x1="85.76" y1="97.69" x2="86.05" y2="97.91"/>
	<line class="st3" x1="78.74" y1="94.63" x2="79.03" y2="94.85"/>
	<line class="st3" x1="78.98" y1="104.92" x2="79.27" y2="105.13"/>
	<line class="st3" x1="95.4" y1="101.12" x2="95.69" y2="101.34"/>
	<line class="st3" x1="94.07" y1="96.76" x2="94.36" y2="96.98"/>
	<line class="st3" x1="103.4" y1="99.28" x2="103.69" y2="99.49"/>
</g>
<polygon class="st0" points="56.68,20.19 59.12,23.96 57.03,24.94 65.22,26.74 68.92,19.39 66.83,20.37 63.12,13.59 52.86,14.3 "/>
<polygon class="st0" points="52.99,26.12 56.68,20.19 52.86,14.3 51.24,14.41 46.61,22.44 "/>
<polyline class="st1" points="52.86,14.3 59.12,23.96 57.03,24.94 65.22,26.74 68.92,19.39 66.83,20.37 63.12,13.59 51.24,14.41 
	46.61,22.44 52.99,26.12 56.68,20.19 "/>
<polygon class="st0" points="69.77,37.88 65.29,38.11 65.49,35.81 59.83,42.01 64.35,48.88 64.55,46.58 72.27,46.76 76.79,37.52 "/>
<polygon class="st0" points="66.48,31.72 69.77,37.88 76.79,37.52 77.5,36.07 72.86,28.04 "/>
<polyline class="st1" points="76.79,37.52 65.29,38.11 65.49,35.81 59.83,42.01 64.35,48.88 64.55,46.58 72.27,46.76 77.5,36.07 
	72.86,28.04 66.48,31.72 69.77,37.88 "/>
</svg>
