<?xml version="1.0" encoding="utf-8"?>
<!-- Generator: Adobe Illustrator 23.0.1, SVG Export Plug-In . SVG Version: 6.00 Build 0)  -->
<svg version="1.1" id="Слой_1" xmlns="http://www.w3.org/2000/svg" xmlns:xlink="http://www.w3.org/1999/xlink" x="0px" y="0px"
	 viewBox="0 0 128.2 128.2" style="enable-background:new 0 0 128.2 128.2;" xml:space="preserve">
<style type="text/css">
	.st0{fill:none;stroke:#010005;stroke-width:1.4998;stroke-linecap:round;stroke-linejoin:round;stroke-miterlimit:22.9256;}
	.st1{fill:none;stroke:#010005;stroke-width:1.4998;stroke-miterlimit:22.9256;}
	.st2{fill:none;stroke:#626262;stroke-width:0.4997;stroke-miterlimit:22.9256;}
	.st3{fill-rule:evenodd;clip-rule:evenodd;fill:#538ECB;}
</style>
<polygon class="st0" points="52.7,60.2 114.3,77 77,98.6 13.9,72 14,71.8 "/>
<polygon class="st0" points="13.9,72 77,98.6 77.1,110.5 76.4,110.6 56.1,101.5 55.4,94.3 52.8,93.2 44.8,96.5 36.3,92.7 35.3,85.9 
	34.4,85.5 26.9,88.4 19.8,85.3 19.4,85.1 19.1,83.6 17.4,84.2 15.2,83.2 "/>
<polygon class="st0" points="114.3,77 77,98.6 77.1,110.5 77.8,110.4 93.1,100.7 94.1,94.1 102,89.3 102.4,94.8 112,88.6 "/>
<polygon class="st0" points="22.6,86.5 26.9,88.4 34.4,85.5 35.3,85.9 36.3,92.7 44.8,96.5 52.8,93.2 55.4,94.3 56.1,101.5 
	74.8,109.9 74.8,117.7 73.1,117.5 62.5,112.4 61.5,103.9 57.4,102.1 49.6,106.2 42.7,102.8 41.2,94.9 40.1,94.4 32.2,97.6 24,93.6 
	"/>
<polygon class="st0" points="104,93.7 102.4,94.8 102,89.3 94.1,94.1 93.1,100.7 77.8,110.4 77.1,110.5 76.4,110.6 74.8,109.9 
	74.8,117.7 76.5,117.5 85.4,111.5 86.4,106.2 90.4,103.4 94.9,105.2 102.1,100.5 "/>
<polyline class="st1" points="35.3,85.9 26.7,82.3 26.9,88.4 "/>
<polyline class="st1" points="53.5,93.5 44.6,89.8 44.8,96.5 "/>
<line class="st1" x1="102.4" y1="94.8" x2="96.2" y2="92.8"/>
<line class="st1" x1="94.9" y1="105.2" x2="95.8" y2="93.1"/>
<line class="st1" x1="49.6" y1="106.2" x2="49.3" y2="94.6"/>
<line class="st1" x1="32.2" y1="97.6" x2="31.5" y2="86.7"/>
<line class="st1" x1="86.4" y1="106.2" x2="86.7" y2="104.8"/>
<path class="st2" d="M50.7,82.5c0.6,0.2,0.5,0.6-0.2,0.9c-0.7,0.3-1.7,0.3-2.3,0.1l0,0c-3-1.2-5.9-2.3-8.7-3.4l0,0
	c-0.5-0.2-0.4-0.6,0.3-0.9s1.7-0.3,2.2-0.1C44.9,80.3,47.8,81.4,50.7,82.5L50.7,82.5z M85,70.5c0.6,0.2,0.7,0.5,0.2,0.7
	c-0.5,0.2-1.4,0.3-1.9,0.1s-0.6-0.5-0.1-0.7C83.6,70.4,84.4,70.3,85,70.5L85,70.5z M88,71.4c0.6,0.2,0.7,0.5,0.2,0.7
	c-0.5,0.2-1.4,0.3-2,0.1s-0.7-0.5-0.2-0.7C86.6,71.2,87.4,71.2,88,71.4L88,71.4z M82,69.7c0.6,0.2,0.6,0.4,0.1,0.7s-1.4,0.2-1.9,0.1
	l0,0c-2.9-0.8-5.7-1.7-8.5-2.4l0,0c-0.5-0.1-0.5-0.4,0-0.6c0.5-0.2,1.3-0.2,1.8-0.1C76.3,68,79.1,68.8,82,69.7L82,69.7z M78,93.1
	c0.7,0.3,0.8,0.8,0.1,1.2c-0.7,0.4-1.8,0.4-2.6,0.1c-0.7-0.3-0.8-0.8-0.1-1.2C76.1,92.8,77.2,92.8,78,93.1L78,93.1z M74.2,91.6
	c0.7,0.3,0.8,0.8,0.1,1.1c-0.7,0.4-1.8,0.4-2.6,0.1c-0.7-0.3-0.7-0.8-0.1-1.1C72.3,91.4,73.5,91.3,74.2,91.6L74.2,91.6z M70.5,90.2
	c0.7,0.3,0.7,0.8,0,1.1c-0.7,0.3-1.8,0.4-2.5,0.1c-0.7-0.3-0.7-0.8,0-1.1C68.7,90,69.8,89.9,70.5,90.2L70.5,90.2z M67,88.8
	c0.7,0.3,0.7,0.7,0,1.1s-1.8,0.4-2.5,0.1c-0.7-0.3-0.7-0.8,0-1.1C65.2,88.6,66.3,88.5,67,88.8L67,88.8z M63.5,87.5
	c0.7,0.3,0.6,0.7-0.1,1c-0.7,0.3-1.8,0.4-2.4,0.1c-0.7-0.3-0.6-0.7,0.1-1C61.8,87.3,62.9,87.2,63.5,87.5L63.5,87.5z M60.2,86.2
	c0.6,0.2,0.6,0.7-0.1,1c-0.7,0.3-1.8,0.4-2.4,0.1c-0.6-0.3-0.6-0.7,0.1-1C58.5,86,59.5,85.9,60.2,86.2L60.2,86.2z M56.9,84.9
	c0.6,0.2,0.6,0.7-0.1,1c-0.7,0.3-1.8,0.4-2.4,0.1s-0.6-0.7,0.1-1C55.3,84.7,56.3,84.7,56.9,84.9L56.9,84.9z M53.8,83.7
	c0.6,0.2,0.5,0.7-0.2,0.9C53,85,51.9,85,51.3,84.8s-0.5-0.7,0.2-0.9C52.2,83.5,53.2,83.5,53.8,83.7L53.8,83.7z M39.4,78.1
	c0.5,0.2,0.4,0.6-0.3,0.8c-0.7,0.3-1.7,0.3-2.2,0.1c-0.5-0.2-0.4-0.6,0.3-0.8S38.8,77.9,39.4,78.1L39.4,78.1z M36.7,77.1
	c0.5,0.2,0.4,0.6-0.3,0.8s-1.7,0.3-2.2,0.1s-0.3-0.6,0.3-0.8C35.2,76.9,36.2,76.9,36.7,77.1L36.7,77.1z M34.1,76.1
	c0.5,0.2,0.3,0.5-0.3,0.8s-1.7,0.3-2.1,0.1c-0.5-0.2-0.3-0.6,0.4-0.8C32.7,76,33.6,75.9,34.1,76.1L34.1,76.1z M31.6,75.1
	c0.5,0.2,0.3,0.5-0.4,0.8c-0.7,0.2-1.6,0.3-2.1,0.1s-0.3-0.5,0.4-0.8S31.1,74.9,31.6,75.1L31.6,75.1z M29.1,74.2
	c0.5,0.2,0.3,0.5-0.4,0.7s-1.6,0.3-2.1,0.1c-0.5-0.2-0.3-0.5,0.4-0.7S28.7,74,29.1,74.2L29.1,74.2z M26.7,73.3
	c0.4,0.2,0.3,0.5-0.4,0.7s-1.6,0.3-2.1,0.1c-0.4-0.2-0.3-0.5,0.4-0.7C25.4,73.1,26.3,73.1,26.7,73.3L26.7,73.3z M24.4,72.4
	c0.4,0.2,0.3,0.5-0.4,0.7s-1.6,0.3-2,0.1c-0.4-0.2-0.2-0.5,0.4-0.7C23.1,72.2,24,72.2,24.4,72.4L24.4,72.4z M22.1,71.5
	c0.4,0.2,0.2,0.5-0.4,0.7c-0.7,0.2-1.6,0.3-2,0.1s-0.2-0.5,0.5-0.7C20.8,71.3,21.7,71.3,22.1,71.5L22.1,71.5z M81.5,91.2
	c0.7,0.3,0.8,0.8,0.2,1.1c-0.7,0.4-1.8,0.4-2.5,0.1s-0.8-0.8-0.1-1.1C79.7,90.9,80.8,90.9,81.5,91.2L81.5,91.2z M77.7,89.8
	c0.7,0.3,0.8,0.8,0.1,1.1s-1.8,0.4-2.5,0.1c-0.7-0.3-0.7-0.8-0.1-1.1C75.9,89.5,77,89.5,77.7,89.8L77.7,89.8z M84.9,89.3
	c0.7,0.3,0.8,0.8,0.2,1.1s-1.7,0.4-2.5,0.1s-0.8-0.8-0.2-1.1C83.1,89.1,84.2,89.1,84.9,89.3L84.9,89.3z M81.2,88
	c0.7,0.3,0.8,0.7,0.2,1.1c-0.6,0.3-1.7,0.4-2.4,0.1c-0.7-0.3-0.8-0.7-0.1-1.1C79.4,87.8,80.5,87.7,81.2,88L81.2,88z M74.1,88.4
	c0.7,0.3,0.7,0.7,0.1,1.1c-0.7,0.3-1.8,0.4-2.4,0.1c-0.7-0.3-0.7-0.7-0.1-1.1C72.3,88.2,73.4,88.1,74.1,88.4L74.1,88.4z M70.6,87.1
	c0.7,0.3,0.7,0.7,0,1c-0.7,0.3-1.8,0.4-2.4,0.1c-0.7-0.3-0.7-0.7,0-1C68.8,86.9,69.9,86.8,70.6,87.1L70.6,87.1z M77.5,86.7
	c0.7,0.3,0.7,0.7,0.1,1c-0.6,0.3-1.7,0.4-2.4,0.1c-0.7-0.3-0.7-0.7-0.1-1C75.8,86.5,76.8,86.4,77.5,86.7L77.5,86.7z M74,85.4
	c0.7,0.2,0.7,0.7,0.1,1c-0.6,0.3-1.7,0.4-2.4,0.1c-0.7-0.3-0.7-0.7-0.1-1C72.3,85.2,73.3,85.2,74,85.4L74,85.4z M67.1,85.8
	c0.7,0.2,0.7,0.7,0,1s-1.7,0.4-2.4,0.1c-0.7-0.3-0.6-0.7,0-1C65.4,85.6,66.5,85.6,67.1,85.8L67.1,85.8z M63.8,84.6
	c0.6,0.2,0.6,0.7,0,1s-1.7,0.4-2.4,0.1s-0.6-0.7,0.1-1C62.1,84.4,63.2,84.3,63.8,84.6L63.8,84.6z M70.6,84.2c0.7,0.2,0.7,0.7,0,1
	c-0.6,0.3-1.7,0.4-2.3,0.1s-0.6-0.7,0-1C68.9,84,69.9,83.9,70.6,84.2L70.6,84.2z M67.3,83c0.6,0.2,0.6,0.6,0,0.9S65.6,84.3,65,84
	s-0.6-0.6,0-0.9C65.6,82.8,66.6,82.8,67.3,83L67.3,83z M60.6,83.3c0.6,0.2,0.6,0.6-0.1,0.9c-0.7,0.3-1.7,0.3-2.3,0.1
	c-0.6-0.2-0.6-0.7,0.1-0.9C58.9,83.2,59.9,83.1,60.6,83.3L60.6,83.3z M57.4,82.2c0.6,0.2,0.6,0.6-0.1,0.9s-1.7,0.3-2.3,0.1
	c-0.6-0.2-0.5-0.6,0.2-0.9S56.8,82,57.4,82.2L57.4,82.2z M64,81.8c0.6,0.2,0.6,0.6-0.1,0.9s-1.7,0.3-2.3,0.1
	c-0.6-0.2-0.6-0.6,0.1-0.9C62.4,81.6,63.4,81.6,64,81.8L64,81.8z M60.9,80.7c0.6,0.2,0.6,0.6-0.1,0.9c-0.6,0.3-1.7,0.3-2.3,0.1
	C58,81.4,58,81,58.7,80.8C59.3,80.5,60.3,80.5,60.9,80.7L60.9,80.7z M54.4,81c0.6,0.2,0.5,0.6-0.2,0.9c-0.7,0.3-1.7,0.3-2.3,0.1
	s-0.5-0.6,0.2-0.9C52.8,80.9,53.8,80.8,54.4,81L54.4,81z M51.4,79.9c0.6,0.2,0.5,0.6-0.2,0.9s-1.7,0.3-2.2,0.1
	c-0.6-0.2-0.5-0.6,0.2-0.9C49.9,79.8,50.8,79.7,51.4,79.9L51.4,79.9z M57.9,79.6c0.6,0.2,0.5,0.6-0.1,0.9s-1.6,0.3-2.2,0.1
	C55,80.3,55,80,55.7,79.7C56.3,79.4,57.3,79.4,57.9,79.6L57.9,79.6z M54.9,78.5c0.6,0.2,0.5,0.6-0.1,0.8s-1.6,0.3-2.2,0.1
	c-0.6-0.2-0.5-0.6,0.2-0.8C53.4,78.4,54.3,78.3,54.9,78.5L54.9,78.5z M48.5,78.9c0.6,0.2,0.5,0.6-0.2,0.8c-0.7,0.3-1.7,0.3-2.2,0.1
	c-0.6-0.2-0.4-0.6,0.2-0.9C47,78.7,48,78.7,48.5,78.9L48.5,78.9z M45.7,77.8c0.5,0.2,0.4,0.6-0.2,0.8c-0.7,0.3-1.7,0.3-2.2,0.1
	s-0.4-0.6,0.3-0.8C44.2,77.6,45.2,77.6,45.7,77.8L45.7,77.8z M52,77.5c0.6,0.2,0.5,0.6-0.2,0.8c-0.6,0.3-1.6,0.3-2.2,0.1
	s-0.5-0.6,0.2-0.8C50.5,77.3,51.5,77.3,52,77.5L52,77.5z M49.2,76.5c0.5,0.2,0.4,0.5-0.2,0.8c-0.6,0.3-1.6,0.3-2.1,0.1
	s-0.4-0.6,0.2-0.8C47.7,76.3,48.7,76.3,49.2,76.5L49.2,76.5z M43,76.8c0.5,0.2,0.4,0.6-0.3,0.8s-1.6,0.3-2.2,0.1
	c-0.5-0.2-0.4-0.6,0.3-0.8C41.5,76.6,42.5,76.6,43,76.8L43,76.8z M40.3,75.8c0.5,0.2,0.4,0.5-0.3,0.8s-1.6,0.3-2.1,0.1
	s-0.4-0.5,0.3-0.8C38.9,75.6,39.8,75.6,40.3,75.8L40.3,75.8z M46.5,75.5c0.5,0.2,0.4,0.5-0.2,0.8s-1.6,0.3-2.1,0.1s-0.4-0.5,0.2-0.8
	C45,75.3,46,75.3,46.5,75.5L46.5,75.5z M43.8,74.5c0.5,0.2,0.4,0.5-0.3,0.8c-0.6,0.2-1.6,0.3-2.1,0.1s-0.4-0.5,0.3-0.8
	C42.4,74.4,43.3,74.3,43.8,74.5L43.8,74.5z M37.7,74.8c0.5,0.2,0.4,0.5-0.3,0.8c-0.7,0.2-1.6,0.3-2.1,0.1s-0.3-0.5,0.3-0.8
	S37.2,74.6,37.7,74.8L37.7,74.8z M35.2,73.9c0.5,0.2,0.3,0.5-0.3,0.7c-0.7,0.2-1.6,0.3-2.1,0.1s-0.3-0.5,0.4-0.7
	S34.7,73.7,35.2,73.9L35.2,73.9z M41.2,73.6c0.5,0.2,0.4,0.5-0.3,0.7s-1.6,0.3-2.1,0.1c-0.5-0.2-0.4-0.5,0.3-0.7
	C39.8,73.5,40.7,73.4,41.2,73.6L41.2,73.6z M38.7,72.7c0.5,0.2,0.4,0.5-0.3,0.7s-1.6,0.3-2,0.1c-0.5-0.2-0.3-0.5,0.3-0.7
	C37.3,72.5,38.2,72.5,38.7,72.7L38.7,72.7z M32.7,73c0.5,0.2,0.3,0.5-0.3,0.7c-0.7,0.2-1.6,0.3-2.1,0.1c-0.5-0.2-0.3-0.5,0.4-0.7
	C31.4,72.8,32.3,72.8,32.7,73L32.7,73z M30.3,72.1c0.4,0.2,0.3,0.5-0.4,0.7s-1.6,0.3-2,0.1c-0.4-0.2-0.3-0.5,0.4-0.7
	C29,71.9,29.9,71.9,30.3,72.1L30.3,72.1z M36.2,71.8c0.5,0.2,0.3,0.5-0.3,0.7s-1.6,0.3-2,0.1s-0.3-0.5,0.3-0.7
	C34.9,71.7,35.8,71.6,36.2,71.8L36.2,71.8z M33.8,70.9c0.5,0.2,0.3,0.5-0.3,0.7c-0.6,0.2-1.5,0.3-2,0.1c-0.4-0.2-0.3-0.5,0.3-0.7
	C32.5,70.8,33.4,70.8,33.8,70.9L33.8,70.9z M28,71.2c0.4,0.2,0.3,0.5-0.4,0.7s-1.6,0.3-2,0.1s-0.3-0.5,0.4-0.7
	C26.7,71.1,27.6,71,28,71.2L28,71.2z M25.7,70.3c0.4,0.2,0.3,0.5-0.4,0.7s-1.6,0.3-2,0.1c-0.4-0.2-0.2-0.5,0.4-0.7
	C24.4,70.2,25.3,70.2,25.7,70.3L25.7,70.3z M31.5,70.1c0.4,0.2,0.3,0.5-0.3,0.7c-0.6,0.2-1.5,0.2-2,0.1s-0.3-0.5,0.4-0.7
	C30.2,70,31,69.9,31.5,70.1L31.5,70.1z M29.2,69.3c0.4,0.2,0.3,0.4-0.4,0.6c-0.6,0.2-1.5,0.2-1.9,0.1c-0.4-0.2-0.3-0.4,0.4-0.6
	C27.9,69.1,28.8,69.1,29.2,69.3L29.2,69.3z M88.2,87.6c0.7,0.3,0.8,0.7,0.2,1S86.7,89,86,88.8c-0.7-0.3-0.8-0.7-0.2-1.1
	C86.4,87.4,87.5,87.3,88.2,87.6L88.2,87.6z M84.4,86.3c0.7,0.3,0.8,0.7,0.2,1c-0.6,0.3-1.7,0.4-2.4,0.1c-0.7-0.3-0.8-0.7-0.2-1
	C82.7,86.1,83.7,86,84.4,86.3L84.4,86.3z M91.3,85.9c0.7,0.2,0.9,0.7,0.3,1C91,87.2,90,87.3,89.2,87s-0.8-0.7-0.3-1
	C89.6,85.7,90.6,85.7,91.3,85.9L91.3,85.9z M87.6,84.7c0.7,0.2,0.8,0.7,0.2,1c-0.6,0.3-1.6,0.4-2.3,0.1s-0.8-0.7-0.2-1
	C85.9,84.5,86.9,84.4,87.6,84.7L87.6,84.7z M80.8,85c0.7,0.2,0.8,0.7,0.2,1c-0.6,0.3-1.7,0.4-2.3,0.1s-0.7-0.7-0.1-1
	C79.1,84.8,80.2,84.8,80.8,85L80.8,85z M77.3,83.8c0.7,0.2,0.7,0.7,0.1,0.9c-0.6,0.3-1.7,0.4-2.3,0.1c-0.7-0.2-0.7-0.7-0.1-1
	C75.6,83.6,76.7,83.6,77.3,83.8L77.3,83.8z M84,83.4c0.7,0.2,0.8,0.6,0.2,0.9c-0.6,0.3-1.6,0.3-2.3,0.1c-0.7-0.2-0.8-0.7-0.2-0.9
	C82.3,83.3,83.3,83.2,84,83.4L84,83.4z M80.5,82.3c0.7,0.2,0.7,0.6,0.1,0.9s-1.6,0.3-2.3,0.1c-0.7-0.2-0.7-0.6-0.1-0.9
	C78.9,82.1,79.9,82,80.5,82.3L80.5,82.3z M73.9,82.6c0.7,0.2,0.7,0.6,0.1,0.9c-0.6,0.3-1.7,0.3-2.3,0.1s-0.7-0.6,0-0.9
	C72.3,82.4,73.3,82.4,73.9,82.6L73.9,82.6z M70.6,81.5c0.6,0.2,0.7,0.6,0,0.9c-0.6,0.3-1.6,0.3-2.3,0.1c-0.6-0.2-0.6-0.6,0-0.9
	C69,81.3,70,81.3,70.6,81.5L70.6,81.5z M77.1,81.1c0.6,0.2,0.7,0.6,0.1,0.9c-0.6,0.3-1.6,0.3-2.2,0.1s-0.7-0.6-0.1-0.9
	C75.5,81,76.5,80.9,77.1,81.1L77.1,81.1z M73.8,80c0.6,0.2,0.7,0.6,0.1,0.9s-1.6,0.3-2.2,0.1s-0.6-0.6,0-0.9S73.2,79.8,73.8,80
	L73.8,80z M67.4,80.3c0.6,0.2,0.6,0.6,0,0.9c-0.6,0.3-1.6,0.3-2.2,0.1s-0.6-0.6,0-0.9C65.8,80.2,66.8,80.1,67.4,80.3L67.4,80.3z
	 M64.3,79.3c0.6,0.2,0.6,0.6,0,0.9s-1.6,0.3-2.2,0.1s-0.6-0.6,0.1-0.9C62.7,79.1,63.7,79.1,64.3,79.3L64.3,79.3z M70.6,78.9
	c0.6,0.2,0.6,0.6,0,0.9c-0.6,0.3-1.6,0.3-2.2,0.1c-0.6-0.2-0.6-0.6,0-0.9C69.1,78.8,70,78.7,70.6,78.9L70.6,78.9z M67.5,77.9
	c0.6,0.2,0.6,0.6,0,0.8C66.9,79,66,79,65.4,78.8c-0.6-0.2-0.6-0.6,0-0.8C66,77.7,66.9,77.7,67.5,77.9L67.5,77.9z M61.2,78.2
	c0.6,0.2,0.5,0.6-0.1,0.8s-1.6,0.3-2.2,0.1c-0.6-0.2-0.5-0.6,0.1-0.8C59.7,78,60.7,78,61.2,78.2L61.2,78.2z M58.3,77.2
	c0.6,0.2,0.5,0.6-0.1,0.8s-1.6,0.3-2.2,0.1s-0.5-0.6,0.1-0.8C56.8,77,57.7,77,58.3,77.2L58.3,77.2z M64.5,76.9
	c0.6,0.2,0.6,0.6,0,0.8c-0.6,0.3-1.6,0.3-2.1,0.1s-0.6-0.6,0.1-0.8C63,76.7,63.9,76.7,64.5,76.9L64.5,76.9z M61.5,75.9
	c0.6,0.2,0.5,0.5-0.1,0.8s-1.6,0.3-2.1,0.1c-0.6-0.2-0.5-0.5,0.1-0.8C60.1,75.7,61,75.7,61.5,75.9L61.5,75.9z M55.4,76.2
	c0.6,0.2,0.5,0.5-0.1,0.8c-0.6,0.2-1.6,0.3-2.1,0.1c-0.6-0.2-0.5-0.6,0.2-0.8C53.9,76,54.8,76,55.4,76.2L55.4,76.2z M52.6,75.2
	c0.5,0.2,0.5,0.5-0.2,0.8s-1.6,0.3-2.1,0.1s-0.4-0.5,0.2-0.8C51.1,75,52.1,75,52.6,75.2L52.6,75.2z M58.7,74.9
	c0.5,0.2,0.5,0.5-0.1,0.8c-0.6,0.2-1.5,0.3-2.1,0.1c-0.6-0.2-0.5-0.5,0.1-0.8S58.1,74.7,58.7,74.9L58.7,74.9z M55.9,73.9
	c0.5,0.2,0.5,0.5-0.1,0.7s-1.5,0.3-2.1,0.1s-0.5-0.5,0.1-0.7C54.4,73.8,55.3,73.8,55.9,73.9L55.9,73.9z M49.9,74.2
	c0.5,0.2,0.4,0.5-0.2,0.8c-0.6,0.2-1.6,0.3-2.1,0.1c-0.5-0.2-0.4-0.5,0.2-0.8S49.3,74.1,49.9,74.2L49.9,74.2z M47.2,73.3
	c0.5,0.2,0.4,0.5-0.2,0.7c-0.6,0.2-1.6,0.3-2.1,0.1c-0.5-0.2-0.4-0.5,0.2-0.7C45.8,73.2,46.7,73.1,47.2,73.3L47.2,73.3z M53.1,73
	c0.5,0.2,0.5,0.5-0.2,0.7c-0.6,0.2-1.5,0.3-2,0.1c-0.5-0.2-0.4-0.5,0.2-0.7C51.7,72.9,52.6,72.8,53.1,73L53.1,73z M50.5,72.1
	c0.5,0.2,0.4,0.5-0.2,0.7c-0.6,0.2-1.5,0.3-2,0.1c-0.5-0.2-0.4-0.5,0.2-0.7C49.1,72,50,72,50.5,72.1L50.5,72.1z M44.6,72.4
	c0.5,0.2,0.4,0.5-0.2,0.7s-1.5,0.3-2,0.1c-0.5-0.2-0.4-0.5,0.3-0.7C43.2,72.3,44.1,72.2,44.6,72.4L44.6,72.4z M42.1,71.5
	c0.5,0.2,0.4,0.5-0.3,0.7c-0.6,0.2-1.5,0.3-2,0.1s-0.3-0.5,0.3-0.7S41.6,71.4,42.1,71.5L42.1,71.5z M47.9,71.2
	c0.5,0.2,0.4,0.5-0.2,0.7s-1.5,0.3-2,0.1s-0.4-0.5,0.2-0.7C46.5,71.1,47.4,71.1,47.9,71.2L47.9,71.2z M45.4,70.4
	c0.5,0.2,0.4,0.5-0.2,0.7c-0.6,0.2-1.5,0.3-2,0.1s-0.4-0.5,0.2-0.7C44,70.3,44.9,70.2,45.4,70.4L45.4,70.4z M39.6,70.7
	c0.5,0.2,0.3,0.5-0.3,0.7s-1.5,0.3-2,0.1s-0.3-0.5,0.3-0.7C38.3,70.5,39.1,70.5,39.6,70.7L39.6,70.7z M37.2,69.8
	c0.5,0.2,0.3,0.5-0.3,0.7s-1.5,0.2-2,0.1s-0.3-0.5,0.3-0.7C35.9,69.7,36.7,69.7,37.2,69.8L37.2,69.8z M42.9,69.6
	c0.5,0.2,0.4,0.4-0.2,0.6s-1.5,0.2-1.9,0.1s-0.3-0.5,0.3-0.7C41.6,69.4,42.4,69.4,42.9,69.6L42.9,69.6z M40.5,68.7
	c0.5,0.1,0.3,0.4-0.3,0.6c-0.6,0.2-1.5,0.2-1.9,0.1c-0.5-0.2-0.3-0.4,0.3-0.6C39.2,68.6,40,68.6,40.5,68.7L40.5,68.7z M34.9,69
	c0.4,0.2,0.3,0.4-0.3,0.6c-0.6,0.2-1.5,0.2-1.9,0.1c-0.4-0.2-0.3-0.4,0.3-0.6C33.6,68.9,34.4,68.8,34.9,69L34.9,69z M32.6,68.2
	c0.4,0.1,0.3,0.4-0.3,0.6c-0.6,0.2-1.5,0.2-1.9,0.1s-0.3-0.4,0.3-0.6C31.3,68.1,32.1,68.1,32.6,68.2L32.6,68.2z M38.1,68
	c0.4,0.1,0.3,0.4-0.3,0.6c-0.6,0.2-1.4,0.2-1.9,0.1c-0.4-0.1-0.3-0.4,0.3-0.6C36.8,67.8,37.7,67.8,38.1,68L38.1,68z M35.8,67.2
	c0.4,0.1,0.3,0.4-0.3,0.6c-0.6,0.2-1.4,0.2-1.9,0.1s-0.3-0.4,0.3-0.6C34.6,67.1,35.4,67,35.8,67.2L35.8,67.2z M94.4,84.3
	c0.7,0.2,0.9,0.7,0.3,1c-0.6,0.3-1.6,0.4-2.3,0.1c-0.7-0.2-0.8-0.7-0.3-1S93.6,84.1,94.4,84.3L94.4,84.3z M90.7,83.1
	c0.7,0.2,0.8,0.6,0.3,0.9s-1.6,0.3-2.3,0.1c-0.7-0.2-0.8-0.7-0.2-0.9C89,82.9,90,82.9,90.7,83.1L90.7,83.1z M97.3,82.7
	c0.7,0.2,0.9,0.6,0.3,0.9c-0.5,0.3-1.6,0.3-2.3,0.1s-0.8-0.6-0.3-0.9C95.6,82.5,96.6,82.5,97.3,82.7L97.3,82.7z M93.6,81.6
	c0.7,0.2,0.8,0.6,0.3,0.9c-0.5,0.3-1.6,0.3-2.3,0.1c-0.7-0.2-0.8-0.6-0.3-0.9S92.9,81.3,93.6,81.6L93.6,81.6z M87.1,81.9
	c0.7,0.2,0.8,0.6,0.2,0.9c-0.6,0.3-1.6,0.3-2.3,0.1c-0.7-0.2-0.8-0.6-0.2-0.9C85.4,81.7,86.4,81.7,87.1,81.9L87.1,81.9z M83.6,80.8
	c0.7,0.2,0.7,0.6,0.2,0.9c-0.6,0.3-1.6,0.3-2.2,0.1s-0.7-0.6-0.2-0.9C82,80.6,83,80.6,83.6,80.8L83.6,80.8z M90.1,80.4
	c0.7,0.2,0.8,0.6,0.2,0.9c-0.6,0.3-1.5,0.3-2.2,0.1c-0.7-0.2-0.8-0.6-0.2-0.9S89.4,80.2,90.1,80.4L90.1,80.4z M86.6,79.3
	c0.7,0.2,0.7,0.6,0.2,0.9c-0.6,0.3-1.5,0.3-2.2,0.1c-0.7-0.2-0.7-0.6-0.2-0.9C85,79.2,86,79.1,86.6,79.3L86.6,79.3z M80.3,79.7
	c0.6,0.2,0.7,0.6,0.1,0.9c-0.6,0.3-1.6,0.3-2.2,0.1c-0.6-0.2-0.7-0.6-0.1-0.9C78.7,79.5,79.6,79.5,80.3,79.7L80.3,79.7z M77,78.6
	c0.6,0.2,0.7,0.6,0.1,0.8c-0.6,0.3-1.6,0.3-2.2,0.1s-0.7-0.6-0.1-0.8C75.4,78.4,76.3,78.4,77,78.6L77,78.6z M83.3,78.3
	c0.6,0.2,0.7,0.6,0.2,0.8c-0.6,0.3-1.5,0.3-2.2,0.1c-0.6-0.2-0.7-0.6-0.1-0.8C81.7,78.1,82.6,78.1,83.3,78.3L83.3,78.3z M80,77.2
	c0.6,0.2,0.7,0.6,0.1,0.8c-0.6,0.3-1.5,0.3-2.1,0.1s-0.7-0.6-0.1-0.8C78.4,77.1,79.4,77,80,77.2L80,77.2z M73.8,77.6
	c0.6,0.2,0.6,0.6,0.1,0.8s-1.5,0.3-2.2,0.1c-0.6-0.2-0.6-0.6-0.1-0.8S73.2,77.4,73.8,77.6L73.8,77.6z M70.7,76.5
	c0.6,0.2,0.6,0.6,0,0.8s-1.5,0.3-2.1,0.1s-0.6-0.6,0-0.8C69.2,76.4,70.1,76.4,70.7,76.5L70.7,76.5z M76.8,76.2
	c0.6,0.2,0.7,0.5,0.1,0.8s-1.5,0.3-2.1,0.1s-0.6-0.6-0.1-0.8C75.3,76.1,76.2,76,76.8,76.2L76.8,76.2z M73.7,75.3
	c0.6,0.2,0.6,0.5,0.1,0.8c-0.6,0.2-1.5,0.3-2.1,0.1c-0.6-0.2-0.6-0.5,0-0.8C72.2,75.1,73.1,75.1,73.7,75.3L73.7,75.3z M67.7,75.6
	c0.6,0.2,0.6,0.5,0,0.8s-1.5,0.3-2.1,0.1s-0.6-0.5,0-0.8C66.2,75.4,67.1,75.4,67.7,75.6L67.7,75.6z M64.7,74.6
	c0.6,0.2,0.6,0.5,0,0.8c-0.6,0.2-1.5,0.3-2.1,0.1c-0.6-0.2-0.5-0.5,0.1-0.8C63.2,74.4,64.2,74.4,64.7,74.6L64.7,74.6z M70.7,74.3
	c0.6,0.2,0.6,0.5,0,0.8c-0.6,0.2-1.5,0.3-2.1,0.1c-0.6-0.2-0.6-0.5,0-0.8C69.2,74.2,70.1,74.1,70.7,74.3L70.7,74.3z M67.8,73.4
	c0.6,0.2,0.6,0.5,0,0.7c-0.6,0.2-1.5,0.3-2,0.1c-0.6-0.2-0.5-0.5,0-0.7C66.3,73.2,67.2,73.2,67.8,73.4L67.8,73.4z M61.8,73.7
	c0.6,0.2,0.5,0.5-0.1,0.7s-1.5,0.3-2.1,0.1s-0.5-0.5,0.1-0.7C60.4,73.5,61.3,73.5,61.8,73.7L61.8,73.7z M59,72.7
	c0.5,0.2,0.5,0.5-0.1,0.7c-0.6,0.2-1.5,0.3-2,0.1c-0.5-0.2-0.5-0.5,0.1-0.7C57.6,72.6,58.5,72.6,59,72.7L59,72.7z M64.9,72.5
	c0.5,0.2,0.5,0.5,0,0.7c-0.6,0.2-1.5,0.3-2,0.1s-0.5-0.5,0.1-0.7C63.5,72.3,64.4,72.3,64.9,72.5L64.9,72.5z M62.1,71.6
	c0.5,0.2,0.5,0.5-0.1,0.7c-0.6,0.2-1.5,0.3-2,0.1s-0.5-0.5,0.1-0.7S61.6,71.4,62.1,71.6L62.1,71.6z M56.3,71.8
	c0.5,0.2,0.5,0.5-0.1,0.7c-0.6,0.2-1.5,0.3-2,0.1s-0.4-0.5,0.1-0.7S55.8,71.7,56.3,71.8L56.3,71.8z M53.7,71
	c0.5,0.2,0.4,0.5-0.1,0.7c-0.6,0.2-1.5,0.3-2,0.1s-0.4-0.5,0.2-0.7C52.3,70.8,53.2,70.8,53.7,71L53.7,71z M59.4,70.7
	c0.5,0.2,0.5,0.5-0.1,0.7s-1.5,0.3-2,0.1s-0.5-0.5,0.1-0.7S58.9,70.5,59.4,70.7L59.4,70.7z M56.7,69.9c0.5,0.2,0.5,0.5-0.1,0.7
	c-0.6,0.2-1.4,0.2-1.9,0.1s-0.4-0.5,0.1-0.7C55.4,69.7,56.2,69.7,56.7,69.9L56.7,69.9z M51.1,70.1c0.5,0.2,0.4,0.5-0.2,0.7
	c-0.6,0.2-1.5,0.2-2,0.1s-0.4-0.5,0.2-0.7S50.6,70,51.1,70.1L51.1,70.1z M48.5,69.3c0.5,0.2,0.4,0.4-0.2,0.6
	c-0.6,0.2-1.5,0.2-1.9,0.1s-0.4-0.4,0.2-0.6C47.2,69.2,48.1,69.1,48.5,69.3L48.5,69.3z M54.2,69c0.5,0.2,0.4,0.4-0.1,0.6
	c-0.6,0.2-1.4,0.2-1.9,0.1s-0.4-0.4,0.1-0.6C52.8,68.9,53.7,68.9,54.2,69L54.2,69z M51.6,68.2c0.5,0.1,0.4,0.4-0.2,0.6
	c-0.6,0.2-1.4,0.2-1.9,0.1c-0.5-0.2-0.4-0.4,0.2-0.6C50.3,68.1,51.1,68.1,51.6,68.2L51.6,68.2z M46.1,68.5c0.5,0.1,0.4,0.4-0.2,0.6
	s-1.4,0.2-1.9,0.1c-0.5-0.2-0.4-0.4,0.2-0.6C44.8,68.4,45.6,68.3,46.1,68.5L46.1,68.5z M43.7,67.7c0.5,0.1,0.4,0.4-0.2,0.6
	c-0.6,0.2-1.4,0.2-1.9,0.1c-0.5-0.1-0.3-0.4,0.2-0.6S43.2,67.6,43.7,67.7L43.7,67.7z M49.2,67.5c0.5,0.1,0.4,0.4-0.2,0.6
	c-0.6,0.2-1.4,0.2-1.9,0.1c-0.5-0.1-0.4-0.4,0.2-0.6C47.9,67.3,48.7,67.3,49.2,67.5L49.2,67.5z M46.7,66.7c0.5,0.1,0.4,0.4-0.2,0.6
	c-0.6,0.2-1.4,0.2-1.9,0.1s-0.3-0.4,0.2-0.6C45.5,66.6,46.3,66.5,46.7,66.7L46.7,66.7z M41.3,66.9c0.4,0.1,0.3,0.4-0.2,0.6
	c-0.6,0.2-1.4,0.2-1.9,0.1s-0.3-0.4,0.3-0.6S40.9,66.8,41.3,66.9L41.3,66.9z M39,66.2c0.4,0.1,0.3,0.4-0.3,0.6
	c-0.6,0.2-1.4,0.2-1.8,0.1s-0.3-0.4,0.3-0.6C37.8,66.1,38.6,66,39,66.2L39,66.2z M44.4,65.9c0.4,0.1,0.4,0.4-0.2,0.6
	c-0.6,0.2-1.4,0.2-1.8,0.1c-0.4-0.1-0.3-0.4,0.2-0.6S43.9,65.8,44.4,65.9L44.4,65.9z M42.1,65.2c0.4,0.1,0.3,0.4-0.2,0.6
	C41.3,66,40.5,66,40,65.9s-0.3-0.4,0.3-0.6C40.8,65.1,41.6,65.1,42.1,65.2L42.1,65.2z M100.1,81.2c0.7,0.2,0.9,0.6,0.4,0.9
	s-1.5,0.3-2.2,0.1c-0.7-0.2-0.8-0.6-0.3-0.9C98.4,81.1,99.4,81,100.1,81.2L100.1,81.2z M96.5,80.1c0.7,0.2,0.8,0.6,0.3,0.9
	c-0.5,0.3-1.5,0.3-2.2,0.1c-0.7-0.2-0.8-0.6-0.3-0.9S95.8,79.9,96.5,80.1L96.5,80.1z M102.8,79.8c0.7,0.2,0.9,0.6,0.4,0.9
	s-1.5,0.3-2.2,0.1s-0.9-0.6-0.3-0.9C101.2,79.6,102.1,79.6,102.8,79.8L102.8,79.8z M99.2,78.7c0.7,0.2,0.8,0.6,0.3,0.8
	s-1.5,0.3-2.2,0.1c-0.7-0.2-0.8-0.6-0.3-0.8C97.6,78.5,98.5,78.5,99.2,78.7L99.2,78.7z M92.9,79c0.7,0.2,0.8,0.6,0.3,0.9
	S91.7,80.2,91,80s-0.8-0.6-0.3-0.9C91.3,78.9,92.3,78.8,92.9,79L92.9,79z M89.5,78c0.7,0.2,0.8,0.6,0.2,0.8s-1.5,0.3-2.1,0.1
	s-0.7-0.6-0.2-0.8C87.9,77.8,88.9,77.8,89.5,78L89.5,78z M95.7,77.6c0.7,0.2,0.8,0.6,0.3,0.8c-0.5,0.3-1.5,0.3-2.1,0.1
	c-0.7-0.2-0.8-0.6-0.3-0.8S95.1,77.4,95.7,77.6L95.7,77.6z M92.3,76.6c0.6,0.2,0.8,0.6,0.2,0.8c-0.5,0.3-1.5,0.3-2.1,0.1
	s-0.7-0.6-0.2-0.8C90.7,76.5,91.7,76.4,92.3,76.6L92.3,76.6z M86.2,76.9c0.6,0.2,0.7,0.6,0.2,0.8s-1.5,0.3-2.1,0.1
	c-0.6-0.2-0.7-0.6-0.2-0.8C84.6,76.8,85.5,76.7,86.2,76.9L86.2,76.9z M82.9,75.9c0.6,0.2,0.7,0.5,0.2,0.8c-0.5,0.2-1.5,0.3-2.1,0.1
	c-0.6-0.2-0.7-0.6-0.1-0.8C81.4,75.8,82.3,75.7,82.9,75.9L82.9,75.9z M89,75.6c0.6,0.2,0.7,0.5,0.2,0.8s-1.5,0.3-2.1,0.1
	s-0.7-0.5-0.2-0.8S88.4,75.4,89,75.6L89,75.6z M85.8,74.7c0.6,0.2,0.7,0.5,0.2,0.8c-0.5,0.2-1.4,0.3-2.1,0.1
	c-0.6-0.2-0.7-0.5-0.2-0.8C84.2,74.5,85.1,74.5,85.8,74.7L85.8,74.7z M79.8,75c0.6,0.2,0.7,0.5,0.1,0.8c-0.5,0.2-1.5,0.3-2.1,0.1
	s-0.6-0.5-0.1-0.8C78.2,74.8,79.2,74.8,79.8,75L79.8,75z M76.7,74c0.6,0.2,0.6,0.5,0.1,0.7s-1.5,0.3-2.1,0.1s-0.6-0.5-0.1-0.7
	C75.2,73.9,76.1,73.8,76.7,74L76.7,74z M82.6,73.7c0.6,0.2,0.7,0.5,0.1,0.7s-1.4,0.3-2,0.1s-0.7-0.5-0.1-0.7
	C81.1,73.6,82,73.5,82.6,73.7L82.6,73.7z M79.5,72.8c0.6,0.2,0.6,0.5,0.1,0.7s-1.4,0.3-2,0.1c-0.6-0.2-0.6-0.5-0.1-0.7
	C78.1,72.7,79,72.6,79.5,72.8L79.5,72.8z M73.7,73.1c0.6,0.2,0.6,0.5,0.1,0.7c-0.5,0.2-1.5,0.3-2,0.1c-0.6-0.2-0.6-0.5,0-0.7
	C72.2,72.9,73.1,72.9,73.7,73.1L73.7,73.1z M70.7,72.2c0.6,0.2,0.6,0.5,0,0.7c-0.6,0.2-1.5,0.3-2,0.1s-0.6-0.5,0-0.7
	C69.3,72,70.2,72,70.7,72.2L70.7,72.2z M76.5,71.9c0.6,0.2,0.6,0.5,0.1,0.7s-1.4,0.3-2,0.1c-0.6-0.2-0.6-0.5-0.1-0.7
	C75.1,71.8,76,71.7,76.5,71.9L76.5,71.9z M73.6,71c0.6,0.2,0.6,0.5,0.1,0.7c-0.5,0.2-1.4,0.3-2,0.1c-0.6-0.2-0.6-0.5,0-0.7
	C72.2,70.9,73.1,70.9,73.6,71L73.6,71z M67.9,71.3c0.5,0.2,0.5,0.5,0,0.7s-1.4,0.3-2,0.1c-0.5-0.2-0.5-0.5,0-0.7
	C66.5,71.2,67.4,71.1,67.9,71.3L67.9,71.3z M65.1,70.4c0.5,0.2,0.5,0.5,0,0.7s-1.4,0.3-2,0.1c-0.5-0.2-0.5-0.5,0.1-0.7
	C63.7,70.3,64.6,70.3,65.1,70.4L65.1,70.4z M70.8,70.2c0.5,0.2,0.6,0.5,0,0.7c-0.5,0.2-1.4,0.3-1.9,0.1c-0.5-0.2-0.5-0.5,0-0.7
	C69.4,70,70.2,70,70.8,70.2L70.8,70.2z M68,69.3c0.5,0.2,0.5,0.4,0,0.6c-0.5,0.2-1.4,0.2-1.9,0.1c-0.5-0.2-0.5-0.4,0-0.6
	S67.5,69.2,68,69.3L68,69.3z M62.4,69.6c0.5,0.2,0.5,0.4-0.1,0.7c-0.6,0.2-1.4,0.2-1.9,0.1c-0.5-0.2-0.5-0.5,0.1-0.7
	C61,69.5,61.9,69.4,62.4,69.6L62.4,69.6z M59.7,68.8c0.5,0.2,0.5,0.4-0.1,0.6c-0.6,0.2-1.4,0.2-1.9,0.1c-0.5-0.2-0.4-0.4,0.1-0.6
	C58.4,68.7,59.2,68.6,59.7,68.8L59.7,68.8z M65.3,68.5c0.5,0.1,0.5,0.4,0,0.6s-1.4,0.2-1.9,0.1c-0.5-0.2-0.5-0.4,0-0.6
	S64.8,68.4,65.3,68.5L65.3,68.5z M62.6,67.7c0.5,0.1,0.5,0.4-0.1,0.6c-0.5,0.2-1.4,0.2-1.9,0.1c-0.5-0.1-0.5-0.4,0.1-0.6
	C61.3,67.6,62.1,67.6,62.6,67.7L62.6,67.7z M57.2,68c0.5,0.1,0.4,0.4-0.1,0.6c-0.6,0.2-1.4,0.2-1.9,0.1s-0.4-0.4,0.1-0.6
	C55.8,67.9,56.7,67.8,57.2,68L57.2,68z M54.6,67.2c0.5,0.1,0.4,0.4-0.1,0.6c-0.6,0.2-1.4,0.2-1.9,0.1s-0.4-0.4,0.2-0.6
	C53.3,67.1,54.1,67.1,54.6,67.2L54.6,67.2z M60.1,67c0.5,0.1,0.5,0.4-0.1,0.6c-0.5,0.2-1.4,0.2-1.9,0.1s-0.4-0.4,0.1-0.6
	C58.7,66.9,59.6,66.8,60.1,67L60.1,67z M57.5,66.2c0.5,0.1,0.4,0.4-0.1,0.6c-0.5,0.2-1.4,0.2-1.8,0.1s-0.4-0.4,0.1-0.6
	C56.2,66.1,57.1,66.1,57.5,66.2L57.5,66.2z M52.2,66.4c0.5,0.1,0.4,0.4-0.2,0.6c-0.6,0.2-1.4,0.2-1.8,0.1s-0.4-0.4,0.2-0.6
	S51.7,66.3,52.2,66.4L52.2,66.4z M49.7,65.7c0.5,0.1,0.4,0.4-0.2,0.6c-0.6,0.2-1.4,0.2-1.8,0.1c-0.5-0.1-0.4-0.4,0.2-0.6
	C48.5,65.6,49.3,65.6,49.7,65.7L49.7,65.7z M55.1,65.5c0.5,0.1,0.4,0.4-0.1,0.6s-1.4,0.2-1.8,0.1s-0.4-0.4,0.1-0.6
	S54.6,65.3,55.1,65.5L55.1,65.5z M52.7,64.8c0.5,0.1,0.4,0.4-0.1,0.6c-0.5,0.2-1.3,0.2-1.8,0.1c-0.5-0.1-0.4-0.4,0.2-0.6
	C51.4,64.6,52.2,64.6,52.7,64.8L52.7,64.8z M47.4,65c0.4,0.1,0.4,0.4-0.2,0.6c-0.6,0.2-1.4,0.2-1.8,0.1c-0.4-0.1-0.3-0.4,0.2-0.6
	C46.1,64.9,46.9,64.8,47.4,65L47.4,65z M45.1,64.3c0.4,0.1,0.3,0.4-0.2,0.6c-0.6,0.2-1.4,0.2-1.8,0.1c-0.4-0.1-0.3-0.4,0.2-0.6
	C43.9,64.2,44.6,64.1,45.1,64.3L45.1,64.3z M50.3,64c0.4,0.1,0.4,0.4-0.2,0.6c-0.5,0.2-1.3,0.2-1.8,0.1c-0.4-0.1-0.4-0.4,0.2-0.6
	C49.1,63.9,49.9,63.9,50.3,64L50.3,64z M48,63.4c0.4,0.1,0.4,0.4-0.2,0.5c-0.5,0.2-1.3,0.2-1.8,0.1c-0.4-0.1-0.3-0.4,0.2-0.6
	C46.8,63.3,47.6,63.2,48,63.4L48,63.4z M105.5,78.4c0.7,0.2,0.9,0.6,0.4,0.8s-1.4,0.3-2.2,0.1c-0.7-0.2-0.9-0.6-0.4-0.8
	C103.8,78.2,104.8,78.2,105.5,78.4L105.5,78.4z M101.9,77.3c0.7,0.2,0.8,0.6,0.4,0.8c-0.5,0.3-1.4,0.3-2.1,0.1s-0.8-0.6-0.3-0.8
	S101.2,77.1,101.9,77.3L101.9,77.3z M108,77c0.7,0.2,0.9,0.6,0.4,0.8s-1.4,0.3-2.1,0.1s-0.9-0.6-0.4-0.8
	C106.4,76.9,107.3,76.8,108,77L108,77z M104.4,76c0.7,0.2,0.8,0.6,0.4,0.8c-0.5,0.3-1.4,0.3-2.1,0.1c-0.7-0.2-0.8-0.6-0.3-0.8
	C102.9,75.9,103.8,75.8,104.4,76L104.4,76z M98.4,76.3c0.7,0.2,0.8,0.6,0.3,0.8c-0.5,0.3-1.4,0.3-2.1,0.1c-0.7-0.2-0.8-0.6-0.3-0.8
	C96.8,76.2,97.7,76.1,98.4,76.3L98.4,76.3z M95,75.3c0.6,0.2,0.8,0.5,0.3,0.8s-1.4,0.3-2.1,0.1s-0.8-0.5-0.3-0.8
	C93.5,75.2,94.4,75.1,95,75.3L95,75.3z M101,75c0.7,0.2,0.8,0.5,0.3,0.8c-0.5,0.2-1.4,0.3-2.1,0.1s-0.8-0.5-0.3-0.8
	C99.4,74.9,100.3,74.8,101,75L101,75z M97.6,74.1c0.6,0.2,0.8,0.5,0.3,0.8c-0.5,0.2-1.4,0.3-2,0.1s-0.8-0.5-0.3-0.8
	C96.1,73.9,97,73.9,97.6,74.1L97.6,74.1z M91.7,74.4c0.6,0.2,0.7,0.5,0.2,0.8c-0.5,0.2-1.4,0.3-2.1,0.1c-0.6-0.2-0.7-0.5-0.2-0.8
	C90.2,74.2,91.1,74.2,91.7,74.4L91.7,74.4z M88.5,73.4c0.6,0.2,0.7,0.5,0.2,0.7c-0.5,0.2-1.4,0.3-2,0.1c-0.6-0.2-0.7-0.5-0.2-0.7
	C87,73.3,87.9,73.3,88.5,73.4L88.5,73.4z M94.3,73.1c0.6,0.2,0.8,0.5,0.3,0.7c-0.5,0.2-1.4,0.3-2,0.1c-0.6-0.2-0.7-0.5-0.2-0.7
	C92.8,73,93.7,73,94.3,73.1L94.3,73.1z M85.4,72.5c0.6,0.2,0.7,0.5,0.2,0.7c-0.5,0.2-1.4,0.3-2,0.1c-0.6-0.2-0.7-0.5-0.2-0.7
	C83.9,72.4,84.8,72.3,85.4,72.5L85.4,72.5z M82.3,71.6c0.6,0.2,0.6,0.5,0.1,0.7s-1.4,0.3-2,0.1s-0.6-0.5-0.1-0.7
	C80.9,71.5,81.7,71.5,82.3,71.6L82.3,71.6z M79.3,70.8c0.6,0.2,0.6,0.5,0.1,0.7s-1.4,0.3-1.9,0.1c-0.6-0.2-0.6-0.5-0.1-0.7
	C77.9,70.6,78.8,70.6,79.3,70.8L79.3,70.8z M76.4,69.9c0.6,0.2,0.6,0.5,0.1,0.7s-1.4,0.2-1.9,0.1C74,70.5,74,70.2,74.5,70
	C75,69.8,75.9,69.8,76.4,69.9L76.4,69.9z M73.6,69.1c0.5,0.2,0.6,0.4,0.1,0.6c-0.5,0.2-1.4,0.2-1.9,0.1s-0.6-0.4,0-0.6
	C72.2,69,73,68.9,73.6,69.1L73.6,69.1z M70.8,68.3c0.5,0.1,0.5,0.4,0,0.6s-1.4,0.2-1.9,0.1s-0.5-0.4,0-0.6
	C69.5,68.2,70.3,68.1,70.8,68.3L70.8,68.3z M91.2,72.2c0.6,0.2,0.7,0.5,0.2,0.7s-1.4,0.3-2,0.1s-0.7-0.5-0.2-0.7
	C89.7,72.1,90.5,72.1,91.2,72.2L91.2,72.2z M68.1,67.5c0.5,0.1,0.5,0.4,0,0.6c-0.5,0.2-1.4,0.2-1.9,0.1s-0.5-0.4,0-0.6
	C66.8,67.4,67.6,67.3,68.1,67.5L68.1,67.5z M65.5,66.7c0.5,0.1,0.5,0.4,0,0.6c-0.5,0.2-1.3,0.2-1.8,0.1s-0.5-0.4,0-0.6
	C64.2,66.6,65,66.6,65.5,66.7L65.5,66.7z M70.8,66.5c0.5,0.1,0.5,0.4,0,0.6c-0.5,0.2-1.3,0.2-1.8,0.1s-0.5-0.4,0-0.6
	C69.5,66.4,70.3,66.3,70.8,66.5L70.8,66.5z M68.2,65.7c0.5,0.1,0.5,0.4,0,0.6c-0.5,0.2-1.3,0.2-1.8,0.1s-0.5-0.4,0-0.6
	C66.9,65.6,67.7,65.6,68.2,65.7L68.2,65.7z M62.9,66c0.5,0.1,0.5,0.4-0.1,0.6c-0.5,0.2-1.3,0.2-1.8,0.1c-0.5-0.1-0.5-0.4,0.1-0.6
	C61.6,65.9,62.4,65.8,62.9,66L62.9,66z M60.4,65.2c0.5,0.1,0.4,0.4-0.1,0.6C59.8,66,59,66,58.5,65.9c-0.5-0.1-0.4-0.4,0.1-0.6
	C59.1,65.1,59.9,65.1,60.4,65.2L60.4,65.2z M65.6,65c0.5,0.1,0.5,0.4,0,0.6c-0.5,0.2-1.3,0.2-1.8,0.1c-0.5-0.1-0.5-0.4,0-0.6
	C64.3,64.9,65.2,64.9,65.6,65L65.6,65z M63.1,64.3c0.5,0.1,0.5,0.4-0.1,0.6c-0.5,0.2-1.3,0.2-1.8,0.1s-0.4-0.4,0.1-0.6
	C61.9,64.2,62.6,64.2,63.1,64.3L63.1,64.3z M57.9,64.5c0.5,0.1,0.4,0.4-0.1,0.6c-0.5,0.2-1.3,0.2-1.8,0.1c-0.5-0.1-0.4-0.4,0.1-0.6
	C56.6,64.4,57.4,64.4,57.9,64.5L57.9,64.5z M55.5,63.8c0.5,0.1,0.4,0.4-0.1,0.6c-0.5,0.2-1.3,0.2-1.8,0.1c-0.5-0.1-0.4-0.4,0.1-0.6
	C54.2,63.7,55,63.7,55.5,63.8L55.5,63.8z M60.7,63.6c0.5,0.1,0.4,0.4-0.1,0.6c-0.5,0.2-1.3,0.2-1.8,0.1c-0.5-0.1-0.4-0.4,0.1-0.6
	S60.2,63.5,60.7,63.6L60.7,63.6z M58.3,62.9c0.5,0.1,0.4,0.4-0.1,0.5s-1.3,0.2-1.8,0.1C56,63.4,56,63.1,56.5,63
	C57,62.8,57.8,62.8,58.3,62.9L58.3,62.9z M53.1,63.1c0.4,0.1,0.4,0.4-0.1,0.5c-0.5,0.2-1.3,0.2-1.8,0.1c-0.4-0.1-0.4-0.4,0.1-0.5
	C51.9,63,52.7,63,53.1,63.1L53.1,63.1z M50.8,62.5c0.4,0.1,0.4,0.4-0.2,0.5s-1.3,0.2-1.7,0.1s-0.4-0.4,0.2-0.5
	C49.6,62.4,50.4,62.3,50.8,62.5L50.8,62.5z M55.9,62.3c0.4,0.1,0.4,0.4-0.1,0.5c-0.5,0.2-1.3,0.2-1.7,0.1s-0.4-0.4,0.1-0.5
	S55.4,62.1,55.9,62.3L55.9,62.3z M53.6,61.6c0.4,0.1,0.4,0.4-0.1,0.5c-0.5,0.2-1.3,0.2-1.7,0.1c-0.4-0.1-0.4-0.4,0.1-0.5
	C52.4,61.5,53.2,61.5,53.6,61.6z"/>
<g>
	<path class="st3" d="M55.4,13c0-0.4,9.9-1.6,9.7-2c-2.3,0-13.9-0.4-16.6-0.4c-8.1,0-16.5,0.9-18.8,0.7c-0.6-0.1,0.8,2,0.8,2
		c0,4.1-0.8,8.2-0.9,12.3c-0.4,17.8,0.2,32.8,1.2,44c0,4.6,18.5,6.5,25.2,3.9c-1-13.9-1-30.8-0.7-46.2c0.1-3.3,0.9-8.4,0.9-12.2
		C56.2,14.2,55.4,13.8,55.4,13z"/>
	<path class="st3" d="M56.2,14.9c0,4.1-0.8,8.2-0.9,12.3c-0.3,15.4-0.4,32.3,0.7,46.2c0.2,2.2,0.3,4.3,0.6,6.3
		c0.1,3.9,8.9,7.1,19.8,7.1c10.7,0,19.4-3.1,19.8-6.9c0,0,0-0.1,0-0.1c1.3-15.6,2.5-33.9,2.7-52.7c-0.1-4.1-0.6-6.8-0.7-10.9
		c0-0.3,0.1-0.6,0.3-1.1c0.3-0.8,0.9-1.7,1-2.1c-0.3,0.4-10.1-0.8-22.1-0.8c-12,0-21.7,1.1-22.1,0.8c0.1,0.3,0.3,0.5,0.4,0.8
		C56,14.1,56.2,14.5,56.2,14.9z"/>
	<path class="st0" d="M96.2,79.6c0,3.9-8.9,7.1-19.8,7.1s-19.8-3.2-19.8-7.1"/>
	<path class="st0" d="M55.4,13c0-0.4,9.9-0.7,22.1-0.7s22.1,0.3,22.1,0.7"/>
	<path class="st0" d="M55.4,13c0.3,0.7,0.8,1.3,0.8,2c0,4.1-0.8,8.2-0.9,12.3c-0.4,17.8-0.4,37.7,1.2,52.5"/>
	<path class="st0" d="M99.5,13c-0.3,0.7-1.4,2.5-1.4,3.2c0,4.1,0.6,6.8,0.7,10.9c-0.2,18.9-1.3,37.3-2.7,52.8"/>
	<path class="st0" d="M98.8,15c0,0.4-9.6,0.7-21.3,0.7c-11.1,0-20.3-0.3-21.3-0.6"/>
	<path class="st0" d="M29.7,11.2c0.3,0.7,0.8,1.3,0.8,2c0,4.1-0.8,8.2-0.9,12.3c-0.4,17.8,0.2,32.8,1.2,44"/>
	<path class="st0" d="M55.9,73.4c-6.7,2.6-25.2,0.7-25.2-3.9"/>
	<path class="st0" d="M55.8,13.8c-2.3,0-4.6,0.1-7.3,0.1c-9.9,0-18-0.3-18-0.6"/>
	<path class="st0" d="M29.5,11.1c0-0.3,8.1-0.6,18.1-0.6s18.1,0.3,18.1,0.6"/>
</g>
</svg>
