<?xml version="1.0" encoding="utf-8"?>
<!-- Generator: Adobe Illustrator 23.0.1, SVG Export Plug-In . SVG Version: 6.00 Build 0)  -->
<svg version="1.1" id="Слой_1" xmlns="http://www.w3.org/2000/svg" xmlns:xlink="http://www.w3.org/1999/xlink" x="0px" y="0px"
	 viewBox="0 0 128.22 128.22" style="enable-background:new 0 0 128.22 128.22;" xml:space="preserve">
<style type="text/css">
	
		.st0{fill-rule:evenodd;clip-rule:evenodd;fill:none;stroke:#000003;stroke-width:1.4998;stroke-linecap:round;stroke-linejoin:round;stroke-miterlimit:22.9256;}
	
		.st1{fill-rule:evenodd;clip-rule:evenodd;fill:none;stroke:#000003;stroke-width:0.9998;stroke-linecap:round;stroke-linejoin:round;stroke-miterlimit:22.9256;}
	
		.st2{fill-rule:evenodd;clip-rule:evenodd;fill:none;stroke:#616262;stroke-width:0.7498;stroke-linecap:round;stroke-linejoin:round;stroke-miterlimit:22.9256;}
	.st3{fill-rule:evenodd;clip-rule:evenodd;fill:#000003;}
</style>
<g>
	<path class="st0" d="M20.94,63.78c3.95,0,7.59,8.66,8.12,19.34c0.53,10.68-2.24,19.34-6.19,19.34c-3.95,0-7.59-8.66-8.12-19.34
		C14.22,72.44,16.99,63.78,20.94,63.78z"/>
	<path class="st0" d="M90.21,59.98c4.6,0,8.83,6.93,9.44,15.47c0.59,8.21-2.37,14.92-6.68,15.44"/>
	<line class="st0" x1="20.94" y1="63.78" x2="90.21" y2="59.98"/>
	<line class="st0" x1="22.88" y1="102.47" x2="92.97" y2="90.89"/>
	<path class="st1" d="M20.68,80.35c0.59,0,1.13,1.28,1.2,2.87c0.08,1.58-0.33,2.87-0.92,2.87c-0.59,0-1.13-1.28-1.2-2.87
		C19.68,81.63,20.1,80.35,20.68,80.35z"/>
	<polyline class="st0" points="21.27,101.99 40.68,115.32 107.14,103.36 113.53,100.82 92.97,90.89 	"/>
	<path class="st2" d="M22.39,97.8c-2.9,0-5.56-6.57-5.95-14.68c-0.39-8.11,1.64-14.68,4.54-14.68c2.36,0,4.56,4.34,5.51,10.33"/>
	<path class="st2" d="M22.68,73.65c1.08,2.04,1.88,5.56,2.05,9.57C25,89.52,23.6,94.64,21.6,94.64c-2,0-3.83-5.11-4.1-11.42"/>
	<line class="st2" x1="29.71" y1="67.16" x2="29.71" y2="67.52"/>
	<line class="st2" x1="43.45" y1="79.97" x2="43.45" y2="80.34"/>
	<line class="st2" x1="34.43" y1="85.8" x2="34.43" y2="86.16"/>
	<line class="st2" x1="37.49" y1="76.71" x2="37.49" y2="77.07"/>
	<line class="st2" x1="45.87" y1="88.03" x2="45.87" y2="88.39"/>
	<line class="st2" x1="38.2" y1="92.63" x2="38.2" y2="92.99"/>
	<line class="st2" x1="31.72" y1="96.41" x2="31.72" y2="96.78"/>
	<line class="st2" x1="44.33" y1="69.64" x2="44.33" y2="70.01"/>
	<line class="st2" x1="34.64" y1="105.69" x2="34.93" y2="105.9"/>
	<line class="st2" x1="42.22" y1="105.17" x2="42.51" y2="105.39"/>
	<line class="st2" x1="40.65" y1="111.24" x2="40.94" y2="111.46"/>
	<line class="st2" x1="54.02" y1="109.05" x2="54.31" y2="109.27"/>
	<line class="st2" x1="47.78" y1="109.88" x2="48.07" y2="110.1"/>
	<line class="st2" x1="46.01" y1="101.09" x2="46.3" y2="101.31"/>
	<line class="st2" x1="35.73" y1="101.52" x2="36.02" y2="101.74"/>
	<line class="st2" x1="47.78" y1="105.06" x2="48.07" y2="105.28"/>
	<line class="st2" x1="37.26" y1="66.12" x2="37.26" y2="66.48"/>
	<line class="st2" x1="31.72" y1="76.32" x2="31.72" y2="76.68"/>
	<line class="st2" x1="49.11" y1="81.98" x2="49.11" y2="82.34"/>
	<line class="st2" x1="50.92" y1="92.19" x2="50.92" y2="92.55"/>
	<line class="st2" x1="52.49" y1="73.61" x2="52.49" y2="73.98"/>
	<line class="st2" x1="50.43" y1="66.02" x2="50.43" y2="66.38"/>
	<line class="st2" x1="57.31" y1="78.23" x2="57.31" y2="78.6"/>
	<line class="st2" x1="56.42" y1="87.05" x2="56.42" y2="87.41"/>
	<line class="st2" x1="60.06" y1="93.37" x2="60.06" y2="93.73"/>
	<line class="st2" x1="64.09" y1="83.34" x2="64.09" y2="83.71"/>
	<line class="st2" x1="62.62" y1="73" x2="62.62" y2="73.36"/>
	<line class="st2" x1="59.08" y1="66.14" x2="59.08" y2="66.51"/>
	<line class="st2" x1="67.82" y1="63.88" x2="67.82" y2="64.25"/>
	<line class="st2" x1="70.18" y1="75.35" x2="70.18" y2="75.72"/>
	<line class="st2" x1="70.67" y1="86.1" x2="70.67" y2="86.46"/>
	<line class="st2" x1="75.39" y1="90.81" x2="75.39" y2="91.18"/>
	<line class="st2" x1="76.87" y1="80.89" x2="76.87" y2="81.25"/>
	<line class="st2" x1="74.11" y1="68.97" x2="74.11" y2="69.33"/>
	<line class="st2" x1="78.64" y1="63.28" x2="78.64" y2="63.64"/>
	<line class="st2" x1="79.91" y1="73.99" x2="79.91" y2="74.36"/>
	<line class="st2" x1="81.68" y1="86.46" x2="81.68" y2="86.82"/>
	<line class="st2" x1="84.53" y1="79.4" x2="84.53" y2="79.76"/>
	<line class="st2" x1="87.48" y1="88.03" x2="87.48" y2="88.4"/>
	<line class="st2" x1="91.22" y1="82.33" x2="91.22" y2="82.7"/>
	<line class="st2" x1="84.53" y1="69.65" x2="84.53" y2="70.02"/>
	<line class="st2" x1="88.17" y1="64.36" x2="88.17" y2="64.72"/>
	<line class="st2" x1="89.94" y1="74.08" x2="89.94" y2="74.44"/>
	<line class="st2" x1="94.16" y1="70.05" x2="94.16" y2="70.41"/>
	<line class="st2" x1="95.05" y1="85.69" x2="95.05" y2="86.05"/>
	<line class="st2" x1="96.52" y1="76.45" x2="96.52" y2="76.81"/>
	<line class="st2" x1="61.44" y1="107.78" x2="61.73" y2="107.99"/>
	<line class="st2" x1="56.08" y1="104.78" x2="56.37" y2="105"/>
	<line class="st2" x1="59.82" y1="99.48" x2="60.11" y2="99.7"/>
	<line class="st2" x1="53.43" y1="101.58" x2="53.72" y2="101.8"/>
	<line class="st2" x1="70.68" y1="105.26" x2="70.97" y2="105.48"/>
	<line class="st2" x1="70.19" y1="98.57" x2="70.48" y2="98.79"/>
	<line class="st2" x1="63.9" y1="102.85" x2="64.19" y2="103.07"/>
	<line class="st2" x1="77.85" y1="100.56" x2="78.14" y2="100.78"/>
	<line class="st2" x1="86.5" y1="102.97" x2="86.79" y2="103.19"/>
	<line class="st2" x1="87.83" y1="94.54" x2="88.12" y2="94.76"/>
	<line class="st2" x1="85.76" y1="98.39" x2="86.05" y2="98.61"/>
	<line class="st2" x1="78.74" y1="95.33" x2="79.03" y2="95.55"/>
	<line class="st2" x1="78.98" y1="105.61" x2="79.27" y2="105.83"/>
	<line class="st2" x1="95.4" y1="101.82" x2="95.69" y2="102.04"/>
	<line class="st2" x1="94.07" y1="97.45" x2="94.36" y2="97.67"/>
	<line class="st2" x1="103.4" y1="99.97" x2="103.69" y2="100.19"/>
</g>
<path class="st0" d="M58.11,51.48c-7.7,0.02-13.62-5.29-12.7-12.74c1.2-9.73,11.5-17.78,12.7-25.8c1.2,8.03,11.51,16.08,12.7,25.8
	C71.73,46.19,65.81,51.5,58.11,51.48z"/>
<polygon class="st3" points="50.15,42.34 52.06,42.34 52.06,38.98 53.64,38.98 53.64,42.34 55.55,42.34 55.55,33.94 53.64,33.94 
	53.64,36.96 52.06,36.96 52.06,33.94 50.15,33.94 "/>
<path class="st3" d="M61.3,42.32v-2.04c-0.43,0.14-0.91,0.19-1.26,0.19c-0.97,0-1.38-1.22-1.38-2.27c0-1.13,0.44-2.41,1.38-2.41
	c0.46,0,0.94,0.17,1.26,0.37V34c-0.49-0.24-1.21-0.3-1.58-0.3c-1.69,0-3.02,1.64-3.02,4.44c0,2.16,0.85,4.44,3.05,4.44
	C60.01,42.58,60.71,42.58,61.3,42.32z"/>
<polygon class="st3" points="62.47,42.34 66.07,42.34 66.07,40.32 64.38,40.32 64.38,33.94 62.47,33.94 "/>
</svg>
