<?xml version="1.0" encoding="utf-8"?>
<!-- Generator: Adobe Illustrator 23.0.1, SVG Export Plug-In . SVG Version: 6.00 Build 0)  -->
<svg version="1.1" id="Слой_1" xmlns="http://www.w3.org/2000/svg" xmlns:xlink="http://www.w3.org/1999/xlink" x="0px" y="0px"
	 viewBox="0 0 128.2 128.2" style="enable-background:new 0 0 128.2 128.2;" xml:space="preserve">
<style type="text/css">
	.st0{fill-rule:evenodd;clip-rule:evenodd;fill:none;stroke:#616262;stroke-width:0.7498;stroke-miterlimit:22.9256;}
	
		.st1{fill-rule:evenodd;clip-rule:evenodd;fill:none;stroke:#000003;stroke-width:1.4998;stroke-linecap:round;stroke-linejoin:round;stroke-miterlimit:22.9256;}
	
		.st2{fill-rule:evenodd;clip-rule:evenodd;fill:none;stroke:#616262;stroke-width:0.7498;stroke-linecap:round;stroke-linejoin:round;stroke-miterlimit:22.9256;}
</style>
<line class="st0" x1="90.7" y1="85.6" x2="109.1" y2="80"/>
<g>
	<path class="st0" d="M90.7,84.3c6.2-1.9,12.3-3.7,18.5-5.6"/>
	<path class="st0" d="M90.6,83c6.2-1.9,12.4-3.7,18.6-5.6"/>
	<path class="st0" d="M90.5,81.8c6.3-1.8,12.5-3.7,18.8-5.5"/>
	<path class="st0" d="M90.5,80.5c6.3-1.8,12.6-3.7,18.9-5.5"/>
	<path class="st0" d="M90.4,79.2c6.4-1.8,12.7-3.7,19.1-5.5"/>
	<path class="st0" d="M90.4,77.9c6.4-1.8,12.8-3.6,19.2-5.5"/>
</g>
<line class="st0" x1="90.3" y1="76.7" x2="109.7" y2="71.2"/>
<polyline class="st1" points="47.9,67.6 80.3,60.6 115.1,66.3 "/>
<line class="st1" x1="83.8" y1="103.6" x2="83.6" y2="75"/>
<line class="st2" x1="79.7" y1="65.9" x2="79.9" y2="66"/>
<line class="st2" x1="76.3" y1="67.3" x2="76.6" y2="67.4"/>
<line class="st2" x1="80.7" y1="68.9" x2="80.9" y2="69"/>
<line class="st2" x1="84.6" y1="66" x2="84.8" y2="66.1"/>
<line class="st2" x1="94.8" y1="71.5" x2="95.1" y2="71.5"/>
<line class="st2" x1="99.2" y1="69.4" x2="99.4" y2="69.5"/>
<line class="st2" x1="90.2" y1="67" x2="90.4" y2="67.1"/>
<line class="st2" x1="86.8" y1="71.1" x2="87.1" y2="71.1"/>
<line class="st2" x1="71.3" y1="67.8" x2="71.6" y2="67.8"/>
<line class="st2" x1="85.5" y1="68.3" x2="85.7" y2="68.3"/>
<line class="st2" x1="91.2" y1="74.1" x2="91.5" y2="74.2"/>
<line class="st2" x1="99.3" y1="72.5" x2="99.6" y2="72.6"/>
<line class="st2" x1="95.2" y1="68" x2="95.4" y2="68.1"/>
<line class="st2" x1="104.2" y1="69.8" x2="104.4" y2="69.9"/>
<line class="st2" x1="91.3" y1="69.6" x2="91.6" y2="69.7"/>
<path class="st1" d="M67.5,19.9v43.2 M32.6,86.4V19.9 M50,18.8c9.6,0,17.5,0.5,17.5,1.1s-7.8,1.1-17.5,1.1c-9.6,0-17.5-0.5-17.5-1.1
	S40.4,18.8,50,18.8z"/>
<path class="st1" d="M32.6,19.9C42.9,24.4,50.7,40.3,55,55.7 M32.6,19.9C37.2,22.7,43.8,31.7,42,46c10.3-0.4,14.1,8.9,15.1,19.4
	 M48.6,91.1c-6.4-0.9-14.2-2.4-16.1-4.7"/>
<line class="st2" x1="54.6" y1="38.2" x2="54.6" y2="38.7"/>
<line class="st2" x1="64" y1="29.1" x2="64" y2="29.5"/>
<line class="st2" x1="59.8" y1="33" x2="59.8" y2="33.4"/>
<line class="st2" x1="58.9" y1="27" x2="58.9" y2="27.5"/>
<line class="st2" x1="54.5" y1="30.8" x2="54.5" y2="31.3"/>
<line class="st2" x1="50.3" y1="35.3" x2="50.3" y2="35.7"/>
<line class="st2" x1="63" y1="22.6" x2="63" y2="23"/>
<line class="st2" x1="34.9" y1="26.4" x2="34.9" y2="26.8"/>
<line class="st2" x1="53.4" y1="25.2" x2="53.4" y2="25.6"/>
<line class="st2" x1="48" y1="29.8" x2="48" y2="30.2"/>
<line class="st2" x1="64.6" y1="37.1" x2="64.6" y2="37.6"/>
<line class="st2" x1="59.5" y1="40.9" x2="59.5" y2="41.4"/>
<line class="st2" x1="55.3" y1="45.4" x2="55.3" y2="45.8"/>
<line class="st2" x1="63.7" y1="44.5" x2="63.7" y2="45"/>
<line class="st2" x1="59.9" y1="48.7" x2="59.9" y2="49.2"/>
<line class="st2" x1="56.6" y1="53.1" x2="56.6" y2="53.5"/>
<line class="st2" x1="65.3" y1="51.9" x2="65.3" y2="52.3"/>
<line class="st2" x1="60.3" y1="56.4" x2="60.3" y2="56.9"/>
<line class="st2" x1="64.4" y1="58.8" x2="64.4" y2="59.2"/>
<line class="st2" x1="60.1" y1="62.6" x2="60.1" y2="63.1"/>
<line class="st2" x1="47.7" y1="24.4" x2="47.7" y2="24.9"/>
<line class="st2" x1="42.4" y1="23" x2="42.4" y2="23.4"/>
<line class="st2" x1="37.3" y1="32.5" x2="37.3" y2="32.9"/>
<line class="st2" x1="34.6" y1="38.3" x2="34.6" y2="38.8"/>
<line class="st2" x1="40" y1="39.8" x2="40" y2="40.3"/>
<line class="st2" x1="35.6" y1="45.6" x2="35.6" y2="46.1"/>
<line class="st2" x1="42.2" y1="49.1" x2="42.2" y2="49.5"/>
<line class="st2" x1="35.3" y1="54" x2="35.3" y2="54.4"/>
<line class="st2" x1="48.7" y1="53.3" x2="48.7" y2="53.7"/>
<line class="st2" x1="40.9" y1="57.6" x2="40.9" y2="58"/>
<line class="st2" x1="35.7" y1="63.7" x2="35.7" y2="64.1"/>
<line class="st2" x1="52.1" y1="61.4" x2="52.1" y2="61.8"/>
<line class="st2" x1="44.8" y1="64" x2="44.8" y2="64.5"/>
<line class="st2" x1="38.3" y1="71.6" x2="38.3" y2="72.1"/>
<line class="st2" x1="44.1" y1="74.3" x2="44.1" y2="74.7"/>
<line class="st2" x1="34.9" y1="77.6" x2="34.9" y2="78.1"/>
<line class="st2" x1="45.7" y1="83.1" x2="45.7" y2="83.5"/>
<line class="st2" x1="39" y1="83.7" x2="39" y2="84.1"/>
<path class="st1" d="M63.6,100.8c-1.8,0.8-3.7,1.5-5.7,2.3c-3.7,1.5-7.6,3.1-11.6,4.8c-5.4-1.5-10.7-3-16-4.4
	c-5.3-1.5-10.5-2.9-15.7-4.4c1.4-1,2.6-1.9,3.6-2.2c2-0.6,4.2-1.1,6.4-1.5"/>
<path class="st1" d="M69.1,99.6c-2.8,0.6-5.7,1.2-8.5,1.8c-5,1-9.4,1.6-14.6,2.7c-0.8,0.2-2.4,0.8-3.2,1c-4-2.1-7.9-4.2-11.6-6.1
	c-3.6-1.9-7-3.7-10.3-5.5c0.9-0.4,4.5-1.1,5.7-1.2c4.5-0.8,10.4-1.5,14.7-2.2"/>
<polyline class="st1" points="89.6,73.6 63.5,67.5 80.6,63.1 109.9,67.8 "/>
<polygon class="st1" points="47.9,67.6 48.9,93.9 83.8,103.6 114.3,92.8 115.1,66.3 109.9,67.8 109,81.6 90.9,87.2 89.6,73.6 
	83.6,75 "/>
<line class="st2" x1="39.1" y1="93.1" x2="39.7" y2="93.3"/>
<line class="st2" x1="32.2" y1="93.3" x2="32.7" y2="93.6"/>
<line class="st2" x1="39.3" y1="98.5" x2="39.8" y2="98.8"/>
<line class="st2" x1="47.9" y1="96.8" x2="48.4" y2="97.1"/>
<line class="st2" x1="42.5" y1="95.7" x2="43.1" y2="96"/>
<line class="st2" x1="45.4" y1="100.7" x2="45.9" y2="101"/>
<line class="st2" x1="56.7" y1="98.6" x2="57.2" y2="98.9"/>
<line class="st2" x1="51.1" y1="100.7" x2="51.6" y2="101"/>
<line class="st2" x1="32.7" y1="96.6" x2="33.2" y2="96.9"/>
<line class="st2" x1="26" y1="93.7" x2="26.6" y2="94"/>
<line class="st2" x1="44.1" y1="92.2" x2="44.6" y2="92.5"/>
<line class="st2" x1="22.7" y1="98.1" x2="23.2" y2="98.4"/>
<line class="st2" x1="29.6" y1="100.4" x2="30.1" y2="100.7"/>
</svg>
