<?xml version="1.0" encoding="utf-8"?>
<!-- Generator: Adobe Illustrator 23.0.1, SVG Export Plug-In . SVG Version: 6.00 Build 0)  -->
<svg version="1.1" id="Слой_1" xmlns="http://www.w3.org/2000/svg" xmlns:xlink="http://www.w3.org/1999/xlink" x="0px" y="0px"
	 viewBox="0 0 128.22 128.22" style="enable-background:new 0 0 128.22 128.22;" xml:space="preserve">
<style type="text/css">
	
		.st0{fill-rule:evenodd;clip-rule:evenodd;fill:none;stroke:#000003;stroke-width:1.4998;stroke-linejoin:round;stroke-miterlimit:22.9256;}
	.st1{fill-rule:evenodd;clip-rule:evenodd;fill:none;stroke:#000003;stroke-width:1.4998;stroke-miterlimit:22.9256;}
	
		.st2{fill-rule:evenodd;clip-rule:evenodd;fill:none;stroke:#616262;stroke-width:0.7498;stroke-linecap:round;stroke-linejoin:round;stroke-miterlimit:22.9256;}
	
		.st3{fill-rule:evenodd;clip-rule:evenodd;fill:none;stroke:#000003;stroke-width:1.4998;stroke-linecap:round;stroke-linejoin:round;stroke-miterlimit:22.9256;}
</style>
<path class="st0" d="M69.6,41.72c3.22-0.64,6.36-1.26,9.58-1.9c5.86,4.13,13.08,8.56,20.29,13.64c5.35,3.77,11.16,7.86,17.47,12.31
	c-2,0.13-4.14,0.52-6.08,1.07c2.49,3.39,4.37,7.77,5.21,10.48c-4.35,1.78-8.89,3.64-13.61,5.58c-9.56,3.92-21.63,7.89-33,12.55
	c-2.42-3.11-4.71-6.19-6.74-9.01"/>
<line class="st1" x1="116.95" y1="65.77" x2="116.08" y2="77.32"/>
<path class="st2" d="M99.83,67.67c2.04,1.47,1.1,0.79,3.25,2.34c-7.65,3.1-15.91,6.44-24.83,10.05
	c-9.68,3.92-20.22,8.19-31.74,12.85C38.31,81.95,31.3,72.6,25.27,64.53c-5.26-7.02-9.89-13.21-13.99-18.69
	c1.84-0.36,1.36-0.27,2.93-0.58"/>
<g>
	<path class="st3" d="M56.95,32.78c5.86,4.13,12.36,8.7,19.57,13.78c8.08,5.69,17.18,12.11,27.52,19.38
		c-7.56,3.1-15.72,6.44-24.52,10.05c-9.56,3.92-19.98,8.19-31.35,12.85c-8.54-10.96-15.83-20.32-22.11-28.38
		c-5.47-7.02-10.29-13.21-14.55-18.69c8.69-1.72,16.89-3.34,24.63-4.87C43.45,35.45,50.38,34.08,56.95,32.78z"/>
	<g>
		<path class="st3" d="M42.24,50.17c2.77-0.55,3.43-2.52,9.08-3.5c1.3-0.22,5.27-0.81,6.79,0.24c1.79,1.26-1.69,2.9-4.99,3.7
			c-3.3,0.82-4.68,0.06-7.73,1.2c-1.05,0.41-0.79,0.44-1.05,0.88c-0.85,0.3-5.39,2.07-6.94,0.34c-1.2-1.35,1.4-2.25,4.17-2.94
			C41.92,50.12,42.09,50.19,42.24,50.17z"/>
		<path class="st3" d="M55.76,58.54c2.56-0.96,6.7,0.06,11.67-2.02c1.13-0.47,4.35-1.97,2.93-3.3c-1.66-1.5-6.46-0.89-9.59,0.08
			c-3.18,0.96-2.55,2.03-6.2,2.71c-1.29,0.22-1.19,0.08-2.07-0.06c-0.97,0.2-6.37,1.16-4.47,2.98c1.57,1.5,4.67,0.86,7.51-0.01
			C55.67,58.73,55.64,58.6,55.76,58.54z"/>
	</g>
</g>
<line class="st2" x1="22.83" y1="44.09" x2="22.38" y2="44.18"/>
<line class="st2" x1="33.83" y1="42.37" x2="33.38" y2="42.46"/>
<line class="st2" x1="28.62" y1="47.61" x2="28.17" y2="47.69"/>
<line class="st2" x1="39.54" y1="44.84" x2="39.08" y2="44.93"/>
<line class="st2" x1="45.69" y1="39.38" x2="45.24" y2="39.46"/>
<line class="st2" x1="56.12" y1="41.34" x2="55.66" y2="41.43"/>
<line class="st2" x1="40.34" y1="60.79" x2="39.89" y2="60.88"/>
<line class="st2" x1="54.63" y1="68.25" x2="54.18" y2="68.34"/>
<line class="st2" x1="76.49" y1="65.34" x2="76.04" y2="65.43"/>
<line class="st2" x1="52.32" y1="80" x2="51.87" y2="80.09"/>
<line class="st2" x1="66.82" y1="71.75" x2="66.37" y2="71.84"/>
<line class="st2" x1="78.22" y1="57.17" x2="77.76" y2="57.26"/>
<line class="st2" x1="89.44" y1="65.38" x2="88.99" y2="65.46"/>
<line class="st2" x1="68.34" y1="64.42" x2="67.89" y2="64.51"/>
<line class="st2" x1="57.78" y1="60.81" x2="57.32" y2="60.9"/>
<line class="st2" x1="43.44" y1="69.88" x2="42.99" y2="69.96"/>
<line class="st2" x1="65.68" y1="79.28" x2="65.22" y2="79.36"/>
<line class="st2" x1="65.55" y1="45.53" x2="65.1" y2="45.61"/>
<line class="st2" x1="54.74" y1="35.46" x2="54.29" y2="35.55"/>
<line class="st2" x1="31.26" y1="57.75" x2="30.8" y2="57.84"/>
<line class="st2" x1="35.24" y1="67.15" x2="34.79" y2="67.24"/>
<line class="st2" x1="74.66" y1="47.92" x2="74.2" y2="48.01"/>
<line class="st2" x1="58.97" y1="51.48" x2="58.52" y2="51.57"/>
<line class="st2" x1="24.37" y1="54.21" x2="23.91" y2="54.3"/>
</svg>
