<?xml version="1.0" encoding="utf-8"?>
<!-- Generator: Adobe Illustrator 23.0.1, SVG Export Plug-In . SVG Version: 6.00 Build 0)  -->
<svg version="1.1" id="Слой_1" xmlns="http://www.w3.org/2000/svg" xmlns:xlink="http://www.w3.org/1999/xlink" x="0px" y="0px"
	 viewBox="0 0 128.22 128.22" style="enable-background:new 0 0 128.22 128.22;" xml:space="preserve">
<style type="text/css">
	
		.st0{fill-rule:evenodd;clip-rule:evenodd;fill:none;stroke:#000000;stroke-width:1.4998;stroke-linecap:round;stroke-linejoin:round;stroke-miterlimit:22.9256;}
	
		.st1{fill-rule:evenodd;clip-rule:evenodd;fill:none;stroke:#000000;stroke-width:0.9998;stroke-linecap:round;stroke-linejoin:round;stroke-miterlimit:22.9256;}
	
		.st2{fill-rule:evenodd;clip-rule:evenodd;fill:none;stroke:#000000;stroke-width:0.7498;stroke-linecap:round;stroke-linejoin:round;stroke-miterlimit:22.9256;}
	
		.st3{fill-rule:evenodd;clip-rule:evenodd;fill:#80B925;stroke:#80B925;stroke-width:1.4998;stroke-linecap:round;stroke-linejoin:round;stroke-miterlimit:22.9256;}
	.st4{fill-rule:evenodd;clip-rule:evenodd;fill:#FFFFFF;}
</style>
<g>
	<path class="st0" d="M20.93,63.76c3.95,0,7.59,8.66,8.12,19.34c0.53,10.68-2.24,19.34-6.19,19.34c-3.95,0-7.59-8.66-8.12-19.34
		C14.21,72.42,16.98,63.76,20.93,63.76z"/>
	<path class="st0" d="M90.2,59.96c4.6,0,8.83,6.93,9.44,15.47c0.59,8.21-2.37,14.92-6.68,15.44"/>
	<line class="st0" x1="20.93" y1="63.76" x2="90.2" y2="59.96"/>
	<line class="st0" x1="22.86" y1="102.45" x2="92.96" y2="90.87"/>
	<path class="st1" d="M20.67,80.33c0.59,0,1.13,1.28,1.2,2.87c0.08,1.58-0.33,2.87-0.92,2.87c-0.59,0-1.13-1.28-1.2-2.87
		C19.67,81.61,20.09,80.33,20.67,80.33z"/>
	<polyline class="st0" points="21.26,101.97 40.67,115.3 107.12,103.34 113.52,100.81 92.96,90.87 	"/>
	<path class="st2" d="M22.38,97.79c-2.9,0-5.56-6.57-5.96-14.68c-0.39-8.11,1.64-14.68,4.54-14.68c2.36,0,4.56,4.34,5.51,10.33"/>
	<path class="st2" d="M22.67,73.63c1.08,2.04,1.88,5.56,2.05,9.57c0.27,6.31-1.13,11.42-3.13,11.42c-2,0-3.83-5.11-4.1-11.42"/>
	<line class="st2" x1="29.7" y1="67.14" x2="29.7" y2="67.5"/>
	<line class="st2" x1="43.44" y1="79.95" x2="43.44" y2="80.32"/>
	<line class="st2" x1="34.42" y1="85.78" x2="34.42" y2="86.15"/>
	<line class="st2" x1="37.48" y1="76.69" x2="37.48" y2="77.05"/>
	<line class="st2" x1="45.86" y1="88.01" x2="45.86" y2="88.38"/>
	<line class="st2" x1="38.19" y1="92.61" x2="38.19" y2="92.98"/>
	<line class="st2" x1="31.71" y1="96.4" x2="31.71" y2="96.76"/>
	<line class="st2" x1="44.32" y1="69.62" x2="44.32" y2="69.99"/>
	<line class="st2" x1="34.63" y1="105.67" x2="34.92" y2="105.89"/>
	<line class="st2" x1="42.21" y1="105.16" x2="42.5" y2="105.37"/>
	<line class="st2" x1="40.64" y1="111.22" x2="40.93" y2="111.44"/>
	<line class="st2" x1="54.01" y1="109.03" x2="54.3" y2="109.25"/>
	<line class="st2" x1="47.77" y1="109.86" x2="48.06" y2="110.08"/>
	<line class="st2" x1="46" y1="101.07" x2="46.29" y2="101.29"/>
	<line class="st2" x1="35.72" y1="101.5" x2="36.01" y2="101.72"/>
	<line class="st2" x1="47.77" y1="105.04" x2="48.06" y2="105.26"/>
	<line class="st2" x1="37.25" y1="66.1" x2="37.25" y2="66.46"/>
	<line class="st2" x1="31.71" y1="76.3" x2="31.71" y2="76.66"/>
	<line class="st2" x1="49.1" y1="81.96" x2="49.1" y2="82.32"/>
	<line class="st2" x1="50.91" y1="92.17" x2="50.91" y2="92.53"/>
	<line class="st2" x1="52.48" y1="73.6" x2="52.48" y2="73.96"/>
	<line class="st2" x1="50.42" y1="66" x2="50.42" y2="66.36"/>
	<line class="st2" x1="57.3" y1="78.21" x2="57.3" y2="78.58"/>
	<line class="st2" x1="56.41" y1="87.03" x2="56.41" y2="87.39"/>
	<line class="st2" x1="60.05" y1="93.35" x2="60.05" y2="93.71"/>
	<line class="st2" x1="64.08" y1="83.33" x2="64.08" y2="83.69"/>
	<line class="st2" x1="62.61" y1="72.98" x2="62.61" y2="73.34"/>
	<line class="st2" x1="59.07" y1="66.13" x2="59.07" y2="66.49"/>
	<line class="st2" x1="67.81" y1="63.87" x2="67.81" y2="64.23"/>
	<line class="st2" x1="70.17" y1="75.34" x2="70.17" y2="75.7"/>
	<line class="st2" x1="70.66" y1="86.08" x2="70.66" y2="86.44"/>
	<line class="st2" x1="75.38" y1="90.79" x2="75.38" y2="91.16"/>
	<line class="st2" x1="76.86" y1="80.87" x2="76.86" y2="81.23"/>
	<line class="st2" x1="74.1" y1="68.95" x2="74.1" y2="69.31"/>
	<line class="st2" x1="78.62" y1="63.26" x2="78.62" y2="63.63"/>
	<line class="st2" x1="79.9" y1="73.97" x2="79.9" y2="74.34"/>
	<line class="st2" x1="81.67" y1="86.44" x2="81.67" y2="86.8"/>
	<line class="st2" x1="84.52" y1="79.38" x2="84.52" y2="79.74"/>
	<line class="st2" x1="87.47" y1="88.01" x2="87.47" y2="88.38"/>
	<line class="st2" x1="91.21" y1="82.31" x2="91.21" y2="82.68"/>
	<line class="st2" x1="84.52" y1="69.64" x2="84.52" y2="70"/>
	<line class="st2" x1="88.16" y1="64.34" x2="88.16" y2="64.71"/>
	<line class="st2" x1="89.93" y1="74.06" x2="89.93" y2="74.42"/>
	<line class="st2" x1="94.15" y1="70.03" x2="94.15" y2="70.39"/>
	<line class="st2" x1="95.04" y1="85.67" x2="95.04" y2="86.03"/>
	<line class="st2" x1="96.51" y1="76.43" x2="96.51" y2="76.79"/>
	<line class="st2" x1="61.43" y1="107.76" x2="61.72" y2="107.98"/>
	<line class="st2" x1="56.07" y1="104.76" x2="56.36" y2="104.98"/>
	<line class="st2" x1="59.81" y1="99.46" x2="60.1" y2="99.68"/>
	<line class="st2" x1="53.42" y1="101.56" x2="53.71" y2="101.78"/>
	<line class="st2" x1="70.67" y1="105.24" x2="70.96" y2="105.46"/>
	<line class="st2" x1="70.18" y1="98.56" x2="70.47" y2="98.77"/>
	<line class="st2" x1="63.89" y1="102.83" x2="64.18" y2="103.05"/>
	<line class="st2" x1="77.84" y1="100.54" x2="78.13" y2="100.76"/>
	<line class="st2" x1="86.49" y1="102.95" x2="86.78" y2="103.17"/>
	<line class="st2" x1="87.82" y1="94.53" x2="88.11" y2="94.74"/>
	<line class="st2" x1="85.75" y1="98.37" x2="86.04" y2="98.59"/>
	<line class="st2" x1="78.73" y1="95.31" x2="79.02" y2="95.53"/>
	<line class="st2" x1="78.97" y1="105.59" x2="79.26" y2="105.81"/>
	<line class="st2" x1="95.39" y1="101.8" x2="95.68" y2="102.02"/>
	<line class="st2" x1="94.06" y1="97.44" x2="94.35" y2="97.65"/>
	<line class="st2" x1="103.39" y1="99.95" x2="103.68" y2="100.17"/>
</g>
<path class="st3" d="M58.1,51.46c-7.7,0.02-13.62-5.29-12.7-12.74c1.2-9.73,11.5-17.78,12.7-25.8c1.2,8.03,11.51,16.08,12.7,25.8
	C71.72,46.18,65.8,51.48,58.1,51.46z"/>
<polygon class="st4" points="50.14,42.51 52.05,42.51 52.05,39.15 53.63,39.15 53.63,42.51 55.54,42.51 55.54,34.11 53.63,34.11 
	53.63,37.13 52.05,37.13 52.05,34.11 50.14,34.11 "/>
<path class="st4" d="M61.29,42.5v-2.04c-0.43,0.14-0.91,0.19-1.26,0.19c-0.97,0-1.38-1.22-1.38-2.27c0-1.13,0.44-2.41,1.38-2.41
	c0.46,0,0.94,0.17,1.26,0.37v-2.17c-0.49-0.24-1.21-0.3-1.58-0.3c-1.69,0-3.02,1.64-3.02,4.44c0,2.16,0.85,4.44,3.05,4.44
	C60,42.75,60.7,42.75,61.29,42.5z"/>
<polygon class="st4" points="62.46,42.51 66.06,42.51 66.06,40.49 64.37,40.49 64.37,34.11 62.46,34.11 "/>
</svg>
