<?xml version="1.0" encoding="utf-8"?>
<!-- Generator: Adobe Illustrator 23.0.1, SVG Export Plug-In . SVG Version: 6.00 Build 0)  -->
<svg version="1.1" id="Слой_1" xmlns="http://www.w3.org/2000/svg" xmlns:xlink="http://www.w3.org/1999/xlink" x="0px" y="0px"
	 viewBox="0 0 128.22 128.22" style="enable-background:new 0 0 128.22 128.22;" xml:space="preserve">
<style type="text/css">
	
		.st0{fill-rule:evenodd;clip-rule:evenodd;fill:none;stroke:#000003;stroke-width:1.4998;stroke-linecap:round;stroke-linejoin:round;stroke-miterlimit:22.9256;}
	
		.st1{fill-rule:evenodd;clip-rule:evenodd;fill:none;stroke:#000003;stroke-width:0.9998;stroke-linecap:round;stroke-linejoin:round;stroke-miterlimit:22.9256;}
	
		.st2{fill-rule:evenodd;clip-rule:evenodd;fill:none;stroke:#616262;stroke-width:0.7498;stroke-linecap:round;stroke-linejoin:round;stroke-miterlimit:22.9256;}
	.st3{fill-rule:evenodd;clip-rule:evenodd;fill:#000003;}
</style>
<g>
	<path class="st0" d="M20.94,63.76c3.95,0,7.59,8.66,8.12,19.34c0.53,10.68-2.24,19.34-6.19,19.34c-3.95,0-7.59-8.66-8.12-19.34
		C14.22,72.42,16.99,63.76,20.94,63.76z"/>
	<path class="st0" d="M90.2,59.95c4.6,0,8.83,6.93,9.44,15.47c0.59,8.21-2.37,14.92-6.68,15.44"/>
	<line class="st0" x1="20.94" y1="63.76" x2="90.2" y2="59.95"/>
	<line class="st0" x1="22.87" y1="102.44" x2="92.97" y2="90.87"/>
	<path class="st1" d="M20.68,80.32c0.59,0,1.13,1.28,1.2,2.87c0.08,1.58-0.33,2.87-0.92,2.87s-1.13-1.28-1.2-2.87
		C19.68,81.61,20.09,80.32,20.68,80.32z"/>
	<polyline class="st0" points="21.27,101.97 40.68,115.3 107.13,103.34 113.53,100.8 92.97,90.87 	"/>
	<path class="st2" d="M22.39,97.78c-2.9,0-5.56-6.57-5.95-14.68c-0.39-8.11,1.64-14.68,4.54-14.68c2.36,0,4.56,4.34,5.51,10.33"/>
	<path class="st2" d="M22.67,73.62c1.08,2.04,1.88,5.56,2.05,9.57C25,89.5,23.6,94.61,21.6,94.61c-2,0-3.83-5.11-4.1-11.42"/>
	<line class="st2" x1="29.71" y1="67.13" x2="29.71" y2="67.49"/>
	<line class="st2" x1="43.45" y1="79.95" x2="43.45" y2="80.31"/>
	<line class="st2" x1="34.42" y1="85.78" x2="34.42" y2="86.14"/>
	<line class="st2" x1="37.49" y1="76.68" x2="37.49" y2="77.05"/>
	<line class="st2" x1="45.86" y1="88.01" x2="45.86" y2="88.37"/>
	<line class="st2" x1="38.2" y1="92.61" x2="38.2" y2="92.97"/>
	<line class="st2" x1="31.71" y1="96.39" x2="31.71" y2="96.75"/>
	<line class="st2" x1="44.33" y1="69.62" x2="44.33" y2="69.98"/>
	<line class="st2" x1="34.63" y1="105.66" x2="34.92" y2="105.88"/>
	<line class="st2" x1="42.21" y1="105.15" x2="42.5" y2="105.37"/>
	<line class="st2" x1="40.65" y1="111.21" x2="40.94" y2="111.43"/>
	<line class="st2" x1="54.02" y1="109.03" x2="54.31" y2="109.25"/>
	<line class="st2" x1="47.78" y1="109.85" x2="48.07" y2="110.07"/>
	<line class="st2" x1="46.01" y1="101.07" x2="46.3" y2="101.29"/>
	<line class="st2" x1="35.72" y1="101.49" x2="36.02" y2="101.71"/>
	<line class="st2" x1="47.78" y1="105.04" x2="48.07" y2="105.25"/>
	<line class="st2" x1="37.25" y1="66.1" x2="37.25" y2="66.46"/>
	<line class="st2" x1="31.71" y1="76.29" x2="31.71" y2="76.66"/>
	<line class="st2" x1="49.11" y1="81.95" x2="49.11" y2="82.32"/>
	<line class="st2" x1="50.92" y1="92.16" x2="50.92" y2="92.53"/>
	<line class="st2" x1="52.49" y1="73.59" x2="52.49" y2="73.95"/>
	<line class="st2" x1="50.42" y1="65.99" x2="50.42" y2="66.36"/>
	<line class="st2" x1="57.3" y1="78.21" x2="57.3" y2="78.57"/>
	<line class="st2" x1="56.42" y1="87.02" x2="56.42" y2="87.39"/>
	<line class="st2" x1="60.06" y1="93.34" x2="60.06" y2="93.71"/>
	<line class="st2" x1="64.09" y1="83.32" x2="64.09" y2="83.68"/>
	<line class="st2" x1="62.61" y1="72.97" x2="62.61" y2="73.33"/>
	<line class="st2" x1="59.07" y1="66.12" x2="59.07" y2="66.48"/>
	<line class="st2" x1="67.82" y1="63.86" x2="67.82" y2="64.22"/>
	<line class="st2" x1="70.18" y1="75.33" x2="70.18" y2="75.69"/>
	<line class="st2" x1="70.67" y1="86.07" x2="70.67" y2="86.43"/>
	<line class="st2" x1="75.39" y1="90.79" x2="75.39" y2="91.15"/>
	<line class="st2" x1="76.86" y1="80.86" x2="76.86" y2="81.23"/>
	<line class="st2" x1="74.11" y1="68.94" x2="74.11" y2="69.3"/>
	<line class="st2" x1="78.63" y1="63.26" x2="78.63" y2="63.62"/>
	<line class="st2" x1="79.91" y1="73.97" x2="79.91" y2="74.33"/>
	<line class="st2" x1="81.68" y1="86.43" x2="81.68" y2="86.8"/>
	<line class="st2" x1="84.53" y1="79.37" x2="84.53" y2="79.74"/>
	<line class="st2" x1="87.48" y1="88.01" x2="87.48" y2="88.37"/>
	<line class="st2" x1="91.21" y1="82.31" x2="91.21" y2="82.67"/>
	<line class="st2" x1="84.53" y1="69.63" x2="84.53" y2="69.99"/>
	<line class="st2" x1="88.16" y1="64.34" x2="88.16" y2="64.7"/>
	<line class="st2" x1="89.93" y1="74.05" x2="89.93" y2="74.41"/>
	<line class="st2" x1="94.16" y1="70.02" x2="94.16" y2="70.39"/>
	<line class="st2" x1="95.04" y1="85.66" x2="95.04" y2="86.03"/>
	<line class="st2" x1="96.52" y1="76.42" x2="96.52" y2="76.79"/>
	<line class="st2" x1="61.44" y1="107.75" x2="61.73" y2="107.97"/>
	<line class="st2" x1="56.08" y1="104.75" x2="56.37" y2="104.97"/>
	<line class="st2" x1="59.81" y1="99.46" x2="60.1" y2="99.67"/>
	<line class="st2" x1="53.43" y1="101.56" x2="53.72" y2="101.78"/>
	<line class="st2" x1="70.68" y1="105.23" x2="70.97" y2="105.45"/>
	<line class="st2" x1="70.18" y1="98.55" x2="70.48" y2="98.77"/>
	<line class="st2" x1="63.89" y1="102.82" x2="64.19" y2="103.04"/>
	<line class="st2" x1="77.85" y1="100.54" x2="78.14" y2="100.76"/>
	<line class="st2" x1="86.49" y1="102.94" x2="86.78" y2="103.16"/>
	<line class="st2" x1="87.83" y1="94.52" x2="88.12" y2="94.74"/>
	<line class="st2" x1="85.76" y1="98.36" x2="86.05" y2="98.58"/>
	<line class="st2" x1="78.73" y1="95.31" x2="79.03" y2="95.52"/>
	<line class="st2" x1="78.98" y1="105.59" x2="79.27" y2="105.81"/>
	<line class="st2" x1="95.39" y1="101.79" x2="95.68" y2="102.01"/>
	<line class="st2" x1="94.06" y1="97.43" x2="94.35" y2="97.65"/>
	<line class="st2" x1="103.4" y1="99.95" x2="103.69" y2="100.17"/>
</g>
<g>
	<path class="st0" d="M58.11,51.46c-7.7,0.02-13.62-5.29-12.7-12.74c1.2-9.73,11.5-17.78,12.7-25.8c1.2,8.03,11.51,16.08,12.7,25.8
		C71.73,46.17,65.81,51.48,58.11,51.46z"/>
	<polygon class="st3" points="50.88,41.49 52.79,41.49 52.79,38.13 54.37,38.13 54.37,41.49 56.28,41.49 56.28,33.09 54.37,33.09 
		54.37,36.11 52.79,36.11 52.79,33.09 50.88,33.09 	"/>
	<path class="st3" d="M63.27,41.73c2.3,0,3.19-2.22,3.19-4.44c0-2.22-0.89-4.44-3.19-4.44c-2.3,0-3.19,2.22-3.19,4.44
		C60.07,39.51,60.96,41.73,63.27,41.73L63.27,41.73z M63.27,39.71c-0.68,0-1.22-0.9-1.22-2.42c0-1.52,0.54-2.42,1.22-2.42
		c0.68,0,1.22,0.9,1.22,2.42C64.49,38.81,63.95,39.71,63.27,39.71z"/>
	<path class="st3" d="M59.4,42.97h-0.84c0.64-0.99,0.88-1.36,0.88-2c0-0.97-0.48-1.4-1.11-1.4c-0.45,0-1.19,0.22-1.15,1.6h0.87
		c-0.01-0.22,0.02-0.71,0.26-0.71c0.08,0,0.25,0.04,0.25,0.55c0,0.33-0.18,0.62-0.32,0.86l-1.16,2.03h2.32V42.97z"/>
</g>
</svg>
