<?xml version="1.0" encoding="utf-8"?>
<!-- Generator: Adobe Illustrator 23.0.1, SVG Export Plug-In . SVG Version: 6.00 Build 0)  -->
<svg version="1.1" id="Слой_1" xmlns="http://www.w3.org/2000/svg" xmlns:xlink="http://www.w3.org/1999/xlink" x="0px" y="0px"
	 viewBox="0 0 128.2 128.2" style="enable-background:new 0 0 128.2 128.2;" xml:space="preserve">
<style type="text/css">
	.st0{fill:none;stroke:#626262;stroke-width:0.7498;stroke-linecap:round;stroke-linejoin:round;stroke-miterlimit:22.9256;}
	.st1{fill:none;stroke:#010005;stroke-width:1.4998;stroke-linecap:round;stroke-linejoin:round;stroke-miterlimit:22.9256;}
</style>
<g>
	<path class="st0" d="M51.4,83c-0.9-1.7-3.1-2.3-4.8-1.3s-2.3,3.1-1.3,4.8c0.9,1.7,3.1,2.3,4.8,1.3S52.4,84.7,51.4,83 M42.9,87.8
		c-0.5-0.9-1.4-1.5-2.3-1.7c-0.1,0-0.4,0-0.4,0 M38.6,92.8c0,0,0.2,0.1,0.3,0.1c0.9,0.3,1.9,0.2,2.7-0.3c1.7-1,2.3-3.1,1.3-4.8
		 M55.9,90.9c-0.9-1.7-3.1-2.3-4.8-1.3s-2.3,3.1-1.3,4.8c0.9,1.7,3.1,2.3,4.8,1.3S56.8,92.6,55.9,90.9 M22.8,78.4
		c0.5-1.9,2.4-3,4.2-2.6s3,2.4,2.6,4.2s-2.4,3-4.2,2.6C23.5,82.2,22.3,80.3,22.8,78.4 M34.9,70.8c-1.1,0.6-2.4,0.2-3-0.9
		c-0.6-1.1-0.2-2.4,0.9-3c1.1-0.6,2.4-0.2,3,0.9C36.3,68.9,35.9,70.2,34.9,70.8 M32.3,80.8c0.5-1.9,2.4-3,4.2-2.6s3,2.4,2.6,4.2
		s-2.4,3-4.2,2.6C33,84.5,31.8,82.6,32.3,80.8 M20.6,87.2c0.5-1.9,2.4-3,4.2-2.6s3,2.4,2.6,4.2s-2.4,3-4.2,2.6
		C21.3,91,20.1,89.1,20.6,87.2 M30.1,89.6c0.5-1.9,2.4-3,4.2-2.6s3,2.4,2.6,4.2s-2.4,3-4.2,2.6C30.8,93.4,29.6,91.5,30.1,89.6
		 M18.4,96.1c0.5-1.9,2.4-3,4.2-2.6s3,2.4,2.6,4.2s-2.4,3-4.2,2.6C19.1,99.8,18,97.9,18.4,96.1 M27.9,98.4c0.5-1.9,2.4-3,4.2-2.6
		c1.9,0.5,3,2.4,2.6,4.2s-2.4,3-4.2,2.6C28.6,102.2,27.5,100.3,27.9,98.4 M30.5,69.3c-0.3-1.8,1-3.4,2.8-3.7c1.8-0.3,3.4,1,3.7,2.8
		s-1,3.4-2.8,3.7S30.8,71.1,30.5,69.3 M46.9,75.1c-0.9-1.7-3.1-2.3-4.8-1.3s-2.3,3.1-1.3,4.8c0.9,1.7,3.1,2.3,4.8,1.3
		C47.3,78.9,47.9,76.8,46.9,75.1 M47.4,95.7c-0.9-1.7-3.1-2.3-4.8-1.3s-2.3,3.1-1.3,4.8c0.9,1.7,3.1,2.3,4.8,1.3
		C47.7,99.6,48.3,97.4,47.4,95.7"/>
	<path class="st1" d="M28.9,65.5c-3.5,0.7-7.1-0.9-9-4.1c-2.3-4-0.9-9.1,3.2-11.4c0.5-0.3,1.3-0.7,1.8-1c0.7-0.4,0.9-1.2,0.5-1.9
		s-1.2-0.9-1.9-0.5c-0.7,0.4-1.7,1-2.4,1.4c-5.2,2.9-7.2,10-4.2,15.3c2.8,4.9,6.3,7.3,9.3,9.4 M37.7,96.9l0.1,0.3l2.6,4.5
		c1.1,1.9,3.5,2.5,5.4,1.5l11.4-6.5c1.9-1.1,2.6-3.5,1.5-5.4L47.9,72.6c-1.1-1.9-3.5-2.6-5.4-1.5l-1.7,1l-0.6,0.6 M36.9,47.3
		c-0.8-0.2-1.2-0.9-1-1.7s0.9-1.2,1.7-1c0.8,0.2,1.9,0.5,2.7,0.7c5.8,1.4,9.6,7.7,8.2,13.5c-1.7,7.1-5.7,10.4-8.2,13.8l0,0
		c-0.9,1.2-1.6,2.4-1.9,3.8l-12.2-3l0.6-2.3l0.6-2.5c0.3-1.4,0.9-2.4,1.6-3.2c1.5-1.6,3.8-1.9,6-1.4c4.5,1.1,9-1.6,10.2-6.1
		c1.1-4.5-1.6-9-6.1-10.1C38.4,47.7,37.5,47.5,36.9,47.3L36.9,47.3z M25.9,73.4l12.7,3.1c0.4,0.1,0.8,0.3,1.2,0.5
		c1.4,0.9,2.1,2.6,1.7,4.2L38,95.4l-0.4,1.5l0,0l-1.3,5.3c-0.5,2.1-2.7,3.4-4.8,2.9l-12.7-3.1c-2.1-0.5-3.4-2.7-2.9-4.8l5.2-20.9
		C21.7,74.2,23.8,72.9,25.9,73.4z"/>
</g>
<path class="st0" d="M63.8,37.7h14.5c1.7,0,3.2,1.4,3.2,3.2l0,0c0,1.7-1.4,3.2-3.2,3.2H63.8c-1.7,0-3.2-1.4-3.2-3.2l0,0
	C60.6,39.1,62.1,37.7,63.8,37.7L63.8,37.7z M71.1,26.1c1.3,0,2.3,1,2.3,2.3s-1,2.3-2.3,2.3s-2.3-1-2.3-2.3
	C68.7,27.2,69.8,26.1,71.1,26.1L71.1,26.1z M58.6,35.5h24.8v10.8H58.6V35.5L58.6,35.5z M83.5,52.6H58.6 M83.5,56.1H58.6 M83.5,59.7
	H58.6 M83.5,63.2H58.6 M83.5,66.7H58.6 M83.5,70.2H58.6 M83.5,73.8H58.6 M83.5,77.3H58.6 M83.5,80.8H58.6"/>
<polygon class="st1" points="55.5,29.2 61.8,23 80.4,23 86.6,29.2 86.6,86 85.8,86.8 56.3,86.8 55.5,86 "/>
<g>
	<path class="st0" d="M97,73.7h8.9c1.1,0,1.9,0.9,1.9,1.9l0,0c0,1.1-0.9,1.9-1.9,1.9H97c-1.1,0-1.9-0.9-1.9-1.9l0,0
		C95.1,74.6,96,73.7,97,73.7L97,73.7z M93.2,72h16.6v7.3H93.2V72L93.2,72z M93.2,79.3h16.6v12.3H93.2V79.3z"/>
	<path class="st1" d="M92.3,69V57.9c0-5,4.1-9.1,9.1-9.1s9.1,4.1,9.1,9.1l0,11.1 M90.3,72h1.2 M111.5,72h1.2 M111.5,91.6h1.2
		 M111.5,87.6h1.2 M111.5,83.7h1.2 M111.5,79.8h1.2 M111.5,75.9h1.2 M90.3,91.6h1.2 M90.3,87.6h1.2 M90.3,83.7h1.2 M90.3,79.8h1.2
		 M90.3,75.9h1.2 M107.6,69l-0.2-11.1c0-3.3-2.7-6-6-6c-3.3,0-6,2.7-6,6V69 M90.9,69h1.5h3h15.1h1.7l0.6,0.6v23.7l-0.6,0.6H90.9
		l-0.6-0.6V69.6L90.9,69z"/>
</g>
</svg>
