<?xml version="1.0" encoding="utf-8"?>
<!-- Generator: Adobe Illustrator 23.0.1, SVG Export Plug-In . SVG Version: 6.00 Build 0)  -->
<svg version="1.1" id="Слой_1" xmlns="http://www.w3.org/2000/svg" xmlns:xlink="http://www.w3.org/1999/xlink" x="0px" y="0px"
	 viewBox="0 0 128.2 128.2" style="enable-background:new 0 0 128.2 128.2;" xml:space="preserve">
<style type="text/css">
	.st0{fill:none;stroke:#626262;stroke-width:0.7498;stroke-linecap:round;stroke-linejoin:round;stroke-miterlimit:22.9256;}
	.st1{fill:none;stroke:#010005;stroke-width:1.4998;stroke-linecap:round;stroke-linejoin:round;stroke-miterlimit:22.9256;}
	.st2{fill:none;stroke:#010005;stroke-width:1.4998;stroke-linejoin:round;stroke-miterlimit:22.9256;}
</style>
<path class="st0" d="M67.6,50.8h-6.6 M60.9,44.7h6.6"/>
<path class="st0" d="M67.9,94.1v4.7 M60.6,98.8v-4.7"/>
<path class="st1" d="M59.4,109.2V98.8 M69,98.8v10.4"/>
<path class="st0" d="M60.9,24.3c0-1.7,1.4-3.1,3.2-3.1c1.7,0,3.2,1.4,3.2,3.1"/>
<path class="st0" d="M57.8,24.3c0-3.5,2.8-6.3,6.3-6.3s6.3,2.8,6.3,6.3"/>
<path class="st1" d="M69,109.2c0,0.6-2.2,1-4.8,1c-2.7,0-4.8-0.5-4.8-1"/>
<path class="st1" d="M69,98.8c0,0.2-2.2,0.4-4.8,0.4c-2.7,0-4.8-0.2-4.8-0.4"/>
<polyline class="st0" points="70.4,75.4 70.4,94.1 67.6,94.1 "/>
<polyline class="st2" points="67.6,44.7 67.6,94.1 60.9,94.1 60.9,44.7 "/>
<polyline class="st0" points="62.9,37.1 62.9,32.7 65.6,32.7 65.6,37.1 "/>
<polyline class="st1" points="60.9,44.7 62.9,37.1 65.6,37.1 67.6,44.7 "/>
</svg>
