<?xml version="1.0" encoding="utf-8"?>
<!-- Generator: Adobe Illustrator 23.0.1, SVG Export Plug-In . SVG Version: 6.00 Build 0)  -->
<svg version="1.1" id="Слой_1" xmlns="http://www.w3.org/2000/svg" xmlns:xlink="http://www.w3.org/1999/xlink" x="0px" y="0px"
	 viewBox="0 0 128.2 128.2" style="enable-background:new 0 0 128.2 128.2;" xml:space="preserve">
<style type="text/css">
	.st0{fill:none;stroke:#010005;stroke-width:0.7498;stroke-linecap:round;stroke-linejoin:round;stroke-miterlimit:22.9256;}
	.st1{fill-rule:evenodd;clip-rule:evenodd;fill:#E63A12;stroke:#E63A0D;stroke-width:0.5669;stroke-miterlimit:22.9256;}
	.st2{fill:none;stroke:#010005;stroke-width:1.4998;stroke-linecap:round;stroke-linejoin:round;stroke-miterlimit:22.9256;}
</style>
<path class="st0" d="M76.9,62c0.5-0.1,1-0.2,1.6-0.2c3.8,0,6.9,3.1,6.9,6.9s-3.1,6.9-6.9,6.9c-0.6,0-1.1-0.1-1.6-0.2"/>
<path class="st0" d="M92.6,74.4c-1.4,3.6-4.2,6.6-7.8,8.2c-1.9,0.9-4.1,1.4-6.4,1.4"/>
<polygon class="st1" points="73.7,98.5 73.7,31.2 73.7,29.7 72.9,28.9 35.3,31.3 35.2,31.3 29.7,31.3 28.9,32.1 28.9,97.6 
	29.8,98.5 35.2,98.6 35.2,98.6 35.3,98.6 72.9,99.3 "/>
<g>
	<path class="st2" d="M76.9,48c0.5,0,1.1-0.1,1.6-0.1c11.5,0,20.8,9.3,20.8,20.8S90,89.5,78.5,89.5c-0.5,0-1.1,0-1.6-0.1"/>
	<polyline class="st2" points="80.1,92.1 80.1,97.6 79.2,98.5 73.7,98.5 72.9,99.3 29.8,98.5 28.9,97.6 28.9,32.1 29.7,31.3 
		35.3,31.3 72.9,28.9 73.7,29.7 73.7,31.2 78.4,31.2 80.1,33 80.1,45.7 	"/>
	<polyline class="st2" points="35.2,31.3 72.9,28.9 73.7,29.7 73.7,98.5 72.9,99.3 35.2,98.6 	"/>
	<path class="st2" d="M76.9,65.6c0.5-0.3,1-0.4,1.6-0.4c1.9,0,3.5,1.6,3.5,3.5s-1.6,3.5-3.5,3.5c-0.6,0-1.1-0.1-1.6-0.4"/>
</g>
<line class="st0" x1="35.3" y1="98.5" x2="35.3" y2="31.3"/>
</svg>
