<?xml version="1.0" encoding="utf-8"?>
<!-- Generator: Adobe Illustrator 23.0.1, SVG Export Plug-In . SVG Version: 6.00 Build 0)  -->
<svg version="1.1" id="Слой_1" xmlns="http://www.w3.org/2000/svg" xmlns:xlink="http://www.w3.org/1999/xlink" x="0px" y="0px"
	 viewBox="0 0 128.2 128.2" style="enable-background:new 0 0 128.2 128.2;" xml:space="preserve">
<style type="text/css">
	
		.st0{fill-rule:evenodd;clip-rule:evenodd;fill:none;stroke:#000003;stroke-width:0.7498;stroke-linecap:round;stroke-linejoin:round;stroke-miterlimit:22.9256;}
	
		.st1{fill-rule:evenodd;clip-rule:evenodd;fill:#E53912;stroke:#000003;stroke-width:1.4998;stroke-linecap:round;stroke-linejoin:round;stroke-miterlimit:22.9256;}
	.st2{fill-rule:evenodd;clip-rule:evenodd;fill:none;stroke:#000003;stroke-width:0.7498;stroke-miterlimit:22.9256;}
</style>
<path class="st0" d="M103.2,57.1c-0.2-0.7,0.2-1.5,1-1.7c0.7-0.2,1.5,0.2,1.7,1c0.2,0.7-0.2,1.5-1,1.7
	C104.1,58.3,103.4,57.8,103.2,57.1L103.2,57.1z M104.9,54l-7.4-1.6l1.7,6.6l3-0.3l1,4c0.4,1.5,1.9,2.3,3.3,2c1.5-0.4,2.3-1.9,2-3.3
	l-1.4-5.3C106.9,55,106,54.2,104.9,54L104.9,54L104.9,54z M104.6,62.4c-0.2-0.7,0.2-1.5,1-1.7c0.7-0.2,1.5,0.2,1.7,1
	c0.2,0.7-0.2,1.5-1,1.7C105.5,63.5,104.8,63.1,104.6,62.4z"/>
<path class="st0" d="M45.5,103.9c-0.7-0.4-1.5-0.1-1.9,0.5c-0.4,0.7-0.1,1.5,0.5,1.9c0.7,0.4,1.5,0.1,1.9-0.5
	C46.4,105.1,46.2,104.2,45.5,103.9L45.5,103.9z M42.1,104.7l0.4-7.6l5.9,3.4l-1.1,2.9l3.6,2c1.3,0.8,1.8,2.4,1,3.7
	c-0.8,1.3-2.4,1.8-3.7,1l-4.8-2.7C42.5,106.9,42,105.8,42.1,104.7L42.1,104.7L42.1,104.7z M50.3,106.6c-0.7-0.4-1.5-0.1-1.9,0.5
	c-0.4,0.7-0.1,1.5,0.5,1.9c0.7,0.4,1.5,0.1,1.9-0.5C51.2,107.8,50.9,107,50.3,106.6z"/>
<path class="st0" d="M68.5,74.2c-1.4,0.6-3,1-4.7,1c-1.5,0-3-0.3-4.3-0.8 M75.5,62.2c0,0.4,0.1,0.8,0.1,1.3c0,2.7-0.9,5.3-2.5,7.3"
	/>
<path class="st1" d="M54.9,63.5c0-3.1,1.6-5.9,4-7.5L42.6,32.2l-1.3-1.9c-2.1,1.4-4,3-5.8,4.8c-1.6-1.6-4.3-1.6-5.9,0
	c-1.6,1.6-1.6,4.3,0,5.9c0.2,0.2,0.4,0.4,0.7,0.5c-3.4,5.2-5.6,11.2-6.3,17.7c-0.1,0-0.1,0-0.2,0c-2.3,0-4.2,1.9-4.2,4.2
	s1.9,4.2,4.2,4.2c0.1,0,0.1,0,0.2,0c0.7,6.5,2.9,12.5,6.3,17.7c-0.2,0.2-0.5,0.3-0.7,0.5c-1.6,1.6-1.6,4.3,0,5.9
	c1.6,1.6,4.3,1.6,5.9,0l0,0c3.7,3.7,8.1,6.6,12.9,8.7l12.2-28.7C57.3,70.5,54.9,67.3,54.9,63.5z"/>
<path class="st0" d="M51,94.2c14.3,6,31.3,1.3,40.4-12c4.8-7,6.5-15.2,5.6-23 M73.1,70.6l7.7,10c0.6,0.7,1.6,1,2.6,0
	c1.4-1.6,2.6-3.4,3.7-5.4c2.5-4.8,3.3-10.1,2.7-15.1 M54.1,87.5c7.1,2.9,14.9,2.4,21.4-0.8c1.3-0.7,1-2.1,0.6-2.6l-7.6-9.9"/>
<path class="st1" d="M72.8,62.5L99.2,59c-1.1-9.2-5.8-17.2-12.5-22.9L69.8,56.7C71.4,58.1,72.6,60.2,72.8,62.5z"/>
<path class="st2" d="M65.2,21v4.4 M65.2,21c0-0.7-0.6-1.3-1.3-1.3c-0.7,0-1.3,0.6-1.3,1.3l0,4.3"/>
<path class="st0" d="M67.1,25.9v-4.9c0-1.8-1.4-3.2-3.2-3.2c-1.8,0-3.2,1.4-3.2,3.2v4.9"/>
<path class="st1" d="M69.8,56.7l16.9-20.5l1.4-1.8c-6.6-5.5-15-8.8-24.2-8.8c-7.9,0-15.2,2.4-21.3,6.6L58.9,56
	c1.4-0.9,3.1-1.5,5-1.5C66.1,54.5,68.2,55.3,69.8,56.7z"/>
<path class="st0" d="M33.8,89c-0.1,0.7-0.7,1.2-1.4,1.1c-0.7-0.1-1.2-0.7-1.1-1.4c0.1-0.7,0.7-1.2,1.4-1.1
	C33.4,87.7,33.9,88.3,33.8,89z"/>
<path class="st0" d="M25,63.6c-0.1,0.7-0.7,1.2-1.4,1.1c-0.7-0.1-1.2-0.7-1.1-1.4c0.1-0.7,0.7-1.2,1.4-1.1
	C24.6,62.3,25.1,62.9,25,63.6z"/>
<path class="st0" d="M33.8,38.2c-0.1,0.7-0.7,1.2-1.4,1.1c-0.7-0.1-1.2-0.7-1.1-1.4c0.1-0.7,0.7-1.2,1.4-1.1
	C33.4,36.9,33.9,37.5,33.8,38.2z"/>
<path class="st0" d="M39.5,44.5l-3.8-3.2 M36.7,49l-4.2-2.7 M34.7,53.8l-4.5-2 M33.6,58.9l-4.8-1 M33.3,63.9L28.3,64 M33.8,69
	L29,70.2 M35.1,73.9l-4.4,2.3 M37.3,78.6l-3.9,3 M40.3,83l-3.4,3.6 M44,86.8l-3,4"/>
<path class="st0" d="M46.3,36.7c3.1-2.1,6.5-3.8,10.4-4.7c8.9-2.2,17.8-0.4,24.8,4.3 M84.1,40.4c4.7,3.9,8,9,9.7,14.7"/>
</svg>
