<?xml version="1.0" encoding="utf-8"?>
<!-- Generator: Adobe Illustrator 23.0.1, SVG Export Plug-In . SVG Version: 6.00 Build 0)  -->
<svg version="1.1" id="Слой_1" xmlns="http://www.w3.org/2000/svg" xmlns:xlink="http://www.w3.org/1999/xlink" x="0px" y="0px"
	 viewBox="0 0 128.2 128.2" style="enable-background:new 0 0 128.2 128.2;" xml:space="preserve">
<style type="text/css">
	
		.st0{fill-rule:evenodd;clip-rule:evenodd;fill:none;stroke:#616262;stroke-width:0.7498;stroke-linecap:round;stroke-linejoin:round;stroke-miterlimit:22.9256;}
	
		.st1{fill-rule:evenodd;clip-rule:evenodd;fill:none;stroke:#000003;stroke-width:1.4998;stroke-linecap:round;stroke-linejoin:round;stroke-miterlimit:22.9256;}
</style>
<path class="st0" d="M56.7,68h14.7c1.8,0,3.2,1.4,3.2,3.2v0c0,1.8-1.4,3.2-3.2,3.2H56.7c-1.8,0-3.2-1.4-3.2-3.2v0
	C53.5,69.4,55,68,56.7,68L56.7,68z M50.4,65.2h27.3v12H50.4V65.2L50.4,65.2z M50.4,77.2h27.3v20.2H50.4V77.2z"/>
<path class="st1" d="M49,60.2V42C49,33.7,55.7,27,64,27c8.2,0,14.9,6.7,14.9,14.9l0,18.2 M45.6,65.2h1.9 M80.7,65.2h1.9 M80.7,97.3
	h1.9 M80.7,90.9h1.9 M80.7,84.5h1.9 M80.7,78h1.9 M80.7,71.6h1.9 M45.6,97.3h1.9 M45.6,90.9h1.9 M45.6,84.5h1.9 M45.6,78h1.9
	 M45.6,71.6h1.9 M74.2,60.1L73.9,42c0-5.5-4.5-9.9-9.9-9.9C58.5,32,54,36.5,54,42v18.2 M46.6,60.2H49h5h24.9h2.7l1,1v39l-1,1h-35
	l-1-1v-39L46.6,60.2z"/>
</svg>
