<?xml version="1.0" encoding="utf-8"?>
<!-- Generator: Adobe Illustrator 23.0.1, SVG Export Plug-In . SVG Version: 6.00 Build 0)  -->
<svg version="1.1" id="Слой_1" xmlns="http://www.w3.org/2000/svg" xmlns:xlink="http://www.w3.org/1999/xlink" x="0px" y="0px"
	 viewBox="0 0 128.2 128.2" style="enable-background:new 0 0 128.2 128.2;" xml:space="preserve">
<style type="text/css">
	.st0{fill-rule:evenodd;clip-rule:evenodd;fill:#E53912;}
	
		.st1{fill-rule:evenodd;clip-rule:evenodd;fill:none;stroke:#000003;stroke-width:1.4998;stroke-linecap:round;stroke-linejoin:round;stroke-miterlimit:22.9256;}
	
		.st2{fill-rule:evenodd;clip-rule:evenodd;fill:none;stroke:#1A1A18;stroke-width:0.7498;stroke-linecap:round;stroke-linejoin:round;stroke-miterlimit:22.9256;}
	.st3{fill-rule:evenodd;clip-rule:evenodd;fill:none;stroke:#000003;stroke-width:1.4998;stroke-miterlimit:22.9256;}
	
		.st4{fill-rule:evenodd;clip-rule:evenodd;fill:none;stroke:#000003;stroke-width:0.7498;stroke-linecap:round;stroke-linejoin:round;stroke-miterlimit:22.9256;}
</style>
<path class="st0" d="M61.1,97.8c-0.7,0-1.3-0.6-1.3-1.3c0-0.7,0.6-1.3,1.3-1.3h6.1c0.7,0,1.3,0.6,1.3,1.3c0,0.7-0.6,1.3-1.3,1.3
	H61.1L61.1,97.8z M69.9,94H58.5v5h11.3V94z"/>
<path class="st1" d="M56.6,90.2V81c0-3.5,2.4-6.5,5.7-7.3 M65.9,73.8c3.3,0.8,5.7,3.7,5.7,7.3l0,9.1 M54.9,92.7h1 M72.5,92.7h1
	 M72.5,108.7h1 M72.5,105.5h1 M72.5,102.3h1 M72.5,99.1h1 M72.5,95.9h1 M54.9,108.7h1 M54.9,105.5h1 M54.9,102.3h1 M54.9,99.1h1
	 M54.9,95.9h1 M69.2,90.1L69.1,81c0-2.1-1.3-3.9-3.1-4.6 M62.4,76.4c-1.9,0.7-3.3,2.5-3.3,4.7v9.1 M55.4,90.2h1.2h2.5h12.4h1.4
	l0.5,0.5v19.5l-0.5,0.5H55.4l-0.5-0.5V90.7L55.4,90.2z"/>
<path class="st0" d="M64.1,20.1c-14.2,0-25.7,11.5-25.7,25.7c0,14.2,11.5,25.7,25.7,25.7V51.3c-3,0-5.5-2.5-5.5-5.5
	c0-3,2.5-5.5,5.5-5.5V20.1z"/>
<path class="st0" d="M69.6,45.8c0,3-2.5,5.5-5.5,5.5v20.2c14.2,0,25.7-11.5,25.7-25.7c0-14.2-11.5-25.7-25.7-25.7v20.2
	C67.1,40.3,69.6,42.8,69.6,45.8z"/>
<path class="st2" d="M64.1,51.3v20.2 M64.1,19.9v20.5"/>
<path class="st3" d="M64.1,51.3c-3,0-5.5-2.5-5.5-5.5c0-3,2.5-5.5,5.5-5.5 M64.1,20.1c-14.2,0-25.7,11.5-25.7,25.7
	c0,14.2,11.5,25.7,25.7,25.7"/>
<path class="st3" d="M64.1,20.1c14.2,0,25.7,11.5,25.7,25.7c0,14.2-11.5,25.7-25.7,25.7 M64.1,51.3c3,0,5.5-2.5,5.5-5.5
	c0-3-2.5-5.5-5.5-5.5"/>
<path class="st1" d="M65.7,71.5v6.2c0,0.9-0.7,1.6-1.6,1.6l0,0c-0.9,0-1.6-0.7-1.6-1.6v-6.2"/>
<path class="st1" d="M61.6,20.1c0-1.4,1.1-2.5,2.5-2.5c1.4,0,2.5,1.1,2.5,2.5"/>
<path class="st4" d="M61.1,95.2h6.1c0.7,0,1.3,0.6,1.3,1.3l0,0c0,0.7-0.6,1.3-1.3,1.3h-6.1c-0.7,0-1.3-0.6-1.3-1.3l0,0
	C59.8,95.8,60.4,95.2,61.1,95.2L61.1,95.2z M58.5,94h11.3v5H58.5V94L58.5,94z M58.5,99h11.3v8.4H58.5V99z"/>
</svg>
