<?xml version="1.0" encoding="utf-8"?>
<!-- Generator: Adobe Illustrator 23.0.1, SVG Export Plug-In . SVG Version: 6.00 Build 0)  -->
<svg version="1.1" id="Слой_1" xmlns="http://www.w3.org/2000/svg" xmlns:xlink="http://www.w3.org/1999/xlink" x="0px" y="0px"
	 viewBox="0 0 128.2 128.2" style="enable-background:new 0 0 128.2 128.2;" xml:space="preserve">
<style type="text/css">
	.st0{fill-rule:evenodd;clip-rule:evenodd;fill:#E53912;}
	
		.st1{fill-rule:evenodd;clip-rule:evenodd;fill:none;stroke:#000003;stroke-width:0.7498;stroke-linecap:round;stroke-linejoin:round;stroke-miterlimit:22.9256;}
	
		.st2{fill-rule:evenodd;clip-rule:evenodd;fill:none;stroke:#000003;stroke-width:1.4998;stroke-linecap:round;stroke-linejoin:round;stroke-miterlimit:22.9256;}
</style>
<path class="st0" d="M50.4,77.2h27.3v-12H50.4V77.2L50.4,77.2z M56.6,74.4c-1.7,0-3-1.4-3-3.2c0-1.8,1.4-3.2,3-3.2h15.1
	c1.7,0,3,1.4,3,3.2c0,1.8-1.4,3.2-3,3.2H56.6z"/>
<rect x="50.4" y="65.2" class="st1" width="27.3" height="12"/>
<path class="st1" d="M56.7,68h14.7c1.8,0,3.2,1.4,3.2,3.2v0c0,1.8-1.4,3.2-3.2,3.2H56.7c-1.8,0-3.2-1.4-3.2-3.2v0
	C53.5,69.4,55,68,56.7,68z"/>
<rect x="50.4" y="77.2" class="st1" width="27.3" height="20.2"/>
<polygon class="st2" points="46.6,60.2 81.6,60.2 82.6,61.2 82.6,100.2 81.6,101.2 46.6,101.2 45.6,100.2 45.6,61.2 "/>
<path class="st2" d="M49,60.2V42C49,33.7,55.7,27,64,27c8.2,0,14.9,6.7,14.9,14.9l0,18.2 M74.2,60.2L73.9,42c0-5.5-4.5-9.9-9.9-9.9
	C58.5,32,54,36.5,54,42v18.2"/>
<line class="st2" x1="45.6" y1="65.2" x2="47.6" y2="65.2"/>
<line class="st2" x1="45.6" y1="71.6" x2="47.6" y2="71.6"/>
<line class="st2" x1="45.6" y1="78.1" x2="47.6" y2="78.1"/>
<line class="st2" x1="45.6" y1="84.5" x2="47.6" y2="84.5"/>
<line class="st2" x1="45.6" y1="90.9" x2="47.6" y2="90.9"/>
<line class="st2" x1="45.6" y1="97.3" x2="47.6" y2="97.3"/>
<line class="st2" x1="80.7" y1="65.2" x2="82.6" y2="65.2"/>
<line class="st2" x1="80.7" y1="71.6" x2="82.6" y2="71.6"/>
<line class="st2" x1="80.7" y1="78.1" x2="82.6" y2="78.1"/>
<line class="st2" x1="80.7" y1="84.5" x2="82.6" y2="84.5"/>
<line class="st2" x1="80.7" y1="90.9" x2="82.6" y2="90.9"/>
<line class="st2" x1="80.7" y1="97.3" x2="82.6" y2="97.3"/>
</svg>
