<?xml version="1.0" encoding="utf-8"?>
<!-- Generator: Adobe Illustrator 23.0.1, SVG Export Plug-In . SVG Version: 6.00 Build 0)  -->
<svg version="1.1" id="Слой_1" xmlns="http://www.w3.org/2000/svg" xmlns:xlink="http://www.w3.org/1999/xlink" x="0px" y="0px"
	 viewBox="0 0 128.2 128.2" style="enable-background:new 0 0 128.2 128.2;" xml:space="preserve">
<style type="text/css">
	
		.st0{fill-rule:evenodd;clip-rule:evenodd;fill:none;stroke:#000003;stroke-width:1.4998;stroke-linecap:round;stroke-linejoin:round;stroke-miterlimit:22.9256;}
	
		.st1{fill-rule:evenodd;clip-rule:evenodd;fill:none;stroke:#616262;stroke-width:0.7498;stroke-linecap:round;stroke-linejoin:round;stroke-miterlimit:22.9256;}
	.st2{fill-rule:evenodd;clip-rule:evenodd;fill:none;stroke:#616262;stroke-width:0.7498;stroke-miterlimit:22.9256;}
</style>
<polygon class="st0" points="27.3,19.1 43.3,31.1 43.3,97.1 27.3,109.1 "/>
<polyline class="st1" points="43.3,97.1 51.3,91.1 95.3,91.1 103.3,97.1 "/>
<path class="st1" d="M51.3,52.1l0-15h44v15 M95.3,55.1v24 M95.3,82.1v9h-44v-9 M51.3,79.1v-24"/>
<path class="st1" d="M43.3,82.1l8.1-3h8.9 M64.4,79.1h3.3 M71.9,79.1h6.6 M88.8,79.1h6.5l8,3"/>
<polyline class="st1" points="43.3,31.1 51.3,37.1 95.3,37.1 103.3,31.1 "/>
<line class="st0" x1="103.3" y1="82.1" x2="43.3" y2="82.1"/>
<polyline class="st1" points="43.3,52.1 51.3,55.1 95.3,55.1 103.3,52.1 "/>
<line class="st0" x1="103.3" y1="52.1" x2="43.3" y2="52.1"/>
<g>
	<polygon class="st1" points="60.5,68.9 64.1,68.9 64.4,69.2 64.4,80.1 64.1,80.4 60.5,80.4 60.2,80.1 60.2,69.2 	"/>
	<polyline class="st1" points="61.3,68.9 61.3,67.5 63.3,67.5 63.3,68.9 	"/>
	<path class="st2" d="M63,67.5v-7.2c0-0.4-0.3-0.7-0.7-0.7l0,0c-0.4,0-0.7,0.3-0.7,0.7v7.2"/>
	<path class="st1" d="M60.2,70.6h4.2 M60.2,72.2h4.2 M60.2,73.9h4.2 M60.2,75.6h4.2 M60.2,77.3h4.2 M60.2,79h4.2"/>
</g>
<g>
	<polygon class="st1" points="78.7,68.8 88.5,68.8 88.8,69.1 88.8,80 88.5,80.3 78.7,80.3 78.4,80 78.4,69.1 	"/>
	<path class="st1" d="M81.4,71.3h4.5c0.5,0,0.9,0.4,0.9,0.9l0,0c0,0.5-0.4,0.9-0.9,0.9h-4.5c-0.5,0-0.9-0.4-0.9-0.9l0,0
		C80.5,71.7,80.9,71.3,81.4,71.3z"/>
	<rect x="79.6" y="70" class="st1" width="8.1" height="8.4"/>
	<path class="st1" d="M79.4,67.4v-3.7c0-2.3,1.9-4.2,4.2-4.2c2.3,0,4.2,1.9,4.2,4.2l0,3.7 M86.4,67.4l-0.1-3.7
		c0-1.5-1.2-2.8-2.8-2.8c-1.5,0-2.8,1.2-2.8,2.8v3.7"/>
	<polyline class="st1" points="79.3,68.8 79.3,67.4 81,67.4 81,68.8 	"/>
	<polyline class="st1" points="86.3,68.8 86.3,67.4 88,67.4 88,68.8 	"/>
	<path class="st1" d="M78.4,70h1.1 M87.7,70l1.1,0 M87.7,71.6l1.1,0 M87.7,73.3l1.1,0 M87.7,75l1.1,0 M87.7,76.7l1.1,0 M87.7,78.4
		l1.1,0 M78.4,71.6h1.1 M78.4,73.3h1.1 M78.4,75h1.1 M78.4,76.7h1.1 M78.4,78.4h1.1"/>
</g>
<g>
	<polygon class="st1" points="67.9,68.9 71.6,68.9 71.9,69.2 71.9,80.1 71.6,80.4 67.9,80.4 67.7,80.1 67.7,69.2 	"/>
	<polyline class="st1" points="68.8,68.9 68.8,67.5 70.7,67.5 70.7,68.9 	"/>
	<path class="st2" d="M70.4,67.5v-7.2c0-0.4-0.3-0.7-0.7-0.7l0,0c-0.4,0-0.7,0.3-0.7,0.7v7.2"/>
	<path class="st1" d="M67.7,70.6h4.2 M67.7,72.2h4.2 M67.7,73.9h4.2 M67.7,75.6h4.2 M67.7,77.3h4.2 M67.7,79h4.2"/>
</g>
<rect x="43.3" y="31.1" class="st0" width="60" height="66"/>
<polyline class="st0" points="27.3,64.1 25,64.1 25,59.6 27.3,59.6 "/>
</svg>
