<?xml version="1.0" encoding="utf-8"?>
<!-- Generator: Adobe Illustrator 23.0.1, SVG Export Plug-In . SVG Version: 6.00 Build 0)  -->
<svg version="1.1" id="Слой_1" xmlns="http://www.w3.org/2000/svg" xmlns:xlink="http://www.w3.org/1999/xlink" x="0px" y="0px"
	 viewBox="0 0 128.2 128.2" style="enable-background:new 0 0 128.2 128.2;" xml:space="preserve">
<style type="text/css">
	.st0{fill-rule:evenodd;clip-rule:evenodd;fill:#E53912;}
	
		.st1{fill-rule:evenodd;clip-rule:evenodd;fill:none;stroke:#000003;stroke-width:1.4998;stroke-linecap:round;stroke-linejoin:round;stroke-miterlimit:22.9256;}
	
		.st2{fill-rule:evenodd;clip-rule:evenodd;fill:none;stroke:#000003;stroke-width:0.7498;stroke-linecap:round;stroke-linejoin:round;stroke-miterlimit:22.9256;}
	.st3{fill-rule:evenodd;clip-rule:evenodd;fill:#FFFFFF;}
	.st4{fill-rule:evenodd;clip-rule:evenodd;fill:none;stroke:#000003;stroke-width:0.7498;stroke-miterlimit:22.9256;}
	
		.st5{fill-rule:evenodd;clip-rule:evenodd;fill:#FFFFFF;stroke:#000003;stroke-width:0.7498;stroke-linecap:round;stroke-linejoin:round;stroke-miterlimit:22.9256;}
</style>
<path class="st0" d="M51.3,55.1h44l8-3h-8h-44h-8v0L51.3,55.1L51.3,55.1z M51.2,79.1h44l8,3h-8h-44h-8v0L51.2,79.1z"/>
<path class="st0" d="M27.3,64.1v45l16-12h60v-15v-30v-21h-60l-16-12v40.5V64.1L27.3,64.1z M51.3,91.1v-9h-8v0l8-3v-24l-8-3v0h8v-15
	h44v15h8l-8,3v24l8,3l-8,0v9L51.3,91.1z"/>
<polygon class="st1" points="27.3,19.1 43.3,31.1 43.3,97.1 27.3,109.1 "/>
<polyline class="st2" points="43.3,97.1 51.3,91.1 95.3,91.1 103.3,97.1 "/>
<path class="st2" d="M51.3,52.1l0-15h44v15 M95.3,55.1v24 M95.3,82.1v9h-44v-9 M51.3,79.1v-24"/>
<path class="st2" d="M43.3,82.1l8.1-3h8.9 M64.4,79.1h3.3 M71.9,79.1h6.6 M88.8,79.1h6.5l8,3"/>
<polyline class="st2" points="43.3,31.1 51.3,37.1 95.3,37.1 103.3,31.1 "/>
<line class="st1" x1="103.3" y1="82.1" x2="43.3" y2="82.1"/>
<polyline class="st2" points="43.3,52.1 51.3,55.1 95.3,55.1 103.3,52.1 "/>
<line class="st1" x1="103.3" y1="52.1" x2="43.3" y2="52.1"/>
<g>
	<polygon class="st3" points="60.2,69.2 60.2,80.1 60.5,80.4 64.1,80.4 64.4,80.1 64.4,69.2 64.1,68.9 60.5,68.9 	"/>
	<polygon class="st2" points="60.5,68.9 64.1,68.9 64.4,69.2 64.4,80.1 64.1,80.4 60.5,80.4 60.2,80.1 60.2,69.2 	"/>
	<polyline class="st2" points="61.3,68.9 61.3,67.5 63.3,67.5 63.3,68.9 	"/>
	<path class="st4" d="M63,67.5v-7.2c0-0.4-0.3-0.7-0.7-0.7l0,0c-0.4,0-0.7,0.3-0.7,0.7v7.2"/>
	<path class="st2" d="M60.2,70.6h4.2 M60.2,72.2h4.2 M60.2,73.9h4.2 M60.2,75.6h4.2 M60.2,77.3h4.2 M60.2,79h4.2"/>
</g>
<g>
	<polygon class="st5" points="78.7,68.8 88.5,68.8 88.8,69.1 88.8,80 88.5,80.3 78.7,80.3 78.4,80 78.4,69.1 	"/>
	<path class="st2" d="M81.4,71.3h4.5c0.5,0,0.9,0.4,0.9,0.9l0,0c0,0.5-0.4,0.9-0.9,0.9h-4.5c-0.5,0-0.9-0.4-0.9-0.9l0,0
		C80.5,71.7,80.9,71.3,81.4,71.3z"/>
	<rect x="79.6" y="70" class="st2" width="8.1" height="8.4"/>
	<path class="st2" d="M79.4,67.4v-3.7c0-2.3,1.9-4.2,4.2-4.2c2.3,0,4.2,1.9,4.2,4.2l0,3.7 M86.4,67.4l-0.1-3.7
		c0-1.5-1.2-2.8-2.8-2.8c-1.5,0-2.8,1.2-2.8,2.8v3.7"/>
	<polyline class="st2" points="79.3,68.8 79.3,67.4 81,67.4 81,68.8 	"/>
	<polyline class="st2" points="86.3,68.8 86.3,67.4 88,67.4 88,68.8 	"/>
	<path class="st2" d="M78.4,70h1.1 M87.7,70l1.1,0 M87.7,71.6l1.1,0 M87.7,73.3l1.1,0 M87.7,75l1.1,0 M87.7,76.7l1.1,0 M87.7,78.4
		l1.1,0 M78.4,71.6h1.1 M78.4,73.3h1.1 M78.4,75h1.1 M78.4,76.7h1.1 M78.4,78.4h1.1"/>
</g>
<rect x="43.3" y="31.1" class="st1" width="60" height="66"/>
<polyline class="st1" points="27.3,64.1 25,64.1 25,59.6 27.3,59.6 "/>
<g>
	<polygon class="st3" points="66.8,69.2 66.8,80.1 67.1,80.4 70.8,80.4 71,80.1 71,69.2 70.8,68.9 67.1,68.9 	"/>
	<polygon class="st2" points="67.1,68.9 70.8,68.9 71,69.2 71,80.1 70.8,80.4 67.1,80.4 66.8,80.1 66.8,69.2 	"/>
	<polyline class="st2" points="68,68.9 68,67.5 69.9,67.5 69.9,68.9 	"/>
	<path class="st4" d="M69.6,67.5v-7.2c0-0.4-0.3-0.7-0.7-0.7l0,0c-0.4,0-0.7,0.3-0.7,0.7v7.2"/>
	<path class="st2" d="M66.8,70.6H71 M66.8,72.2H71 M66.8,73.9H71 M66.8,75.6H71 M66.8,77.3H71 M66.8,79H71"/>
</g>
</svg>
