<?xml version="1.0" encoding="utf-8"?>
<!-- Generator: Adobe Illustrator 23.0.1, SVG Export Plug-In . SVG Version: 6.00 Build 0)  -->
<svg version="1.1" id="Слой_1" xmlns="http://www.w3.org/2000/svg" xmlns:xlink="http://www.w3.org/1999/xlink" x="0px" y="0px"
	 viewBox="0 0 128.2 128.2" style="enable-background:new 0 0 128.2 128.2;" xml:space="preserve">
<style type="text/css">
	.st0{fill-rule:evenodd;clip-rule:evenodd;fill:#E63A12;}
	.st1{fill-rule:evenodd;clip-rule:evenodd;fill:#E63A0D;}
	.st2{fill:none;stroke:#010005;stroke-width:1.4998;stroke-linecap:round;stroke-linejoin:round;stroke-miterlimit:22.9256;}
	.st3{fill:none;stroke:#010005;stroke-width:0.7498;stroke-linecap:round;stroke-linejoin:round;stroke-miterlimit:22.9256;}
</style>
<path class="st0" d="M39.8,88.2c0.9-2.3,3.5-3.4,5.8-2.5c2.3,0.9,3.4,3.5,2.5,5.8c-0.9,2.3-3.5,3.4-5.8,2.5
	C40,93.1,38.8,90.5,39.8,88.2L39.8,88.2z M39.3,95.8L55,102c2.6,1,5.6-0.2,6.6-2.8l2.6-6.4l7.7-19.3c0.3-0.8,0.4-1.7,0.3-2.5
	c-0.3-0.3-0.5-0.7-0.7-1.1c-0.2-0.4-0.3-0.8-0.3-1.2c-0.5-0.7-1.3-1.3-2.2-1.7l-0.3-0.1l-15-6l-0.3-0.1c-2.6-1-5.6,0.2-6.6,2.8
	L36.5,89.2C35.4,91.8,36.7,94.7,39.3,95.8L39.3,95.8z M46.6,83.2c-2.3-0.9-3.4-3.5-2.5-5.8c0.9-2.3,3.5-3.4,5.8-2.5
	c2.3,0.9,3.4,3.5,2.5,5.8S48.9,84.1,46.6,83.2L46.6,83.2z M56.8,69.8c-0.9,2.3-3.5,3.4-5.8,2.5c-2.3-0.9-3.4-3.5-2.5-5.8
	c0.9-2.3,3.5-3.4,5.8-2.5C56.6,64.9,57.7,67.5,56.8,69.8L56.8,69.8z M60.1,71.1c0.9-2.3,3.5-3.4,5.8-2.5c2.3,0.9,3.4,3.5,2.5,5.8
	c-0.9,2.3-3.5,3.4-5.8,2.5C60.3,76,59.2,73.4,60.1,71.1L60.1,71.1z M55.8,82c0.9-2.3,3.5-3.4,5.8-2.5c2.3,0.9,3.4,3.5,2.5,5.8
	c-0.9,2.3-3.5,3.4-5.8,2.5C56,86.9,54.9,84.3,55.8,82L55.8,82z M51.5,92.9c0.9-2.3,3.5-3.4,5.8-2.5c2.3,0.9,3.4,3.5,2.5,5.8
	c-0.9,2.3-3.5,3.4-5.8,2.5S50.5,95.2,51.5,92.9z"/>
<path class="st1" d="M70.9,90.3c2.3-0.9,4.9,0.2,5.8,2.5c0.9,2.3-0.2,4.9-2.5,5.8c-2.3,0.9-4.9-0.2-5.8-2.5S68.6,91.3,70.9,90.3
	L70.9,90.3z M73.2,102l15.7-6.2c2.6-1,3.9-4,2.8-6.6L81.5,63.5c-1-2.6-4-3.9-6.6-2.8l-2.4,0.9l-0.8,0.6c-1.3,1.4-2.4,2.8-3.1,4.6
	l0.3,0.1c0.9,0.4,1.6,0.9,2.2,1.7C71,66.6,72.1,64.7,74,64c2.3-0.9,4.9,0.2,5.8,2.5c0.9,2.3-0.2,4.9-2.5,5.8c-1.9,0.8-4,0.1-5.2-1.4
	c0.1,0.8,0,1.7-0.3,2.5l-2.4,5.9c0.1,0,0.3,0,0.3,0.1c1.2,0.4,2.2,1.3,2.7,2.6c0.9,2.3-0.2,4.9-2.5,5.8c-1.2,0.5-2.5,0.4-3.6-0.1
	l-0.2-0.1l-2,5l0,0.3l2.5,6.2C67.7,101.8,70.6,103,73.2,102L73.2,102z M81.6,83.2c-2.3,0.9-4.9-0.2-5.8-2.5
	c-0.9-2.3,0.2-4.9,2.5-5.8c2.3-0.9,4.9,0.2,5.8,2.5S83.9,82.3,81.6,83.2L81.6,83.2z M80.1,91.5c-0.9-2.3,0.2-4.9,2.5-5.8
	c2.3-0.9,4.9,0.2,5.8,2.5c0.9,2.3-0.2,4.9-2.5,5.8C83.6,95,81,93.8,80.1,91.5z"/>
<path class="st0" d="M61.4,57.3c0.6,1.5,2.2,2.2,3.7,1.6s2.2-2.2,1.6-3.7s-2.2-2.2-3.7-1.6S60.9,55.8,61.4,57.3z"/>
<path class="st2" d="M58.5,51.1c-4.5,0.3-8.9-2.3-10.7-6.8c-2.2-5.5,0.5-11.8,6.1-14c0.7-0.3,1.8-0.7,2.5-1c0.9-0.4,1.4-1.4,1-2.3
	C57,26,55.9,25.6,55,26c-0.9,0.4-2.4,0.9-3.3,1.3c-7.2,2.8-10.9,11.5-8.1,18.7c2.7,6.8,6.7,10.4,10.2,13.6 M64.2,92.6l0,0.3l2.5,6.2
	c1,2.6,4,3.9,6.6,2.8l15.7-6.2c2.6-1,3.9-4,2.8-6.6L81.5,63.5c-1-2.6-4-3.9-6.6-2.8l-2.4,0.9l-0.8,0.6"/>
<path class="st2" d="M71.9,29.3c-0.9-0.4-1.4-1.4-1-2.3c0.4-0.9,1.4-1.4,2.3-1c0.9,0.4,2.4,0.9,3.3,1.3c7.2,2.9,10.9,11.6,8,18.7
	c-4.7,11.7-13.3,14.1-16,20.8l-15-6l2.3-5.9c2.2-5.4,6.5-6.1,10.5-4.5c5.5,2.2,11.8-0.5,14-6c2.2-5.5-0.5-11.8-6-14
	C73.7,30,72.7,29.6,71.9,29.3L71.9,29.3z M53.3,60.6L69,66.9c2.6,1,3.9,4,2.8,6.6L61.5,99.2c-1,2.6-4,3.9-6.6,2.8l-15.7-6.3
	c-2.6-1-3.9-4-2.8-6.6l10.2-25.7C47.7,60.9,50.7,59.6,53.3,60.6z"/>
<path class="st3" d="M84.1,77.3c-0.9-2.3-3.5-3.4-5.8-2.5c-2.3,0.9-3.4,3.5-2.5,5.8c0.9,2.3,3.5,3.4,5.8,2.5
	C83.9,82.3,85,79.7,84.1,77.3 M72.4,82c-0.5-1.2-1.5-2.1-2.7-2.6c-0.1,0-0.5-0.1-0.5-0.1 M66,87.6c0,0,0.3,0.1,0.3,0.2
	c1.1,0.5,2.4,0.6,3.6,0.1c2.3-0.9,3.4-3.5,2.5-5.8 M88.4,88.2c-0.9-2.3-3.5-3.4-5.8-2.5c-2.3,0.9-3.4,3.5-2.5,5.8
	c0.9,2.3,3.5,3.4,5.8,2.5C88.2,93.1,89.4,90.5,88.4,88.2 M48.4,66.4c0.9-2.3,3.5-3.4,5.8-2.5c2.3,0.9,3.4,3.5,2.5,5.8
	c-0.9,2.3-3.5,3.4-5.8,2.5C48.6,71.4,47.5,68.8,48.4,66.4 M65.2,58.9c-1.5,0.6-3.1-0.2-3.7-1.6s0.2-3.1,1.6-3.7s3.1,0.2,3.7,1.6
	C67.4,56.7,66.6,58.3,65.2,58.9 M60.1,71.1c0.9-2.3,3.5-3.4,5.8-2.5c2.3,0.9,3.4,3.5,2.5,5.8c-0.9,2.3-3.5,3.4-5.8,2.5
	C60.3,76,59.2,73.4,60.1,71.1 M44.1,77.3c0.9-2.3,3.5-3.4,5.8-2.5c2.3,0.9,3.4,3.5,2.5,5.8c-0.9,2.3-3.5,3.4-5.8,2.5
	S43.2,79.6,44.1,77.3 M55.8,82c0.9-2.3,3.5-3.4,5.8-2.5c2.3,0.9,3.4,3.5,2.5,5.8c-0.9,2.3-3.5,3.4-5.8,2.5
	C56,86.9,54.9,84.3,55.8,82 M39.8,88.2c0.9-2.3,3.5-3.4,5.8-2.5c2.3,0.9,3.4,3.5,2.5,5.8c-0.9,2.3-3.5,3.4-5.8,2.5
	C40,93.1,38.8,90.5,39.8,88.2 M51.5,92.9c0.9-2.3,3.5-3.4,5.8-2.5c2.3,0.9,3.4,3.5,2.5,5.8c-0.9,2.3-3.5,3.4-5.8,2.5
	S50.5,95.2,51.5,92.9 M59.9,56.2c0-2.3,1.9-4.2,4.2-4.2c2.3,0,4.2,1.9,4.2,4.2c0,2.3-1.9,4.2-4.2,4.2C61.8,60.4,59.9,58.5,59.9,56.2
	 M79.8,66.5c-0.9-2.3-3.5-3.4-5.8-2.5c-2.3,0.9-3.4,3.5-2.5,5.8c0.9,2.3,3.5,3.4,5.8,2.5C79.6,71.4,80.7,68.8,79.8,66.5 M76.7,92.9
	c-0.9-2.3-3.5-3.4-5.8-2.5s-3.4,3.5-2.5,5.8c0.9,2.3,3.5,3.4,5.8,2.5C76.5,97.8,77.7,95.2,76.7,92.9"/>
</svg>
