<?xml version="1.0" encoding="utf-8"?>
<!-- Generator: Adobe Illustrator 23.0.1, SVG Export Plug-In . SVG Version: 6.00 Build 0)  -->
<svg version="1.1" id="Слой_1" xmlns="http://www.w3.org/2000/svg" xmlns:xlink="http://www.w3.org/1999/xlink" x="0px" y="0px"
	 viewBox="0 0 128.2 128.2" style="enable-background:new 0 0 128.2 128.2;" xml:space="preserve">
<style type="text/css">
	.st0{fill-rule:evenodd;clip-rule:evenodd;fill:#E63A12;stroke:#010005;stroke-width:0.216;stroke-miterlimit:22.9256;}
	.st1{fill:none;stroke:#010005;stroke-width:0.7498;stroke-linecap:round;stroke-linejoin:round;stroke-miterlimit:22.9256;}
	.st2{fill:none;stroke:#010005;stroke-width:1.4998;stroke-linecap:round;stroke-linejoin:round;stroke-miterlimit:22.9256;}
</style>
<path class="st0" d="M48.1,39.1v13.8h32V39.1H48.1L48.1,39.1z M54.8,41.9h18.7c2.2,0,4.1,1.8,4.1,4.1c0,2.2-1.8,4.1-4.1,4.1H54.8
	c-2.2,0-4.1-1.8-4.1-4.1S52.5,41.9,54.8,41.9z"/>
<path class="st1" d="M54.8,41.9h18.7c2.2,0,4.1,1.8,4.1,4.1l0,0c0,2.2-1.8,4.1-4.1,4.1H54.8c-2.2,0-4.1-1.8-4.1-4.1l0,0
	C50.7,43.8,52.5,41.9,54.8,41.9z"/>
<circle class="st1" cx="64.1" cy="30.1" r="3"/>
<polygon class="st2" points="44.1,31.1 52.1,23.1 76.1,23.1 84.1,31.1 84.1,104.1 83.1,105.1 45.1,105.1 44.1,104.1 "/>
<rect x="48.1" y="39.1" class="st1" width="32" height="13.8"/>
<line class="st1" x1="80.1" y1="61.2" x2="48.1" y2="61.2"/>
<line class="st1" x1="80.1" y1="65.7" x2="48.1" y2="65.7"/>
<line class="st1" x1="80.1" y1="70.2" x2="48.1" y2="70.2"/>
<line class="st1" x1="80.1" y1="74.8" x2="48.1" y2="74.8"/>
<line class="st1" x1="80.1" y1="79.3" x2="48.1" y2="79.3"/>
<line class="st1" x1="80.1" y1="83.8" x2="48.1" y2="83.8"/>
<line class="st1" x1="80.1" y1="88.4" x2="48.1" y2="88.4"/>
<line class="st1" x1="80.1" y1="92.9" x2="48.1" y2="92.9"/>
<line class="st1" x1="80.1" y1="97.5" x2="48.1" y2="97.5"/>
</svg>
