<?xml version="1.0" encoding="utf-8"?>
<!-- Generator: Adobe Illustrator 23.0.1, SVG Export Plug-In . SVG Version: 6.00 Build 0)  -->
<svg version="1.1" id="Слой_1" xmlns="http://www.w3.org/2000/svg" xmlns:xlink="http://www.w3.org/1999/xlink" x="0px" y="0px"
	 viewBox="0 0 128.22 128.22" style="enable-background:new 0 0 128.22 128.22;" xml:space="preserve">
<style type="text/css">
	.st0{fill-rule:evenodd;clip-rule:evenodd;fill:#FFD933;}
	
		.st1{fill-rule:evenodd;clip-rule:evenodd;fill:none;stroke:#000003;stroke-width:0.7498;stroke-linecap:round;stroke-linejoin:round;stroke-miterlimit:22.9256;}
	
		.st2{fill-rule:evenodd;clip-rule:evenodd;fill:none;stroke:#000003;stroke-width:1.4998;stroke-linecap:round;stroke-linejoin:round;stroke-miterlimit:22.9256;}
</style>
<path class="st0" d="M64.11,64.11H53.18l-0.91-0.91V53.17l0.91-0.91h10.93h10.93l0.91,0.91V63.2l-0.91,0.91H64.11L64.11,64.11z
	 M64.11,50.37H52.3l-1.85,1.81v51.77l5.46,2.68l3.64-1.79h4.55l4.55,0l3.64,1.79l5.46-2.68V52.18l-1.85-1.81H64.11L64.11,50.37z
	 M60.46,66.92h7.29l0.91,0.91l0,7.29l-0.91,0.91h-7.29l-0.91-0.91v-7.29L60.46,66.92L60.46,66.92z M53.09,67h3.82
	c0.39,0,0.71,0.32,0.71,0.71v2.07c0,0.39-0.32,0.71-0.71,0.71h-3.82c-0.39,0-0.71-0.32-0.71-0.71v-2.07
	C52.38,67.32,52.7,67,53.09,67L53.09,67z M71.31,67h3.82c0.39,0,0.71,0.32,0.71,0.71v2.07c0,0.39-0.32,0.71-0.71,0.71h-3.82
	c-0.39,0-0.71-0.32-0.71-0.71v-2.07C70.6,67.32,70.92,67,71.31,67L71.31,67z M71.31,72.47h3.82c0.39,0,0.71,0.32,0.71,0.71v2.07
	c0,0.39-0.32,0.71-0.71,0.71h-3.82c-0.39,0-0.71-0.32-0.71-0.71v-2.07C70.6,72.79,70.92,72.47,71.31,72.47L71.31,72.47z
	 M53.09,72.47h3.82c0.39,0,0.71,0.32,0.71,0.71v2.07c0,0.39-0.32,0.71-0.71,0.71h-3.82c-0.39,0-0.71-0.32-0.71-0.71v-2.07
	C52.38,72.79,52.7,72.47,53.09,72.47L53.09,72.47z M53.27,77.94h2.54c0.5,0,0.91,0.41,0.91,0.91v1.67c0,0.5-0.41,0.91-0.91,0.91
	h-2.54c-0.5,0-0.91-0.41-0.91-0.91v-1.67C52.36,78.35,52.77,77.94,53.27,77.94L53.27,77.94z M59.65,77.94h2.54
	c0.5,0,0.91,0.41,0.91,0.91v1.67c0,0.5-0.41,0.91-0.91,0.91h-2.54c-0.5,0-0.91-0.41-0.91-0.91v-1.67
	C58.74,78.35,59.15,77.94,59.65,77.94L59.65,77.94z M66.03,77.94h2.54c0.5,0,0.91,0.41,0.91,0.91v1.67c0,0.5-0.41,0.91-0.91,0.91
	h-2.54c-0.5,0-0.91-0.41-0.91-0.91v-1.67C65.12,78.35,65.53,77.94,66.03,77.94L66.03,77.94z M72.4,77.94h2.54
	c0.5,0,0.91,0.41,0.91,0.91v1.67c0,0.5-0.41,0.91-0.91,0.91H72.4c-0.5,0-0.91-0.41-0.91-0.91v-1.67
	C71.49,78.35,71.9,77.94,72.4,77.94L72.4,77.94z M53.27,83.41h2.54c0.5,0,0.91,0.41,0.91,0.91v1.67c0,0.5-0.41,0.91-0.91,0.91h-2.54
	c-0.5,0-0.91-0.41-0.91-0.91v-1.67C52.36,83.82,52.77,83.41,53.27,83.41L53.27,83.41z M59.65,83.41h2.54c0.5,0,0.91,0.41,0.91,0.91
	v1.67c0,0.5-0.41,0.91-0.91,0.91h-2.54c-0.5,0-0.91-0.41-0.91-0.91v-1.67C58.74,83.82,59.15,83.41,59.65,83.41L59.65,83.41z
	 M66.03,83.41h2.54c0.5,0,0.91,0.41,0.91,0.91v1.67c0,0.5-0.41,0.91-0.91,0.91h-2.54c-0.5,0-0.91-0.41-0.91-0.91v-1.67
	C65.12,83.82,65.53,83.41,66.03,83.41L66.03,83.41z M72.4,83.41h2.54c0.5,0,0.91,0.41,0.91,0.91v1.67c0,0.5-0.41,0.91-0.91,0.91
	H72.4c-0.5,0-0.91-0.41-0.91-0.91v-1.67C71.49,83.82,71.9,83.41,72.4,83.41L72.4,83.41z M53.27,88.87h2.54
	c0.5,0,0.91,0.41,0.91,0.91v1.67c0,0.5-0.41,0.91-0.91,0.91h-2.54c-0.5,0-0.91-0.41-0.91-0.91v-1.67
	C52.36,89.28,52.77,88.87,53.27,88.87L53.27,88.87z M59.65,88.87h2.54c0.5,0,0.91,0.41,0.91,0.91v1.67c0,0.5-0.41,0.91-0.91,0.91
	h-2.54c-0.5,0-0.91-0.41-0.91-0.91v-1.67C58.74,89.28,59.15,88.87,59.65,88.87L59.65,88.87z M66.03,88.87h2.54
	c0.5,0,0.91,0.41,0.91,0.91v1.67c0,0.5-0.41,0.91-0.91,0.91h-2.54c-0.5,0-0.91-0.41-0.91-0.91v-1.67
	C65.12,89.28,65.53,88.87,66.03,88.87L66.03,88.87z M72.4,88.87h2.54c0.5,0,0.91,0.41,0.91,0.91v1.67c0,0.5-0.41,0.91-0.91,0.91
	H72.4c-0.5,0-0.91-0.41-0.91-0.91v-1.67C71.49,89.28,71.9,88.87,72.4,88.87L72.4,88.87z M53.27,94.35h2.54
	c0.5,0,0.91,0.41,0.91,0.91v1.67c0,0.5-0.41,0.91-0.91,0.91h-2.54c-0.5,0-0.91-0.41-0.91-0.91v-1.67
	C52.36,94.76,52.77,94.35,53.27,94.35L53.27,94.35z M59.65,94.35h2.54c0.5,0,0.91,0.41,0.91,0.91v1.67c0,0.5-0.41,0.91-0.91,0.91
	h-2.54c-0.5,0-0.91-0.41-0.91-0.91v-1.67C58.74,94.76,59.15,94.35,59.65,94.35L59.65,94.35z M66.03,94.35h2.54
	c0.5,0,0.91,0.41,0.91,0.91v1.67c0,0.5-0.41,0.91-0.91,0.91h-2.54c-0.5,0-0.91-0.41-0.91-0.91v-1.67
	C65.12,94.76,65.53,94.35,66.03,94.35L66.03,94.35z M72.4,94.35h2.54c0.5,0,0.91,0.41,0.91,0.91v1.67c0,0.5-0.41,0.91-0.91,0.91
	H72.4c-0.5,0-0.91-0.41-0.91-0.91v-1.67C71.49,94.76,71.9,94.35,72.4,94.35L72.4,94.35z M61.28,99.79h5.65
	c0.4,0,0.72,0.32,0.72,0.72v2.11c0,0.4-0.32,0.72-0.72,0.72h-5.65c-0.4,0-0.72-0.32-0.72-0.72v-2.11
	C60.56,100.11,60.89,99.79,61.28,99.79L61.28,99.79z M70.38,99.79h4.76c0.4,0,0.72,0.32,0.72,0.72v0.67c0,0.39-0.35,0.58-0.72,0.72
	l-3.75,1.41l-0.19,0.03h-0.83c-0.4,0-0.72-0.32-0.72-0.72v-2.11C69.66,100.11,69.98,99.79,70.38,99.79L70.38,99.79z M53.07,99.79
	h4.76c0.4,0,0.72,0.32,0.72,0.72v2.11c0,0.4-0.32,0.72-0.72,0.72h-0.83l-0.19-0.03l-3.75-1.41c-0.37-0.14-0.72-0.32-0.72-0.72v-0.67
	C52.35,100.11,52.68,99.79,53.07,99.79L53.07,99.79z M65.93,107.4h-3.64l-2.73,3.65c3.97,0.38,5.11,0.38,9.11,0L65.93,107.4
	L65.93,107.4z M73.22,39.48L73.22,39.48L73.22,39.48z M54.96,47.55h22.77c4.23,0,4.53-6.19,4.55-10.44c0-0.91-0.91-1.47-1.82-1.49
	c-2.11,0-3.87,0.21-5.43,0.7v1.34c0,1-0.82,1.82-1.82,1.82c-0.76,0-1.42-0.48-1.69-1.15C66.05,41.46,63.37,47.55,54.96,47.55
	L54.96,47.55z M71.49,20.05l1.73-2.89c-8.06-0.8-10.1-0.81-18.22,0l1.96,2.91l7.35-0.81L71.49,20.05z"/>
<polygon class="st1" points="64.11,50.37 52.3,50.37 50.45,52.18 50.45,103.95 55.91,106.63 59.56,104.85 64.11,104.85 
	68.66,104.85 72.3,106.63 77.76,103.95 77.76,52.18 75.91,50.37 "/>
<polygon class="st1" points="59.55,67.83 60.46,66.92 67.75,66.92 68.66,67.83 68.66,75.12 67.75,76.04 60.46,76.04 59.55,75.12 "/>
<path class="st1" d="M57.84,99.79h-4.76c-0.4,0-0.72,0.32-0.72,0.72v0.67c0,0.39,0.35,0.58,0.72,0.72l3.75,1.41l0.19,0.03h0.83
	c0.4,0,0.72-0.32,0.72-0.72v-2.11C58.56,100.11,58.23,99.79,57.84,99.79z"/>
<path class="st1" d="M70.38,99.79h4.76c0.4,0,0.72,0.32,0.72,0.72v0.67c0,0.39-0.35,0.58-0.72,0.72l-3.75,1.41l-0.19,0.03h-0.83
	c-0.4,0-0.72-0.32-0.72-0.72v-2.11C69.66,100.11,69.98,99.79,70.38,99.79z"/>
<path class="st1" d="M61.28,99.79h5.65c0.4,0,0.72,0.32,0.72,0.72v2.11c0,0.4-0.32,0.72-0.72,0.72h-5.65c-0.4,0-0.72-0.32-0.72-0.72
	v-2.11C60.56,100.11,60.89,99.79,61.28,99.79z"/>
<path class="st1" d="M72.4,94.35h2.54c0.5,0,0.91,0.41,0.91,0.91v1.67c0,0.5-0.41,0.91-0.91,0.91H72.4c-0.5,0-0.91-0.41-0.91-0.91
	v-1.67C71.49,94.76,71.9,94.35,72.4,94.35z"/>
<path class="st1" d="M66.03,94.35h2.54c0.5,0,0.91,0.41,0.91,0.91v1.67c0,0.5-0.41,0.91-0.91,0.91h-2.54c-0.5,0-0.91-0.41-0.91-0.91
	v-1.67C65.12,94.76,65.53,94.35,66.03,94.35z"/>
<path class="st1" d="M59.65,94.35h2.54c0.5,0,0.91,0.41,0.91,0.91v1.67c0,0.5-0.41,0.91-0.91,0.91h-2.54c-0.5,0-0.91-0.41-0.91-0.91
	v-1.67C58.74,94.76,59.15,94.35,59.65,94.35z"/>
<path class="st1" d="M53.27,94.35h2.54c0.5,0,0.91,0.41,0.91,0.91v1.67c0,0.5-0.41,0.91-0.91,0.91h-2.54c-0.5,0-0.91-0.41-0.91-0.91
	v-1.67C52.36,94.76,52.77,94.35,53.27,94.35z"/>
<path class="st1" d="M72.4,88.87h2.54c0.5,0,0.91,0.41,0.91,0.91v1.67c0,0.5-0.41,0.91-0.91,0.91H72.4c-0.5,0-0.91-0.41-0.91-0.91
	v-1.67C71.49,89.28,71.9,88.87,72.4,88.87z"/>
<path class="st1" d="M66.03,88.87h2.54c0.5,0,0.91,0.41,0.91,0.91v1.67c0,0.5-0.41,0.91-0.91,0.91h-2.54c-0.5,0-0.91-0.41-0.91-0.91
	v-1.67C65.12,89.28,65.53,88.87,66.03,88.87z"/>
<path class="st1" d="M59.65,88.87h2.54c0.5,0,0.91,0.41,0.91,0.91v1.67c0,0.5-0.41,0.91-0.91,0.91h-2.54c-0.5,0-0.91-0.41-0.91-0.91
	v-1.67C58.74,89.28,59.15,88.87,59.65,88.87z"/>
<path class="st1" d="M53.27,88.87h2.54c0.5,0,0.91,0.41,0.91,0.91v1.67c0,0.5-0.41,0.91-0.91,0.91h-2.54c-0.5,0-0.91-0.41-0.91-0.91
	v-1.67C52.36,89.28,52.77,88.87,53.27,88.87z"/>
<path class="st1" d="M72.4,83.41h2.54c0.5,0,0.91,0.41,0.91,0.91v1.67c0,0.5-0.41,0.91-0.91,0.91H72.4c-0.5,0-0.91-0.41-0.91-0.91
	v-1.67C71.49,83.82,71.9,83.41,72.4,83.41z"/>
<path class="st1" d="M66.03,83.41h2.54c0.5,0,0.91,0.41,0.91,0.91v1.67c0,0.5-0.41,0.91-0.91,0.91h-2.54c-0.5,0-0.91-0.41-0.91-0.91
	v-1.67C65.12,83.82,65.53,83.41,66.03,83.41z"/>
<path class="st1" d="M59.65,83.41h2.54c0.5,0,0.91,0.41,0.91,0.91v1.67c0,0.5-0.41,0.91-0.91,0.91h-2.54c-0.5,0-0.91-0.41-0.91-0.91
	v-1.67C58.74,83.82,59.15,83.41,59.65,83.41z"/>
<path class="st1" d="M53.27,83.41h2.54c0.5,0,0.91,0.41,0.91,0.91v1.67c0,0.5-0.41,0.91-0.91,0.91h-2.54c-0.5,0-0.91-0.41-0.91-0.91
	v-1.67C52.36,83.82,52.77,83.41,53.27,83.41z"/>
<path class="st1" d="M72.4,77.94h2.54c0.5,0,0.91,0.41,0.91,0.91v1.67c0,0.5-0.41,0.91-0.91,0.91H72.4c-0.5,0-0.91-0.41-0.91-0.91
	v-1.67C71.49,78.35,71.9,77.94,72.4,77.94z"/>
<path class="st1" d="M66.03,77.94h2.54c0.5,0,0.91,0.41,0.91,0.91v1.67c0,0.5-0.41,0.91-0.91,0.91h-2.54c-0.5,0-0.91-0.41-0.91-0.91
	v-1.67C65.12,78.35,65.53,77.94,66.03,77.94z"/>
<path class="st1" d="M59.65,77.94h2.54c0.5,0,0.91,0.41,0.91,0.91v1.67c0,0.5-0.41,0.91-0.91,0.91h-2.54c-0.5,0-0.91-0.41-0.91-0.91
	v-1.67C58.74,78.35,59.15,77.94,59.65,77.94z"/>
<path class="st1" d="M53.27,77.94h2.54c0.5,0,0.91,0.41,0.91,0.91v1.67c0,0.5-0.41,0.91-0.91,0.91h-2.54c-0.5,0-0.91-0.41-0.91-0.91
	v-1.67C52.36,78.35,52.77,77.94,53.27,77.94z"/>
<path class="st1" d="M53.09,72.47h3.82c0.39,0,0.71,0.32,0.71,0.71v2.07c0,0.39-0.32,0.71-0.71,0.71h-3.82
	c-0.39,0-0.71-0.32-0.71-0.71v-2.07C52.38,72.79,52.7,72.47,53.09,72.47z"/>
<path class="st1" d="M71.31,72.47h3.82c0.39,0,0.71,0.32,0.71,0.71v2.07c0,0.39-0.32,0.71-0.71,0.71h-3.82
	c-0.39,0-0.71-0.32-0.71-0.71v-2.07C70.6,72.79,70.92,72.47,71.31,72.47z"/>
<path class="st1" d="M71.31,67h3.82c0.39,0,0.71,0.32,0.71,0.71v2.07c0,0.39-0.32,0.71-0.71,0.71h-3.82c-0.39,0-0.71-0.32-0.71-0.71
	v-2.07C70.6,67.32,70.92,67,71.31,67z"/>
<path class="st1" d="M53.09,67h3.82c0.39,0,0.71,0.32,0.71,0.71v2.07c0,0.39-0.32,0.71-0.71,0.71h-3.82c-0.39,0-0.71-0.32-0.71-0.71
	v-2.07C52.38,67.32,52.7,67,53.09,67z"/>
<line class="st1" x1="45.05" y1="33.97" x2="51.4" y2="33.97"/>
<line class="st1" x1="53.45" y1="30.42" x2="50.28" y2="24.91"/>
<line class="st1" x1="57.55" y1="30.42" x2="60.73" y2="24.92"/>
<line class="st1" x1="60.73" y1="43.02" x2="57.55" y2="37.52"/>
<line class="st1" x1="59.6" y1="33.97" x2="65.95" y2="33.97"/>
<line class="st1" x1="50.28" y1="43.02" x2="53.45" y2="37.52"/>
<path class="st1" d="M55.5,29.87c2.26,0,4.1,1.83,4.1,4.1s-1.83,4.1-4.1,4.1c-2.26,0-4.1-1.83-4.1-4.1S53.24,29.87,55.5,29.87z"/>
<path class="st2" d="M73.22,32.19L73.22,32.19c1,0,1.82,0.82,1.82,1.82v3.65c0,1-0.82,1.82-1.82,1.82h0c-1,0-1.82-0.82-1.82-1.82
	v-3.65C71.39,33.01,72.21,32.19,73.22,32.19z"/>
<path class="st1" d="M64.11,69.66c1.01,0,1.82,0.82,1.82,1.82c0,1.01-0.82,1.82-1.82,1.82c-1.01,0-1.82-0.82-1.82-1.82
	C62.29,70.47,63.1,69.66,64.11,69.66z"/>
<polygon class="st1" points="64.11,52.26 53.18,52.26 52.27,53.17 52.27,63.2 53.18,64.11 64.11,64.11 75.04,64.11 75.95,63.2 
	75.95,53.17 75.04,52.26 "/>
<path class="st1" d="M71.53,38.33c-5.48,3.13-8.16,9.21-16.56,9.21c1.82,0,16.4,0,22.77,0c4.23,0,4.53-6.19,4.55-10.44
	c0-0.91-0.91-1.47-1.82-1.49c-2.13,0-3.87,0.2-5.43,0.7"/>
<path class="st2" d="M59.55,111.05l2.73-3.65h3.64l2.73,3.65 M46.45,28.74c2.89-5,9.28-6.71,14.28-3.83c5,2.89,6.71,9.28,3.82,14.28
	c-2.89,5-9.28,6.71-14.28,3.83C45.28,40.13,43.57,33.74,46.45,28.74L46.45,28.74z M62.4,41.81c3.11-2.95,5.32-5.55,8.69-7.35
	 M75.12,32.83c1.7-0.5,3.12-0.64,5.38-0.64c0.91,0,1.82-0.91,1.82-1.82c0-2.73-0.91-8.2-5.47-8.2c-8.2,0-14.57,0.66-21.93,1.37
	 M68.66,111.05l0.91,0.91c2.13-0.61,4.25-1.22,6.38-1.82l5.46-5.47l-0.91-15.5V61.83l1.82-9.11l4.55-7.29l1.82-10.94l-1.82-10.03
	l-1.82-4.56l-3.64-2.73l-7.29-0.91l-0.91,0.91c-8.06-0.8-10.1-0.81-18.22,0l-0.91-0.91l-7.29,0.91l-3.64,2.73l-1.82,4.56
	l-1.82,10.03l1.82,10.94l4.55,7.29l1.82,9.11v27.35l-0.91,15.5l5.47,5.47l6.38,1.82l0.91-0.91
	C63.53,111.43,64.67,111.43,68.66,111.05z"/>
<polyline class="st1" points="55,17.17 56.96,20.07 64.31,19.26 "/>
<polyline class="st1" points="73.22,17.17 71.49,20.05 64.31,19.26 "/>
</svg>
