<?xml version="1.0" encoding="utf-8"?>
<!-- Generator: Adobe Illustrator 23.0.1, SVG Export Plug-In . SVG Version: 6.00 Build 0)  -->
<svg version="1.1" id="Слой_1" xmlns="http://www.w3.org/2000/svg" xmlns:xlink="http://www.w3.org/1999/xlink" x="0px" y="0px"
	 viewBox="0 0 128.2 128.2" style="enable-background:new 0 0 128.2 128.2;" xml:space="preserve">
<style type="text/css">
	
		.st0{fill-rule:evenodd;clip-rule:evenodd;fill:none;stroke:#000003;stroke-width:1.4998;stroke-linecap:round;stroke-linejoin:round;stroke-miterlimit:22.9256;}
	
		.st1{fill-rule:evenodd;clip-rule:evenodd;fill:none;stroke:#616262;stroke-width:0.7498;stroke-linecap:round;stroke-linejoin:round;stroke-miterlimit:22.9256;}
</style>
<path class="st0" d="M34.5,78.9l0.8-0.8h11.6l0.8,0.8v5.8h-9.1L34.5,83L34.5,78.9L34.5,78.9z M47.7,78.9h5l0.8,0.8V83l-0.8,0.8h-5
	V78.9L47.7,78.9z M103.8,87.2h6.6l0.8,0.8v1.7l-2.5,0.8h-3.3l-3.3-0.8V88L103.8,87.2L103.8,87.2z M43.6,46.6l7.4-4.6l-2.5-4.4
	l-1.7-1.7v-1.7l-2.9,0v1.7l-0.8,1.7l-2,2.5h-7.4l-2.5-0.8l-1.7-1.7h-1.7l0.8,2.5l5,8.3l2.5-1.7H43.6L43.6,46.6z M43.6,21.8l7.4,4.6
	l-2.5,4.4l-1.7,1.7v1.7l-2.9,0v-1.7l-0.8-1.7l-2-2.5h-7.4l-2.5,0.8l-1.7,1.7h-1.7l0.8-2.5l5-8.3l2.5,1.7H43.6L43.6,21.8z M46.9,32.5
	l1.7-1.7h8.3v6.6h-8.3l-1.7-1.7V32.5L46.9,32.5z M62.3,30h6l0.8,0.8v6.6l-0.8,0.8h-6 M59.7,38.3h-2.9V30h2.9 M53.5,79.7h43l0.8,0.8
	v1.7L96.4,83h-43V79.7L53.5,79.7z M47.7,86.3l47.1,0l0.8,0.8v11.6l-0.8,0.8l-47.1,0 M38.6,84.7h9.1v18.2h-9.1V84.7L38.6,84.7z
	 M38.6,99.6L34.5,83 M69.2,31.7h5.8v5h-5.8V31.7z"/>
<path class="st1" d="M74.9,32.4h12.4l0.8,0.8v1.8l-0.8,0.8H74.9 M60.1,45.8l0.4,0.8h1l0.4-0.8V22.6l-0.4-0.8h-1l-0.4,0.8V45.8
	L60.1,45.8z M60.1,43.3l1.8,0 M60.1,25.1l1.8,0 M95.6,96.3h4.1v1.7h-4.1 M88.2,33.3h8.3c5.5,0,10.1,4.6,10.1,10.1l0,11.6
	c0,5.5-4.6,9.9-10.1,9.9H27c-4.6,0-8.3,3.7-8.3,8.3v16.5c0,4.6,3.7,8.3,8.3,8.3h3.1 M38.6,99.8H32 M30.2,99.8H27
	c-5.5,0-10.1-4.6-10.1-10.1V73.1C16.9,67.6,21.6,63,27,63h69.4c4.6,0,8.3-3.5,8.3-8.1V43.4c0-4.6-3.7-8.3-8.3-8.3l-8.3,0 M32,97.9
	h6.2 M93.1,83v3.3 M43.6,102.9v3.4h-6.6v-6.5 M91.5,99.6V83 M91.5,79.7v-1.7h1.7v1.7 M88.2,99.6h3.3h0.3h3v6.7h-6.6V99.6L88.2,99.6z
	 M30.2,104.6c0,1.8,1.7,3.5,3.5,3.5H103 M36.1,89.7h-2.5c-0.9,0-1.7,0.7-1.7,1.7v13.3 M30.2,104.6V91.3c0-1.8,1.7-3.5,3.5-3.5h2.1
	 M103,106.2H33.6c-0.9,0-1.7-0.7-1.7-1.7 M103,106.2h6.6l0,1.8H103 M103,106.2v1.8 M102.2,88c-0.9,0-1.7-0.7-1.7-1.7v-2.5
	c0-1.8-1.5-3.3-3.3-3.3 M102.2,89.6c-1.8,0-3.3-1.5-3.3-3.3v-2.5c0-0.9-0.7-1.7-1.7-1.7 M56.8,30L51,26.4 M56.8,38.3L51,41.9
	 M50.7,32.8c0.7,0,1.3,0.6,1.3,1.3c0,0.7-0.6,1.3-1.3,1.3c-0.7,0-1.3-0.6-1.3-1.3C49.4,33.4,50,32.8,50.7,32.8L50.7,32.8z M42,98.7
	c0.5,0,0.8,0.4,0.8,0.8c0,0.5-0.4,0.8-0.8,0.8c-0.5,0-0.8-0.4-0.8-0.8C41.2,99.1,41.5,98.7,42,98.7L42,98.7z M43.9,80.5
	c0.5,0,0.8,0.4,0.8,0.8c0,0.5-0.4,0.8-0.8,0.8c-0.5,0-0.8-0.4-0.8-0.8C43,80.8,43.4,80.5,43.9,80.5z"/>
</svg>
