<?xml version="1.0" encoding="utf-8"?>
<!-- Generator: Adobe Illustrator 23.0.1, SVG Export Plug-In . SVG Version: 6.00 Build 0)  -->
<svg version="1.1" id="Слой_1" xmlns="http://www.w3.org/2000/svg" xmlns:xlink="http://www.w3.org/1999/xlink" x="0px" y="0px"
	 viewBox="0 0 128.2 128.2" style="enable-background:new 0 0 128.2 128.2;" xml:space="preserve">
<style type="text/css">
	
		.st0{fill-rule:evenodd;clip-rule:evenodd;fill:none;stroke:#616262;stroke-width:0.7498;stroke-linecap:round;stroke-linejoin:round;stroke-miterlimit:22.9256;}
	
		.st1{fill-rule:evenodd;clip-rule:evenodd;fill:none;stroke:#000003;stroke-width:1.4998;stroke-linecap:round;stroke-linejoin:round;stroke-miterlimit:22.9256;}
</style>
<path class="st0" d="M51,48.9l-1.1-0.2l-0.4,2.8l-1.8-0.3l1-7.5l1.9,0.3l-0.4,2.8l1.2,0.2 M64.1,26.8c0.9,0,1.6,0.7,1.6,1.6
	c0,0.9-0.7,1.6-1.6,1.6c-0.9,0-1.6-0.7-1.6-1.6C62.5,27.5,63.2,26.8,64.1,26.8L64.1,26.8z M55.1,32.8l0.8,0.4l0.8,0.4v0.9v0.9
	l-0.8,0.4l-0.8,0.4l-0.8-0.4l-0.8-0.4v-0.9v-0.9l0.8-0.4L55.1,32.8L55.1,32.8z M67.4,15.6c-7.5-0.1-10.5,8.4-0.6,11.2 M53.8,38.6
	c3,1.3,5.8-1.1,4.5-3.8 M64.1,35.5l-0.8,0.4l-0.8,0.4v0.9v0.9l0.8,0.4l0.8,0.4l0.8-0.4l0.8-0.4v-0.9v-0.9l-0.8-0.4L64.1,35.5
	L64.1,35.5z M77.2,48.9l1.1-0.2l0.4,2.8l1.8-0.3l-1-7.5l-1.9,0.3l0.4,2.8l-1.2,0.2 M73.1,32.8l-0.8,0.4l-0.8,0.4v0.9v0.9l0.8,0.4
	l0.8,0.4l0.8-0.4l0.8-0.4v-0.9v-0.9l-0.8-0.4L73.1,32.8L73.1,32.8z M66.9,18.3c1.4,2,1.2,4.8-1.7,6.8 M74.4,38.6
	c-3,1.3-5.8-1.1-4.5-3.8 M50.9,49.9l10.3,1.4 M77.3,49.9L67,51.3 M73.7,44.4l-9.6,1.7 M54.5,44.4l9.6,1.7 M49.6,109.4l3.4-24
	 M77.6,79.4l-2.8-20.1"/>
<path class="st1" d="M46.4,82.5l1-0.7L56,83l0.7,1l-4,28.2l-1,0.7l-8.6-1.2l-0.7-1L46.4,82.5L46.4,82.5z M51.3,53.7l8.4,1.2l-3.9,28
	l-8.3-1.2L51.3,53.7L51.3,53.7z M81.8,82.5l-1-0.7L72.2,83l-0.7,1l4,28.2l1,0.7l8.6-1.2l0.7-1L81.8,82.5L81.8,82.5z M76.9,53.7
	l-8.4,1.2l3.9,28l8.3-1.2L76.9,53.7L76.9,53.7z M51.4,46.1l10.3,1.4l-0.5,3.7L60,52.8l-0.3,2.2l-8.4-1.2l0.3-2.2l-0.7-1.7L51.4,46.1
	L51.4,46.1z M76.8,46.1l-10.3,1.4l0.5,3.7l1.2,1.4l0.3,2.2l8.4-1.2l-0.3-2.2l0.7-1.7L76.8,46.1L76.8,46.1z M63.6,40.3l-0.9,4
	l0.9,0.9v1.4l-2.8,0.8l-6.5-0.9l0.3-2.2l-1.6-7.8c-0.6-0.5-0.9-1.2-0.9-2c0-1.1,0.5-1.8,1.2-2.7c1.1-1.4,3.7-5.9,3.7-7.6
	c0.1-5.1,2.4-8,6.7-8.9c3.2-0.7,5.4,0.9,5.7,0.9c-0.7,1.4-5.1,2.3-5.1,6.1c0,3.1,3,3.1,3,5.9c0,1.6-1.2,2.9-2.7,3.1l-3.7,1l-0.9-0.6
	l-1.9,2.2l2,1.7l2.5-1.5 M62.4,34.3c0.4-0.2,0.8-0.2,1.2-0.2c1.7,0,3.1,1.4,3.1,3.1c0,1.7-1.4,3.1-3.1,3.1 M64.1,31.6l3.3,0.9
	l0.9-0.6l1.9,2.2l-2,1.7l-2.5-1.5c-0.4-0.2-0.8-0.2-1.2-0.2c-0.2,0-0.3,0-0.5,0 M64.6,40.3l0.9,4l-0.9,0.9v1.4l2.8,0.8l6.5-0.9
	l-0.3-2.2l1.6-7.8c0.6-0.5,0.9-1.2,0.9-2c0-1.1-0.5-1.8-1.2-2.7c-1.1-1.4-3.7-5.9-3.7-7.6c-0.1-3.3-1.1-5.6-2.9-7.2 M64.1,15.4
	c-2.9-0.4-4.9,1-5.1,1c0.1,0.3,0.4,0.5,0.8,0.8"/>
</svg>
