<?xml version="1.0" encoding="utf-8"?>
<!-- Generator: Adobe Illustrator 23.0.1, SVG Export Plug-In . SVG Version: 6.00 Build 0)  -->
<svg version="1.1" id="Слой_1" xmlns="http://www.w3.org/2000/svg" xmlns:xlink="http://www.w3.org/1999/xlink" x="0px" y="0px"
	 viewBox="0 0 128.22 128.22" style="enable-background:new 0 0 128.22 128.22;" xml:space="preserve">
<style type="text/css">
	
		.st0{fill-rule:evenodd;clip-rule:evenodd;fill:none;stroke:#616262;stroke-width:0.7498;stroke-linecap:round;stroke-linejoin:round;stroke-miterlimit:22.9256;}
	
		.st1{fill-rule:evenodd;clip-rule:evenodd;fill:none;stroke:#000003;stroke-width:1.4998;stroke-linecap:round;stroke-linejoin:round;stroke-miterlimit:22.9256;}
	
		.st2{fill-rule:evenodd;clip-rule:evenodd;fill:none;stroke:#7E7E7D;stroke-width:0.7498;stroke-linecap:round;stroke-linejoin:round;stroke-miterlimit:22.9256;}
</style>
<line class="st0" x1="49.97" y1="89.92" x2="49.96" y2="87.33"/>
<line class="st0" x1="30.34" y1="83.18" x2="45.79" y2="83.17"/>
<path class="st1" d="M31.64,92.18l0-1.24l-16.94,0c0-16.57,0,0,0-49.7c0.06-1.63,1.55-2.99,3.47-3.26
	c10.75-1.21,26.89-1.91,45.94-2.09"/>
<path class="st1" d="M14.7,90.93c-2.33-0.55-4.64-4.39-4.64-8.07c-0.24-16.4,0,0-0.73-49.19c0.1-1.73,1.94-3.67,3.75-3.76
	c12.1-1.54,31.74-2.61,51.03-2.65"/>
<path class="st1" d="M30.34,90.94c0-11.7,0,0.03,0-35.06c0.01-2,2.12-2.73,7.21-2.79l26.56-0.56"/>
<polyline class="st1" points="64.01,85.19 46,85.18 46.99,65.46 64.01,65.41 "/>
<polyline class="st1" points="46,85.18 47.21,87.33 63.93,87.33 "/>
<polyline class="st1" points="27.32,90.94 27.33,95.24 14.7,95.24 14.7,90.93 "/>
<g>
	<polyline class="st2" points="90.88,33.33 88.9,33.23 89.04,30.96 91,31.05 	"/>
	<polyline class="st2" points="90.88,33.33 92.87,33.43 92.96,31.15 91,31.05 	"/>
	<polyline class="st2" points="97.19,33.64 95.21,33.54 95.35,31.27 97.31,31.37 	"/>
	<polyline class="st2" points="97.19,33.64 99.18,33.74 99.27,31.47 97.31,31.37 	"/>
	<polyline class="st2" points="103.36,33.95 101.37,33.85 101.51,31.58 103.47,31.67 	"/>
	<polyline class="st2" points="103.36,33.95 105.34,34.05 105.43,31.78 103.47,31.67 	"/>
</g>
<polyline class="st0" points="64.11,82.07 50.54,82.07 50.94,68.62 64.11,68.6 "/>
<g>
	<path class="st0" d="M59.64,95.62l0.22-1.46l1.62,0 M63.32,95.62l-0.22-1.46l-1.62,0"/>
	<path class="st0" d="M54.39,95.62l0.22-1.46l1.62,0 M58.07,95.62l-0.22-1.46l-1.62,0"/>
	<path class="st0" d="M49.14,95.63l0.22-1.46l1.62,0 M52.82,95.63l-0.22-1.46l-1.62,0"/>
	<path class="st0" d="M43.89,95.64l0.22-1.46l1.62,0 M47.57,95.64l-0.22-1.46l-1.62,0"/>
	<path class="st0" d="M38.64,95.64l0.22-1.46l1.62,0 M42.32,95.64l-0.22-1.46l-1.62,0"/>
	<path class="st0" d="M33.39,95.65l0.22-1.46l1.62,0 M37.07,95.65l-0.22-1.46l-1.62,0"/>
</g>
<polyline class="st1" points="31.64,92.18 29.91,98.08 30.05,100.23 43.27,100.68 64.11,100.92 "/>
<line class="st1" x1="64.11" y1="97.67" x2="33.23" y2="97.4"/>
<g>
	<polyline class="st0" points="62.35,92.52 62.56,92.07 64.11,92.07 	"/>
	<path class="st0" d="M57.1,92.52l0.22-0.45l1.62,0 M60.78,92.52l-0.22-0.45l-1.62,0"/>
	<path class="st0" d="M51.85,92.52l0.22-0.45h1.62 M55.53,92.52l-0.22-0.45h-1.62"/>
	<path class="st0" d="M46.59,92.53l0.22-0.45h1.62 M50.28,92.53l-0.22-0.45h-1.62"/>
	<path class="st0" d="M41.34,92.53l0.22-0.45l1.62,0 M45.03,92.53l-0.22-0.45l-1.62,0"/>
	<path class="st0" d="M36.09,92.53l0.22-0.45l1.62,0 M39.78,92.53l-0.22-0.45l-1.62,0"/>
</g>
<line class="st0" x1="78.25" y1="89.92" x2="78.25" y2="87.33"/>
<line class="st0" x1="97.87" y1="83.18" x2="82.42" y2="83.17"/>
<path class="st1" d="M96.57,92.18l0-1.24l16.94,0c0-16.57,0,0,0-49.7c-0.06-1.63-1.55-2.99-3.47-3.26
	c-10.75-1.21-26.89-1.91-45.94-2.09"/>
<path class="st1" d="M113.51,90.93c2.33-0.55,4.64-4.39,4.64-8.07c0.24-16.4,0,0,0.73-49.19c-0.1-1.73-1.94-3.67-3.75-3.76
	c-12.1-1.54-31.74-2.61-51.03-2.65"/>
<path class="st1" d="M97.87,90.94c0-11.7,0,0.03,0-35.06c-0.01-2-2.12-2.73-7.21-2.79l-26.56-0.56"/>
<polyline class="st1" points="64.2,85.19 82.22,85.18 81.22,65.46 64.2,65.41 "/>
<polyline class="st1" points="82.22,85.18 81,87.33 64.28,87.33 "/>
<polyline class="st1" points="100.89,90.94 100.89,95.24 113.51,95.24 113.51,90.93 "/>
<polyline class="st0" points="64.11,82.07 77.67,82.07 77.27,68.62 64.11,68.6 "/>
<g>
	<path class="st0" d="M68.57,95.62l-0.22-1.46l-1.62,0 M64.89,95.62l0.22-1.46l1.62,0"/>
	<path class="st0" d="M73.82,95.62l-0.22-1.46l-1.62,0 M70.14,95.62l0.22-1.46l1.62,0"/>
	<path class="st0" d="M79.07,95.63l-0.22-1.46l-1.62,0 M75.39,95.63l0.22-1.46l1.62,0"/>
	<path class="st0" d="M84.32,95.64l-0.22-1.46l-1.62,0 M80.64,95.64l0.22-1.46l1.62,0"/>
	<path class="st0" d="M89.57,95.64l-0.22-1.46l-1.62,0 M85.89,95.64l0.22-1.46l1.62,0"/>
	<path class="st0" d="M94.83,95.65l-0.22-1.46l-1.62,0 M91.14,95.65l0.22-1.46l1.62,0"/>
</g>
<polyline class="st1" points="96.57,92.18 98.3,98.08 98.16,100.23 84.94,100.68 64.11,100.92 "/>
<line class="st1" x1="64.11" y1="97.67" x2="94.99" y2="97.4"/>
<g>
	<polyline class="st0" points="65.87,92.52 65.65,92.07 64.11,92.07 	"/>
	<path class="st0" d="M71.12,92.52l-0.22-0.45l-1.62,0 M67.43,92.52l0.22-0.45l1.62,0"/>
	<path class="st0" d="M76.37,92.52l-0.22-0.45h-1.62 M72.69,92.52l0.22-0.45h1.62"/>
	<path class="st0" d="M81.62,92.53l-0.22-0.45h-1.62 M77.94,92.53l0.22-0.45h1.62"/>
	<path class="st0" d="M86.87,92.53l-0.22-0.45l-1.62,0 M83.19,92.53l0.22-0.45l1.62,0"/>
	<path class="st0" d="M92.12,92.53l-0.22-0.45l-1.62,0 M88.44,92.53l0.22-0.45l1.62,0"/>
</g>
</svg>
