<?xml version="1.0" encoding="utf-8"?>
<!-- Generator: Adobe Illustrator 23.0.1, SVG Export Plug-In . SVG Version: 6.00 Build 0)  -->
<svg version="1.1" id="Слой_1" xmlns="http://www.w3.org/2000/svg" xmlns:xlink="http://www.w3.org/1999/xlink" x="0px" y="0px"
	 viewBox="0 0 128.22 128.22" style="enable-background:new 0 0 128.22 128.22;" xml:space="preserve">
<style type="text/css">
	.st0{fill-rule:evenodd;clip-rule:evenodd;fill:#538DCA;}
	.st1{fill-rule:evenodd;clip-rule:evenodd;fill:#2065AF;}
	
		.st2{fill-rule:evenodd;clip-rule:evenodd;fill:none;stroke:#000003;stroke-width:0.7498;stroke-linecap:round;stroke-linejoin:round;stroke-miterlimit:22.9256;}
	
		.st3{fill-rule:evenodd;clip-rule:evenodd;fill:none;stroke:#000003;stroke-width:1.4998;stroke-linejoin:round;stroke-miterlimit:22.9256;}
	.st4{fill-rule:evenodd;clip-rule:evenodd;fill:none;stroke:#000003;stroke-width:1.4998;stroke-miterlimit:22.9256;}
</style>
<g>
	<path class="st0" d="M21.97,52.53L18.13,71.7v3.83l1.92,3.83h1.92h15.28c0.43-2.46,0.86-4.9,1.27-7.24h-8.89v-2.35h9.3h50.38h9.27
		v2.35l-8.91,0l1.13,7.24h0.1h15.34h1.92l1.92-3.83V71.7l-3.8-19.17h-0.03h-3.8l-3.83,3.83H29.6l-3.83-3.83H21.97L21.97,52.53z
		 M89.49,63.43c0-1.09,0.89-1.98,1.98-1.98s1.98,0.89,1.98,1.98c0,1.09-0.89,1.98-1.98,1.98S89.49,64.52,89.49,63.43L89.49,63.43z
		 M97.92,63.43c0-0.4,0.33-0.73,0.73-0.73c0.4,0,0.73,0.33,0.73,0.73c0,0.4-0.33,0.73-0.73,0.73
		C98.25,64.15,97.92,63.83,97.92,63.43z"/>
	<path class="st1" d="M29.63,69.79v2.35h8.89c0.14-0.79,0.28-1.58,0.41-2.35H29.63z"/>
	<polygon class="st1" points="89.31,69.79 89.68,72.13 98.59,72.14 98.59,69.79 	"/>
	<polygon class="st1" points="18.13,71.7 21.97,52.53 25.77,52.53 29.6,56.37 98.62,56.37 102.45,52.53 106.25,52.53 106.28,52.53 
		110.08,71.7 110.08,48.7 108.17,48.7 92.84,48.7 92.5,48.7 91.76,52.18 84.07,52.18 44.15,52.18 36.12,52.18 35.38,48.7 
		20.05,48.7 18.13,48.7 	"/>
	<polygon class="st0" points="37.25,79.37 21.97,79.37 21.97,81.29 36.92,81.29 37.2,79.65 	"/>
	<polygon class="st0" points="90.91,79.37 91.2,81.29 106.25,81.29 106.25,79.37 90.97,79.37 	"/>
	<path class="st2" d="M93.94,43.74h-9.87 M91.76,52.18l0.75-3.48 M36.12,52.18l-0.75-3.48 M44.15,43.74h-9.92 M36.15,63.33h53.35
		 M91.76,52.18H36.12 M21.97,79.37H37.3l-0.38,1.92H21.97V79.37L21.97,79.37z M90.91,79.37h15.34v1.92H91.2L90.91,79.37z"/>
	<path class="st3" d="M44.15,52.18V37.44h39.92v14.74 M38.52,72.14h-8.89v-2.35h68.96v2.35l-8.91,0 M110.08,71.7l-3.8-19.17h-3.83
		l-3.83,3.83H29.6l-3.83-3.83h-3.8L18.13,71.7 M25.77,52.53l9.61-3.83H20.05 M108.17,48.7H92.84l9.61,3.83 M21.97,52.53l-3.83-3.83
		 M106.25,52.53l3.83-3.83 M38.93,69.79c-0.54,3.13-1.14,6.47-1.73,9.87c-0.62,3.55-1.26,7.25-1.93,11.13c9.55,0,19.11,0,28.66,0
		c9.55,0,19.12,0,28.68,0c-0.61-3.87-1.19-7.58-1.75-11.13c-0.53-3.4-1.05-6.73-1.54-9.87 M37.25,79.37h-17.2l-1.92-3.83V48.7h1.92
		l1.92-7.67h11.49l1.92,7.67h8.77 M84.07,48.7h8.77l1.92-7.67h11.49l1.92,7.67h1.92l0,26.84l-1.92,3.83H90.81 M91.47,61.45
		c1.09,0,1.98,0.89,1.98,1.98c0,1.09-0.89,1.98-1.98,1.98s-1.98-0.88-1.98-1.98C89.49,62.33,90.38,61.45,91.47,61.45z"/>
	<path class="st4" d="M98.65,64.15c0.4,0,0.73-0.33,0.73-0.73c0-0.4-0.33-0.73-0.73-0.73c-0.4,0-0.73,0.33-0.73,0.73
		C97.92,63.83,98.25,64.15,98.65,64.15z"/>
</g>
</svg>
