<?xml version="1.0" encoding="utf-8"?>
<!-- Generator: Adobe Illustrator 23.0.1, SVG Export Plug-In . SVG Version: 6.00 Build 0)  -->
<svg version="1.1" id="Слой_1" xmlns="http://www.w3.org/2000/svg" xmlns:xlink="http://www.w3.org/1999/xlink" x="0px" y="0px"
	 viewBox="0 0 128.2 128.2" style="enable-background:new 0 0 128.2 128.2;" xml:space="preserve">
<style type="text/css">
	
		.st0{fill-rule:evenodd;clip-rule:evenodd;fill:none;stroke:#616262;stroke-width:0.7498;stroke-linecap:round;stroke-linejoin:round;stroke-miterlimit:22.9256;}
	
		.st1{fill-rule:evenodd;clip-rule:evenodd;fill:none;stroke:#000003;stroke-width:1.4998;stroke-linecap:round;stroke-linejoin:round;stroke-miterlimit:22.9256;}
</style>
<path class="st0" d="M63,46.7V20.6l-1.5-1.5H49.7 M63,28.1h2.3l0.8,0.8l0,6l-0.8,1.5H63 M61.5,19.1l0.8-0.8h2.1l1.7,2.3v3l-0.8,0.8
	H63 M50.2,40.1l0-4.5l2.3,0l0.8,0.8v1.5h3l3-0.8 M61.5,70.1v-7.5 M51,59.6h9 M57.9,52.5v-2.9 M49.5,56.6h12 M57.9,77.6v-5.8
	 M51.7,82.1h7.5 M51,79.1h9 M67.5,65.5c0.5,0,0.9,0.4,0.9,0.9c0,0.5-0.4,0.9-0.9,0.9c-0.5,0-0.9-0.4-0.9-0.9
	C66.6,65.9,67,65.5,67.5,65.5L67.5,65.5z M51,107.7h9 M72.7,107.7h7.5 M72.7,89.6h7.5 M72.7,94.1h7.5 M72.7,98.6h7.5 M72.7,103.2
	h7.5 M51,89.6h9 M51,94.1h9 M51,98.6h9 M51,103.2h9"/>
<path class="st1" d="M65.2,70.1c0,7.5,9,10.5,9,15c1.5,0,3,0,4.5,0c0-7.5-9-7.5-9-15v-12l-4.5,3C65.2,63.3,65.2,69,65.2,70.1
	L65.2,70.1z M48.7,20.6l3-4.5h15l4.5,4.5v16.5l-9,10.5H48.7v-7.5h3h4.5l3-3V23.6l-1.5-1.5h-3l-1.5,1.5v2.3l-0.8,0.8h-3.8V20.6
	L48.7,20.6z M49.5,47.6h12v9l-1.5,3v3l-9,0v-3l-1.5-3V47.6L49.5,47.6z M51,62.6l14.3,0l0,7.5H51l-3-1.5v-4.5L51,62.6L51,62.6z
	 M51,70.1h9v9l-0.8,3v3h-7.5v-3l-0.8-3V70.1L51,70.1z M51,85.9l0.8-0.8h7.5l0.8,0.8l0,25.5l-0.8,0.8h-7.5l-0.8-0.8V85.9L51,85.9z
	 M72.7,85.9l0.8-0.8h6l0.8,0.8v25.5l-0.8,0.8h-6l-0.8-0.8V85.9z"/>
</svg>
