<?xml version="1.0" encoding="utf-8"?>
<!-- Generator: Adobe Illustrator 23.0.1, SVG Export Plug-In . SVG Version: 6.00 Build 0)  -->
<svg version="1.1" id="Слой_1" xmlns="http://www.w3.org/2000/svg" xmlns:xlink="http://www.w3.org/1999/xlink" x="0px" y="0px"
	 viewBox="0 0 128.22 128.22" style="enable-background:new 0 0 128.22 128.22;" xml:space="preserve">
<style type="text/css">
	
		.st0{fill-rule:evenodd;clip-rule:evenodd;fill:none;stroke:#616262;stroke-width:0.7498;stroke-linecap:round;stroke-linejoin:round;stroke-miterlimit:22.9256;}
	
		.st1{fill-rule:evenodd;clip-rule:evenodd;fill:none;stroke:#000003;stroke-width:1.4998;stroke-linejoin:round;stroke-miterlimit:22.9256;}
	.st2{fill-rule:evenodd;clip-rule:evenodd;fill:none;stroke:#1A1A18;stroke-width:1.4998;stroke-miterlimit:22.9256;}
</style>
<g>
	<path class="st0" d="M93.94,43.74h-9.87 M91.76,52.18l0.75-3.48 M36.12,52.18l-0.75-3.48 M44.15,43.74h-9.92 M36.15,63.33h53.35
		 M91.76,52.18H36.12 M21.97,79.37H37.3l-0.38,1.92H21.97V79.37L21.97,79.37z M90.91,79.37h15.34v1.92H91.2L90.91,79.37z"/>
	<path class="st1" d="M44.15,52.18V37.44h39.92v14.74 M38.51,72.14h-8.88v-2.35h68.96v2.35h-8.88 M110.08,71.7l-3.8-19.17h-3.83
		l-3.83,3.83H29.6l-3.83-3.83h-3.8L18.13,71.7 M25.77,52.53l9.61-3.83H20.05 M108.17,48.7H92.84l9.61,3.83 M21.97,52.53l-3.83-3.83
		 M106.25,52.53l3.83-3.83 M38.9,69.87c-0.54,3.13-1.11,6.39-1.7,9.79c-0.62,3.55-1.26,7.25-1.93,11.12c9.55,0,19.11,0,28.66,0
		s19.12,0,28.68,0c-0.61-3.87-1.19-7.58-1.75-11.12c-0.53-3.4-1.05-6.65-1.54-9.79 M37.25,79.37h-17.2l-1.92-3.83V48.7h1.92
		l1.92-7.67h11.49l1.92,7.67h8.77 M84.07,48.7h8.77l1.92-7.67h11.49l1.92,7.67h1.92l0,26.84l-1.92,3.83h-17.2 M91.47,61.45
		c1.09,0,1.98,0.89,1.98,1.98c0,1.09-0.89,1.98-1.98,1.98s-1.98-0.89-1.98-1.98C89.49,62.33,90.38,61.45,91.47,61.45z"/>
	<path class="st2" d="M98.65,64.15c0.4,0,0.73-0.33,0.73-0.73c0-0.4-0.33-0.73-0.73-0.73c-0.4,0-0.73,0.33-0.73,0.73
		C97.92,63.83,98.25,64.15,98.65,64.15z"/>
</g>
</svg>
