<?xml version="1.0" encoding="utf-8"?>
<!-- Generator: Adobe Illustrator 23.0.1, SVG Export Plug-In . SVG Version: 6.00 Build 0)  -->
<svg version="1.1" id="Слой_1" xmlns="http://www.w3.org/2000/svg" xmlns:xlink="http://www.w3.org/1999/xlink" x="0px" y="0px"
	 viewBox="0 0 128.22 128.22" style="enable-background:new 0 0 128.22 128.22;" xml:space="preserve">
<style type="text/css">
	.st0{fill-rule:evenodd;clip-rule:evenodd;fill:#2065AF;}
	
		.st1{fill-rule:evenodd;clip-rule:evenodd;fill:none;stroke:#000003;stroke-width:0.7498;stroke-linecap:round;stroke-linejoin:round;stroke-miterlimit:22.9256;}
	
		.st2{fill-rule:evenodd;clip-rule:evenodd;fill:none;stroke:#000003;stroke-width:1.4998;stroke-linecap:round;stroke-linejoin:round;stroke-miterlimit:22.9256;}
	.st3{fill-rule:evenodd;clip-rule:evenodd;fill:#538DCA;}
</style>
<g>
	<path class="st0" d="M11.63,47.02c0,6.88,3.58,13.57,9.96,17.25c6.38,3.69,13.96,3.44,19.92,0c1.55-0.9,3-2.01,4.28-3.32
		c1.14-1.17,2.15-2.49,3.01-3.97c1.81-3.14,2.68-6.58,2.67-9.96c0-6.88-3.58-13.56-9.96-17.25l-6.05,10.49l6.05-10.49
		c-3.48-2.01-7.31-2.85-11.04-2.64c0,0-0.01,0-0.01,0c-3.12,0.17-6.16,1.08-8.87,2.64c-2.93,1.69-5.48,4.15-7.29,7.29
		C12.48,40.2,11.62,43.63,11.63,47.02L11.63,47.02z M27.65,53.78c-2.33-1.35-3.91-3.88-3.91-6.77c0-2.89,1.57-5.41,3.91-6.76l0,0
		c1.15-0.66,2.48-1.05,3.91-1.05c1.42,0,2.76,0.38,3.91,1.05c2.33,1.35,3.9,3.88,3.9,6.77c0,2.89-1.57,5.42-3.91,6.77
		c-1.15,0.66-2.48,1.05-3.91,1.05C30.13,54.83,28.79,54.45,27.65,53.78z"/>
	<line class="st1" x1="11.63" y1="47.02" x2="23.74" y2="47.02"/>
	<line class="st1" x1="27.65" y1="40.25" x2="21.59" y2="29.76"/>
	<line class="st1" x1="35.46" y1="40.25" x2="41.51" y2="29.76"/>
	<line class="st1" x1="41.51" y1="64.27" x2="35.46" y2="53.78"/>
	<line class="st1" x1="39.36" y1="47.02" x2="51.47" y2="47.02"/>
	<line class="st1" x1="21.59" y1="64.27" x2="27.65" y2="53.78"/>
	<path class="st2" d="M31.55,39.2c4.31,0,7.81,3.5,7.81,7.81c0,4.31-3.5,7.81-7.81,7.81c-4.31,0-7.81-3.5-7.81-7.81
		C23.74,42.7,27.24,39.2,31.55,39.2z"/>
	<path class="st2" d="M14.3,37.06c5.5-9.53,17.68-12.79,27.21-7.29c9.53,5.5,12.79,17.69,7.29,27.21
		c-5.5,9.53-17.68,12.79-27.21,7.29C12.06,58.77,8.8,46.58,14.3,37.06L14.3,37.06z M44.71,61.97c10.91-10.34,19.65-17.04,34.5-18.35
		c1.74,0,3.47-1.74,3.47-3.48c0-5.21-1.74-15.64-10.42-15.64c-15.63,0-27.78,1.26-41.8,2.61"/>
</g>
<g>
	<path class="st3" d="M81.74,85.35L52.75,93.5l17.44,10.2l30.39-9.38C97.16,92.81,91.03,89.85,81.74,85.35z"/>
	<path class="st0" d="M110.2,63.95l-18.7-7.7c-1.04-0.45-2.2-0.7-3.45-0.7c-6.45,0-12.9,6.55-14.39,14.64
		c-1.23,6.65,1.27,12.26,5.78,14.05c5.3,2.56,10.6,5.13,15.9,7.69c-0.82-0.91-1.26-1.88-1.81-2.93c-1.4-2.72-1.72-6.21-1.06-9.44
		C93.94,72.33,99.38,62.16,110.2,63.95z"/>
	<path class="st2" d="M106.08,72.88c2.53,0,4.08,2.69,3.44,6.02c-0.63,3.32-3.2,6.02-5.73,6.02c-2.53,0-4.08-2.69-3.44-6.02
		C100.98,75.57,103.55,72.88,106.08,72.88z"/>
	<line class="st2" x1="110.2" y1="63.95" x2="91.43" y2="56.22"/>
	<path class="st2" d="M107.5,63.53c6.51,0,10.4,6.8,8.69,15.18c-1.71,8.39-8.37,15.18-14.88,15.18c-6.51,0-10.4-6.8-8.69-15.18
		C94.33,70.32,101,63.53,107.5,63.53z"/>
	<path class="st2" d="M79.52,84.27c-4.56-1.75-7.1-7.39-5.86-14.08c1.5-8.09,7.94-14.64,14.39-14.64c1.25,0,2.41,0.25,3.45,0.7"/>
	<line class="st2" x1="98.19" y1="93.31" x2="79.43" y2="84.24"/>
	<polyline class="st2" points="103.83,93.56 70.19,103.7 52.75,93.5 81.74,85.35 	"/>
	<path class="st1" d="M106.56,70.01c3.73,0,5.99,3.89,5.06,8.7c-0.93,4.8-4.7,8.7-8.43,8.7c-3.73,0-5.99-3.89-5.06-8.7
		C99.06,73.91,102.84,70.01,106.56,70.01z"/>
</g>
</svg>
