<?xml version="1.0" encoding="utf-8"?>
<!-- Generator: Adobe Illustrator 23.0.1, SVG Export Plug-In . SVG Version: 6.00 Build 0)  -->
<svg version="1.1" id="Слой_1" xmlns="http://www.w3.org/2000/svg" xmlns:xlink="http://www.w3.org/1999/xlink" x="0px" y="0px"
	 viewBox="0 0 128.22 128.22" style="enable-background:new 0 0 128.22 128.22;" xml:space="preserve">
<style type="text/css">
	
		.st0{fill-rule:evenodd;clip-rule:evenodd;fill:none;stroke:#616262;stroke-width:0.7498;stroke-linecap:round;stroke-linejoin:round;stroke-miterlimit:22.9256;}
	
		.st1{fill-rule:evenodd;clip-rule:evenodd;fill:none;stroke:#000003;stroke-width:1.4998;stroke-linecap:round;stroke-linejoin:round;stroke-miterlimit:22.9256;}
</style>
<g>
	<line class="st0" x1="11.63" y1="47.02" x2="23.74" y2="47.02"/>
	<line class="st0" x1="27.64" y1="40.25" x2="21.59" y2="29.76"/>
	<line class="st0" x1="35.45" y1="40.25" x2="41.51" y2="29.77"/>
	<line class="st0" x1="41.51" y1="64.27" x2="35.45" y2="53.78"/>
	<line class="st0" x1="39.36" y1="47.02" x2="51.47" y2="47.02"/>
	<line class="st0" x1="21.59" y1="64.27" x2="27.64" y2="53.78"/>
	<path class="st1" d="M31.55,39.21c4.31,0,7.81,3.5,7.81,7.81c0,4.31-3.5,7.81-7.81,7.81c-4.31,0-7.81-3.5-7.81-7.81
		C23.74,42.7,27.23,39.21,31.55,39.21z"/>
	<path class="st1" d="M14.3,37.06c5.5-9.53,17.68-12.79,27.21-7.29c9.53,5.5,12.79,17.68,7.29,27.21
		c-5.5,9.53-17.68,12.79-27.21,7.29C12.06,58.77,8.8,46.58,14.3,37.06L14.3,37.06z M44.7,61.98c10.91-10.34,19.65-17.04,34.5-18.35
		c1.74,0,3.47-1.74,3.47-3.47c0-5.21-1.74-15.64-10.42-15.64c-15.63,0-27.78,1.26-41.8,2.61"/>
</g>
<g>
	<path class="st1" d="M106.08,72.88c2.53,0,4.08,2.69,3.44,6.02c-0.63,3.32-3.2,6.02-5.73,6.02s-4.08-2.69-3.44-6.02
		C100.98,75.57,103.55,72.88,106.08,72.88z"/>
	<line class="st1" x1="110.19" y1="63.95" x2="91.42" y2="56.22"/>
	<path class="st1" d="M107.5,63.53c6.51,0,10.4,6.8,8.69,15.18c-1.71,8.39-8.37,15.18-14.88,15.18c-6.51,0-10.4-6.8-8.69-15.18
		C94.33,70.32,100.99,63.53,107.5,63.53z"/>
	<path class="st1" d="M79.51,84.27c-4.56-1.75-7.1-7.39-5.86-14.08c1.5-8.09,7.94-14.64,14.39-14.64c1.25,0,2.41,0.25,3.45,0.7"/>
	<line class="st1" x1="98.19" y1="93.31" x2="79.43" y2="84.24"/>
	<polyline class="st1" points="103.83,93.56 70.18,103.7 52.74,93.5 81.74,85.35 	"/>
	<path class="st0" d="M106.56,70.01c3.73,0,5.99,3.89,5.06,8.7c-0.93,4.8-4.7,8.7-8.43,8.7c-3.73,0-5.99-3.89-5.06-8.7
		C99.06,73.91,102.83,70.01,106.56,70.01z"/>
</g>
</svg>
