<?xml version="1.0" encoding="utf-8"?>
<!-- Generator: Adobe Illustrator 23.0.1, SVG Export Plug-In . SVG Version: 6.00 Build 0)  -->
<svg version="1.1" id="Слой_1" xmlns="http://www.w3.org/2000/svg" xmlns:xlink="http://www.w3.org/1999/xlink" x="0px" y="0px"
	 viewBox="0 0 128.2 128.2" style="enable-background:new 0 0 128.2 128.2;" xml:space="preserve">
<style type="text/css">
	
		.st0{fill-rule:evenodd;clip-rule:evenodd;fill:none;stroke:#616262;stroke-width:0.7498;stroke-linecap:round;stroke-linejoin:round;stroke-miterlimit:22.9256;}
	
		.st1{fill-rule:evenodd;clip-rule:evenodd;fill:none;stroke:#000003;stroke-width:1.4998;stroke-linecap:round;stroke-linejoin:round;stroke-miterlimit:22.9256;}
</style>
<path class="st0" d="M62,95.8h4.2v-2.1H62V95.8L62,95.8z M62,32.4h4.2v2.1H62V32.4L62,32.4z M64.1,51.4c7,0,12.7,5.7,12.7,12.7
	s-5.7,12.7-12.7,12.7c-7,0-12.7-5.7-12.7-12.7S57.1,51.4,64.1,51.4L64.1,51.4z M64.1,85.3H45.8v-7L43,75.4v-7.5h8.6h5.3 M64.1,85.3
	h18.3v-7l1.3-1.3l1.5-1.5v-7.5h-8.6h-5.2 M64.1,43H45.8v7L43,52.8v7.5h8.6h5.2 M64.1,43h18.3v7l1.3,1.3l1.5,1.5v7.5h-8.6h-5.2"/>
<path class="st1" d="M61.3,93.7h5.6v-4.2h-5.6V93.7L61.3,93.7z M61.3,98.6h5.6v-2.8h-5.6V98.6L61.3,98.6z M61.3,34.5h5.6v4.2h-5.6
	V34.5L61.3,34.5z M61.3,29.6h5.6v2.8h-5.6V29.6L61.3,29.6z M41.6,38.7h45.1v9.9l2.8,2.8v12.7H72.6l-4.2-7.8h-8.5l-4.2,7.8H38.8V51.4
	l2.8-2.8V38.7L41.6,38.7z M41.6,89.5h45.1v-9.9l2.8-2.8V64.1H72.6l-4.2,7.8h-8.5l-4.2-7.8H38.8v12.7l2.8,2.8V89.5z"/>
</svg>
