<?xml version="1.0" encoding="utf-8"?>
<!-- Generator: Adobe Illustrator 23.0.1, SVG Export Plug-In . SVG Version: 6.00 Build 0)  -->
<svg version="1.1" id="Слой_1" xmlns="http://www.w3.org/2000/svg" xmlns:xlink="http://www.w3.org/1999/xlink" x="0px" y="0px"
	 viewBox="0 0 128.22 128.22" style="enable-background:new 0 0 128.22 128.22;" xml:space="preserve">
<style type="text/css">
	
		.st0{fill-rule:evenodd;clip-rule:evenodd;fill:none;stroke:#616262;stroke-width:0.7498;stroke-linecap:round;stroke-linejoin:round;stroke-miterlimit:22.9256;stroke-dasharray:0.7498,2.2493;}
	
		.st1{fill-rule:evenodd;clip-rule:evenodd;fill:none;stroke:#616262;stroke-width:0.7498;stroke-linecap:round;stroke-linejoin:round;stroke-miterlimit:22.9256;}
	
		.st2{fill-rule:evenodd;clip-rule:evenodd;fill:none;stroke:#000003;stroke-width:1.4998;stroke-linecap:round;stroke-linejoin:round;stroke-miterlimit:22.9256;}
</style>
<g>
	<line class="st0" x1="64.23" y1="112.21" x2="64.23" y2="92.03"/>
	<line class="st0" x1="64.23" y1="112.21" x2="70.31" y2="91.31"/>
	<line class="st0" x1="64.23" y1="112.21" x2="58.16" y2="91.31"/>
</g>
<path class="st1" d="M64.23,87.66h-8.5 M64.23,47.54h-48.6c0-1.06,0-3.24,0-4.86h48.6 M15.63,53.62l10.93,8.51H15.63V40.24
	 M90.96,18.36v-7.3h2.43l9.72,2.43V7.41h2.43v6.08h-2.43 M93.39,18.36v-7.3 M52.08,74.29H15.63c0-1.06,0-3.24,0-4.86h36.45
	 M27.78,20.53c0.82,0,1.48,0.66,1.48,1.48c0,0.81-0.66,1.48-1.48,1.48c-0.81,0-1.47-0.66-1.47-1.48
	C26.31,21.19,26.97,20.53,27.78,20.53L27.78,20.53z M35.07,20.53c0.82,0,1.48,0.66,1.48,1.48c0,0.81-0.66,1.48-1.48,1.48
	c-0.81,0-1.48-0.66-1.48-1.48C33.6,21.19,34.26,20.53,35.07,20.53L35.07,20.53z M42.36,20.53c0.81,0,1.48,0.66,1.48,1.48
	c0,0.81-0.66,1.48-1.48,1.48c-0.81,0-1.48-0.66-1.48-1.48C40.89,21.19,41.55,20.53,42.36,20.53L42.36,20.53z M64.23,47.54h48.6
	c0-1.06,0-3.24,0-4.86h-48.6 M112.83,53.62l-10.93,8.51h10.93V40.24 M112.83,57.27h4.86 M15.63,57.27h-4.86 M64.23,57.27H20.32
	 M64.23,57.27h43.91 M76.38,74.29h36.45c0-1.06,0-3.24,0-4.86H76.38 M31.43,109.55c1.59,0,9.72,0,12.15,0V98.61H31.43 M36.29,101.99
	c0.81,0,1.48,0.66,1.48,1.48c0,0.82-0.66,1.48-1.48,1.48c-0.81,0-1.48-0.66-1.48-1.48C34.81,102.65,35.47,101.99,36.29,101.99
	L36.29,101.99z M39.93,109.55V98.61 M43.46,101.04h-3.48 M43.49,105.9h-3.45 M31.41,118.68v-3.65 M53.28,118.68v-3.65 M97.05,118.68
	v-3.65 M75.18,118.68v-3.65 M64.23,87.66h8.5"/>
<path class="st2" d="M64.23,90.09c-1.39,0-6.38,0-8.5,0V82.8 M64.23,82.8c-1.59,0-9.72,0-12.15,0V65.78h12.15 M64.23,90.09
	c1.39,0,6.38,0,8.5,0V82.8 M64.23,82.8c1.59,0,9.72,0,12.15,0V65.78H64.23 M11.99,115.03h19.44c0-4.23,0-12.97,0-19.45H11.99
	 M11.99,82.8l3.64,1.22V62.13h48.6 M64.25,121.11h54.68c0-1.32,0-4.05,0-6.08H64.25 M64.23,115.03h52.25c0-12.59,0-37.24,0-56.55
	 M64.23,115.03H11.99c0-12.59,0-37.24,0-56.55 M116.48,82.8l-3.65,1.22V62.13h-48.6 M64.23,25.65H11.99c0-1.59,0-4.86,0-7.3h52.25
	 M64.23,25.65h52.25c0-1.59,0-4.86,0-7.3H64.23 M112.83,62.13l4.86-4.86V30.52l-1.21-4.86H64.23 M15.63,62.13l-4.86-4.86V30.52
	l1.21-4.86h52.25 M64.22,121.11H9.54c0-1.32,0-4.05,0-6.08h54.68"/>
</svg>
