<?xml version="1.0" encoding="utf-8"?>
<!-- Generator: Adobe Illustrator 23.0.1, SVG Export Plug-In . SVG Version: 6.00 Build 0)  -->
<svg version="1.1" id="Слой_1" xmlns="http://www.w3.org/2000/svg" xmlns:xlink="http://www.w3.org/1999/xlink" x="0px" y="0px"
	 viewBox="0 0 128.22 128.22" style="enable-background:new 0 0 128.22 128.22;" xml:space="preserve">
<style type="text/css">
	.st0{fill-rule:evenodd;clip-rule:evenodd;fill:#E94E38;}
	
		.st1{fill-rule:evenodd;clip-rule:evenodd;fill:none;stroke:#E94E38;stroke-width:0.7498;stroke-linecap:round;stroke-linejoin:round;stroke-miterlimit:22.9256;stroke-dasharray:0.7498,2.2493;}
	.st2{fill-rule:evenodd;clip-rule:evenodd;fill:#E5390D;}
	
		.st3{fill-rule:evenodd;clip-rule:evenodd;fill:none;stroke:#000003;stroke-width:1.4998;stroke-linecap:round;stroke-linejoin:round;stroke-miterlimit:22.9256;}
	
		.st4{fill-rule:evenodd;clip-rule:evenodd;fill:none;stroke:#000003;stroke-width:0.7498;stroke-linecap:round;stroke-linejoin:round;stroke-miterlimit:22.9256;}
</style>
<path class="st0" d="M11.8,25.59h52.25h52.25v-7.3H93.21h-2.43H64.05H11.8V25.59L11.8,25.59z M42.18,20.47
	c0.81,0,1.48,0.66,1.48,1.48c0,0.82-0.66,1.48-1.48,1.48c-0.82,0-1.48-0.66-1.48-1.48C40.7,21.13,41.36,20.47,42.18,20.47
	L42.18,20.47z M34.89,20.47c0.81,0,1.48,0.66,1.48,1.48c0,0.82-0.66,1.48-1.48,1.48c-0.81,0-1.48-0.66-1.48-1.48
	C33.41,21.13,34.07,20.47,34.89,20.47L34.89,20.47z M27.59,20.47c0.82,0,1.48,0.66,1.48,1.48c0,0.82-0.66,1.48-1.48,1.48
	c-0.81,0-1.47-0.66-1.47-1.48C26.12,21.13,26.78,20.47,27.59,20.47L27.59,20.47z M15.45,42.61v4.86v6.08v3.65h-4.86V30.45l1.21-4.86
	h52.25h52.25l1.21,4.86V57.2h-4.86v-3.65v-6.08v-4.86h-48.6H15.45L15.45,42.61z M20.13,57.2h43.91h43.91l4.69-3.65v-6.08h-48.6
	h-48.6v6.08L20.13,57.2L20.13,57.2z M26.38,62.07h37.67h37.67l6.25-4.86H64.05H20.13L26.38,62.07L26.38,62.07z M116.29,82.74V58.42
	l-3.64,3.65v7.3v4.86v9.73L116.29,82.74L116.29,82.74z M15.45,83.95v-9.73v-4.86v-7.3l-3.65-3.65v24.32L15.45,83.95L15.45,83.95z
	 M112.65,62.07l3.64-3.65l1.21-1.22h-4.86V62.07L112.65,62.07z M15.45,62.07V57.2h-4.86l1.21,1.22L15.45,62.07L15.45,62.07z
	 M55.54,82.74h8.51h8.51h3.64v-8.51v-4.86v-3.65H64.05H51.9v3.65v4.86v8.51H55.54L55.54,82.74z M64.05,87.6h-8.51v-4.86h8.51h8.51
	v4.86H64.05z"/>
<g>
	<line class="st1" x1="64.05" y1="112.14" x2="64.05" y2="91.97"/>
	<line class="st1" x1="64.05" y1="112.14" x2="70.12" y2="91.25"/>
	<line class="st1" x1="64.05" y1="112.14" x2="57.97" y2="91.25"/>
</g>
<path class="st2" d="M64.05,65.71H51.9v3.65v4.86v8.51h3.64h8.51h8.51h3.64v-8.51v-4.86v-3.65H64.05L64.05,65.71z M72.55,82.74v4.86
	h-8.5h-8.51v-4.86h8.51H72.55z"/>
<path class="st3" d="M64.04,90.03c-1.39,0-6.38,0-8.5,0v-7.3 M64.05,82.74c-1.59,0-9.72,0-12.15,0V65.71h12.15 M64.05,90.03
	c1.39,0,6.38,0,8.5,0v-7.3 M64.05,82.74c1.59,0,9.72,0,12.15,0V65.71H64.05 M11.8,114.97h19.44c0-4.23,0-12.97,0-19.45H11.8
	 M11.8,82.74l3.65,1.22V62.07h48.6 M64.06,121.05h54.68c0-1.32,0-4.05,0-6.08H64.06 M64.05,114.97h52.25c0-12.59,0-37.24,0-56.55
	 M64.05,114.97H11.8c0-12.59,0-37.24,0-56.55 M116.29,82.74l-3.64,1.22V62.07h-48.6 M64.05,25.59H11.8c0-1.59,0-4.86,0-7.3h52.25
	 M64.05,25.59h52.25c0-1.59,0-4.86,0-7.3H64.05 M112.65,62.07l4.86-4.86V30.45l-1.21-4.86H64.05 M15.45,62.07l-4.86-4.86V30.45
	l1.21-4.86h52.25 M64.03,121.05H9.35c0-1.32,0-4.05,0-6.08h54.68"/>
<path class="st4" d="M64.04,87.6h-8.5 M64.05,47.48h-48.6c0-1.06,0-3.24,0-4.86h48.6 M15.45,53.56l10.93,8.51H15.45V40.18
	 M90.78,18.29V11h2.43l9.72,2.43V7.35h2.43v6.08h-2.43 M93.21,18.29V11 M51.9,74.22H15.45c0-1.06,0-3.24,0-4.86H51.9 M27.59,20.47
	c0.82,0,1.48,0.66,1.48,1.48c0,0.82-0.66,1.48-1.48,1.48c-0.81,0-1.47-0.66-1.47-1.48C26.12,21.13,26.78,20.47,27.59,20.47
	L27.59,20.47z M34.89,20.47c0.81,0,1.48,0.66,1.48,1.48c0,0.82-0.66,1.48-1.48,1.48c-0.81,0-1.48-0.66-1.48-1.48
	C33.41,21.13,34.07,20.47,34.89,20.47L34.89,20.47z M42.18,20.47c0.81,0,1.48,0.66,1.48,1.48c0,0.82-0.66,1.48-1.48,1.48
	c-0.82,0-1.48-0.66-1.48-1.48C40.7,21.13,41.36,20.47,42.18,20.47L42.18,20.47z M64.05,47.48h48.6c0-1.06,0-3.24,0-4.86h-48.6
	 M112.65,53.56l-10.93,8.51h10.93V40.18 M112.65,57.2h4.86 M15.45,57.2h-4.86 M64.05,57.2H20.13 M64.05,57.2h43.91 M76.2,74.22
	h36.45c0-1.06,0-3.24,0-4.86H76.2 M31.24,109.48c1.59,0,9.72,0,12.15,0V98.54H31.24 M36.1,101.93c0.81,0,1.48,0.66,1.48,1.48
	c0,0.81-0.66,1.48-1.48,1.48c-0.81,0-1.48-0.66-1.48-1.48C34.63,102.59,35.29,101.93,36.1,101.93L36.1,101.93z M39.75,109.48V98.54
	 M43.28,100.97H39.8 M43.31,105.84h-3.45 M31.22,118.61v-3.65 M53.09,118.61v-3.65 M96.87,118.61v-3.65 M75,118.61v-3.65
	 M64.05,87.6h8.5"/>
</svg>
