<?xml version="1.0" encoding="utf-8"?>
<!-- Generator: Adobe Illustrator 23.0.1, SVG Export Plug-In . SVG Version: 6.00 Build 0)  -->
<svg version="1.1" id="Слой_1" xmlns="http://www.w3.org/2000/svg" xmlns:xlink="http://www.w3.org/1999/xlink" x="0px" y="0px"
	 viewBox="0 0 128.22 128.22" style="enable-background:new 0 0 128.22 128.22;" xml:space="preserve">
<style type="text/css">
	
		.st0{fill-rule:evenodd;clip-rule:evenodd;fill:none;stroke:#616262;stroke-width:0.7498;stroke-linecap:round;stroke-linejoin:round;stroke-miterlimit:22.9256;}
	
		.st1{fill-rule:evenodd;clip-rule:evenodd;fill:none;stroke:#000003;stroke-width:1.4998;stroke-linecap:round;stroke-linejoin:round;stroke-miterlimit:22.9256;}
</style>
<path class="st0" d="M71.05,29.64v3.47 M67.58,33.11v-3.47 M60.64,29.64v3.47 M57.17,33.11v-3.47 M61.79,15.75v-3.57 M66.42,12.18
	v3.57 M56.01,22.69h-4.63v-4.63h4.63 M72.2,18.06h4.63v4.63H72.2 M58.32,109.09h3.16 M56.74,116.04h3.16 M61.79,96.77v4.22
	 M54.85,100.99v-4.22 M40.97,87.25v9.52h46.27v-9.52"/>
<path class="st1" d="M64.11,19.22c1.92,0,3.47,1.55,3.47,3.47c0,1.92-1.56,3.47-3.47,3.47c-1.92,0-3.47-1.55-3.47-3.47
	C60.64,20.78,62.19,19.22,64.11,19.22L64.11,19.22z M54.85,105.62h6.94v3.47l-1.16,1.16v6.94l-2.31,2.32l-2.31-2.32v-6.94
	l-1.16-1.16V105.62L54.85,105.62z M52.54,100.99h11.57v4.63H52.54V100.99L52.54,100.99z M59.48,5.46h9.25v6.94h-9.25V5.46
	L59.48,5.46z M56.01,15.75H72.2v13.89H56.01V15.75L56.01,15.75z M39.82,33.11H88.4c0,17.75,0,40.51,0,53.24
	c-11.1,9.26-37.48,9.26-48.58,0C39.82,74.78,39.82,50.86,39.82,33.11z"/>
</svg>
