<?xml version="1.0" encoding="utf-8"?>
<!-- Generator: Adobe Illustrator 23.0.1, SVG Export Plug-In . SVG Version: 6.00 Build 0)  -->
<svg version="1.1" id="Слой_1" xmlns="http://www.w3.org/2000/svg" xmlns:xlink="http://www.w3.org/1999/xlink" x="0px" y="0px"
	 viewBox="0 0 128.22 128.22" style="enable-background:new 0 0 128.22 128.22;" xml:space="preserve">
<style type="text/css">
	.st0{fill-rule:evenodd;clip-rule:evenodd;fill:#E94E38;}
	.st1{fill-rule:evenodd;clip-rule:evenodd;fill:#E5390D;}
	
		.st2{fill-rule:evenodd;clip-rule:evenodd;fill:none;stroke:#000003;stroke-width:0.7498;stroke-linecap:round;stroke-linejoin:round;stroke-miterlimit:22.9256;}
	
		.st3{fill-rule:evenodd;clip-rule:evenodd;fill:none;stroke:#000003;stroke-width:1.4998;stroke-linecap:round;stroke-linejoin:round;stroke-miterlimit:22.9256;}
</style>
<path class="st0" d="M54.85,107.24h6.94h2.31v-4.63h-2.31h-6.94h-2.31v4.63H54.85L54.85,107.24z M58.32,121.13l-2.31-2.32v-6.94
	l-1.16-1.16v-3.47h6.94v3.47l-1.16,1.16v6.94L58.32,121.13L58.32,121.13z M40.97,88.87c11.28,8.07,34.98,8.07,46.27,0
	c0.4-0.29,0.79-0.59,1.16-0.89V34.73H71.05h-3.47h-6.94h-3.47H39.82v53.24C40.19,88.28,40.57,88.58,40.97,88.87L40.97,88.87z
	 M61.79,14.03h4.63h2.31V7.08h-9.25v6.94H61.79L61.79,14.03z M67.58,31.26h3.47h1.16v-6.94v-4.63v-2.32h-5.78h-4.63h-5.78v2.32v4.63
	v6.94h1.16h3.47H67.58L67.58,31.26z M67.58,24.32c0,1.92-1.56,3.47-3.47,3.47c-1.92,0-3.47-1.55-3.47-3.47s1.55-3.47,3.47-3.47
	C66.03,20.84,67.58,22.4,67.58,24.32z"/>
<path class="st1" d="M61.79,107.24h-6.94v3.47l1.16,1.16v6.94l2.31,2.32l2.31-2.32v-6.94l1.16-1.16V107.24L61.79,107.24z
	 M61.79,102.61h2.31v4.63h-2.31h-6.94h-2.31v-4.63h2.31H61.79L61.79,102.61z M72.2,17.37h-5.78h-4.63h-5.78v2.32v4.63v6.94h1.16
	h3.47h6.94h3.47h1.16v-6.94v-4.63V17.37L72.2,17.37z M64.11,20.84c1.92,0,3.47,1.55,3.47,3.47s-1.56,3.47-3.47,3.47
	c-1.92,0-3.47-1.55-3.47-3.47S62.19,20.84,64.11,20.84z"/>
<path class="st2" d="M71.05,31.26v3.47 M67.58,34.73v-3.47 M60.64,31.26v3.47 M57.17,34.73v-3.47 M61.79,17.37V13.8 M66.42,13.8
	v3.57 M56.01,24.32h-4.63v-4.63h4.63 M72.2,19.69h4.63v4.63H72.2 M58.32,110.72h3.16 M56.74,117.66h3.16 M61.79,98.39v4.22
	 M54.85,102.61v-4.22 M40.97,88.87v9.52h46.27v-9.52"/>
<path class="st3" d="M64.11,20.84c1.92,0,3.47,1.55,3.47,3.47s-1.56,3.47-3.47,3.47c-1.92,0-3.47-1.55-3.47-3.47
	S62.19,20.84,64.11,20.84L64.11,20.84z M54.85,107.24h6.94v3.47l-1.16,1.16v6.94l-2.31,2.32l-2.31-2.32v-6.94l-1.16-1.16V107.24
	L54.85,107.24z M52.54,102.61h11.57v4.63H52.54V102.61L52.54,102.61z M59.48,7.08h9.25v6.94h-9.25V7.08L59.48,7.08z M56.01,17.37
	H72.2v13.89H56.01V17.37L56.01,17.37z M39.82,34.73H88.4c0,17.75,0,40.51,0,53.24c-11.1,9.26-37.48,9.26-48.58,0
	C39.82,76.4,39.82,52.48,39.82,34.73z"/>
</svg>
