<?xml version="1.0" encoding="utf-8"?>
<!-- Generator: Adobe Illustrator 23.0.1, SVG Export Plug-In . SVG Version: 6.00 Build 0)  -->
<svg version="1.1" id="Слой_1" xmlns="http://www.w3.org/2000/svg" xmlns:xlink="http://www.w3.org/1999/xlink" x="0px" y="0px"
	 viewBox="0 0 128.22 128.22" style="enable-background:new 0 0 128.22 128.22;" xml:space="preserve">
<style type="text/css">
	.st0{fill-rule:evenodd;clip-rule:evenodd;fill:#E5390D;}
	.st1{fill-rule:evenodd;clip-rule:evenodd;fill:#E53912;}
	
		.st2{fill-rule:evenodd;clip-rule:evenodd;fill:none;stroke:#000003;stroke-width:0.7498;stroke-linecap:round;stroke-linejoin:round;stroke-miterlimit:22.9256;}
	
		.st3{fill-rule:evenodd;clip-rule:evenodd;fill:none;stroke:#000003;stroke-width:1.4998;stroke-linecap:round;stroke-linejoin:round;stroke-miterlimit:22.9256;}
</style>
<path class="st0" d="M88.46,38.06h6.09V34h-6.09V38.06L88.46,38.06z M76.28,38.06h7.1l-1.63-2.03v-1.01H77.7v1.01L76.28,38.06
	L76.28,38.06z M67.15,28.92h4.06v-1.14V26v-1.14h-4.06V28.92L67.15,28.92z M48.89,28.92h4.06v-4.06h-4.06V28.92L48.89,28.92z
	 M39.56,62.09h26.37c1.04,0,1.98-0.42,2.67-1.11c0.68-0.68,1.11-1.63,1.11-2.67c0-1.04-0.42-1.98-1.11-2.67
	c-0.68-0.68-1.63-1.11-2.67-1.11H39.56c-1.04,0-1.98,0.43-2.67,1.11c-0.68,0.68-1.11,1.63-1.11,2.67c0,1.04,0.42,1.98,1.11,2.66
	C37.57,61.67,38.52,62.09,39.56,62.09z"/>
<path class="st1" d="M58.02,19.6h4.06h2.03V13.5h-8.12v6.09H58.02L58.02,19.6z M53.96,35.02h3.04h6.09h3.04h1.01v-6.09v-4.06v-2.03
	h-5.07h-4.06h-5.07v2.03v4.06v6.09H53.96L53.96,35.02z M57,28.92c0-1.68,1.36-3.05,3.05-3.05c1.68,0,3.05,1.36,3.05,3.05
	c0,1.68-1.36,3.05-3.05,3.05C58.37,31.97,57,30.61,57,28.92L57,28.92z M28.6,84.77c16.23,8.12,54.79,8.12,71.02,0v-46.7h-5.07h-6.09
	h-5.07h-7.1H66.14h-3.04h-6.09h-3.04H28.6V84.77L28.6,84.77z M65.93,62.09H39.56c-1.04,0-1.98-0.42-2.67-1.11
	c-0.68-0.68-1.11-1.63-1.11-2.66c0-1.04,0.42-1.98,1.11-2.67c0.68-0.68,1.63-1.11,2.67-1.11h26.37c1.04,0,1.98,0.43,2.67,1.11
	c0.68,0.68,1.11,1.63,1.11,2.67c0,1.04-0.42,1.98-1.11,2.67C67.91,61.67,66.97,62.09,65.93,62.09L65.93,62.09z M46.86,98.47h10.15
	h4.06v-4.56H42.8v4.56H46.86L46.86,98.47z M51.93,114.71l-4.06-8.12l-1.01-6.09v-2.03h10.15v2.03l-1.01,6.09L51.93,114.71z"/>
<path class="st2" d="M57.01,35.02v3.05 M53.96,38.06v-3.05 M66.14,35.02v3.05 M63.09,38.06v-3.05 M52.95,28.92h-4.06v-4.06h4.06
	 M67.15,24.86h4.06v4.06h-4.06 M76.28,38.06l1.41-2.03v-1.01h4.06v1.01l1.63,2.03 M71.21,26c5.06,0,9.19,3.98,9.43,8.98
	 M71.21,27.79c4.08,0,7.42,3.2,7.64,7.22 M58.02,22.83v-3.48 M62.08,19.35v3.48 M49.9,104.06h6.09 M65.93,54.55H39.56
	c-1.04,0-1.98,0.43-2.67,1.11c-0.68,0.68-1.11,1.63-1.11,2.67c0,1.04,0.42,1.98,1.11,2.66c0.68,0.68,1.63,1.11,2.67,1.11h26.37
	c1.04,0,1.98-0.42,2.67-1.11c0.68-0.68,1.11-1.63,1.11-2.67c0-1.04-0.42-1.98-1.11-2.67C67.91,54.97,66.97,54.55,65.93,54.55
	L65.93,54.55z M30.63,86.21c0,2.41,0,4.01,0,7.69h66.96c0-3.69,0-5.26,0-7.91"/>
<path class="st3" d="M88.46,38.06V34h6.09v4.06 M55.99,13.5h8.12v6.09h-8.12V13.5L55.99,13.5z M52.95,22.83h14.2v12.18h-14.2V22.83
	L52.95,22.83z M60.05,25.88c1.68,0,3.05,1.36,3.05,3.05c0,1.68-1.36,3.05-3.05,3.05c-1.68,0-3.05-1.36-3.05-3.05
	C57,27.24,58.37,25.88,60.05,25.88L60.05,25.88z M46.86,98.47h10.15v2.03l-1.01,6.09l-4.06,8.12l-4.06-8.12l-1.01-6.09V98.47
	L46.86,98.47z M61.06,94.47v4H42.8V94.4 M28.6,38.06h71.02c0,15.57,0,35.54,0,46.7c-16.23,8.12-54.79,8.12-71.02,0
	C28.6,74.61,28.6,53.63,28.6,38.06z"/>
</svg>
