<?xml version="1.0" encoding="utf-8"?>
<!-- Generator: Adobe Illustrator 23.0.1, SVG Export Plug-In . SVG Version: 6.00 Build 0)  -->
<svg version="1.1" id="Слой_1" xmlns="http://www.w3.org/2000/svg" xmlns:xlink="http://www.w3.org/1999/xlink" x="0px" y="0px"
	 viewBox="0 0 128.22 128.22" style="enable-background:new 0 0 128.22 128.22;" xml:space="preserve">
<style type="text/css">
	
		.st0{fill-rule:evenodd;clip-rule:evenodd;fill:none;stroke:#959696;stroke-width:0.7498;stroke-linecap:round;stroke-linejoin:round;stroke-miterlimit:22.9256;}
	
		.st1{fill-rule:evenodd;clip-rule:evenodd;fill:none;stroke:#000003;stroke-width:1.4998;stroke-linecap:round;stroke-linejoin:round;stroke-miterlimit:22.9256;}
	
		.st2{fill-rule:evenodd;clip-rule:evenodd;fill:none;stroke:#000003;stroke-width:0.9998;stroke-linecap:round;stroke-linejoin:round;stroke-miterlimit:22.9256;}
</style>
<path class="st0" d="M57.03,52.81v6.02l2.41,0v-6.02L57.03,52.81L57.03,52.81z M36.34,90.16h10.91 M40.07,76.97l2.41-19.28
	 M81.65,46.24l-59.52,2.84 M66.62,49.97l0.19,3.61l10.82-0.57l-0.19-3.61L66.62,49.97L66.62,49.97z M12.65,32.29l75.74-3.97
	 M12.52,22.84l0.13,9.45l7.65,8.04l63,1.52 M35.33,99.02l19.2,0l1.61-1.49l2.91,1.94"/>
<path class="st1" d="M102.86,32.45l4.41,1.21l-7.83,4.09l-4.35,0.14 M96.13,30.87l-8.8,0.28l-2.78,7.38l4.31-0.18"/>
<path class="st2" d="M116.01,40.59l-2.78,0.15l-1.06-2.24l-18.31,1.03l1.05-2.03l17.51-12.09l2.78-0.15l-2.42,7.11L116.01,40.59
	L116.01,40.59z M116.85,31.89l2.42-7.11l-0.29-5.57l-6.85,0.63l-21.54,15.1l-4.37,11.4l0.93,2.74l4.18-0.22l1.25-2.86l1.32-1.47
	l12.53-0.66l1.47,1.32l1.54,2.71l11.02-0.64l-0.36-7.18L116.85,31.89z"/>
<path class="st1" d="M79.34,16.73l-67.2,5.93l-4.3,9.88l4.05,8.23l11.19,9.07l12.28,1.77l44.48-2.33l1.6-2.5l6.94-18.46L79.34,16.73
	L79.34,16.73z M52.21,62.45l3.61-1.2l1.2-1.2v-9.57l-21.67,1.14l2.41,1.2l1.2,2.41l-3.61,27.71H48.6l2.41-18.07L52.21,62.45
	L52.21,62.45z M35.36,82.93v3.61l-2.41,2.41v6.02l19.26,0l2.41-6.02l-1.2-2.41h-3.61l-1.2-1.21v-2.41H35.36L35.36,82.93z
	 M64.25,97.39l-1.2-2.41l-8.43-6.02l-2.41,6.02H32.95l-2.41,1.2l-2.41,2.41l0,10.84l2.41,2.41l31.3,0l2.41-2.41L64.25,97.39z"/>
</svg>
