<?xml version="1.0" encoding="utf-8"?>
<!-- Generator: Adobe Illustrator 23.0.1, SVG Export Plug-In . SVG Version: 6.00 Build 0)  -->
<svg version="1.1" id="Слой_1" xmlns="http://www.w3.org/2000/svg" xmlns:xlink="http://www.w3.org/1999/xlink" x="0px" y="0px"
	 viewBox="0 0 128.22 128.22" style="enable-background:new 0 0 128.22 128.22;" xml:space="preserve">
<style type="text/css">
	.st0{fill-rule:evenodd;clip-rule:evenodd;fill:#E53912;}
	.st1{fill-rule:evenodd;clip-rule:evenodd;fill:#E5390D;}
	
		.st2{fill-rule:evenodd;clip-rule:evenodd;fill:none;stroke:#000003;stroke-width:0.7498;stroke-linecap:round;stroke-linejoin:round;stroke-miterlimit:22.9256;}
	
		.st3{fill-rule:evenodd;clip-rule:evenodd;fill:none;stroke:#000003;stroke-width:1.4998;stroke-linecap:round;stroke-linejoin:round;stroke-miterlimit:22.9256;}
	
		.st4{fill-rule:evenodd;clip-rule:evenodd;fill:none;stroke:#000003;stroke-width:0.9998;stroke-linecap:round;stroke-linejoin:round;stroke-miterlimit:22.9256;}
</style>
<path class="st0" d="M32.93,94.81l19.26,0l2.41-6.02l-1.2-2.41h-3.61l-1.2-1.21v-2.41H35.34v3.61l-2.41,2.41V94.81L32.93,94.81z
	 M35.34,51.44l21.67-1.14l22.81-1.2l1.6-2.5l6.94-18.46l-9.05-11.59l-67.2,5.93l-4.3,9.88l4.05,8.23l11.19,9.07L35.34,51.44
	L35.34,51.44z M87.27,31.08l9.01-0.41l-5.67,4l-1.32,3.42l-4.67,0.03L87.27,31.08L87.27,31.08z M102.16,32.12l-7.52,6.07l4.79-0.59
	l7.82-4.1L102.16,32.12z"/>
<polygon class="st1" points="83.28,41.69 84.53,38.37 84.62,38.13 87.27,31.08 87.31,30.99 88.37,28.15 12.63,32.12 20.28,40.17 "/>
<path class="st2" d="M57.01,52.65v6.02l2.41,0v-6.02L57.01,52.65L57.01,52.65z M36.32,90h10.91 M40.06,76.8l2.41-19.28 M81.63,46.07
	l-59.52,2.84 M66.6,49.8l0.19,3.61l10.82-0.57l-0.19-3.61L66.6,49.8L66.6,49.8z M12.63,32.12l75.74-3.97 M12.5,22.67l0.13,9.45
	l7.65,8.04l63,1.52 M35.32,98.86l19.2,0l1.61-1.49l2.91,1.94"/>
<path class="st3" d="M102.84,32.29l4.41,1.21l-7.83,4.09l-4.35,0.14 M96.11,30.71l-8.8,0.28l-2.78,7.38l4.31-0.18"/>
<path class="st4" d="M115.99,40.43l-2.78,0.15l-1.06-2.24l-18.31,1.03l1.05-2.03l17.51-12.09l2.78-0.15l-2.42,7.11L115.99,40.43
	L115.99,40.43z M116.83,31.73l2.42-7.11l-0.29-5.57l-6.85,0.63l-21.54,15.1l-4.37,11.4l0.93,2.74l4.17-0.22l1.25-2.86l1.32-1.47
	l12.53-0.66l1.47,1.32l1.54,2.71l11.02-0.64l-0.36-7.18L116.83,31.73z"/>
<path class="st3" d="M79.33,16.56l-67.2,5.93l-4.3,9.88l4.05,8.23l11.19,9.07l12.28,1.77l44.49-2.33l1.6-2.5l6.94-18.46L79.33,16.56
	L79.33,16.56z M52.2,62.29l3.61-1.2l1.2-1.2v-9.57l-21.67,1.14l2.41,1.2l1.2,2.41l-3.61,27.71h13.24l2.41-18.07L52.2,62.29
	L52.2,62.29z M35.34,82.77v3.61l-2.41,2.41v6.02l19.26,0l2.41-6.02l-1.2-2.41h-3.61l-1.2-1.21v-2.41H35.34L35.34,82.77z
	 M64.24,97.22l-1.2-2.41l-8.43-6.02l-2.41,6.02H32.93l-2.41,1.2l-2.41,2.41l0,10.84l2.41,2.41l31.3,0l2.41-2.41L64.24,97.22z"/>
</svg>
