<?xml version="1.0" encoding="utf-8"?>
<!-- Generator: Adobe Illustrator 23.0.1, SVG Export Plug-In . SVG Version: 6.00 Build 0)  -->
<svg version="1.1" id="Слой_1" xmlns="http://www.w3.org/2000/svg" xmlns:xlink="http://www.w3.org/1999/xlink" x="0px" y="0px"
	 viewBox="0 0 128.22 128.22" style="enable-background:new 0 0 128.22 128.22;" xml:space="preserve">
<style type="text/css">
	
		.st0{fill-rule:evenodd;clip-rule:evenodd;fill:none;stroke:#616262;stroke-width:0.7498;stroke-linecap:round;stroke-linejoin:round;stroke-miterlimit:22.9256;}
	
		.st1{fill-rule:evenodd;clip-rule:evenodd;fill:none;stroke:#000003;stroke-width:1.4998;stroke-linecap:round;stroke-linejoin:round;stroke-miterlimit:22.9256;}
</style>
<path class="st0" d="M92.61,113.51v7.32 M35.61,120.54v-7.03 M51.89,93.39h-2.04v-4.07h2.04 M96.68,48.57h2.04v3.06h-2.04
	 M51.89,9.86h-2.04v3.06h2.04 M31.53,48.57H29.5v3.06h2.04 M31.53,30.23H29.5v3.06h2.04 M96.68,30.23h2.04v3.06h-2.04 M61.06,61.81
	h6.01 M41.72,34.31h26.46c2.24,0,4.07,1.83,4.07,4.07l0,0c0,2.24-1.83,4.07-4.07,4.07H41.72c-2.24,0-4.07-1.83-4.07-4.07l0,0
	C37.64,36.14,39.48,34.31,41.72,34.31L41.72,34.31z M64.25,63.92h3.05"/>
<path class="st1" d="M62.07,68.39h4.07l-2.04,5.09L62.07,68.39L62.07,68.39z M68.25,57.48l-1.09,4.33v6.58h-6.11l0-6.58l-1.09-4.34
	 M23.39,104.6l40.72,0.08v4.55v-4.55l40.72-0.08c0,2.04,0,4.71,0,6.11c-16.29,6.11-65.15,6.11-81.44,0V104.6L23.39,104.6z
	 M47.82,104.64v-3.65H80.4v3.65 M37.64,21.06h52.93c3.36,0,6.11,2.75,6.11,6.11V55.7l-32.58,2.04L31.53,55.7V27.18
	C31.53,23.81,34.28,21.06,37.64,21.06L37.64,21.06z M51.89,21.06V7.39h24.43v13.68 M76.33,56.97v44.02 M51.89,100.99V56.97
	 M31.53,120.54h65.16"/>
</svg>
