<?xml version="1.0" encoding="utf-8"?>
<!-- Generator: Adobe Illustrator 23.0.1, SVG Export Plug-In . SVG Version: 6.00 Build 0)  -->
<svg version="1.1" id="Слой_1" xmlns="http://www.w3.org/2000/svg" xmlns:xlink="http://www.w3.org/1999/xlink" x="0px" y="0px"
	 viewBox="0 0 128.22 128.22" style="enable-background:new 0 0 128.22 128.22;" xml:space="preserve">
<style type="text/css">
	.st0{fill-rule:evenodd;clip-rule:evenodd;fill:#E53912;}
	.st1{fill-rule:evenodd;clip-rule:evenodd;fill:#E5390D;}
	
		.st2{fill-rule:evenodd;clip-rule:evenodd;fill:none;stroke:#000003;stroke-width:0.7498;stroke-linecap:round;stroke-linejoin:round;stroke-miterlimit:22.9256;}
	
		.st3{fill-rule:evenodd;clip-rule:evenodd;fill:none;stroke:#000003;stroke-width:1.4998;stroke-linecap:round;stroke-linejoin:round;stroke-miterlimit:22.9256;}
</style>
<path class="st0" d="M35.61,120.53h57.01v-7.03c-16.37,2.38-40.64,2.38-57.01,0V120.53L35.61,120.53z M64.11,104.67l16.29-0.03
	v-3.65h-4.07H51.89h-4.07v3.65L64.11,104.67L64.11,104.67z M64.11,73.48l2.04-5.09h-4.07L64.11,73.48L64.11,73.48z M67.16,63.92
	v4.47h-1.02h-4.07h-1.02l0-6.58l-1.09-4.33l4.14,0.26l4.15-0.26l-1.09,4.33V63.92L67.16,63.92z M76.33,56.97l20.36-1.27v-4.07v-3.06
	V33.28v-3.06v-3.06c0-3.36-2.75-6.11-6.11-6.11H76.33H51.89H37.64c-3.36,0-6.11,2.75-6.11,6.11v3.06v3.06v15.28v3.06v4.07
	l20.36,1.27l8.07,0.51l4.14,0.26l4.15-0.26L76.33,56.97L76.33,56.97z M68.18,34.3c2.24,0,4.07,1.83,4.07,4.07
	c0,2.24-1.83,4.07-4.07,4.07H41.72c-2.24,0-4.07-1.83-4.07-4.07c0-2.24,1.83-4.07,4.07-4.07H68.18L68.18,34.3z M41.72,42.45
	c-2.24,0-4.07-1.83-4.07-4.07c0-2.24,1.83-4.07,4.07-4.07h26.46c2.24,0,4.07,1.83,4.07,4.07c0,2.24-1.83,4.07-4.07,4.07H41.72z"/>
<path class="st1" d="M62.07,68.39l2.04,5.09l2.04-5.09H62.07L62.07,68.39z M61.06,61.8l-1.09-4.33l4.14,0.26l4.15-0.26l-1.09,4.33
	v2.11v4.47h-1.02h-4.07h-1.02L61.06,61.8L61.06,61.8z M41.72,42.45h26.46c2.24,0,4.07-1.83,4.07-4.07c0-2.24-1.83-4.07-4.07-4.07
	H41.72c-2.24,0-4.07,1.83-4.07,4.07C37.64,40.62,39.48,42.45,41.72,42.45z"/>
<path class="st2" d="M92.61,113.5v7.32 M35.61,120.53v-7.03 M51.89,93.38h-2.04v-4.07h2.04 M96.69,48.56h2.04v3.06h-2.04
	 M51.89,9.85h-2.04v3.06h2.04 M31.54,48.56H29.5v3.06h2.04 M31.54,30.22H29.5v3.06h2.04 M96.69,30.22h2.04v3.06h-2.04 M61.06,61.8
	h6.01 M41.72,34.3h26.46c2.24,0,4.07,1.83,4.07,4.07l0,0c0,2.24-1.83,4.07-4.07,4.07H41.72c-2.24,0-4.07-1.83-4.07-4.07l0,0
	C37.64,36.13,39.48,34.3,41.72,34.3L41.72,34.3z M64.25,63.92h3.05"/>
<path class="st3" d="M62.07,68.39h4.07l-2.04,5.09L62.07,68.39L62.07,68.39z M68.25,57.47l-1.09,4.33v6.58h-6.11l0-6.58l-1.09-4.34
	 M23.39,104.59l40.72,0.08v4.55v-4.55l40.72-0.08c0,2.04,0,4.71,0,6.11c-16.29,6.11-65.15,6.11-81.44,0V104.59L23.39,104.59z
	 M47.82,104.64v-3.65H80.4v3.65 M37.64,21.06h52.93c3.36,0,6.11,2.75,6.11,6.11v28.52l-32.58,2.04l-32.58-2.04V27.17
	C31.53,23.81,34.28,21.06,37.64,21.06L37.64,21.06z M51.89,21.06V7.38h24.43v13.68 M76.33,56.97v44.02 M51.89,100.98V56.97
	 M31.53,120.53h65.16"/>
</svg>
