<?xml version="1.0" encoding="utf-8"?>
<!-- Generator: Adobe Illustrator 23.0.1, SVG Export Plug-In . SVG Version: 6.00 Build 0)  -->
<svg version="1.1" id="Слой_1" xmlns="http://www.w3.org/2000/svg" xmlns:xlink="http://www.w3.org/1999/xlink" x="0px" y="0px"
	 viewBox="0 0 128.22 128.22" style="enable-background:new 0 0 128.22 128.22;" xml:space="preserve">
<style type="text/css">
	.st0{fill-rule:evenodd;clip-rule:evenodd;fill:#2065AF;stroke:#000003;stroke-width:0.216;stroke-miterlimit:22.9256;}
	.st1{fill-rule:evenodd;clip-rule:evenodd;fill:#2065AF;}
	
		.st2{fill-rule:evenodd;clip-rule:evenodd;fill:none;stroke:#000003;stroke-width:0.7498;stroke-linecap:round;stroke-linejoin:round;stroke-miterlimit:22.9256;}
	
		.st3{fill-rule:evenodd;clip-rule:evenodd;fill:none;stroke:#000003;stroke-width:1.4998;stroke-linecap:round;stroke-linejoin:round;stroke-miterlimit:22.9256;}
</style>
<path class="st0" d="M50.55,82.08l0.4-13.45l13.16-0.03l13.16,0.03l0.4,13.45l-13.56,0L50.55,82.08L50.55,82.08z M82.23,85.2
	l-1-19.72l-17.21-0.04L47,65.47L46,85.2l18.02,0.01L82.23,85.2z"/>
<path class="st1" d="M30.35,83.19c0-2.61,0-7.5,0-27.3c0.01-2,2.11-2.73,7.21-2.79l26.56-0.56l26.56,0.56
	c5.09,0.06,7.2,0.79,7.21,2.79c0,19.8,0,24.69,0,27.3c0,2.01,0,2.66,0,7.76h3.02l12.62,0v-49.7c-0.06-1.63-1.55-2.99-3.47-3.26
	c-10.75-1.21-26.89-1.91-45.94-2.09c-19.05,0.18-35.19,0.87-45.94,2.09c-1.92,0.27-3.4,1.64-3.47,3.26v49.7l12.62,0h3.02
	C30.35,85.86,30.35,85.2,30.35,83.19z"/>
<line class="st2" x1="49.98" y1="89.94" x2="49.97" y2="87.34"/>
<line class="st2" x1="30.35" y1="83.19" x2="45.8" y2="83.19"/>
<path class="st3" d="M31.65,92.19l0-1.24l-16.94,0c0-16.57,0,0,0-49.7c0.06-1.63,1.55-2.99,3.47-3.26
	c10.75-1.21,26.89-1.91,45.94-2.09"/>
<path class="st3" d="M14.71,90.95c-2.33-0.55-4.64-4.39-4.64-8.07c-0.24-16.4,0,0-0.73-49.19c0.1-1.73,1.94-3.67,3.75-3.76
	c12.1-1.54,31.74-2.61,51.03-2.65"/>
<path class="st3" d="M30.35,90.95c0-11.7,0,0.03,0-35.06c0.01-2,2.11-2.73,7.21-2.79l26.56-0.56"/>
<polyline class="st3" points="64.02,85.21 46,85.2 47,65.47 64.02,65.43 "/>
<polyline class="st3" points="46,85.2 47.22,87.34 63.94,87.34 "/>
<polyline class="st3" points="27.33,90.95 27.34,95.25 14.71,95.25 14.71,90.95 "/>
<g>
	<polyline class="st2" points="90.89,33.34 88.91,33.24 89.05,30.97 91.01,31.07 	"/>
	<polyline class="st2" points="90.89,33.34 92.88,33.44 92.97,31.17 91.01,31.07 	"/>
	<polyline class="st2" points="97.2,33.66 95.22,33.56 95.36,31.29 97.32,31.38 	"/>
	<polyline class="st2" points="97.2,33.66 99.19,33.76 99.28,31.49 97.32,31.38 	"/>
	<polyline class="st2" points="103.36,33.96 101.38,33.86 101.52,31.6 103.48,31.69 	"/>
	<polyline class="st2" points="103.36,33.96 105.35,34.06 105.44,31.79 103.48,31.69 	"/>
</g>
<polyline class="st2" points="64.12,82.09 50.55,82.08 50.95,68.64 64.12,68.61 "/>
<g>
	<path class="st2" d="M59.65,95.63l0.22-1.46l1.62,0 M63.33,95.63l-0.22-1.46l-1.62,0"/>
	<path class="st2" d="M54.4,95.64l0.22-1.46l1.62,0 M58.08,95.64l-0.22-1.46l-1.62,0"/>
	<path class="st2" d="M49.15,95.64l0.22-1.46l1.62,0 M52.83,95.64l-0.22-1.46l-1.62,0"/>
	<path class="st2" d="M43.9,95.65l0.22-1.46l1.62,0 M47.58,95.65l-0.22-1.46l-1.62,0"/>
	<path class="st2" d="M38.65,95.66l0.22-1.46l1.62,0 M42.33,95.66l-0.22-1.46l-1.62,0"/>
	<path class="st2" d="M33.4,95.66l0.22-1.46l1.62,0 M37.08,95.66l-0.22-1.46l-1.62,0"/>
</g>
<polyline class="st3" points="31.65,92.19 29.92,98.1 30.06,100.25 43.28,100.7 64.12,100.94 "/>
<line class="st3" x1="64.12" y1="97.69" x2="33.23" y2="97.41"/>
<g>
	<polyline class="st2" points="62.36,92.53 62.57,92.08 64.12,92.08 	"/>
	<path class="st2" d="M57.11,92.54l0.22-0.45h1.62 M60.79,92.54l-0.22-0.45h-1.62"/>
	<path class="st2" d="M51.85,92.54l0.22-0.45l1.62,0 M55.54,92.54l-0.22-0.45l-1.62,0"/>
	<path class="st2" d="M46.6,92.54l0.22-0.45h1.62 M50.29,92.54l-0.22-0.45h-1.62"/>
	<path class="st2" d="M41.35,92.54l0.22-0.45h1.62 M45.04,92.54l-0.22-0.45H43.2"/>
	<path class="st2" d="M36.1,92.54l0.22-0.45l1.62,0 M39.79,92.54l-0.22-0.45l-1.62,0"/>
</g>
<line class="st2" x1="78.26" y1="89.94" x2="78.26" y2="87.34"/>
<line class="st2" x1="97.88" y1="83.19" x2="82.43" y2="83.19"/>
<path class="st3" d="M96.58,92.19l0-1.24l16.94,0c0-16.57,0,0,0-49.7c-0.06-1.63-1.55-2.99-3.47-3.26
	c-10.75-1.21-26.89-1.91-45.94-2.09"/>
<path class="st3" d="M113.52,90.95c2.33-0.55,4.64-4.39,4.64-8.07c0.24-16.4,0,0,0.73-49.19c-0.1-1.73-1.94-3.67-3.75-3.76
	c-12.1-1.54-31.74-2.61-51.03-2.65"/>
<path class="st3" d="M97.88,90.95c0-11.7,0,0.03,0-35.06c-0.01-2-2.12-2.73-7.21-2.79l-26.56-0.56"/>
<polyline class="st3" points="64.21,85.21 82.23,85.2 81.23,65.47 64.21,65.43 "/>
<polyline class="st3" points="82.23,85.2 81.01,87.34 64.29,87.34 "/>
<polyline class="st3" points="100.9,90.95 100.89,95.25 113.52,95.25 113.52,90.95 "/>
<polyline class="st2" points="64.12,82.09 77.68,82.08 77.28,68.64 64.12,68.61 "/>
<g>
	<path class="st2" d="M68.58,95.63l-0.22-1.46l-1.62,0 M64.9,95.63l0.22-1.46l1.62,0"/>
	<path class="st2" d="M73.83,95.64l-0.22-1.46l-1.62,0 M70.15,95.64l0.22-1.46l1.62,0"/>
	<path class="st2" d="M79.08,95.64l-0.22-1.46l-1.62,0 M75.4,95.64l0.22-1.46l1.62,0"/>
	<path class="st2" d="M84.33,95.65l-0.22-1.46l-1.62,0 M80.65,95.65l0.22-1.46l1.62,0"/>
	<path class="st2" d="M89.58,95.66l-0.22-1.46l-1.62,0 M85.9,95.66l0.22-1.46l1.62,0"/>
	<path class="st2" d="M94.83,95.66l-0.22-1.46l-1.62,0 M91.15,95.66l0.22-1.46l1.62,0"/>
</g>
<polyline class="st3" points="96.58,92.19 98.31,98.1 98.17,100.25 84.95,100.7 64.12,100.94 "/>
<line class="st3" x1="64.12" y1="97.69" x2="95" y2="97.41"/>
<g>
	<polyline class="st2" points="65.88,92.53 65.66,92.08 64.12,92.08 	"/>
	<path class="st2" d="M71.13,92.54l-0.22-0.45h-1.62 M67.44,92.54l0.22-0.45h1.62"/>
	<path class="st2" d="M76.38,92.54l-0.22-0.45l-1.62,0 M72.69,92.54l0.22-0.45l1.62,0"/>
	<path class="st2" d="M81.63,92.54l-0.22-0.45h-1.62 M77.94,92.54l0.22-0.45h1.62"/>
	<path class="st2" d="M86.88,92.54l-0.22-0.45h-1.62 M83.2,92.54l0.22-0.45h1.62"/>
	<path class="st2" d="M92.13,92.54l-0.22-0.45l-1.62,0 M88.45,92.54l0.22-0.45l1.62,0"/>
</g>
</svg>
