<?xml version="1.0" encoding="utf-8"?>
<!-- Generator: Adobe Illustrator 23.0.1, SVG Export Plug-In . SVG Version: 6.00 Build 0)  -->
<svg version="1.1" id="Слой_1" xmlns="http://www.w3.org/2000/svg" xmlns:xlink="http://www.w3.org/1999/xlink" x="0px" y="0px"
	 viewBox="0 0 128.2 128.2" style="enable-background:new 0 0 128.2 128.2;" xml:space="preserve">
<style type="text/css">
	.st0{fill-rule:evenodd;clip-rule:evenodd;fill:#004798;}
	.st1{fill-rule:evenodd;clip-rule:evenodd;fill:#538DCA;}
	
		.st2{fill-rule:evenodd;clip-rule:evenodd;fill:none;stroke:#000003;stroke-width:0.7498;stroke-linecap:round;stroke-linejoin:round;stroke-miterlimit:22.9256;}
	
		.st3{fill-rule:evenodd;clip-rule:evenodd;fill:none;stroke:#000003;stroke-width:1.4998;stroke-linecap:round;stroke-linejoin:round;stroke-miterlimit:22.9256;}
	.st4{fill-rule:evenodd;clip-rule:evenodd;fill:#2065AF;}
	.st5{fill-rule:evenodd;clip-rule:evenodd;fill:none;stroke:#000003;stroke-width:1.4998;stroke-miterlimit:22.9256;}
</style>
<path class="st0" d="M59.3,28.3c0.7-0.8-0.9-3-1.7-2.7C56.9,26.5,58.4,28.7,59.3,28.3z"/>
<path class="st1" d="M103.8,57.3l0,6.4h1.6c0.9,0,1.6-0.7,1.6-1.6l0-3.2c0-0.9-0.7-1.6-1.6-1.6H103.8L103.8,57.3z M24.4,63.6l0-6.4
	h-1.6c-0.9,0-1.6,0.7-1.6,1.6l0,3.2c0,0.9,0.7,1.6,1.6,1.6H24.4z"/>
<path class="st2" d="M29.2,33.4v54 M99.1,33.4l0,54"/>
<path class="st3" d="M18,89.1h92.1l1.6,11.1H16.5L18,89.1L18,89.1z M18.8,100.2h4.8v0.8v0c0,0.9-0.7,1.6-1.6,1.6h-1.6
	c-0.9,0-1.6-0.7-1.6-1.6v0V100.2L18.8,100.2z M105.4,100.2h4.8v0.8v0c0,0.9-0.7,1.6-1.6,1.6H107c-0.9,0-1.6-0.7-1.6-1.6v0V100.2
	L105.4,100.2z M26,27.1h1.6h1.6v6.4l3.2,1.6v50.9l-3.2,1.6v1.6h-4.8l0-60.4C24.4,27.8,25.1,27.1,26,27.1L26,27.1z M102.2,27.1h-1.6
	h-1.6v6.4L95.9,35v50.9l3.2,1.6l0,1.6h4.8l0-60.4C103.8,27.8,103.1,27.1,102.2,27.1z"/>
<path class="st4" d="M45,45.4v30.2l0.8,0.8h1.6l0.8-0.8V45.4l-0.8-0.8h-1.6L45,45.4L45,45.4z M41.9,45.4l0.8-0.9h1.6l0.8,0.8v30.2
	l-0.8,0.8h-1.6l-0.8-0.8V45.4L41.9,45.4z M38.7,45.4v30.2l0.8,0.8h1.6l0.8-0.8V45.4l-0.8-0.9h-1.6L38.7,45.4L38.7,45.4z M35.5,45.4
	l0.8-0.8h1.6l0.8,0.8v30.2l-0.8,0.8h-1.6l-0.8-0.8V45.4L35.5,45.4z M32.3,45.4v30.2l0.8,0.8h1.6l0.8-0.8V45.4l-0.8-0.8h-1.6
	L32.3,45.4z"/>
<g>
	<polygon class="st1" points="48.2,45.4 48.2,75.6 48.2,78.7 49,79.5 50.6,79.5 51.4,78.7 51.4,60.5 51.4,45.4 50.6,44.6 49,44.6 	
		"/>
	<path class="st1" d="M51.4,60.5v18.3l0.8,0.8h1.6l0.8-0.8l0-36.6l-0.8-0.8h-1.6l-0.8,0.8c0,0.1,0,0.1,0,0.2v3V60.5z"/>
	<polygon class="st1" points="54.6,42.2 54.6,78.7 55.4,79.5 57,79.5 57.8,78.7 57.8,42.2 57,41.4 55.4,41.4 	"/>
	<polygon class="st1" points="57.8,42.2 57.8,78.7 58.5,79.5 60.1,79.5 60.9,78.7 60.9,42.2 60.1,41.4 58.5,41.4 	"/>
	<polygon class="st1" points="60.9,42.2 60.9,78.7 61.7,79.5 63.3,79.5 64.1,78.7 64.1,42.2 63.3,41.4 61.7,41.4 	"/>
	<polygon class="st1" points="64.1,42.2 64.1,78.7 64.9,79.5 66.5,79.5 67.3,78.7 67.3,42.2 66.5,41.4 64.9,41.4 	"/>
	<polygon class="st1" points="67.3,42.2 67.3,78.7 68.1,79.5 69.7,79.5 70.5,78.7 70.5,42.2 69.7,41.4 68.1,41.4 	"/>
	<polygon class="st1" points="70.5,42.2 70.5,78.7 71.3,79.5 72.8,79.5 73.6,78.7 73.6,42.2 72.8,41.4 71.3,41.4 	"/>
	<polygon class="st1" points="73.6,42.2 73.6,78.7 74.4,79.5 76,79.5 76.8,78.7 76.8,42.2 76,41.4 74.4,41.4 	"/>
	<polygon class="st1" points="76.8,42.2 76.8,78.7 77.6,79.5 79.2,79.5 80,78.7 80,42.2 79.2,41.4 77.6,41.4 	"/>
	<polygon class="st1" points="80,42.2 80,78.7 80.8,79.5 82.4,79.5 83.2,78.7 83.2,42.2 82.4,41.4 80.8,41.4 	"/>
	<polygon class="st1" points="83.2,42.2 83.2,78.7 84,79.5 85.6,79.5 86.3,78.7 86.3,42.2 85.6,41.4 84,41.4 	"/>
	<polygon class="st1" points="86.3,42.2 86.3,78.7 87.1,79.5 88.7,79.5 89.5,78.7 89.5,42.2 88.7,41.4 87.1,41.4 	"/>
	<polygon class="st1" points="89.5,42.2 89.5,78.7 90.3,79.5 91.9,79.5 92.7,78.7 92.7,42.2 91.9,41.4 90.3,41.4 	"/>
	<polygon class="st1" points="92.7,42.2 92.7,78.7 93.5,79.5 95.1,79.5 95.8,78.7 95.9,42.2 95.1,41.4 93.5,41.4 	"/>
</g>
<path class="st1" d="M51.4,42.2c0.5-5.6,3.4-10.7,7.9-13.8c-0.9,0.3-2.4-1.8-1.7-2.7c-6.1,4.3-9.9,11.7-9.3,19.7l0.8-0.8h1.6
	l0.8,0.8v-3L51.4,42.2L51.4,42.2z"/>
<path class="st2" d="M32.3,45.4l0.8-0.8h1.6l0.8,0.8l0.8-0.8h1.6l0.8,0.8l0.8-0.8h1.6l0.8,0.9l0.8-0.9h1.6l0.8,0.8l0.8-0.8h1.6
	l0.8,0.8l0.8-0.8h1.6l0.8,0.8v33.4l-0.8,0.8H49l-0.8-0.8v-3.2l-0.8,0.8h-1.6L45,75.6l-0.8,0.8h-1.6l-0.8-0.8l-0.8,0.8h-1.6l-0.8-0.8
	l-0.8,0.8h-1.6l-0.8-0.8l-0.8,0.8h-1.6l-0.8-0.8V45.4L32.3,45.4z M89.5,42.2l-0.8-0.8h-1.6l-0.8,0.8l-0.8-0.8H84l-0.8,0.8l-0.8-0.8
	h-1.6L80,42.2l-0.8-0.8h-1.6l-0.8,0.8L76,41.4h-1.6l-0.8,0.8l-0.8-0.8h-1.6l-0.8,0.8l-0.8-0.8h-1.6l-0.8,0.8l-0.8-0.8h-1.6l-0.8,0.8
	l-0.8-0.8h-1.6l-0.8,0.8l-0.8-0.8h-1.6l-0.8,0.8L57,41.4h-1.6l-0.8,0.8l-0.8-0.8h-1.6l-0.8,0.8v18.3v18.3l0.8,0.8h1.6l0.8-0.8
	l0.8,0.8H57l0.8-0.8l0.8,0.8h1.6l0.8-0.8l0.8,0.8h1.6l0.8-0.8l0.8,0.8h1.6l0.8-0.8l0.8,0.8h1.6l0.8-0.8l0.8,0.8h1.6l0.8-0.8l0.8,0.8
	H76l0.8-0.8l0.8,0.8h1.6l0.8-0.8l0.8,0.8h1.6l0.8-0.8l0.8,0.8h1.6l0.8-0.8l0.8,0.8h1.6l0.8-0.8l0.8,0.8h1.6l0.8-0.8l0.8,0.8h1.6
	l0.7-0.8l0.1-36.6l-0.8-0.8h-1.6l-0.8,0.8l-0.8-0.8h-1.6L89.5,42.2L89.5,42.2z M32.3,45.4v30.2 M35.5,45.4v30.2 M38.7,45.4v30.2
	 M41.9,45.4v30.2 M45,45.4v30.2 M48.2,45.4v30.2 M54.6,42.2v36.6 M57.8,42.2v36.6 M60.9,42.2v36.6 M64.1,42.2v36.6 M67.3,42.2v36.6
	 M70.5,42.2v36.6 M73.6,42.2v36.6 M76.8,42.2v36.6 M80,42.2v36.6 M83.2,42.2v36.6 M86.3,42.2v36.6 M95.9,42.2v36.6 M89.5,42.2v36.6
	 M92.7,42.2v36.6 M48.2,45.4c-0.6-8,3.2-15.3,9.3-19.7 M51.4,45.1c-0.5-6.8,2.7-13.1,7.9-16.8 M57.5,25.7c0.9-0.3,2.4,1.8,1.7,2.7
	 M59.3,28.3c-0.9,0.3-2.4-1.8-1.7-2.7"/>
<path class="st5" d="M103.8,57.3l0,6.4h1.6c0.9,0,1.6-0.7,1.6-1.6l0-3.2c0-0.9-0.7-1.6-1.6-1.6H103.8L103.8,57.3z M24.4,63.6l0-6.4
	h-1.6c-0.9,0-1.6,0.7-1.6,1.6l0,3.2c0,0.9,0.7,1.6,1.6,1.6H24.4z"/>
</svg>
