<?xml version="1.0" encoding="utf-8"?>
<!-- Generator: Adobe Illustrator 23.0.1, SVG Export Plug-In . SVG Version: 6.00 Build 0)  -->
<svg version="1.1" id="Слой_1" xmlns="http://www.w3.org/2000/svg" xmlns:xlink="http://www.w3.org/1999/xlink" x="0px" y="0px"
	 viewBox="0 0 128.2 128.2" style="enable-background:new 0 0 128.2 128.2;" xml:space="preserve">
<style type="text/css">
	.st0{fill-rule:evenodd;clip-rule:evenodd;fill:#538DCA;}
	
		.st1{fill-rule:evenodd;clip-rule:evenodd;fill:none;stroke:#000003;stroke-width:0.7498;stroke-linecap:round;stroke-linejoin:round;stroke-miterlimit:22.9256;}
	.st2{fill-rule:evenodd;clip-rule:evenodd;fill:none;stroke:#000003;stroke-width:0.7498;stroke-miterlimit:22.9256;}
	.st3{fill-rule:evenodd;clip-rule:evenodd;fill:none;stroke:#000003;stroke-width:1.4998;stroke-miterlimit:22.9256;}
	
		.st4{fill-rule:evenodd;clip-rule:evenodd;fill:none;stroke:#000003;stroke-width:1.4998;stroke-linecap:round;stroke-linejoin:round;stroke-miterlimit:22.9256;}
	.st5{fill-rule:evenodd;clip-rule:evenodd;fill:#2065AF;}
</style>
<path class="st0" d="M29.2,77.8V93c0,1.3,3.5,2.3,7.7,2.3c4.3,0,7.7-1,7.7-2.3l0-15.2c0,1.3-3.5,2.3-7.7,2.3
	C32.6,80.1,29.2,79.1,29.2,77.8z"/>
<line class="st1" x1="32.4" y1="61.3" x2="41.3" y2="61.3"/>
<path class="st2" d="M68.1,103.7c0.6-1.1,2.3-1.8,4.4-1.8c2.1,0,3.9,0.8,4.4,1.8"/>
<path class="st3" d="M72.5,105.4c2.6,0,4.6-1.3,4.6-2.8c0-1.5-2.1-2.8-4.6-2.8c-2.6,0-4.6,1.3-4.6,2.8
	C67.9,104.2,70,105.4,72.5,105.4z"/>
<line class="st1" x1="99" y1="91.3" x2="99" y2="97.4"/>
<path class="st2" d="M87,83.3c0-2.8,3.5-5,7.8-5c4.3,0,7.8,2.3,7.8,5"/>
<path class="st4" d="M89.5,109.7l-14.9,0h-8.5c-3.6,0-5.2-2.9-5.2-6.5c0-3.6,1.6-6.5,5.2-6.5l8.5,0l11.5,0"/>
<path class="st4" d="M89.6,104.6c-1.5-2.3-2.1-4.1-2.6-7.8l0-7.5v-3.5 M102.6,85.9l0,3.5c0,2.8,0,0,0,8.4 M92.8,109
	c-1.1,0.4-2.2,0.7-3.4,0.7"/>
<path class="st4" d="M89.6,111.9l-14.9,0h-8.5c-3.6,0-5.3-3.9-5.3-8.7"/>
<path class="st4" d="M102.6,97.8c-0.2,7.1-5.6,14-13,14.1"/>
<path class="st3" d="M94.8,86.4c4.8,0,8.6-2.5,8.6-5.5c0-3.1-3.9-5.5-8.6-5.5s-8.6,2.5-8.6,5.5C86.1,84,90,86.4,94.8,86.4z"/>
<path class="st3" d="M103.4,83.2c0,3.1-3.9,5.5-8.6,5.5c-4.8,0-8.6-2.5-8.6-5.5"/>
<line class="st4" x1="86.1" y1="80.9" x2="86.1" y2="83.6"/>
<line class="st4" x1="103.4" y1="80.9" x2="103.4" y2="83.6"/>
<path class="st4" d="M32.8,64.1l-0.4-2.7l-7.6-17.2l0-15.6h6.5v12.9 M42.4,41.5c0,3.4-2.5,6.2-5.5,6.2c-3.1,0-5.5-2.8-5.5-6.2
	 M41,64.1l0.4-2.7l7.6-17.2l0-15.6h-6.5v12.9"/>
<path class="st4" d="M31.9,77.4V64.1c0,0.2,2.2,0.4,5,0.4c2.7,0,5-0.2,5-0.4v13.3c0,0.5-2.2,0.9-5,0.9
	C34.1,78.3,31.9,77.9,31.9,77.4z"/>
<path class="st4" d="M42,76.1c1.6,0.4,2.6,1,2.6,1.7c0,1.3-3.5,2.3-7.7,2.3c-4.3,0-7.7-1-7.7-2.3c0-0.7,1.1-1.3,2.8-1.8 M44.6,77.8
	l0,15.2c0,1.3-3.5,2.3-7.7,2.3c-4.3,0-7.7-1-7.7-2.3V77.8"/>
<path class="st5" d="M60.9,52.5H77l0-29.8c0-4.4-3.6-6.4-8-6.4c-4.4,0-8,2-8,6.4L60.9,52.5L60.9,52.5z M68.9,46.1
	c-1.8,0-3.2-1.4-3.2-3.2c0-1.8,1.4-3.2,3.2-3.2c1.8,0,3.2,1.4,3.2,3.2C72.1,44.7,70.7,46.1,68.9,46.1L68.9,46.1z M72.1,26
	c0,1.8-1.4,3.2-3.2,3.2c-1.8,0-3.2-1.4-3.2-3.2c0-1.8,1.4-3.2,3.2-3.2C70.7,22.7,72.1,24.2,72.1,26z"/>
<path class="st0" d="M68.9,65.8c2.3,0,6.8-11.2,8-13.3H60.9C62.1,54.6,66.8,65.8,68.9,65.8z"/>
<path class="st3" d="M74.6,85.6c0,0.9-2.5,1.6-5.6,1.6c-3.1,0-5.6-0.7-5.6-1.6l0-27.4l-2.4-5.6l0-29.8c0-4.4,3.6-6.4,8-6.4
	c4.4,0,8,2,8,6.4l0,29.8l-2.4,5.6V85.6L74.6,85.6z M65.7,42.9c0-1.8,1.4-3.2,3.2-3.2c1.8,0,3.2,1.4,3.2,3.2c0,1.8-1.4,3.2-3.2,3.2
	C67.1,46.1,65.7,44.7,65.7,42.9 M65.7,26c0-1.8,1.4-3.2,3.2-3.2c1.8,0,3.2,1.4,3.2,3.2c0,1.8-1.4,3.2-3.2,3.2
	C67.1,29.2,65.7,27.7,65.7,26"/>
<path class="st1" d="M68.9,65.8c-2.1,0-6.8-11.2-8-13.3H77C75.7,54.6,71.3,65.8,68.9,65.8z"/>
</svg>
