<?xml version="1.0" encoding="utf-8"?>
<!-- Generator: Adobe Illustrator 23.0.1, SVG Export Plug-In . SVG Version: 6.00 Build 0)  -->
<svg version="1.1" id="Слой_1" xmlns="http://www.w3.org/2000/svg" xmlns:xlink="http://www.w3.org/1999/xlink" x="0px" y="0px"
	 viewBox="0 0 128.2 128.2" style="enable-background:new 0 0 128.2 128.2;" xml:space="preserve">
<style type="text/css">
	.st0{fill-rule:evenodd;clip-rule:evenodd;fill:#538DCA;}
	.st1{fill-rule:evenodd;clip-rule:evenodd;fill:none;stroke:#000003;stroke-width:0.7498;stroke-miterlimit:22.9256;}
	
		.st2{fill-rule:evenodd;clip-rule:evenodd;fill:none;stroke:#000003;stroke-width:1.4998;stroke-linecap:round;stroke-linejoin:round;stroke-miterlimit:22.9256;}
	
		.st3{fill-rule:evenodd;clip-rule:evenodd;fill:none;stroke:#000003;stroke-width:0.7498;stroke-linecap:round;stroke-linejoin:round;stroke-miterlimit:22.9256;}
</style>
<polygon class="st0" points="57.8,69.1 83.9,75.3 85.2,88.9 103.3,83.2 103.4,82.1 103.4,80.9 103.5,79.8 103.6,78.6 103.7,77.5 
	103.7,76.3 103.8,75.2 103.9,74 104,72.9 104.2,69.4 74.9,64.8 "/>
<line class="st1" x1="85" y1="87.3" x2="103.4" y2="81.6"/>
<g>
	<path class="st1" d="M85,86c6.2-1.9,12.3-3.7,18.5-5.6"/>
	<path class="st1" d="M84.9,84.7c6.2-1.9,12.4-3.7,18.6-5.6"/>
	<path class="st1" d="M84.9,83.4c6.3-1.8,12.5-3.7,18.8-5.5"/>
	<path class="st1" d="M84.8,82.1c6.3-1.8,12.6-3.7,18.9-5.5"/>
	<path class="st1" d="M84.7,80.9c6.4-1.8,12.7-3.7,19.1-5.5"/>
	<path class="st1" d="M84.7,79.6c6.4-1.8,12.8-3.6,19.2-5.5"/>
</g>
<line class="st1" x1="84.6" y1="78.3" x2="104" y2="72.9"/>
<polyline class="st2" points="42.2,69.3 74.6,62.3 109.4,67.9 "/>
<line class="st2" x1="78.1" y1="105.2" x2="77.9" y2="76.7"/>
<line class="st3" x1="74" y1="67.6" x2="74.2" y2="67.7"/>
<line class="st3" x1="70.6" y1="69" x2="70.9" y2="69"/>
<line class="st3" x1="75" y1="70.6" x2="75.2" y2="70.6"/>
<line class="st3" x1="78.9" y1="67.7" x2="79.1" y2="67.8"/>
<line class="st3" x1="89.1" y1="73.1" x2="89.4" y2="73.2"/>
<line class="st3" x1="93.5" y1="71" x2="93.8" y2="71.1"/>
<line class="st3" x1="84.5" y1="68.7" x2="84.7" y2="68.7"/>
<line class="st3" x1="81.1" y1="72.7" x2="81.4" y2="72.8"/>
<line class="st3" x1="65.6" y1="69.4" x2="65.9" y2="69.5"/>
<line class="st3" x1="79.8" y1="69.9" x2="80.1" y2="70"/>
<line class="st3" x1="85.5" y1="75.8" x2="85.8" y2="75.9"/>
<line class="st3" x1="93.6" y1="74.1" x2="93.9" y2="74.2"/>
<line class="st3" x1="89.5" y1="69.7" x2="89.7" y2="69.8"/>
<line class="st3" x1="98.5" y1="71.5" x2="98.8" y2="71.5"/>
<line class="st3" x1="85.6" y1="71.3" x2="85.9" y2="71.4"/>
<path class="st2" d="M61.8,21.6v43.2 M26.9,88.1V21.6 M44.3,20.4c9.6,0,17.5,0.5,17.5,1.1c0,0.6-7.8,1.1-17.5,1.1
	c-9.6,0-17.5-0.5-17.5-1.1C26.9,21,34.7,20.4,44.3,20.4z"/>
<path class="st2" d="M26.9,21.6C37.2,26,45,41.9,49.4,57.3 M26.9,21.6c4.7,2.8,11.3,11.8,9.5,26.1c10.3-0.4,14.1,8.9,15.1,19.4
	 M42.9,92.8c-6.4-0.9-14.2-2.4-16.1-4.7"/>
<line class="st3" x1="48.9" y1="39.9" x2="48.9" y2="40.4"/>
<line class="st3" x1="58.3" y1="30.7" x2="58.3" y2="31.2"/>
<line class="st3" x1="54.1" y1="34.7" x2="54.1" y2="35.1"/>
<line class="st3" x1="53.2" y1="28.7" x2="53.2" y2="29.1"/>
<line class="st3" x1="48.8" y1="32.5" x2="48.8" y2="32.9"/>
<line class="st3" x1="44.6" y1="36.9" x2="44.6" y2="37.4"/>
<line class="st3" x1="57.3" y1="24.2" x2="57.3" y2="24.7"/>
<line class="st3" x1="29.2" y1="28" x2="29.2" y2="28.5"/>
<line class="st3" x1="47.7" y1="26.9" x2="47.7" y2="27.3"/>
<line class="st3" x1="42.3" y1="31.4" x2="42.3" y2="31.9"/>
<line class="st3" x1="58.9" y1="38.8" x2="58.9" y2="39.2"/>
<line class="st3" x1="53.8" y1="42.6" x2="53.8" y2="43"/>
<line class="st3" x1="49.6" y1="47" x2="49.6" y2="47.5"/>
<line class="st3" x1="58" y1="46.2" x2="58" y2="46.6"/>
<line class="st3" x1="54.2" y1="50.4" x2="54.2" y2="50.8"/>
<line class="st3" x1="50.9" y1="54.7" x2="50.9" y2="55.2"/>
<line class="st3" x1="59.6" y1="53.5" x2="59.6" y2="54"/>
<line class="st3" x1="54.6" y1="58.1" x2="54.6" y2="58.5"/>
<line class="st3" x1="58.8" y1="60.5" x2="58.8" y2="60.9"/>
<line class="st3" x1="54.4" y1="64.3" x2="54.4" y2="64.7"/>
<line class="st3" x1="42" y1="26.1" x2="42" y2="26.6"/>
<line class="st3" x1="36.7" y1="24.6" x2="36.7" y2="25.1"/>
<line class="st3" x1="31.7" y1="34.1" x2="31.7" y2="34.6"/>
<line class="st3" x1="28.9" y1="40" x2="28.9" y2="40.4"/>
<line class="st3" x1="34.3" y1="41.5" x2="34.3" y2="41.9"/>
<line class="st3" x1="29.9" y1="47.3" x2="29.9" y2="47.7"/>
<line class="st3" x1="36.5" y1="50.7" x2="36.5" y2="51.2"/>
<line class="st3" x1="29.6" y1="55.6" x2="29.6" y2="56.1"/>
<line class="st3" x1="43" y1="55" x2="43" y2="55.4"/>
<line class="st3" x1="35.3" y1="59.2" x2="35.3" y2="59.7"/>
<line class="st3" x1="30" y1="65.3" x2="30" y2="65.8"/>
<line class="st3" x1="46.4" y1="63.1" x2="46.4" y2="63.5"/>
<line class="st3" x1="39.1" y1="65.7" x2="39.1" y2="66.1"/>
<line class="st3" x1="32.6" y1="73.3" x2="32.6" y2="73.8"/>
<line class="st3" x1="38.4" y1="75.9" x2="38.4" y2="76.4"/>
<line class="st3" x1="29.2" y1="79.3" x2="29.2" y2="79.7"/>
<line class="st3" x1="40" y1="84.7" x2="40" y2="85.2"/>
<line class="st3" x1="33.3" y1="85.3" x2="33.3" y2="85.8"/>
<path class="st2" d="M57.9,102.5c-1.8,0.8-3.7,1.5-5.7,2.3c-3.7,1.5-7.6,3.1-11.6,4.8c-5.4-1.5-10.7-3-16-4.4
	c-5.3-1.5-10.5-2.9-15.7-4.4c1.4-1,2.6-1.9,3.6-2.2c2-0.6,4.2-1.1,6.4-1.5"/>
<path class="st2" d="M63.5,101.2c-2.8,0.6-5.7,1.2-8.5,1.8c-5,1-9.4,1.6-14.6,2.7c-0.8,0.2-2.4,0.8-3.2,1c-4-2.1-7.9-4.2-11.6-6.1
	c-3.6-1.9-7-3.7-10.3-5.5c0.9-0.4,4.5-1.1,5.7-1.2c4.5-0.8,10.4-1.5,14.7-2.2"/>
<polyline class="st2" points="83.9,75.3 57.8,69.1 74.9,64.8 104.2,69.4 "/>
<polygon class="st2" points="42.2,69.3 43.2,95.5 78.1,105.2 108.6,94.5 109.4,67.9 104.2,69.4 103.3,83.2 85.2,88.9 83.9,75.3 
	77.9,76.7 "/>
<line class="st3" x1="33.4" y1="94.7" x2="34" y2="95"/>
<line class="st3" x1="26.5" y1="94.9" x2="27" y2="95.2"/>
<line class="st3" x1="33.6" y1="100.2" x2="34.1" y2="100.5"/>
<line class="st3" x1="42.2" y1="98.5" x2="42.7" y2="98.8"/>
<line class="st3" x1="36.9" y1="97.4" x2="37.4" y2="97.7"/>
<line class="st3" x1="39.7" y1="102.4" x2="40.2" y2="102.7"/>
<line class="st3" x1="51" y1="100.3" x2="51.5" y2="100.6"/>
<line class="st3" x1="45.4" y1="102.3" x2="45.9" y2="102.6"/>
<line class="st3" x1="27" y1="98.2" x2="27.5" y2="98.5"/>
<line class="st3" x1="20.4" y1="95.4" x2="20.9" y2="95.7"/>
<line class="st3" x1="38.4" y1="93.9" x2="38.9" y2="94.2"/>
<line class="st3" x1="17" y1="99.7" x2="17.5" y2="100"/>
<line class="st3" x1="23.9" y1="102.1" x2="24.4" y2="102.4"/>
</svg>
