<?xml version="1.0" encoding="utf-8"?>
<!-- Generator: Adobe Illustrator 23.0.1, SVG Export Plug-In . SVG Version: 6.00 Build 0)  -->
<svg version="1.1" id="Слой_1" xmlns="http://www.w3.org/2000/svg" xmlns:xlink="http://www.w3.org/1999/xlink" x="0px" y="0px"
	 viewBox="0 0 128.2 128.2" style="enable-background:new 0 0 128.2 128.2;" xml:space="preserve">
<style type="text/css">
	.st0{fill-rule:evenodd;clip-rule:evenodd;fill:#2065AF;}
	.st1{fill-rule:evenodd;clip-rule:evenodd;fill:#538DCA;}
	
		.st2{fill-rule:evenodd;clip-rule:evenodd;fill:none;stroke:#000003;stroke-width:0.7498;stroke-linecap:round;stroke-linejoin:round;stroke-miterlimit:22.9256;}
	
		.st3{fill-rule:evenodd;clip-rule:evenodd;fill:none;stroke:#000003;stroke-width:1.4998;stroke-linecap:round;stroke-linejoin:round;stroke-miterlimit:22.9256;}
	.st4{fill-rule:evenodd;clip-rule:evenodd;fill:none;stroke:#000003;stroke-width:0.7498;stroke-miterlimit:22.9256;}
	.st5{fill-rule:evenodd;clip-rule:evenodd;fill:#2065AF;stroke:#000003;stroke-width:0.5669;stroke-miterlimit:22.9256;}
</style>
<g>
	<path class="st0" d="M15.3,87.8c0.1-7.8,2.6-15.9,4.2-23.6l-9.1-0.5c3.8,0.8,4.6,3.7,4.1,7.2c-1.3,8.9-5,17.3,3.4,34.2
		C16.1,99.4,15.2,93.8,15.3,87.8L15.3,87.8z M30.2,70.9c-0.5-3.4,0.3-6.4,4.1-7.2l-9.1,0.5c1.6,7.7,4.1,15.8,4.2,23.6
		c0,6-0.9,11.6-2.6,17.3C35.2,88.1,31.5,79.8,30.2,70.9z"/>
	<path class="st1" d="M25.2,49.8c0-1.6-1.3-2.9-2.9-2.9c-1.6,0-2.9,1.3-2.9,2.9c0,1.6,1.3,2.9,2.9,2.9
		C23.9,52.7,25.2,51.4,25.2,49.8L25.2,49.8z M32.7,104.7c0.7-2,1.3-4.2,1.8-6.3c0.6-2.3,1.4-5.6,1.6-10.4
		c0.5-10.7-5.2-20.7-1.8-24.4c-3.8,0.8-4.6,3.7-4.1,7.2c1.3,8.9,5,17.3-3.4,34.2c-0.5,1.7-1.6,4,0.8,4
		C30.9,109.1,32,106.6,32.7,104.7L32.7,104.7z M17.9,105.1c-8.5-16.9-4.7-25.3-3.4-34.2c0.5-3.4-0.3-6.4-4.1-7.2
		c3.4,3.6-2.3,13.6-1.8,24.4c0.2,4.7,1,8.1,1.6,10.4c0.5,2.1,1.1,4.2,1.8,6.3c0.7,1.9,1.8,4.4,5.1,4.4
		C19.5,109.1,18.4,106.7,17.9,105.1L17.9,105.1z M19.9,62.1c0.3,0.1,0.5,0.1,0.4,0.4c-0.5,1.4,0-0.1-0.5,1.6
		c-0.1,0.2-0.2,0.1-0.3,0.1l-9.1-0.5c0,0,0,0,0,0C10,63.3,9.1,62.8,9,62.3c-0.1-0.7,0-2.2,1.1-2c2.6-0.2,2.9-1.7,2.9-3.9
		c0-0.2,0.2-0.4,0.6-0.3l2.1,0.5v0l4.8,1.2c0.3,0.1,0.3,0.5,0.3,0.5L19.9,62.1L19.9,62.1z M34.6,60.4c1-0.2,1.2,1.3,1.1,2
		c-0.1,0.5-1,1-1.4,1.3c0,0,0,0,0,0l-9.1,0.5c-0.1,0-0.3,0-0.3-0.1c-0.6-1.7-0.1-0.2-0.5-1.6c-0.1-0.2,0.1-0.3,0.4-0.4l-0.8-3.6
		c0-0.1,0-0.4,0.3-0.5l0.2,0l4.6-1.1v0l2.1-0.5c0.5-0.1,0.7,0.1,0.6,0.3C31.7,58.6,32,60.2,34.6,60.4z"/>
	<path class="st2" d="M21.4,56c-0.6,0.2-1,1.1-1,1.9l-4.8-1.2c0-1.2,0-3,0-4c0.3,0,1-0.1,1-0.5 M10.4,63.7c3.8,0.8,4.6,3.7,4.1,7.2
		c-1.3,8.9-5,17.3,3.4,34.2 M24.2,24l4.3,19.9l1.4,3 M23.8,34.5l0.4,9.3 M10.4,63.7l9.1,0.5 M19.5,49.8c0-1.6,1.3-2.9,2.9-2.9
		c1.6,0,2.9,1.3,2.9,2.9c0,1.6-1.3,2.9-2.9,2.9C20.7,52.7,19.5,51.4,19.5,49.8 M20.9,34.2l-0.5,9.7c0.4,0,1.4-0.3,1.9-0.3 M20.4,24
		l-4.3,19.9l-1.4,3 M34.3,63.7l-9.1,0.5 M34.3,63.7c-3.8,0.8-4.6,3.7-4.1,7.2c1.3,8.9,5,17.3-3.4,34.2"/>
	<path class="st3" d="M28.4,48.5c0-0.9,0.6-1.6,1.6-1.6v-6.7L24.2,24h-1.9v6.7c1.9,1.9,1.9,5.7,0,7.6v5.3 M10,60.4l9.9,1.7
		 M17.9,105.1c0.5,1.7,1.6,4-0.8,4c-3.4,0-4.4-2.4-5.1-4.4c-0.7-2-1.3-4.2-1.8-6.3c-0.6-2.3-1.4-5.6-1.6-10.4
		C8,77.3,13.8,67.2,10.3,63.6C10,63.3,9.1,62.8,9,62.3c-0.1-0.7,0-2.2,1.1-2c2.6-0.2,2.9-1.7,2.9-3.9c0-0.2,0.2-0.4,0.6-0.3
		c6.9,1.7,0,0,6.9,1.7c0.3,0.1,0.3,0.5,0.3,0.5l-0.8,3.6c0.3,0.1,0.5,0.1,0.4,0.4c-0.5,1.4,0-0.1-0.5,1.6c-0.1,0.2-0.2,0.1-0.3,0.1
		c-1.6,7.7-4.1,15.8-4.2,23.6C15.2,93.8,16.1,99.4,17.9,105.1L17.9,105.1z M22.3,43.6c3.4,0,6.2,2.8,6.2,6.2c0,0.8-0.2,1.7-0.5,2.4
		c0,0.3,0.7,0.5,1,0.5c0,1,0,2.8,0,4l-4.8,1.2c0-0.8-0.4-1.8-1-1.9c-0.3,0-0.6,0.1-1,0.1c-3.4,0-6.2-2.8-6.2-6.2
		c0-0.4,0-0.9,0.1-1.3c0-0.9-0.6-1.6-1.6-1.6v-6.7L20.4,24h1.9v6.7c-1.9,1.9-1.9,5.7,0,7.6V43.6L22.3,43.6z M34.6,60.4l-9.9,1.7
		 M26.8,105.1c-0.5,1.7-1.6,4,0.8,4c3.4,0,4.4-2.4,5.1-4.4c0.7-2,1.3-4.2,1.8-6.3c0.6-2.3,1.4-5.6,1.6-10.4
		c0.5-10.8-5.3-20.8-1.8-24.4c0.3-0.3,1.3-0.8,1.4-1.3c0.1-0.7,0-2.2-1.1-2c-2.6-0.2-2.9-1.7-2.9-3.9c0-0.2-0.2-0.4-0.6-0.3
		c-6.9,1.7,0,0-6.9,1.7c-0.3,0.1-0.3,0.5-0.3,0.5l0.8,3.6c-0.3,0.1-0.5,0.1-0.4,0.4c0.5,1.4,0-0.1,0.5,1.6c0.1,0.2,0.2,0.1,0.3,0.1
		c1.6,7.7,4.1,15.8,4.2,23.6C29.4,93.8,28.5,99.4,26.8,105.1z"/>
</g>
<g>
	<path class="st1" d="M119.7,91.4c0.3-4.1-2.7-14.7-3.9-19.5c0.3-2.4,0.2-4.3,1.9-6c0.2-0.2,0.3-0.6,0.4-1l-4.7,0.4
		c-0.4,0.5-1.1,0.8-1.8,0.8c-0.7,0-1.3-0.3-1.8-0.8l-4.7-0.4c0,0.4,0.1,0.7,0.4,1c1.8,1.7,1.6,3.6,1.9,6c-1.3,4.8-4.2,15.4-3.9,19.5
		c0.2,3.3,1.5,10.7,2,12.5c0,0.1,0.1,0.2,0.1,0.3c1.6,0.2,3.7,0.3,6.1,0.3c2.4,0,4.5-0.1,6.1-0.3c0-0.1,0.1-0.2,0.1-0.3
		C118.2,102.1,119.5,94.8,119.7,91.4L119.7,91.4z M111.5,96.2c1.3,0,2.4,1.1,2.4,2.4s-1.1,2.4-2.4,2.4s-2.4-1.1-2.4-2.4
		S110.2,96.2,111.5,96.2z"/>
	<line class="st3" x1="109.6" y1="61.2" x2="109.6" y2="36.2"/>
	<polyline class="st3" points="107.4,63.2 107.6,61.3 111.5,61.2 	"/>
	<path class="st3" d="M111.5,36.1c-1.2,0-2.4,0.1-2.7,0.1"/>
	<line class="st3" x1="113.5" y1="61.2" x2="113.5" y2="36.2"/>
	<path class="st3" d="M111.5,36.1c1.2,0,2.4,0.1,2.7,0.1"/>
	<polyline class="st3" points="115.6,63.2 115.5,61.3 111.5,61.2 	"/>
	<line class="st3" x1="108.9" y1="36.2" x2="108.9" y2="19.4"/>
	<path class="st3" d="M111.5,19.2c-1.2,0-2.4,0.1-2.6,0.3"/>
	<line class="st3" x1="114.2" y1="36.2" x2="114.2" y2="19.4"/>
	<path class="st3" d="M111.5,19.2c1.2,0,2.4,0.1,2.6,0.3"/>
	<path class="st4" d="M111.5,100.9c1.3,0,2.4-1.1,2.4-2.4c0-1.3-1.1-2.4-2.4-2.4c-1.3,0-2.4,1.1-2.4,2.4
		C109.2,99.8,110.2,100.9,111.5,100.9z"/>
	<path class="st2" d="M111.5,66.2c-0.7,0-1.3-0.3-1.8-0.8"/>
	<line class="st2" x1="105" y1="65" x2="109.8" y2="65.4"/>
	<path class="st2" d="M111.5,66.2c0.7,0,1.3-0.3,1.8-0.8"/>
	<line class="st2" x1="118" y1="65" x2="113.3" y2="65.4"/>
	<path class="st2" d="M111.5,104.6c-2.5,0-4.8-0.1-6.3-0.3"/>
	<path class="st2" d="M111.5,104.6c2.5,0,4.8-0.1,6.3-0.3"/>
	<path class="st3" d="M111.5,109.1c-3.9-0.6-5.1-2.2-6.2-5.1c-0.5-1.8-1.8-9.2-2-12.5c-0.3-4.1,2.7-14.7,3.9-19.5
		c-0.3-2.4-0.2-4.3-1.9-6c-0.4-0.4-0.4-1.3-0.3-1.8c0.2-0.9,5.5-0.9,6.4-1"/>
	<path class="st3" d="M111.5,109.1c3.9-0.6,5.1-2.2,6.2-5.1c0.5-1.8,1.8-9.2,2-12.5c0.3-4.1-2.7-14.7-3.9-19.5
		c0.3-2.4,0.2-4.3,1.9-6c0.4-0.4,0.4-1.3,0.3-1.8c-0.2-0.9-5.5-0.9-6.4-1"/>
</g>
<g>
	<path class="st1" d="M78.6,66c-1,1.9-3.4,2.5-5.3,1.5l-12.5-7c-1.9-1-2.5-3.4-1.5-5.3c1-1.9,3.4-2.5,5.3-1.5l12.5,7
		C79,61.8,79.7,64.2,78.6,66L78.6,66z M63.5,48.5c-5.9-0.5-7.8,4.4-9.2,4.5c-0.6-0.3-1.2-0.7-1.9-1c-2.4-1.3-5.2-3-8.2-4.9
		c-0.7-0.5,0.4-1.4-0.2-2c-0.8-0.5-2.5-1.6-4-2.2c-0.9,0.2-1.3,4.4-0.1,5c3.4,3.3,8.7,8.1,13,12c0.7,0.6,1.3,1.2,1.9,1.7
		c4.7,3.5,9.9,5.3,14.9,8.5c1.2,0.8,3,2.2,4.8,3.9c1.9,1.8,3.8,3.7,4.7,5c6.9,8.6,9.2,22.4,12.1,26.5c3.2,5.7,9,2.1,9.1,0.3
		c-3.1-5-6.4-15.9-6.9-17.7C90.9,78.9,84,70,85.2,66.3c0.4-1.2,1.6-3.4,3.6-5.3c0.6-0.6,0-1.4-0.4-1.5c-2.8-1-5.1-1.7-8.5-3
		c0.1-0.1,0.8-0.7,1-0.8c-3.3-1.7-7.9-4.3-11.8-6.5c-0.6-0.3,1.3,0.7,1.1,1.2C69.9,50.9,66.3,48.9,63.5,48.5z"/>
	<path class="st3" d="M52.9,60c-0.2,0-1,0.4-1.1,0.6c-1.3,4.3,8.1,13.2,1.4,15.9c-0.7,0.3-2.9,0.1-3.1,2.2c-0.1,1,1.4,2.2,2.1,3.6
		c0.4,0.6,0.4,1.4,0.4,1.9c-0.8,7.6-1.4,16-7,20.4c-1.5,3.6,6.3,6.8,8.9,2.2c5.4-10.3,6.8-22.4,9.5-29.5c1.3-4.1,6.4-5.1,10.2-3.2"
		/>
	<path class="st2" d="M80.9,55.6c2.5,0.9,6.8,2,8.7,2.5c1.1,0.3,0.5,3-0.7,2.9"/>
	<path class="st3" d="M48.8,42.8c0.5-1.2,2-2.3,2.3-2.1c1.1,0.9,1.9,1.8,2.7,2.5c0.2,0.1-4.2,6.1-5,5.6c-0.8-0.5,1.1-3,1.7-4
		C49.6,44.1,48.7,43.1,48.8,42.8z"/>
	<path class="st3" d="M50.6,44.9c0.4,0.4,1,0.9,1.3,1.2"/>
	<path class="st2" d="M45.5,37.9c0,0-0.9,1.8-0.8,1.9c0.3,0.3,1,0.9,1.4,1.2c0.1,0.1,1-1.5,1-1.5"/>
	<path class="st2" d="M56.9,48.8c-0.5,0.5-1.5,1.5-2.1,2.1"/>
	<path class="st2" d="M55.9,51.6c-0.3-0.3-1.5-0.9-1.7-0.9c-0.4,0.1-1.7,1.3-1.8,1.3"/>
	<path class="st3" d="M88.4,59.5c0.5,0.2,1,0.9,0.4,1.5c-1.9,1.9-3.2,4.1-3.6,5.3C84,70,90.9,78.9,93.5,88.1
		c0.5,1.8,3.8,12.7,6.9,17.7c-0.1,1.8-5.9,5.4-9.1-0.3c-2.9-4.1-5.1-17.9-12.1-26.5c-1.7-2.4-7-7.2-9.5-8.8c-5-3.2-10.1-5-14.9-8.5
		c-4.5-4.1-11-9.9-14.9-13.7c-1.3-0.7-0.9-4.8,0.1-5c1.5,0.6,3.1,1.7,4,2.2c0.6,0.6-0.4,1.5,0.2,2c3.9,2.4,7.3,4.5,10.1,5.9
		c1.4-0.1,3.3-5,9.2-4.5c2.8,0.4,6.5,2.4,6.7,1.8c0.2-0.5-1.7-1.4-1.1-1.2c3.9,2.2,8.6,4.7,11.8,6.5c-0.2,0.2-0.9,0.7-1,0.8
		C83.2,57.8,85.6,58.5,88.4,59.5z"/>
	<path class="st3" d="M49.1,41.4c-2.3-2.2-3.6-3.5-4.1-4.1c-0.5-1.3,1.5-1.6,1.9-2.1c0.8-1,1.8-1.7,3.1-1.2
		c2.4,1.8,14.5,11.2,19,15.1 M57.8,49.8c-0.7-0.7-2.3-2.2-5-4.8"/>
	<path class="st5" d="M78.6,66L78.6,66L78.6,66z M60.8,60.5l12.5,7c1.9,1,4.2,0.4,5.3-1.5c1-1.9,0.4-4.2-1.5-5.3l-12.5-7
		c-1.9-1-4.2-0.4-5.3,1.5C58.3,57.1,59,59.5,60.8,60.5z"/>
</g>
</svg>
