<?xml version="1.0" encoding="utf-8"?>
<!-- Generator: Adobe Illustrator 23.0.1, SVG Export Plug-In . SVG Version: 6.00 Build 0)  -->
<svg version="1.1" id="Слой_1" xmlns="http://www.w3.org/2000/svg" xmlns:xlink="http://www.w3.org/1999/xlink" x="0px" y="0px"
	 viewBox="0 0 128.2 128.2" style="enable-background:new 0 0 128.2 128.2;" xml:space="preserve">
<style type="text/css">
	
		.st0{fill-rule:evenodd;clip-rule:evenodd;fill:#E53912;stroke:#000003;stroke-width:1.4998;stroke-linecap:round;stroke-linejoin:round;stroke-miterlimit:22.9256;}
	.st1{fill-rule:evenodd;clip-rule:evenodd;fill:#000003;}
	.st2{fill-rule:evenodd;clip-rule:evenodd;fill:#FFFFFF;stroke:#000003;stroke-width:1.4998;stroke-miterlimit:22.9256;}
	.st3{fill-rule:evenodd;clip-rule:evenodd;fill:#4BB489;stroke:#000003;stroke-width:0.216;stroke-miterlimit:22.9256;}
	.st4{fill-rule:evenodd;clip-rule:evenodd;fill:#E53912;stroke:#000003;stroke-width:0.5669;stroke-miterlimit:22.9256;}
	.st5{fill-rule:evenodd;clip-rule:evenodd;fill:#E5390D;stroke:#000003;stroke-width:1.4998;stroke-miterlimit:22.9256;}
	.st6{fill-rule:evenodd;clip-rule:evenodd;fill:#FFFFFF;}
	.st7{fill-rule:evenodd;clip-rule:evenodd;fill:none;stroke:#000003;stroke-width:0.7498;stroke-miterlimit:22.9256;}
	.st8{fill-rule:evenodd;clip-rule:evenodd;fill:none;stroke:#000003;stroke-width:1.4998;stroke-miterlimit:22.9256;}
	
		.st9{fill-rule:evenodd;clip-rule:evenodd;fill:none;stroke:#1A1A18;stroke-width:1.4998;stroke-linecap:round;stroke-miterlimit:22.9256;}
</style>
<g>
	<polygon class="st0" points="57.9,70.9 115.1,70.9 86.5,20.3 	"/>
	<path class="st1" d="M82.5,54.1c0-1.4,0.8-2.7,1.9-3.4L80,42.9c-3.8,2.2-6.4,6.4-6.4,11.1H82.5L82.5,54.1z M92.9,65.2l-4.5-7.7
		c-0.6,0.3-1.2,0.5-2,0.5c-0.7,0-1.3-0.2-1.9-0.5l-4.5,7.7c1.9,1.1,4,1.7,6.3,1.7C88.8,66.9,91,66.3,92.9,65.2L92.9,65.2z
		 M90.4,54.1h8.9c0-4.7-2.6-8.9-6.4-11.1l-4.5,7.7C89.7,51.4,90.4,52.6,90.4,54.1z"/>
	<circle class="st1" cx="86.5" cy="54.1" r="2.1"/>
</g>
<g>
	<rect x="13.2" y="23.2" class="st2" width="44.2" height="44.2"/>
	<path class="st3" d="M16.4,26.5v37.6h37.6V26.5H16.4L16.4,26.5z M30.3,50.3h-9.6v-10h9.6v-9.6h10v9.6h9.6v10h-9.6v9.6h-10V50.3z"/>
	<rect x="16.4" y="26.5" class="st4" width="37.6" height="37.6"/>
	<polygon class="st2" points="30.3,30.7 40.2,30.7 40.2,40.3 49.8,40.3 49.8,50.3 40.2,50.3 40.2,59.9 30.3,59.9 30.3,50.3 
		20.7,50.3 20.7,40.3 30.3,40.3 	"/>
</g>
<ellipse transform="matrix(0.9796 -0.2011 0.2011 0.9796 -14.5584 13.4844)" class="st5" cx="59.1" cy="78.4" rx="29.5" ry="29.5"/>
<g>
	<path class="st6" d="M43.7,59.4l34.5,34.5c3.4-4.2,5.5-9.6,5.5-15.4c0-13.5-11-24.5-24.5-24.5C53.2,53.9,47.9,56,43.7,59.4
		L43.7,59.4z M46.3,69.2l3.1,3.1l25.1,25.1c-4.2,3.4-9.6,5.5-15.4,5.5c-13.5,0-24.5-11-24.5-24.5c0-5.9,2.1-11.2,5.5-15.4L46.3,69.2
		z"/>
	<path class="st7" d="M43.7,59.4l34.5,34.5c3.4-4.2,5.5-9.6,5.5-15.4c0-13.5-11-24.5-24.5-24.5C53.2,53.9,47.9,56,43.7,59.4
		L43.7,59.4z M46.3,69.2L40.1,63c-3.4,4.2-5.5,9.6-5.5,15.4c0,13.5,11,24.5,24.5,24.5c5.9,0,11.2-2.1,15.4-5.5L49.4,72.3"/>
</g>
<path class="st1" d="M60.2,83.1l-6.7,6.7L49.8,86l6.6-6.6L60.2,83.1L60.2,83.1z M60.1,75.8l3.7,3.7l11.9-11.9L72,63.9L60.1,75.8z"/>
<line class="st8" x1="46.5" y1="89.4" x2="50.2" y2="93.1"/>
<line class="st8" x1="48.4" y1="87.4" x2="52.2" y2="91.1"/>
<path class="st8" d="M47.3,86.2c-3-3-3-7.8,0-10.8"/>
<path class="st9" d="M47.3,64.7c3,3,3,7.8,0,10.8"/>
<path class="st9" d="M45.3,66.8c1.9,1.9,1.9,5,0,6.9"/>
<path class="st8" d="M45.3,88.2c-4-4-4-10.5,0-14.5"/>
</svg>
