<?xml version="1.0" encoding="utf-8"?>
<!-- Generator: Adobe Illustrator 23.0.1, SVG Export Plug-In . SVG Version: 6.00 Build 0)  -->
<svg version="1.1" id="Слой_1" xmlns="http://www.w3.org/2000/svg" xmlns:xlink="http://www.w3.org/1999/xlink" x="0px" y="0px"
	 viewBox="0 0 128.2 128.2" style="enable-background:new 0 0 128.2 128.2;" xml:space="preserve">
<style type="text/css">
	.st0{fill-rule:evenodd;clip-rule:evenodd;fill:#538DCA;}
	
		.st1{fill-rule:evenodd;clip-rule:evenodd;fill:none;stroke:#000000;stroke-width:0.7498;stroke-linecap:round;stroke-linejoin:round;stroke-miterlimit:22.9256;}
	
		.st2{fill-rule:evenodd;clip-rule:evenodd;fill:none;stroke:#1A1A18;stroke-width:1.4998;stroke-linecap:round;stroke-linejoin:round;stroke-miterlimit:22.9256;}
	
		.st3{fill-rule:evenodd;clip-rule:evenodd;fill:none;stroke:#000003;stroke-width:1.4998;stroke-linecap:round;stroke-linejoin:round;stroke-miterlimit:22.9256;}
	
		.st4{fill-rule:evenodd;clip-rule:evenodd;fill:none;stroke:#000000;stroke-width:0.7498;stroke-linecap:round;stroke-miterlimit:22.9256;}
</style>
<path class="st0" d="M83.6,55.6l0,52.8l0,0c0,0.7,3.1,1.2,6.9,1.2c3.8,0,6.9-0.6,6.9-1.2V55.6c0,0.2-3.1,0.4-6.9,0.4
	C86.6,56,83.6,55.9,83.6,55.6z"/>
<path class="st0" d="M70.6,109V56.3c-0.1,0.2-3.2,0.4-6.9,0.4c-3.8,0-6.9-0.2-6.9-0.4l0,52.7l0,0c0,0.5,3.1,0.9,6.9,0.9
	C67.4,109.9,70.4,109.5,70.6,109z"/>
<path class="st0" d="M44.8,94.8v-20c-5.8,0.2-5.8,0.2-11.6,0v20l0.1,0.1C34.1,95.5,43.9,95.5,44.8,94.8L44.8,94.8z"/>
<path class="st1" d="M97.3,55.6c0,0.2-3.1,0.4-6.9,0.4c-3.8,0-6.9-0.2-6.9-0.4"/>
<path class="st1" d="M97.3,108.4c0,0.7-3.1,1.2-6.9,1.2c-3.8,0-6.9-0.6-6.9-1.2"/>
<line class="st1" x1="92.7" y1="37.5" x2="88.2" y2="37.5"/>
<path class="st2" d="M56.8,111c0,0.7,3.1,1.2,6.9,1.2c3.8,0,6.9-0.5,6.9-1.2"/>
<path class="st2" d="M56.8,52.9v-3.7c0-2,1-3.7,2.7-4.4c0.9-0.4,1.7-0.4,1.8-1.7"/>
<path class="st2" d="M64.8,38.6c0.7,0.4,1.2,1.1,1.2,2v2.5 M61.4,43.1v-2.5c0-0.8,0.5-1.6,1.1-2"/>
<path class="st2" d="M70.6,52.9v-3.7c0-2-1-3.7-2.7-4.4c-0.9-0.4-1.7-0.4-1.8-1.7"/>
<g>
	<path class="st1" d="M58.4,48c0,1.2,0,2.4,0,3.5"/>
	<path class="st1" d="M59.9,48c0,1.2,0,2.4,0,3.5"/>
	<path class="st1" d="M61.4,48c0,1.2,0,2.4,0,3.5"/>
	<path class="st1" d="M62.9,48c0,1.2,0,2.4,0,3.5"/>
	<path class="st1" d="M64.5,48c0,1.2,0,2.4,0,3.5"/>
	<path class="st1" d="M66,48c0,1.2,0,2.4,0,3.5"/>
	<path class="st1" d="M67.5,48c0,1.2,0,2.4,0,3.5"/>
	<path class="st1" d="M69,48c0,1.2,0,2.4,0,3.5"/>
</g>
<line class="st1" x1="64.9" y1="31.6" x2="62.3" y2="31.6"/>
<line class="st1" x1="64.9" y1="30" x2="62.3" y2="30"/>
<line class="st1" x1="65.1" y1="35" x2="62.5" y2="35"/>
<path class="st1" d="M70.6,56.3c0,0.2-3.1,0.4-6.9,0.4c-3.8,0-6.9-0.2-6.9-0.4"/>
<path class="st3" d="M70.6,52.9c0,0.2-3.1,0.3-6.9,0.3c-3.8,0-6.9-0.1-6.9-0.3"/>
<path class="st2" d="M56.8,56.3v-3.4 M70.6,52.9v3.4"/>
<polyline class="st2" points="62.3,38.8 62.3,33.5 65.1,33.5 65.1,38.8 "/>
<path class="st2" d="M63.7,33.5h-1.9l0.7-8.2c0-0.4,0.7-0.7,1.2-0.7"/>
<path class="st2" d="M63.7,33.5h1.9l-0.7-8.2c0-0.4-0.7-0.7-1.2-0.7"/>
<path class="st1" d="M70.6,108.9c0,0.5-3.1,0.9-6.9,0.9c-3.8,0-6.9-0.4-6.9-0.9"/>
<path class="st2" d="M56.8,111V56.3 M70.6,56.3V111"/>
<path class="st4" d="M43.2,63.1c0,3.2-1.9,5.9-4.3,5.9c-2.4,0-4.3-2.6-4.3-5.9"/>
<path class="st1" d="M44.8,74.9c0,0.1-2.6,0.2-5.8,0.2s-5.8-0.1-5.8-0.2"/>
<path class="st3" d="M35.7,101.4c0,0.2,1.5,0.4,3.3,0.4c1.8,0,3.3-0.2,3.3-0.4"/>
<path class="st3" d="M35.7,102.2c-0.1,2.8-1.5,6.1-4.2,7.6c0,0-0.5,0.3-0.5,0.8"/>
<path class="st3" d="M42.3,101.4c0.3-0.9,0.2-2.7,0-3.3 M35.7,101.4c-0.3-0.9-0.2-2.7,0-3.3"/>
<polyline class="st3" points="33.1,94.8 33.1,74.3 33.6,67.5 34.7,63.1 38.9,63.1 "/>
<path class="st3" d="M30.9,110.6c0,0.9,3.6,1.6,8,1.6c4.4,0,8-0.7,8-1.6"/>
<line class="st3" x1="35.6" y1="98.1" x2="33.1" y2="94.8"/>
<path class="st3" d="M44.8,94.8c0,0.7-11.6,0.7-11.6,0"/>
<polyline class="st3" points="44.8,94.8 44.8,74.3 44.3,67.5 43.2,63.1 38.9,63.1 "/>
<line class="st3" x1="42.3" y1="98.1" x2="44.8" y2="94.8"/>
<path class="st3" d="M42.2,102.3c0.1,2.8,1.5,6.1,4.2,7.6c0,0,0.5,0.3,0.5,0.8"/>
<path class="st3" d="M35.7,98.1c0,0.2,1.5,0.3,3.3,0.3c1.8,0,3.3-0.1,3.3-0.3"/>
<path class="st2" d="M83.6,110.6c0,0.9,3.1,1.6,6.9,1.6c3.8,0,6.9-0.7,6.9-1.6"/>
<path class="st2" d="M83.6,110.6V49.9 M97.3,49.9v60.7"/>
<polyline class="st2" points="90.4,48.5 88,48.5 88.2,37.5 89.4,16.9 90.4,16.1 "/>
<path class="st2" d="M83.6,49.9c0,0.4,3.1,0.6,6.9,0.6c3.8,0,6.9-0.3,6.9-0.6"/>
<line class="st3" x1="83.6" y1="49.9" x2="88" y2="48.5"/>
<line class="st3" x1="97.3" y1="49.9" x2="92.8" y2="48.5"/>
<polyline class="st2" points="90.4,48.5 92.8,48.5 92.7,37.5 91.5,16.9 90.4,16.1 "/>
<polyline class="st2" points="70.4,47.9 73.8,49.4 75.3,51.1 75.8,67.4 74,67.4 72.4,53.7 70.6,52.9 "/>
</svg>
