<?xml version="1.0" encoding="utf-8"?>
<!-- Generator: Adobe Illustrator 23.0.1, SVG Export Plug-In . SVG Version: 6.00 Build 0)  -->
<svg version="1.1" id="Слой_1" xmlns="http://www.w3.org/2000/svg" xmlns:xlink="http://www.w3.org/1999/xlink" x="0px" y="0px"
	 viewBox="0 0 128.2 128.2" style="enable-background:new 0 0 128.2 128.2;" xml:space="preserve">
<style type="text/css">
	
		.st0{fill-rule:evenodd;clip-rule:evenodd;fill:none;stroke:#616262;stroke-width:0.7498;stroke-linecap:round;stroke-linejoin:round;stroke-miterlimit:22.9256;}
	
		.st1{fill-rule:evenodd;clip-rule:evenodd;fill:none;stroke:#000003;stroke-width:1.4998;stroke-linecap:round;stroke-linejoin:round;stroke-miterlimit:22.9256;}
	.st2{fill-rule:evenodd;clip-rule:evenodd;fill:none;stroke:#616262;stroke-width:0.7498;stroke-miterlimit:22.9256;}
	
		.st3{fill-rule:evenodd;clip-rule:evenodd;fill:none;stroke:#1A1A18;stroke-width:1.4998;stroke-linecap:round;stroke-linejoin:round;stroke-miterlimit:22.9256;}
</style>
<g>
	<path class="st0" d="M21.4,55.9c-0.6,0.2-1,1.1-1,1.9l-4.8-1.2c0-1.2,0-3,0-4c0.3,0,1-0.1,1-0.5 M10.4,63.7
		c3.8,0.8,4.6,3.7,4.1,7.2c-1.3,8.9-5,17.3,3.4,34.2 M24.2,24l4.3,19.9l1.4,3 M23.8,34.5l0.4,9.3 M10.4,63.7l9.1,0.5 M19.5,49.8
		c0-1.6,1.3-2.9,2.9-2.9c1.6,0,2.9,1.3,2.9,2.9s-1.3,2.9-2.9,2.9C20.7,52.7,19.5,51.4,19.5,49.8 M20.9,34.2l-0.5,9.7
		c0.4,0,1.4-0.3,1.9-0.3 M20.4,24l-4.3,19.9l-1.4,3 M34.3,63.7l-9.1,0.5 M34.3,63.7c-3.8,0.8-4.6,3.7-4.1,7.2
		c1.3,8.9,5,17.3-3.4,34.2"/>
	<path class="st1" d="M28.4,48.5c0-0.9,0.6-1.6,1.6-1.6v-6.7L24.2,24h-1.9v6.7c1.9,1.9,1.9,5.7,0,7.6v5.3 M10,60.3l9.9,1.7
		 M17.9,105c0.5,1.7,1.6,4-0.8,4c-3.4,0-4.4-2.4-5.1-4.4c-0.7-2-1.3-4.2-1.8-6.3C9.5,96.1,8.8,92.8,8.5,88
		C8,77.3,13.8,67.2,10.3,63.6C10,63.3,9.1,62.8,9,62.3c-0.1-0.7,0-2.2,1.1-2c2.6-0.2,2.9-1.7,2.9-3.9c0-0.2,0.2-0.4,0.6-0.3
		c6.9,1.7,0,0,6.9,1.7c0.3,0.1,0.3,0.5,0.3,0.5l-0.8,3.6c0.3,0.1,0.5,0.1,0.4,0.4c-0.5,1.4,0-0.1-0.5,1.6c-0.1,0.2-0.2,0.1-0.3,0.1
		c-1.6,7.7-4.1,15.8-4.2,23.6C15.2,93.7,16.1,99.4,17.9,105L17.9,105z M22.3,43.6c3.4,0,6.2,2.8,6.2,6.2c0,0.8-0.2,1.7-0.5,2.4
		c0,0.3,0.7,0.5,1,0.5c0,1,0,2.8,0,4l-4.8,1.2c0-0.8-0.4-1.8-1-1.9c-0.3,0-0.6,0.1-1,0.1c-3.4,0-6.2-2.8-6.2-6.2
		c0-0.4,0-0.9,0.1-1.3c0-0.9-0.6-1.6-1.6-1.6v-6.7L20.4,24h1.9v6.7c-1.9,1.9-1.9,5.7,0,7.6V43.6L22.3,43.6z M34.6,60.3l-9.9,1.7
		 M26.8,105c-0.5,1.7-1.6,4,0.8,4c3.4,0,4.4-2.4,5.1-4.4c0.7-2,1.3-4.2,1.8-6.3c0.6-2.3,1.4-5.6,1.6-10.4
		c0.5-10.8-5.3-20.8-1.8-24.4c0.3-0.3,1.3-0.8,1.4-1.3c0.1-0.7,0-2.2-1.1-2c-2.6-0.2-2.9-1.7-2.9-3.9c0-0.2-0.2-0.4-0.6-0.3
		c-6.9,1.7,0,0-6.9,1.7c-0.3,0.1-0.3,0.5-0.3,0.5l0.8,3.6c-0.3,0.1-0.5,0.1-0.4,0.4c0.5,1.4,0-0.1,0.5,1.6c0.1,0.2,0.2,0.1,0.3,0.1
		c1.6,7.7,4.1,15.8,4.2,23.6C29.4,93.7,28.5,99.4,26.8,105z"/>
</g>
<g>
	<line class="st1" x1="109.6" y1="61.2" x2="109.6" y2="36.2"/>
	<polyline class="st1" points="107.5,63.2 107.6,61.3 111.5,61.2 	"/>
	<path class="st1" d="M111.5,36.1c-1.2,0-2.4,0.1-2.7,0.1"/>
	<line class="st1" x1="113.5" y1="61.2" x2="113.5" y2="36.2"/>
	<path class="st1" d="M111.5,36.1c1.2,0,2.4,0.1,2.7,0.1"/>
	<polyline class="st1" points="115.6,63.2 115.5,61.3 111.5,61.2 	"/>
	<line class="st1" x1="108.9" y1="36.2" x2="108.9" y2="19.4"/>
	<path class="st1" d="M111.5,19.2c-1.2,0-2.4,0.1-2.6,0.3"/>
	<line class="st1" x1="114.2" y1="36.2" x2="114.2" y2="19.4"/>
	<path class="st1" d="M111.5,19.2c1.2,0,2.4,0.1,2.6,0.3"/>
	<path class="st2" d="M111.5,100.9c1.3,0,2.4-1.1,2.4-2.4c0-1.3-1.1-2.4-2.4-2.4c-1.3,0-2.4,1.1-2.4,2.4
		C109.2,99.8,110.2,100.9,111.5,100.9z"/>
	<path class="st0" d="M111.5,66.2c-0.7,0-1.3-0.3-1.8-0.8"/>
	<line class="st0" x1="105" y1="65" x2="109.8" y2="65.4"/>
	<path class="st0" d="M111.5,66.2c0.7,0,1.3-0.3,1.8-0.8"/>
	<line class="st0" x1="118" y1="65" x2="113.3" y2="65.4"/>
	<path class="st0" d="M111.5,104.6c-2.5,0-4.8-0.1-6.3-0.3"/>
	<path class="st0" d="M111.5,104.6c2.5,0,4.8-0.1,6.3-0.3"/>
	<path class="st1" d="M111.5,109.1c-3.9-0.6-5.1-2.2-6.2-5.1c-0.5-1.8-1.8-9.2-2-12.5c-0.3-4.1,2.7-14.7,3.9-19.5
		c-0.3-2.4-0.2-4.3-1.9-6c-0.4-0.4-0.4-1.3-0.3-1.8c0.2-0.9,5.5-0.9,6.4-1"/>
	<path class="st1" d="M111.5,109.1c3.9-0.6,5.1-2.2,6.2-5.1c0.5-1.8,1.8-9.2,2-12.5c0.3-4.1-2.7-14.7-3.9-19.5
		c0.3-2.4,0.2-4.3,1.9-6c0.4-0.4,0.4-1.3,0.3-1.8c-0.2-0.9-5.5-0.9-6.4-1"/>
</g>
<g>
	<path class="st3" d="M52.9,59.9c-0.2,0-1,0.4-1.1,0.6c-1.3,4.3,8.1,13.2,1.4,15.9c-0.7,0.3-2.9,0.1-3.1,2.2c-0.1,1,1.4,2.2,2.1,3.6
		c0.4,0.6,0.4,1.4,0.4,1.9c-0.8,7.6-1.4,16-7,20.4c-1.5,3.6,6.3,6.8,8.9,2.2c5.4-10.3,6.8-22.4,9.5-29.5c1.3-4.1,6.4-5.1,10.2-3.2"
		/>
	<path class="st0" d="M80.9,55.6c2.5,0.9,6.8,2,8.7,2.5c1.1,0.3,0.5,3-0.7,2.9"/>
	<path class="st0" d="M64.7,53.7l12.5,7c1.9,1,2.5,3.4,1.5,5.3l0,0c-1,1.9-3.4,2.5-5.3,1.5l-12.5-7c-1.9-1-2.5-3.4-1.5-5.3l0,0
		C60.4,53.4,62.8,52.7,64.7,53.7z"/>
	<path class="st3" d="M48.8,42.8c0.5-1.2,2-2.3,2.3-2.1c1.1,0.9,1.9,1.8,2.7,2.5c0.2,0.1-4.2,6.1-5,5.6c-0.8-0.5,1.1-3,1.7-4
		C49.7,44.1,48.7,43.1,48.8,42.8z"/>
	<path class="st3" d="M50.6,44.9c0.4,0.4,1,0.9,1.3,1.2"/>
	<path class="st0" d="M45.5,37.9c0,0-0.9,1.8-0.8,1.9c0.3,0.3,1,0.9,1.4,1.2c0.1,0.1,1-1.5,1-1.5"/>
	<path class="st0" d="M56.9,48.8c-0.5,0.5-1.5,1.5-2.1,2.1"/>
	<path class="st0" d="M55.9,51.6c-0.3-0.3-1.5-0.9-1.7-0.9c-0.4,0.1-1.7,1.3-1.8,1.3"/>
	<path class="st3" d="M48,40.4c-0.2,0.5-0.8,1.6-1.2,2.2"/>
	<path class="st3" d="M88.4,59.5c0.5,0.2,1,0.9,0.4,1.5c-1.9,1.9-3.2,4.1-3.6,5.3c-1.2,3.6,5.7,12.6,8.2,21.7
		c0.5,1.8,3.8,12.7,6.9,17.7c-0.1,1.8-5.9,5.4-9.1-0.3c-2.9-4.1-5.1-17.9-12.1-26.5c-1.7-2.4-7-7.2-9.5-8.8c-5-3.2-10.1-5-14.9-8.5
		c-4.5-4.1-11-9.9-14.9-13.7c-1.3-0.7-0.9-4.8,0.1-5c1.5,0.6,3.1,1.7,4,2.2c0.6,0.6-0.4,1.5,0.2,2c3.9,2.4,7.3,4.5,10.1,5.9
		c1.4-0.1,3.2-5.5,9.2-4.5c3.6,1.3,6.5,2.4,6.7,1.8c0.2-0.5-1.7-1.4-1.1-1.2c3.9,2.2,8.6,4.7,11.8,6.5c-0.2,0.2-0.9,0.7-1,0.8
		C83.3,57.8,85.6,58.5,88.4,59.5z"/>
	<path class="st3" d="M57.8,49.8c0.1,0-2.3-2.2-5-4.8 M49.4,41.7c-2.4-2.3-4-3.9-4.3-4.3c-0.5-1.3,1.5-1.6,1.9-2.1
		c0.8-1,1.8-1.7,3.1-1.2c2.8,1.8,15.1,12.1,18.8,15.2"/>
</g>
</svg>
