<?xml version="1.0" encoding="utf-8"?>
<!-- Generator: Adobe Illustrator 23.0.1, SVG Export Plug-In . SVG Version: 6.00 Build 0)  -->
<svg version="1.1" id="Слой_1" xmlns="http://www.w3.org/2000/svg" xmlns:xlink="http://www.w3.org/1999/xlink" x="0px" y="0px"
	 viewBox="0 0 128.2 128.2" style="enable-background:new 0 0 128.2 128.2;" xml:space="preserve">
<style type="text/css">
	.st0{fill-rule:evenodd;clip-rule:evenodd;fill:none;stroke:#616262;stroke-width:0.7498;stroke-miterlimit:22.9256;}
	
		.st1{fill-rule:evenodd;clip-rule:evenodd;fill:none;stroke:#000003;stroke-width:1.4998;stroke-linecap:round;stroke-linejoin:round;stroke-miterlimit:22.9256;}
	
		.st2{fill-rule:evenodd;clip-rule:evenodd;fill:none;stroke:#616262;stroke-width:0.7498;stroke-linecap:round;stroke-linejoin:round;stroke-miterlimit:22.9256;}
</style>
<path class="st0" d="M64.8,94.7c7,0,12.8-5.8,12.8-12.8c0-7.1-5.7-12.8-12.8-12.8S52,74.8,52,81.8C52,88.9,57.8,94.7,64.8,94.7z"/>
<path class="st1" d="M64.1,93.3c-7.2,0-13.1-5.9-13.1-13.1c0-7.2,5.9-13.1,13.1-13.1"/>
<line class="st2" x1="23.4" y1="39.8" x2="51.3" y2="39.8"/>
<line class="st2" x1="23.4" y1="72.9" x2="51.3" y2="72.9"/>
<path class="st1" d="M51.3,64.7v10.8c0,1.9-1.6,3.5-3.5,3.5H26.9c-1.9,0-3.5-1.6-3.5-3.5V37.1c0-1.9,1.6-3.5,3.5-3.5h20.9
	c1.9,0,3.5,1.6,3.5,3.5l0,10.8"/>
<polyline class="st1" points="51.3,64.7 47.7,62.6 44.1,60.5 44.1,56.3 44.1,52.1 47.7,50 51.3,47.9 "/>
<path class="st0" d="M30.2,60.2c1.2,0,2.2-1,2.2-2.2s-1-2.2-2.2-2.2S28,56.8,28,58S29,60.2,30.2,60.2z"/>
<polyline class="st1" points="30.2,58 35.5,64.8 36.3,64.5 53.7,88.2 "/>
<path class="st1" d="M64.1,93.3c7.2,0,13.1-5.9,13.1-13.1c0-7.2-5.9-13.1-13.1-13.1"/>
<line class="st2" x1="104.8" y1="39.8" x2="76.9" y2="39.8"/>
<line class="st2" x1="104.8" y1="72.9" x2="76.9" y2="72.9"/>
<path class="st1" d="M76.9,64.7v10.8c0,1.9,1.6,3.5,3.5,3.5h20.9c1.9,0,3.5-1.6,3.5-3.5V37.1c0-1.9-1.6-3.5-3.5-3.5H80.4
	c-1.9,0-3.5,1.6-3.5,3.5v10.8"/>
<polyline class="st1" points="76.9,64.7 80.5,62.6 84.2,60.5 84.2,56.3 84.2,52.1 80.5,50 76.9,47.9 "/>
<path class="st0" d="M98,60.2c1.2,0,2.2-1,2.2-2.2s-1-2.2-2.2-2.2c-1.2,0-2.2,1-2.2,2.2S96.8,60.2,98,60.2z"/>
<polyline class="st1" points="98,58 92.7,64.8 91.9,64.5 74.5,88.2 "/>
</svg>
